<svg width="175" height="205" viewBox="0 0 175 205" fill="none" xmlns="http://www.w3.org/2000/svg">
<path d="M47.0309 149.285C38.6695 132.721 24.6205 132.368 10.2695 119.704C2.62529 112.954 -1.29433 103.027 1.85773 95.8171C4.70779 89.2933 12.0815 91.4763 17.3412 85.3614C26.2563 74.9874 12.5156 61.6125 10.3576 37.4988C10.3576 37.4988 6.92871 10.2207 21.5314 2.22474C36.134 -5.76493 57.5567 10.334 57.5567 10.334C76.7773 24.665 80.2817 45.413 93.821 43.4942C101.805 42.3619 103.938 34.9761 110.972 36.0896C118.748 37.3227 124.996 45.9729 126.562 56.0512C129.5 74.9622 122.221 86.9845 131.671 102.951C140.555 117.968 157.856 86.6322 169.886 115.829C185.218 153.041 158.894 200.029 136.515 212.278C114.13 224.526 60.3627 221.368 37.2791 188.403C19.1658 162.534 54.8891 164.849 47.0309 149.272V149.285Z" fill="#EDF8EE"/>
<path d="M137.711 144.026C136.018 147.071 132.652 153.242 131.01 156.312C129.903 158.369 128.739 160.389 127.594 162.421C125.297 166.497 123.486 170.8 121.881 175.198C121.416 176.507 120.975 177.821 120.573 179.161C119.453 177.136 118.327 175.104 117.2 173.09C109.499 159.414 100.54 143.428 91.2037 126.776C92.8961 122.491 94.1293 118.088 95.2366 113.633C96.476 108.726 96.973 103.681 97.7909 98.6984C99.3827 89.0102 100.993 78.4097 102.346 68.7214L101.975 68.646C100.704 73.5404 99.5337 78.46 98.3068 83.3608C97.4134 87.0285 95.6644 94.4331 94.8276 98.1134C94.2614 100.573 93.6259 103.02 93.0156 105.474C91.7888 110.387 91.0905 115.395 90.6186 120.44C90.4802 122.013 90.3732 123.592 90.3166 125.178C73.6251 95.3956 55.8327 63.632 41.9788 39.1597L41.6453 39.3421C52.7939 60.392 72.8702 98.0442 88.0453 126.411C84.5032 124.303 80.8101 122.516 77.0603 120.824C72.4549 118.723 67.579 117.326 62.8289 115.628C53.5866 112.325 43.4384 108.833 34.1521 105.763L34.0137 106.116C38.6002 108.242 43.2245 110.28 47.8299 112.363C51.2777 113.898 58.2487 116.949 61.7153 118.434C64.0369 119.434 66.327 120.497 68.6297 121.541C73.2414 123.63 78.0418 125.222 82.924 126.593C84.8933 127.134 86.8814 127.631 88.9073 128.027C92.8835 135.457 96.4949 142.195 99.4834 147.763C105.272 158.753 111.192 169.869 117.232 181.005C113.633 179.96 109.978 179.249 106.284 178.639C101.679 177.853 96.9919 177.828 92.3425 177.469C83.3016 176.777 73.4175 176.148 64.3955 175.695L64.3515 176.072C68.9506 176.884 73.5623 177.601 78.1677 178.369C81.6091 178.922 88.555 179.973 92.009 180.476C94.318 180.816 96.6144 181.219 98.9171 181.602C103.535 182.37 108.197 182.609 112.878 182.615C114.583 182.609 116.288 182.565 118.006 182.433C131.369 207.012 145.305 231.623 159.637 254.918L159.97 254.736C147.834 229.798 134.81 204.904 121.353 180.583C123.794 177.337 125.876 173.889 127.858 170.354C130.167 166.29 131.797 161.899 133.709 157.646C137.446 149.386 141.404 140.308 144.908 131.978L144.568 131.808C142.234 135.854 139.988 139.949 137.698 144.013L137.711 144.026Z" fill="#B3D5B4"/>
</svg>
