<svg width="108" height="279" viewBox="0 0 108 279" fill="none" xmlns="http://www.w3.org/2000/svg">
<path d="M45.9547 221.599C46.3938 209.153 108.307 182.194 100.835 159.793C93.3619 137.393 53.6589 171.209 51.9664 158.021C50.2738 144.833 109.784 116.133 107.445 91.9285C105.106 67.7157 72.0454 87.6655 66.5447 77.6467C61.0439 67.6278 84.2206 6.4451 67.6145 0.649339C51.0084 -5.14642 31.0411 57.154 20.5026 61.5687C9.9641 65.9833 -3.48845 29.7958 -20.3979 47.2868C-37.2995 64.7779 -8.606 124.284 -18.1386 133.545C-27.6711 142.813 -37.6907 91.6332 -57.4823 104.51C-77.2739 117.387 -45.6105 177.029 -53.0194 187.04C-62.512 199.869 -96.3071 151.227 -109.177 188.117C-117.855 212.993 -29.2998 278.095 -29.2998 278.095C-29.2998 278.095 80.5321 282.279 89.2264 257.411C102.12 220.529 45.3878 237.549 45.9467 221.607L45.9547 221.599Z" fill="#B3D5B4"/>
<path d="M-20.7422 253.076C-12.8144 224.856 -3.05827 197.226 7.12895 169.756C14.5458 149.176 29.635 107.727 37.2036 87.2026L37.5149 87.3144C30.633 108.134 16.6695 149.886 9.64382 170.634C2.7459 191.494 -4.2159 212.322 -12.2395 232.783C-14.8582 239.625 -17.5886 246.426 -20.4308 253.188L-20.7422 253.076Z" fill="#B3D5B4"/>
</svg>
