<svg width="236" height="236" viewBox="0 0 236 236" fill="none" xmlns="http://www.w3.org/2000/svg">
<path d="M219.581 27.5777C209.003 48.3738 183.774 64.6115 183.774 64.6115C183.774 64.6115 179.918 38.8659 192.636 13.8707C198.081 3.17326 208.524 -2.43089 215.972 1.35311C223.413 5.13712 225.034 16.8803 219.589 27.5857L219.581 27.5777Z" fill="#67787F"/>
<path d="M217.831 93.6381C195.429 98.875 167.15 90.1096 167.15 90.1096C167.15 90.1096 184.092 70.7744 211.021 64.4837C222.549 61.7933 233.415 66.1282 235.299 74.1832C237.184 82.2302 229.367 90.9478 217.839 93.6381H217.831Z" fill="#67787F"/>
<path d="M189.37 141.745C166.512 144.347 139.439 132.365 139.439 132.365C139.439 132.365 158.513 115.129 185.984 112C197.744 110.658 208.035 116.231 208.97 124.445C209.904 132.66 201.13 140.404 189.37 141.745Z" fill="#67787F"/>
<path d="M155.334 193.148C132.405 191.304 108.143 174.332 108.143 174.332C108.143 174.332 130.178 161.087 157.737 163.299C169.537 164.249 178.559 171.697 177.896 179.936C177.234 188.174 167.134 194.09 155.334 193.14V193.148Z" fill="#67787F"/>
<path d="M106.475 233.926C84.3206 227.755 63.7227 206.472 63.7227 206.472C63.7227 206.472 87.8734 197.659 114.507 205.083C125.908 208.26 133.357 217.289 131.137 225.256C128.918 233.223 117.876 237.103 106.475 233.926Z" fill="#67787F"/>
<path d="M165.809 58.4328C167.885 81.3444 155.271 108.128 155.271 108.128C155.271 108.128 138.481 88.6649 135.99 61.1311C134.92 49.34 140.733 39.1854 148.972 38.443C157.203 37.7005 164.748 46.6497 165.809 58.4408V58.4328Z" fill="#67787F"/>
<path d="M130.785 114.881C131.975 137.849 118.338 164.137 118.338 164.137C118.338 164.137 102.307 144.044 100.878 116.43C100.263 104.607 106.467 94.6839 114.722 94.2528C122.977 93.8217 130.17 103.058 130.777 114.881H130.785Z" fill="#67787F"/>
<path d="M86.8583 154.549C87.96 175.936 75.2659 200.413 75.2659 200.413C75.2659 200.413 60.3364 181.7 59.0111 155.986C58.4442 144.978 64.2165 135.733 71.9048 135.342C79.5931 134.943 86.2914 143.549 86.8583 154.549Z" fill="#67787F"/>
<path d="M1.23359 227.906L0.90625 224.545C1.10584 224.529 20.8096 222.526 45.2717 213.329C59.6105 207.941 72.7596 201.163 84.344 193.196C98.7945 183.257 110.85 171.426 120.183 158.014C146.928 119.575 184.907 58.5361 185.29 57.9214L188.156 59.7016C187.773 60.3163 149.755 121.427 122.953 159.938C113.381 173.693 101.022 185.827 86.2122 196.006C74.3883 204.133 60.9837 211.03 46.3735 216.514C21.5122 225.847 1.44116 227.874 1.24156 227.898L1.23359 227.906Z" fill="#67787F"/>
</svg>
