<svg width="157" height="400" viewBox="0 0 157 400" fill="none" xmlns="http://www.w3.org/2000/svg">
<path d="M60.612 22.0236C68.7444 50.7505 59.151 87.9258 59.151 87.9258C59.151 87.9258 33.1499 67.0958 23.3829 32.5561C19.2043 17.7739 24.1492 3.43089 34.427 0.51939C44.7049 -2.39211 56.4335 7.23115 60.612 22.0134V22.0236Z" fill="#67787F"/>
<path d="M116.375 85.5965C99.8858 109.982 65.7013 126.317 65.7013 126.317C65.7013 126.317 64.8125 93.432 84.6428 64.1228C93.1328 51.5778 107.109 46.2145 115.875 52.1397C124.641 58.0649 124.865 73.0412 116.375 85.5862V85.5965Z" fill="#67787F"/>
<path d="M131.446 155.534C112.239 177.835 76.3887 190.104 76.3887 190.104C76.3887 190.104 79.3208 157.342 102.41 130.526C112.29 119.053 126.807 115.345 134.827 122.251C142.847 129.157 141.335 144.051 131.446 155.534Z" fill="#67787F"/>
<path d="M144.134 233.389C120.993 251.583 83.4473 256.721 83.4473 256.721C83.4473 256.721 92.6319 225.134 120.452 203.272C132.364 193.915 147.311 193.067 153.849 201.382C160.388 209.698 156.036 224.031 144.123 233.389H144.134Z" fill="#67787F"/>
<path d="M133.671 314.144C107.486 327.598 69.6543 325.494 69.6543 325.494C69.6543 325.494 84.6828 296.236 116.16 280.064C129.636 273.138 144.47 275.161 149.313 284.57C154.155 293.978 147.147 307.218 133.671 314.144Z" fill="#67787F"/>
<path d="M36.9107 97.7331C58.7639 117.45 70.1962 153.573 70.1962 153.573C70.1962 153.573 37.5032 149.875 11.2365 126.174C-0.0118751 116.03 -3.37311 101.431 3.70695 93.5753C10.7972 85.7194 25.6623 87.5786 36.9005 97.7229L36.9107 97.7331Z" fill="#67787F"/>
<path d="M53.0629 181.196C74.1396 201.74 84.1722 238.282 84.1722 238.282C84.1722 238.282 51.653 233.327 26.316 208.626C15.466 198.052 12.6667 183.341 20.0532 175.761C27.4398 168.181 42.2232 170.612 53.0629 181.186V181.196Z" fill="#67787F"/>
<path d="M46.2703 256.619C65.8963 275.754 75.2342 309.772 75.2342 309.772C75.2342 309.772 44.9524 305.165 21.3624 282.159C11.2685 272.311 8.65308 258.612 15.5288 251.563C22.4045 244.514 36.1662 246.771 46.2703 256.619Z" fill="#67787F"/>
<path d="M29.5761 399.937L26.3477 397.066C26.5111 396.882 43.2867 377.881 58.2846 347.979C67.0708 330.459 73.5379 312.673 77.4917 295.123C82.4365 273.23 83.4785 251.634 80.5872 230.937C72.3118 171.583 54.9437 81.2445 54.77 80.3353L59.0099 79.5181C59.1836 80.4273 76.5722 170.878 84.868 230.334C87.8308 251.573 86.7581 273.71 81.6907 296.144C77.6449 314.052 71.045 332.186 62.0851 350.033C46.842 380.404 29.7498 399.743 29.5761 399.937Z" fill="#67787F"/>
</svg>
