<svg width="42" height="53" viewBox="0 0 42 53" fill="none" xmlns="http://www.w3.org/2000/svg">
<path d="M21 0C13.7629 0 7.875 5.94395 7.875 13.25V21.2H5.25C3.85761 21.2 2.52225 21.7584 1.53769 22.7523C0.553123 23.7463 0 25.0944 0 26.5V47.7C0 49.1056 0.553123 50.4537 1.53769 51.4477C2.52225 52.4416 3.85761 53 5.25 53H36.75C38.1424 53 39.4777 52.4416 40.4623 51.4477C41.4469 50.4537 42 49.1056 42 47.7V26.5C42 25.0944 41.4469 23.7463 40.4623 22.7523C39.4777 21.7584 38.1424 21.2 36.75 21.2H34.125V13.25C34.125 5.94395 28.2371 0 21 0ZM13.125 13.25C13.125 8.8669 16.6582 5.3 21 5.3C25.3417 5.3 28.875 8.8669 28.875 13.25V21.2H13.125V13.25ZM24.107 41.3501C23.8198 41.5619 23.625 41.8857 23.625 42.2425V46.7C23.625 47.2523 23.1773 47.7 22.625 47.7H19.375C18.8227 47.7 18.375 47.2523 18.375 46.7V42.2429C18.375 41.8859 18.18 41.5619 17.8924 41.3502C17.1982 40.8392 16.6368 40.1614 16.2614 39.3746C15.8025 38.4128 15.6431 37.3331 15.8043 36.2779C15.9655 35.2227 16.4396 34.2417 17.1643 33.464C17.8889 32.6864 18.83 32.1487 19.8634 31.9219C20.631 31.7506 21.4269 31.7553 22.1924 31.9359C22.9579 32.1165 23.6735 32.4682 24.2865 32.9651C24.8994 33.4621 25.394 34.0916 25.7339 34.8072C26.0737 35.5229 26.2501 36.3064 26.25 37.1C26.2485 38.0268 26.0051 38.9369 25.5442 39.7385C25.1799 40.3722 24.6898 40.9204 24.107 41.3501Z" fill="#67787F"/>
</svg>
