<svg width="321" height="322" viewBox="0 0 321 322" fill="none" xmlns="http://www.w3.org/2000/svg">
<path d="M17.2292 146.944L3.6993 145.129L0 144.632L1.64413 132.353L3.88769 132.661C3.64792 134.305 3.39103 136.189 3.09988 138.33L2.62034 141.875L9.36814 142.783L9.64216 140.727C9.93331 138.501 10.1902 136.566 10.3615 134.939L12.605 135.247C12.3481 136.857 12.0741 138.792 11.783 141.018L11.5089 143.074L19.1473 144.101L19.644 140.453C19.9523 138.158 20.192 136.24 20.3804 134.699L22.624 134.99L20.9456 147.475L17.2292 146.978V146.944Z" fill="#344966"/>
<path d="M25.3483 120.193C24.4748 120.467 23.7555 120.707 23.1903 120.93L16.5967 123.156L21.2893 128.174L23.5671 130.589L22.7279 133.809C21.7003 132.696 20.9296 131.822 20.4159 131.206L14.0106 124.064L4.98498 127.13L2.41602 127.986L3.27234 124.715H3.30659C4.40268 124.321 5.22474 124.047 5.77279 123.841L12.2979 121.632L7.7252 116.597L7.10865 115.946C6.78325 115.535 6.37221 115.073 5.9098 114.593L6.73187 111.493L8.51301 113.514L14.8669 120.741L24.0295 117.624C25.4681 117.128 26.5471 116.751 27.2664 116.511L26.393 119.834L25.3483 120.193Z" fill="#344966"/>
<path d="M24.8 112.606L12.1607 107.468L8.70117 106.064L11.0304 100.344C12.0751 97.7919 13.291 96.0792 14.6783 95.2058C16.0826 94.3323 17.6583 94.2638 19.4394 94.9831C21.2548 95.7196 22.3852 96.9527 22.8304 98.6653C23.2757 100.378 22.9675 102.536 21.9056 105.139L20.878 107.64L25.9646 109.712L29.4241 111.116L28.2595 113.993L24.8 112.589V112.606ZM19.8162 104.334C20.5184 102.587 20.741 101.2 20.4841 100.138C20.2272 99.0764 19.4908 98.3057 18.2748 97.809C17.1445 97.3466 16.1512 97.3808 15.312 97.9289C14.4728 98.4769 13.7363 99.573 13.0684 101.2L11.9209 104.026L18.8057 106.817L19.8162 104.334Z" fill="#344966"/>
<path d="M36.3085 93.6811C34.6472 94.6573 32.849 95.1197 30.9479 95.0684C29.0469 95.017 27.163 94.4518 25.3305 93.3557C23.4979 92.2596 22.1107 90.8895 21.1688 89.2454C20.2268 87.6013 19.8158 85.8201 19.8843 83.8848C19.9699 81.9495 20.5865 80.0314 21.7168 78.1304C22.8471 76.2293 24.2515 74.7907 25.9128 73.7974C27.574 72.804 29.3552 72.3416 31.2562 72.393C33.1572 72.4444 35.024 73.0267 36.8908 74.1399C38.7233 75.236 40.1105 76.6061 41.0696 78.2674C42.0287 79.9286 42.4397 81.7098 42.3541 83.6451C42.2685 85.5803 41.6519 87.4985 40.5216 89.3995C39.3912 91.3006 37.9869 92.7392 36.3085 93.7154V93.6811ZM31.3247 92.0712C32.7633 92.1569 34.1163 91.8657 35.3494 91.1635C36.5825 90.4785 37.6101 89.468 38.415 88.0979C39.2371 86.7278 39.6481 85.3406 39.6653 83.9191C39.6653 82.5147 39.2885 81.196 38.5349 79.9629C37.7814 78.7298 36.6681 77.6851 35.2124 76.8116C33.7738 75.9553 32.3352 75.4758 30.8965 75.4073C29.4579 75.3216 28.1221 75.6299 26.9061 76.2978C25.673 76.9658 24.6454 77.9933 23.8405 79.3635C23.0184 80.7336 22.6074 82.1208 22.5902 83.5252C22.5902 84.9295 22.9499 86.2483 23.7035 87.4814C24.457 88.7145 25.5702 89.7763 27.026 90.6326C28.4646 91.4889 29.9032 91.9685 31.3418 92.0541L31.3247 92.0712Z" fill="#344966"/>
<path d="M47.834 75.0304C45.9158 75.3215 43.9977 74.8248 42.0624 73.5404L43.9121 71.2968C45.2308 72.136 46.5153 72.4957 47.7655 72.3929C49.0328 72.273 50.1632 71.6222 51.1394 70.4405C51.9443 69.4643 52.3554 68.5223 52.3725 67.5804C52.3896 66.6555 52.0128 65.8677 51.2422 65.2341C50.7112 64.7888 50.1461 64.549 49.5638 64.5147C48.9643 64.4634 48.2793 64.5833 47.4743 64.8744C46.6694 65.1484 45.4706 65.6451 43.8778 66.3644C42.5419 66.9981 41.3774 67.4434 40.4183 67.7174C39.4592 67.9914 38.5515 68.077 37.7294 67.9743C36.9074 67.8715 36.1195 67.5119 35.3831 66.9124C34.5782 66.2445 34.0473 65.4567 33.8075 64.5147C33.5677 63.5899 33.5848 62.5966 33.9102 61.5519C34.2185 60.5072 34.7837 59.4796 35.6229 58.4691C36.993 56.825 38.5172 55.8488 40.1956 55.5576C41.874 55.2665 43.5867 55.6775 45.2993 56.7565L43.4839 58.9487C42.4049 58.2636 41.3431 57.9896 40.2813 58.1095C39.2366 58.2294 38.2603 58.8288 37.3869 59.8906C36.6162 60.8155 36.2223 61.6889 36.2223 62.4938C36.2223 63.2988 36.5306 63.9667 37.1814 64.4976C37.6952 64.9258 38.2432 65.1484 38.8255 65.1827C39.4078 65.1998 40.0757 65.097 40.8122 64.823C41.5486 64.5661 42.6105 64.1037 43.9806 63.4529C45.5219 62.7679 46.7893 62.2712 47.7826 61.98C48.776 61.6889 49.7008 61.5861 50.5742 61.6889C51.4305 61.7917 52.2697 62.1856 53.0576 62.8364C53.9652 63.5899 54.5647 64.4634 54.8558 65.4567C55.147 66.4672 55.1298 67.5119 54.8044 68.6251C54.479 69.7383 53.8796 70.8173 53.0062 71.8791C51.4991 73.6945 49.7864 74.7563 47.8683 75.0475L47.834 75.0304Z" fill="#344966"/>
<path d="M57.3388 60.6959L47.6624 51.0709L45.0078 48.4334L47.2 46.2412L49.8546 48.8787L59.531 58.5208L62.1856 61.1583L59.9934 63.3505L57.3388 60.713V60.6959Z" fill="#344966"/>
<path d="M50.918 42.4391L63.0435 32.3003L64.4821 34.0129C63.1291 35.0919 61.5706 36.3764 59.8066 37.8492L59.5668 38.0376L69.3117 49.7178L71.7094 52.5951L69.346 54.5646L66.9483 51.6874L57.2034 40.0072L56.9978 40.1956C55.2167 41.6856 53.6753 43.0043 52.3566 44.1346L50.918 42.422V42.4391Z" fill="#344966"/>
<path d="M77.3448 43.6212L69.5866 32.3863L67.4629 29.3036L70.0147 27.5396L72.1384 30.6223L79.8967 41.8572L82.0203 44.94L79.4685 46.704L77.3448 43.6212Z" fill="#344966"/>
<path d="M89.4158 39.0479C87.4805 39.0137 85.7165 38.4827 84.1066 37.438C82.4968 36.4105 81.1951 34.9376 80.2018 33.0537C79.2085 31.1526 78.7289 29.2687 78.7974 27.3677C78.8488 25.4838 79.414 23.7369 80.493 22.127C81.5719 20.5172 83.0962 19.1984 85.0486 18.1708C87.001 17.1433 88.9534 16.6295 90.8887 16.6637C92.824 16.6808 94.588 17.2118 96.1807 18.2393C97.7735 19.2669 99.0751 20.7398 100.086 22.658C101.079 24.5419 101.558 26.4429 101.507 28.3439C101.456 30.2449 100.89 31.9918 99.8115 33.6017C98.7326 35.2116 97.2083 36.5303 95.2559 37.5579C93.3035 38.5855 91.3511 39.0822 89.4158 39.0479ZM85.9905 35.0746C87.1894 35.8967 88.4739 36.3419 89.8954 36.3933C91.2997 36.4447 92.7041 36.1022 94.1084 35.3657C95.5299 34.6293 96.6089 33.6531 97.3453 32.4543C98.0818 31.2554 98.4414 29.9367 98.4414 28.4809C98.4414 27.0423 98.0475 25.5523 97.2426 24.0623C96.4548 22.5723 95.4786 21.4249 94.2968 20.6199C93.1151 19.7978 91.8135 19.3697 90.4091 19.3012C89.0048 19.2327 87.6004 19.5923 86.1789 20.3288C84.7574 21.0823 83.6785 22.0414 82.942 23.2403C82.2056 24.422 81.8288 25.7407 81.8459 27.1964C81.8459 28.6522 82.257 30.1251 83.0448 31.6151C83.8326 33.1051 84.8088 34.2525 86.0077 35.0746H85.9905Z" fill="#344966"/>
<path d="M106.235 13.958L110.26 26.1862L111.425 29.7314L108.53 30.6905L107.366 27.1282L103.084 14.1635L101.902 10.6184L104.985 9.60789L119.714 22.1787L115.706 10.0018L114.542 6.45664L117.436 5.49756L118.601 9.04272L124.047 25.5526L120.964 26.563L106.218 13.9409L106.235 13.958Z" fill="#344966"/>
<path d="M136.738 19.1646L135.042 5.61762L134.58 1.90119L137.646 1.52441L138.108 5.24084L139.975 20.1751L143.349 19.7469C145.849 19.4386 147.922 19.1646 149.566 18.9077L149.857 21.2883L137.166 22.8639L136.704 19.1475L136.738 19.1646Z" fill="#344966"/>
<path d="M154.036 19.4727C152.632 18.0512 151.93 15.7563 151.93 12.5879V3.73355V0H155.03V3.75068V12.742C155.03 15.0027 155.423 16.6469 156.228 17.6573C157.033 18.6678 158.301 19.1644 160.03 19.1644C161.76 19.1644 163.028 18.6506 163.85 17.6402C164.655 16.6126 165.066 14.9856 165.066 12.7592V3.75068V0.0171264H168.114V3.76781V12.6222C168.114 15.7563 167.395 18.0341 166.008 19.4727C164.62 20.9113 162.617 21.6306 159.996 21.6306C157.41 21.6306 155.423 20.9113 154.019 19.4898L154.036 19.4727Z" fill="#344966"/>
<path d="M173.559 17.7769L175.666 4.28133L176.248 0.582031L182.927 1.62674C185.359 2.00352 187.432 2.77421 189.127 3.9388C190.84 5.1034 192.073 6.54202 192.844 8.27178C193.614 10.0015 193.837 11.9026 193.512 13.9577C193.186 16.03 192.398 17.7769 191.148 19.1984C189.898 20.6199 188.288 21.6132 186.301 22.1955C184.315 22.7778 182.105 22.8806 179.691 22.5038L172.994 21.4591L173.576 17.7598L173.559 17.7769ZM179.93 20.2431C181.763 20.5343 183.441 20.4486 184.931 19.9862C186.421 19.5238 187.637 18.736 188.596 17.6228C189.538 16.5096 190.138 15.1395 190.395 13.5296C190.651 11.9197 190.497 10.4297 189.932 9.0596C189.367 7.70661 188.459 6.57627 187.192 5.6857C185.925 4.79512 184.349 4.1957 182.499 3.90455L178.971 3.35651L176.402 19.7122L179.93 20.2603V20.2431Z" fill="#344966"/>
<path d="M196.663 22.1447L200.294 8.9916L201.287 5.37793L204.267 6.2L203.274 9.81367L199.643 22.9667L198.65 26.5804L195.67 25.7583L196.663 22.1447Z" fill="#344966"/>
<path d="M207.897 28.447C206.681 26.9399 205.962 25.2444 205.722 23.3433C205.482 21.4423 205.773 19.507 206.578 17.5204C207.383 15.5337 208.531 13.9581 210.021 12.7935C211.511 11.6289 213.206 10.9267 215.142 10.7212C217.06 10.5157 219.046 10.8239 221.102 11.6631C223.157 12.5023 224.784 13.6669 226.017 15.174C227.25 16.6812 227.969 18.3596 228.209 20.2435C228.449 22.1274 228.14 24.0626 227.336 26.0664C226.616 27.8133 225.606 29.2348 224.287 30.348C222.968 31.4612 221.461 32.1977 219.783 32.5573L221.341 38.5345L221.204 38.877L218.447 37.7466L217.197 32.8314C215.775 32.8485 214.319 32.5573 212.795 31.9408C210.74 31.1016 209.113 29.9199 207.897 28.4299V28.447ZM208.753 23.2748C208.89 24.7135 209.387 25.9979 210.243 27.1111C211.1 28.2244 212.264 29.0807 213.72 29.6801C214.662 30.074 215.621 30.3138 216.58 30.4337L214.319 21.5108L217.18 22.6925L219.149 30.1939C220.279 29.8856 221.29 29.2862 222.163 28.3785C223.054 27.4708 223.79 26.2891 224.39 24.8333C225.023 23.292 225.28 21.802 225.143 20.3633C225.006 18.9247 224.51 17.6574 223.671 16.5442C222.814 15.4309 221.65 14.5746 220.177 13.9581C218.704 13.3587 217.265 13.1531 215.878 13.3415C214.491 13.5299 213.241 14.0951 212.144 15.037C211.031 15.9619 210.158 17.2121 209.524 18.7877C208.89 20.3291 208.634 21.8362 208.771 23.2748H208.753Z" fill="#344966"/>
<path d="M229.046 37.3356C228.601 35.3832 229.201 33.0711 230.862 30.3823L235.52 22.8466L237.49 19.6611L240.127 21.2881L238.158 24.4737L233.431 32.1291C232.232 34.0644 231.718 35.6572 231.889 36.9417C232.044 38.2261 232.866 39.3222 234.339 40.2299C235.811 41.1376 237.164 41.3774 238.38 40.9321C239.613 40.4868 240.812 39.3222 241.977 37.4212L246.704 29.7657L248.673 26.5802L251.259 28.173L249.29 31.3585L244.631 38.8941C242.987 41.5487 241.206 43.1414 239.254 43.6381C237.319 44.1348 235.229 43.6895 233.003 42.3194C230.81 40.9664 229.475 39.3051 229.029 37.3527L229.046 37.3356Z" fill="#344966"/>
<path d="M246.449 46.2758L255.098 35.7088L257.461 32.8145L267.052 40.6583L265.613 42.4052C264.346 41.3434 262.873 40.1274 261.212 38.7573L258.455 36.4966L254.139 41.7716L255.731 43.0732C257.478 44.4947 258.985 45.7106 260.287 46.7211L258.848 48.468C257.598 47.4061 256.108 46.1559 254.378 44.7344L252.786 43.4157L247.905 49.3757L250.748 51.7049C252.529 53.1606 254.036 54.3766 255.252 55.3528L253.813 57.0997L244.068 49.1188L246.432 46.2244L246.449 46.2758Z" fill="#344966"/>
<path d="M263.902 65.2174C263.953 63.2821 264.775 61.4667 266.368 59.7884L268.252 61.9977C267.19 63.1451 266.625 64.344 266.505 65.6113C266.402 66.8787 266.847 68.0947 267.841 69.2764C268.663 70.2355 269.519 70.8178 270.444 70.989C271.352 71.1603 272.191 70.9205 272.961 70.2697C273.492 69.8244 273.818 69.3106 273.972 68.7455C274.109 68.1632 274.126 67.461 273.972 66.6218C273.835 65.7826 273.561 64.5152 273.133 62.8197C272.739 61.3982 272.499 60.1823 272.396 59.1718C272.293 58.1785 272.362 57.2708 272.602 56.483C272.842 55.678 273.338 54.9758 274.058 54.3593C274.845 53.6742 275.719 53.2974 276.678 53.2118C277.637 53.1262 278.596 53.3317 279.572 53.8112C280.548 54.3079 281.456 55.0443 282.312 56.0205C283.7 57.6476 284.385 59.3088 284.385 61.0215C284.385 62.7341 283.683 64.344 282.33 65.834L280.48 63.6589C281.336 62.717 281.799 61.7065 281.867 60.6447C281.936 59.5828 281.525 58.5381 280.617 57.4934C279.829 56.5686 279.041 56.0377 278.253 55.8835C277.466 55.7294 276.746 55.9349 276.113 56.483C275.599 56.9111 275.291 57.4249 275.154 57.9901C275.034 58.5553 275.034 59.2232 275.154 59.9939C275.291 60.7646 275.547 61.8778 275.941 63.3506C276.352 64.9777 276.626 66.3135 276.746 67.3411C276.866 68.3687 276.798 69.3106 276.541 70.1327C276.284 70.9548 275.77 71.7083 274.982 72.3762C274.092 73.1469 273.133 73.5751 272.088 73.695C271.043 73.8149 270.016 73.6094 268.971 73.0956C267.926 72.5818 266.967 71.8111 266.077 70.7492C264.535 68.951 263.799 67.0842 263.85 65.1489L263.902 65.2174Z" fill="#344966"/>
<path d="M275.753 79.5863C276.198 77.6339 277.74 75.8013 280.411 74.1058L287.861 69.3276L291.013 67.3066L292.691 69.9099L289.54 71.9308L281.97 76.7775C280.052 77.9935 278.904 79.2266 278.493 80.4426C278.082 81.6586 278.339 83.0115 279.281 84.4673C280.206 85.923 281.336 86.7108 282.638 86.8479C283.939 86.9849 285.532 86.4368 287.399 85.238L294.969 80.3912L298.12 78.3703L299.764 80.9392L296.613 82.9602L289.163 87.7384C286.526 89.4168 284.231 90.0676 282.261 89.6908C280.292 89.2969 278.613 87.9953 277.192 85.786C275.804 83.611 275.325 81.5387 275.753 79.5863Z" fill="#344966"/>
<path d="M287.621 95.1541L300.038 89.4853L303.446 87.9268L306.204 93.9724C307.214 96.1646 307.557 98.0656 307.248 99.6412C306.94 101.217 305.981 102.381 304.405 103.101C303.001 103.752 301.631 103.82 300.295 103.323C298.959 102.827 297.829 101.851 296.887 100.361L290.875 110.79L290.704 110.876L289.283 107.759L295.38 97.9457L294.284 95.5309L288.923 97.9799L285.515 99.5385L284.23 96.7126L287.639 95.1541H287.621ZM297.469 97.2264C298.206 98.8534 299.045 99.9152 299.952 100.429C300.86 100.943 301.888 100.943 303.052 100.412C304.097 99.9324 304.696 99.2302 304.851 98.2882C305.005 97.3463 304.714 96.096 303.994 94.5204L302.693 91.6774L296.27 94.6061L297.469 97.2264Z" fill="#344966"/>
<path d="M297.726 120.689L310.965 117.384L314.596 116.476L315.35 119.473L311.719 120.381L297.127 124.029L297.949 127.334C298.566 129.766 299.079 131.804 299.525 133.414L297.196 133.996L294.096 121.597L297.726 120.689Z" fill="#344966"/>
<path d="M301.407 136.754L314.937 135.007L318.653 134.527L320.246 146.824L318.002 147.115C317.814 145.471 317.574 143.57 317.3 141.429L316.838 137.884L310.09 138.758L310.347 140.813C310.638 143.039 310.895 144.974 311.152 146.584L308.908 146.875C308.737 145.248 308.497 143.313 308.223 141.087L307.966 139.032L300.328 140.025L300.807 143.673C301.099 145.951 301.355 147.886 301.578 149.427L299.334 149.718L297.725 137.233L301.441 136.754H301.407Z" fill="#344966"/>
<path d="M300.979 154.24C302.264 152.785 304.062 151.928 306.357 151.671V154.583C304.832 154.771 303.617 155.319 302.726 156.227C301.835 157.135 301.39 158.351 301.407 159.892C301.407 161.159 301.715 162.153 302.298 162.872C302.88 163.591 303.668 163.951 304.678 163.951C305.363 163.951 305.946 163.763 306.425 163.42C306.905 163.078 307.367 162.53 307.795 161.81C308.224 161.074 308.823 159.926 309.594 158.368C310.21 157.015 310.81 155.936 311.375 155.097C311.94 154.257 312.574 153.624 313.276 153.179C313.978 152.733 314.8 152.493 315.759 152.493C316.804 152.493 317.712 152.767 318.499 153.316C319.287 153.864 319.904 154.651 320.332 155.645C320.76 156.638 320.983 157.803 321 159.104C321 161.245 320.469 162.958 319.356 164.259C318.242 165.561 316.684 166.349 314.68 166.623V163.78C315.93 163.608 316.924 163.129 317.643 162.358C318.379 161.588 318.739 160.509 318.722 159.138C318.722 157.923 318.448 157.015 317.951 156.398C317.455 155.782 316.77 155.473 315.93 155.473C315.262 155.473 314.697 155.662 314.235 156.021C313.772 156.381 313.344 156.895 312.95 157.563C312.556 158.231 312.043 159.258 311.392 160.646C310.655 162.153 310.005 163.352 309.439 164.225C308.874 165.098 308.224 165.766 307.487 166.229C306.751 166.708 305.877 166.948 304.85 166.948C303.685 166.948 302.657 166.674 301.784 166.092C300.911 165.51 300.243 164.687 299.78 163.643C299.318 162.581 299.078 161.365 299.061 159.995C299.044 157.631 299.677 155.73 300.962 154.275L300.979 154.24Z" fill="#344966"/>
<path d="M302.041 179.724L315.554 181.66L319.253 182.19L318.808 185.256L315.109 184.725L301.596 182.79L297.896 182.259L298.342 179.193L302.041 179.724Z" fill="#344966"/>
<path d="M312.557 194.573L300.089 191.388L296.458 190.463L297.212 187.517L300.843 188.442L314.064 191.816L317.695 192.741L316.89 195.875L298.359 201.509L310.776 204.678L314.407 205.603L313.653 208.548L310.022 207.623L293.17 203.325L293.975 200.191L312.557 194.573Z" fill="#344966"/>
<path d="M311.7 214.388L305.706 229.014L303.634 228.175C304.319 226.582 305.107 224.733 305.98 222.592L306.1 222.301L292.022 216.529L288.562 215.108L289.727 212.265L293.187 213.686L307.265 219.458L307.367 219.201C308.258 217.043 309.011 215.159 309.628 213.549L311.7 214.388Z" fill="#344966"/>
<path d="M287.86 225.692L299.78 232.337L303.051 234.169L297.005 244.993L295.036 243.897C295.858 242.459 296.8 240.797 297.845 238.913L299.591 235.796L293.649 232.474L292.638 234.272C291.542 236.242 290.617 237.937 289.847 239.393L287.877 238.297C288.716 236.892 289.675 235.197 290.771 233.227L291.782 231.429L285.051 227.678L283.253 230.898C282.123 232.919 281.198 234.615 280.444 235.985L278.475 234.889L284.606 223.894L287.877 225.726L287.86 225.692Z" fill="#344966"/>
<path d="M279.484 240.112L290.479 248.196L293.493 250.405L289.554 255.766C288.115 257.718 286.642 258.934 285.101 259.448C283.56 259.945 282.087 259.688 280.683 258.643C279.432 257.735 278.713 256.571 278.49 255.166C278.285 253.762 278.576 252.289 279.415 250.748L267.392 250.559L267.238 250.439L269.276 247.665L280.82 248.213L282.395 246.072L277.651 242.578L274.637 240.369L276.469 237.869L279.484 240.078V240.112ZM282.464 249.72C281.402 251.159 280.871 252.409 280.871 253.454C280.871 254.498 281.368 255.406 282.395 256.143C283.32 256.828 284.245 256.999 285.135 256.691C286.026 256.365 286.985 255.509 288.013 254.122L289.862 251.604L284.176 247.425L282.481 249.737L282.464 249.72Z" fill="#344966"/>
<path d="M268.164 253.899L275.683 269.844C276.111 270.734 276.385 271.248 276.454 271.419L274.484 273.44L256.587 265.631L255.32 265.066C254.891 264.894 254.378 264.689 253.812 264.415L256.125 262.034C257.272 262.599 258.18 263.045 258.831 263.336L261.417 264.518L267.222 258.523L265.972 256.006L264.585 253.3L266.777 251.039L268.147 253.916L268.164 253.899ZM263.575 265.511L272.84 269.775L268.284 260.63L263.575 265.511Z" fill="#344966"/>
<path d="M249.789 268.988C251.707 268.748 253.523 269.022 255.235 269.81C256.948 270.598 258.455 271.831 259.705 273.475C261.007 275.17 261.795 276.952 262.069 278.818C262.343 280.685 262.069 282.483 261.315 284.23C260.545 285.977 259.277 287.518 257.53 288.837C255.424 290.447 253.197 291.321 250.868 291.406C248.539 291.509 246.364 290.704 244.326 288.974L246.861 287.039C248.316 288.135 249.841 288.666 251.433 288.615C253.043 288.563 254.568 287.981 256.04 286.868C257.291 285.909 258.181 284.778 258.695 283.494C259.209 282.209 259.329 280.856 259.089 279.452C258.832 278.048 258.215 276.712 257.239 275.427C256.28 274.177 255.15 273.218 253.865 272.533C252.581 271.865 251.228 271.574 249.824 271.677C248.402 271.779 247.049 272.327 245.747 273.321C244.12 274.571 243.144 276.078 242.802 277.842C242.459 279.623 242.75 281.387 243.658 283.168L241.123 285.104C240.216 283.408 239.753 281.713 239.719 280.051C239.685 278.373 240.061 276.797 240.832 275.307C241.62 273.817 242.767 272.499 244.292 271.334C246.056 269.981 247.888 269.193 249.789 268.953V268.988Z" fill="#344966"/>
<path d="M245.797 296.817L232.044 304.593L230.948 302.64C232.473 301.818 234.237 300.842 236.258 299.712L236.532 299.557L229.047 286.319L227.215 283.065L229.887 281.558L231.719 284.812L239.203 298.05L239.443 297.913C241.464 296.766 243.228 295.755 244.718 294.865L245.814 296.8L245.797 296.817Z" fill="#344966"/>
<path d="M220.057 290.857L225.657 303.308L227.198 306.716L224.373 307.984L222.831 304.576L217.231 292.125L215.689 288.717L218.515 287.449L220.057 290.857Z" fill="#344966"/>
<path d="M207.366 293.153C209.267 293.529 210.894 294.386 212.298 295.687C213.685 297.006 214.713 298.684 215.347 300.722C215.98 302.76 216.1 304.713 215.706 306.563C215.312 308.412 214.439 310.022 213.086 311.409C211.733 312.797 210.003 313.824 207.88 314.475C205.773 315.126 203.752 315.28 201.851 314.903C199.95 314.526 198.306 313.687 196.936 312.386C195.549 311.084 194.538 309.388 193.905 307.333C193.271 305.295 193.151 303.343 193.545 301.476C193.939 299.626 194.812 297.999 196.165 296.612C197.518 295.225 199.248 294.197 201.372 293.546C203.478 292.896 205.482 292.759 207.383 293.135L207.366 293.153ZM210.003 297.674C208.976 296.646 207.777 295.978 206.407 295.67C205.037 295.362 203.598 295.43 202.074 295.91C200.55 296.389 199.316 297.143 198.374 298.188C197.433 299.232 196.833 300.466 196.576 301.887C196.319 303.309 196.439 304.833 196.953 306.443C197.45 308.035 198.203 309.354 199.231 310.365C200.258 311.375 201.44 312.043 202.81 312.368C204.18 312.677 205.619 312.608 207.143 312.129C208.667 311.649 209.901 310.896 210.86 309.868C211.802 308.823 212.401 307.607 212.658 306.169C212.915 304.747 212.795 303.223 212.281 301.613C211.784 300.02 211.031 298.702 210.003 297.674Z" fill="#344966"/>
<path d="M186.248 314.784L184.518 302.024L184.022 298.325L187.036 297.914L187.533 301.613L189.365 315.143L189.862 318.86L186.659 319.288L174.482 304.234L176.212 316.924L176.709 320.624L173.695 321.035L173.198 317.318L170.852 300.089L174.054 299.661L186.248 314.766V314.784Z" fill="#344966"/>
<path d="M164.825 301.767C166.263 303.068 167.102 304.867 167.325 307.179H164.431C164.259 305.62 163.711 304.404 162.821 303.497C161.93 302.589 160.714 302.127 159.173 302.127C157.905 302.127 156.912 302.401 156.176 302.983C155.439 303.548 155.08 304.336 155.08 305.346C155.08 306.031 155.251 306.631 155.593 307.11C155.936 307.59 156.467 308.052 157.186 308.498C157.905 308.943 159.053 309.559 160.611 310.347C161.947 310.981 163.026 311.58 163.848 312.163C164.67 312.728 165.304 313.379 165.749 314.081C166.195 314.8 166.417 315.622 166.417 316.564C166.417 317.609 166.126 318.516 165.561 319.287C164.996 320.075 164.208 320.674 163.215 321.085C162.204 321.514 161.057 321.719 159.755 321.719C157.614 321.719 155.902 321.137 154.617 320.024C153.333 318.893 152.562 317.335 152.305 315.331H155.148C155.302 316.615 155.765 317.609 156.535 318.345C157.289 319.082 158.368 319.458 159.738 319.458C160.954 319.458 161.862 319.219 162.495 318.722C163.129 318.225 163.437 317.557 163.437 316.718C163.437 316.05 163.266 315.485 162.906 315.006C162.547 314.543 162.05 314.098 161.382 313.704C160.714 313.31 159.687 312.779 158.316 312.111C156.809 311.358 155.628 310.69 154.771 310.107C153.915 309.525 153.247 308.874 152.785 308.121C152.322 307.384 152.1 306.511 152.1 305.483C152.1 304.319 152.408 303.291 152.99 302.435C153.572 301.578 154.412 300.911 155.474 300.465C156.535 300.02 157.751 299.797 159.139 299.797C161.502 299.797 163.403 300.465 164.842 301.767H164.825Z" fill="#344966"/>
<path d="M139.325 302.795L136.551 316.153L135.78 319.818L129.169 318.448C126.771 317.951 124.733 317.078 123.089 315.828C121.445 314.578 120.28 313.07 119.595 311.306C118.91 309.542 118.79 307.641 119.219 305.603C119.647 303.548 120.52 301.836 121.839 300.483C123.158 299.13 124.819 298.222 126.84 297.725C128.844 297.246 131.053 297.246 133.468 297.742L140.113 299.13L139.342 302.795H139.325ZM133.091 300.02C131.276 299.643 129.597 299.643 128.09 300.02C126.583 300.397 125.316 301.133 124.322 302.195C123.329 303.257 122.661 304.593 122.318 306.203C121.993 307.813 122.062 309.303 122.558 310.69C123.055 312.077 123.911 313.242 125.127 314.201C126.36 315.16 127.885 315.828 129.734 316.205L133.228 316.924L136.602 300.722L133.108 299.986L133.091 300.02Z" fill="#344966"/>
<path d="M116.51 297.4L111.886 310.245L110.618 313.756L98.9551 309.56L99.7258 307.436C101.284 308.018 103.065 308.669 105.103 309.405L108.46 310.621L110.772 304.216L108.837 303.514C106.713 302.743 104.881 302.11 103.322 301.596L104.093 299.472C105.617 300.054 107.45 300.739 109.556 301.51L111.509 302.212L114.112 294.968L110.652 293.718C108.477 292.93 106.662 292.296 105.172 291.782L105.943 289.659L117.794 293.923L116.527 297.434L116.51 297.4Z" fill="#344966"/>
<path d="M101.182 289.042C101.885 290.841 101.833 292.827 101.011 295.002L98.425 293.701C98.956 292.228 99.0245 290.909 98.6306 289.693C98.2367 288.477 97.3632 287.535 95.976 286.833C94.8456 286.268 93.8352 286.062 92.9275 286.268C92.0198 286.456 91.3347 287.004 90.8894 287.895C90.5812 288.511 90.4613 289.111 90.564 289.693C90.6497 290.275 90.9237 290.926 91.369 291.645C91.8143 292.365 92.5678 293.427 93.6125 294.831C94.5202 295.996 95.2224 297.023 95.702 297.897C96.1815 298.77 96.4726 299.626 96.5411 300.466C96.6268 301.305 96.4555 302.144 96.0274 302.983C95.5649 303.908 94.897 304.61 94.0407 305.055C93.1844 305.501 92.2253 305.689 91.1292 305.621C90.0331 305.552 88.9199 305.227 87.7553 304.627C85.8372 303.668 84.5698 302.384 83.919 300.808C83.2682 299.232 83.2853 297.486 83.9532 295.567L86.488 296.852C86.0598 298.051 86.0255 299.164 86.3852 300.157C86.7277 301.151 87.5327 301.973 88.7486 302.589C89.8276 303.137 90.7524 303.326 91.5402 303.154C92.3281 302.983 92.9103 302.521 93.2871 301.784C93.5954 301.185 93.681 300.603 93.5783 300.02C93.4755 299.455 93.2186 298.821 92.7905 298.171C92.3794 297.52 91.6944 296.578 90.7524 295.379C89.742 294.026 88.9713 292.913 88.4746 292.005C87.9779 291.097 87.6697 290.224 87.584 289.351C87.4984 288.477 87.6868 287.587 88.1492 286.679C88.6801 285.634 89.3994 284.846 90.3071 284.35C91.2148 283.836 92.2595 283.63 93.407 283.699C94.5545 283.767 95.7533 284.11 96.9864 284.744C99.093 285.805 100.497 287.244 101.2 289.042H101.182Z" fill="#344966"/>
<path d="M78.0621 278.441L69.8243 289.333L67.5636 292.313L57.6816 284.846L59.0518 283.048C60.3534 284.058 61.8776 285.223 63.6074 286.525L66.4504 288.683L70.5607 283.253L68.9166 282.003C67.1183 280.65 65.5598 279.486 64.2239 278.527L65.594 276.728C66.8785 277.739 68.4199 278.938 70.2182 280.291L71.8623 281.541L76.5035 275.392L73.5578 273.166C71.7253 271.779 70.1668 270.614 68.9166 269.689L70.2867 267.891L80.3227 275.478L78.0621 278.458V278.441Z" fill="#344966"/>
<path d="M65.9027 265.905C66.0397 267.84 65.406 269.724 63.9674 271.539L61.878 269.519C62.82 268.285 63.2824 267.018 63.2652 265.751C63.2652 264.483 62.683 263.319 61.5697 262.24C60.662 261.366 59.7372 260.87 58.8124 260.784C57.8876 260.698 57.0826 261.007 56.3804 261.743C55.9009 262.24 55.6269 262.771 55.5241 263.37C55.4385 263.952 55.507 264.655 55.7125 265.477C55.9351 266.299 56.3291 267.532 56.9114 269.176C57.4423 270.563 57.8019 271.745 58.0074 272.738C58.213 273.715 58.2301 274.622 58.0588 275.444C57.8876 276.266 57.4765 277.02 56.8086 277.688C56.0893 278.441 55.2501 278.904 54.3081 279.075C53.3662 279.246 52.39 279.144 51.3624 278.75C50.3348 278.356 49.3586 277.705 48.4338 276.814C46.8924 275.324 46.0532 273.732 45.8991 272.036C45.7449 270.341 46.2759 268.679 47.4747 267.035L49.5299 269.005C48.7763 270.032 48.4167 271.077 48.4509 272.139C48.4852 273.201 48.999 274.211 49.9923 275.153C50.8657 275.992 51.7049 276.455 52.4927 276.523C53.2977 276.592 53.9827 276.335 54.565 275.735C55.0275 275.256 55.3015 274.725 55.37 274.143C55.4385 273.56 55.37 272.892 55.1645 272.139C54.9589 271.385 54.5822 270.289 54.0512 268.868C53.4861 267.292 53.0922 265.991 52.8695 264.963C52.6469 263.952 52.6298 263.011 52.801 262.154C52.9723 261.298 53.4176 260.51 54.1369 259.774C54.9589 258.934 55.8666 258.404 56.8942 258.181C57.9218 257.958 58.9665 258.061 60.0455 258.472C61.1245 258.883 62.152 259.568 63.1454 260.527C64.8409 262.171 65.7657 263.952 65.9027 265.888V265.905Z" fill="#344966"/>
<path d="M52.269 255.44L41.6335 263.987L38.722 266.333L34.8515 261.52C33.1217 259.38 32.2311 257.479 32.1455 255.834C32.0599 254.19 32.7792 252.769 34.2692 251.57C35.7934 250.337 37.4204 249.96 39.1331 250.405C40.8457 250.851 42.5926 252.169 44.3566 254.362L46.0521 256.468L50.3337 253.026L53.2452 250.679L55.1805 253.094L52.269 255.44ZM42.6269 255.783C41.4451 254.31 40.3319 253.437 39.2701 253.146C38.2254 252.854 37.1807 253.128 36.1702 253.933C35.2111 254.704 34.7658 255.577 34.8344 256.571C34.9029 257.564 35.5023 258.746 36.5984 260.133L38.4994 262.497L44.2881 257.838L42.6097 255.749L42.6269 255.783Z" fill="#344966"/>
<path d="M41.0509 240.848L29.4563 248.041L26.2708 250.011L19.7285 239.478L21.6467 238.279C22.503 239.701 23.4963 241.328 24.6438 243.16L26.5277 246.192L32.3164 242.595L31.2203 240.831C30.0386 238.913 28.9939 237.269 28.1033 235.899L30.0215 234.7C30.8607 236.122 31.8711 237.766 33.0528 239.684L34.1489 241.448L40.6912 237.389L38.7559 234.255C37.54 232.302 36.5124 230.658 35.6732 229.339L37.5913 228.141L44.2364 238.845L41.0509 240.814V240.848Z" fill="#344966"/>
<path d="M33.5497 222.438C33.3442 224.356 32.642 226.052 31.4603 227.542C30.2786 229.032 28.7372 230.179 26.8362 231.035C24.8838 231.892 22.9656 232.234 21.0817 232.063C19.1978 231.892 17.5023 231.207 15.9952 230.042C14.488 228.877 13.2892 227.285 12.3986 225.281C11.3197 222.849 11.0114 220.485 11.4567 218.208C11.902 215.93 13.2036 213.995 15.3615 212.419L16.646 215.33C15.2416 216.478 14.3682 217.831 14.0428 219.406C13.7174 220.982 13.9057 222.609 14.6593 224.288C15.293 225.726 16.1836 226.856 17.3139 227.661C18.4442 228.466 19.7287 228.912 21.1502 228.997C22.5717 229.083 24.0274 228.792 25.5003 228.141C26.9389 227.507 28.1549 226.634 29.0969 225.538C30.0559 224.442 30.6382 223.209 30.878 221.804C31.1178 220.4 30.9123 218.961 30.2443 217.454C29.4223 215.587 28.1892 214.269 26.545 213.515C24.9009 212.761 23.1026 212.624 21.1673 213.104L19.8829 210.192C21.7496 209.713 23.4965 209.662 25.1235 210.021C26.7505 210.381 28.2063 211.117 29.4736 212.231C30.741 213.344 31.7514 214.782 32.5221 216.529C33.4127 218.55 33.7552 220.52 33.5497 222.438Z" fill="#344966"/>
<path d="M23.3265 204.3L10.1734 207.948L6.57688 208.942L3.27148 197.005L5.44654 196.405C5.8747 198.015 6.37136 199.848 6.95366 201.92L7.91274 205.362L14.4721 203.547L13.9241 201.56C13.3247 199.385 12.7766 197.518 12.3142 195.943L14.4893 195.343C14.8832 196.936 15.397 198.803 15.9964 200.978L16.5444 202.965L23.9602 200.909L22.984 197.364C22.3674 195.138 21.8365 193.271 21.4083 191.781L23.5834 191.182L26.9402 203.307L23.3436 204.3H23.3265Z" fill="#344966"/>
<path d="M21.3059 187.02C20.2441 188.63 18.5828 189.743 16.3392 190.325L15.9111 187.448C17.4182 187.037 18.5485 186.318 19.3021 185.307C20.0557 184.297 20.3297 183.012 20.0899 181.488C19.9015 180.238 19.4734 179.296 18.7883 178.662C18.1033 178.028 17.2812 177.789 16.2879 177.943C15.6028 178.046 15.0548 178.302 14.6266 178.713C14.1984 179.125 13.8217 179.724 13.4963 180.512C13.1709 181.3 12.7427 182.516 12.1946 184.177C11.7665 185.598 11.3383 186.763 10.893 187.671C10.4478 188.578 9.91684 189.298 9.28316 189.846C8.64949 190.394 7.86167 190.736 6.91972 190.873C5.89214 191.027 4.95018 190.873 4.09386 190.445C3.23755 190.017 2.51824 189.332 1.95307 188.39C1.38789 187.448 0.993987 186.352 0.805597 185.067C0.480195 182.944 0.788471 181.163 1.69617 179.724C2.60387 178.285 4.04249 177.275 5.99489 176.727L6.42305 179.536C5.18995 179.895 4.28226 180.495 3.6657 181.368C3.04915 182.224 2.84364 183.338 3.04915 184.708C3.22042 185.907 3.61433 186.78 4.19662 187.311C4.77892 187.859 5.49823 188.065 6.3203 187.945C6.98823 187.842 7.51914 187.585 7.93018 187.174C8.34121 186.746 8.68374 186.181 8.99201 185.461C9.28316 184.742 9.65994 183.646 10.0881 182.19C10.6019 180.58 11.0814 179.313 11.5267 178.371C11.972 177.429 12.5201 176.675 13.1709 176.11C13.8217 175.545 14.6608 175.185 15.6713 175.031C16.8359 174.86 17.8806 174.997 18.8226 175.442C19.7645 175.888 20.5352 176.607 21.1518 177.583C21.7683 178.559 22.1622 179.741 22.3677 181.094C22.7274 183.44 22.3677 185.41 21.3059 187.02Z" fill="#344966"/>
<path d="M7.36523 163.06V159.241H11.133V163.06H7.36523Z" fill="#344966"/>
<path d="M214.852 177.841C212.968 180.924 211.05 184.623 210.056 187.808C209.354 190.069 211.392 192.158 213.67 191.559C222.97 189.059 231.636 183.818 238.349 175.923C246.536 166.298 250.372 154.412 250.029 142.697C249.927 138.947 246.621 136.138 242.905 136.635C231.293 138.193 220.178 143.896 211.992 153.521C205.278 161.417 201.51 170.819 200.534 180.393C200.294 182.739 202.709 184.417 204.816 183.355C207.813 181.865 211.135 179.382 213.893 177.019C214.441 176.556 215.211 177.207 214.835 177.824L214.852 177.841Z" fill="#344966"/>
<path d="M190.325 137.029C191.661 140.917 193.528 145.335 195.651 148.538C197.073 150.696 200.293 150.456 201.372 148.11C205.773 138.382 207.383 127.267 205.328 115.946C202.827 102.177 195.343 90.5478 185.067 82.6183C181.813 80.1007 177.035 80.9742 174.877 84.4679C168.061 95.5145 165.149 109.027 167.65 122.797C169.705 134.1 175.117 143.948 182.67 151.501C184.502 153.333 187.602 152.425 188.167 149.891C189.023 146.157 189.212 141.345 189.092 137.234C189.075 136.515 190.085 136.327 190.325 137.012V137.029Z" fill="#344966"/>
<path d="M104.848 177.481C106.715 180.581 108.599 184.28 109.575 187.483C110.26 189.743 108.205 191.833 105.927 191.199C96.6446 188.647 88.0129 183.355 81.3507 175.409C73.2328 165.715 69.465 153.812 69.876 142.098C70.013 138.347 73.3184 135.555 77.0348 136.086C88.6465 137.713 99.7102 143.485 107.845 153.179C114.507 161.125 118.224 170.545 119.132 180.135C119.354 182.482 116.939 184.143 114.833 183.081C111.853 181.574 108.53 179.056 105.807 176.693C105.259 176.214 104.488 176.881 104.848 177.498V177.481Z" fill="#344966"/>
<path d="M129.646 136.823C128.293 140.694 126.375 145.112 124.252 148.298C122.813 150.456 119.593 150.199 118.531 147.835C114.181 138.073 112.657 126.958 114.781 115.655C117.367 101.902 124.937 90.3249 135.247 82.4639C138.518 79.9634 143.279 80.8711 145.42 84.382C152.168 95.4628 154.993 108.993 152.407 122.762C150.284 134.066 144.803 143.862 137.199 151.38C135.349 153.196 132.267 152.271 131.701 149.736C130.879 145.986 130.708 141.173 130.845 137.08C130.862 136.361 129.852 136.172 129.612 136.857L129.646 136.823Z" fill="#344966"/>
<path d="M191.078 190.532C185.221 189.521 180.94 186.302 176.812 183.185C172.034 179.571 167.101 175.854 159.994 175.854C152.887 175.854 147.954 179.571 143.176 183.185C139.048 186.302 134.767 189.521 128.91 190.532C116.87 192.604 104.008 199.951 104.008 214.372C104.008 229.648 114.369 240.318 129.218 240.318C139.442 240.318 144.46 235.626 148.879 231.464C152.39 228.158 155.164 225.572 159.994 225.572C164.824 225.572 167.598 228.176 171.109 231.464C175.528 235.608 180.546 240.318 190.77 240.318C205.619 240.318 215.98 229.648 215.98 214.372C215.98 199.951 203.118 192.604 191.078 190.532ZM138.877 222.13C138.672 222.49 138.432 222.832 138.192 223.158C136.531 219.886 133.14 217.626 129.218 217.626C125.296 217.626 121.905 219.869 120.244 223.158C120.004 222.832 119.764 222.49 119.559 222.13C118.599 220.486 118.069 218.585 118.069 216.547C118.069 210.381 123.069 205.38 129.235 205.38C135.4 205.38 140.401 210.381 140.401 216.547C140.401 218.585 139.853 220.486 138.911 222.13H138.877ZM200.429 222.13C200.224 222.49 199.984 222.832 199.744 223.158C198.083 219.886 194.692 217.626 190.77 217.626C186.848 217.626 183.457 219.869 181.796 223.158C181.556 222.832 181.316 222.49 181.111 222.13C180.152 220.486 179.621 218.585 179.621 216.547C179.621 210.381 184.622 205.38 190.787 205.38C196.953 205.38 201.954 210.381 201.954 216.547C201.954 218.585 201.406 220.486 200.464 222.13H200.429Z" fill="#344966"/>
</svg>
