<svg width="197" height="197" viewBox="0 0 197 197" fill="none" xmlns="http://www.w3.org/2000/svg">
<g filter="url(#filter0_d_853_3785)">
<circle cx="98.5" cy="94.5" r="83.5" fill="#EDF8EE"/>
</g>
<g clip-path="url(#clip0_853_3785)">
<path d="M128.674 103.088C127.664 104.739 126.626 106.719 126.094 108.424C125.717 109.628 126.819 110.76 128.04 110.431C133.053 109.099 137.726 106.29 141.344 102.058C145.76 96.904 147.826 90.5372 147.642 84.2708C147.587 82.2549 145.806 80.759 143.804 81.0235C137.543 81.8536 131.556 84.9093 127.149 90.0629C123.532 94.2953 121.494 99.3212 120.98 104.457C120.851 105.715 122.146 106.609 123.284 106.044C124.9 105.241 126.69 103.909 128.169 102.651C128.462 102.395 128.885 102.751 128.683 103.079L128.674 103.088Z" fill="#384864"/>
<path d="M115.453 81.2427C116.17 83.3223 117.18 85.6939 118.327 87.4088C119.098 88.5672 120.834 88.4395 121.412 87.1807C123.79 81.9724 124.653 76.016 123.542 69.9594C122.193 62.5892 118.162 56.3684 112.626 52.1178C110.872 50.7678 108.301 51.233 107.135 53.112C103.463 59.0228 101.893 66.2561 103.242 73.6353C104.353 79.692 107.264 84.9642 111.34 89.005C112.323 89.981 113.994 89.4976 114.306 88.1476C114.765 86.1409 114.875 83.5686 114.811 81.3795C114.802 80.9964 115.343 80.896 115.472 81.2609L115.453 81.2427Z" fill="#384864"/>
<path d="M69.3896 102.906C70.3904 104.566 71.4095 106.546 71.9329 108.26C72.3001 109.474 71.1984 110.586 69.968 110.249C64.9642 108.881 60.3092 106.044 56.7193 101.793C52.349 96.6123 50.3291 90.2364 50.5494 83.9608C50.6229 81.9541 52.4041 80.4582 54.4148 80.7409C60.6673 81.6166 66.6352 84.6996 71.0147 89.8898C74.6046 94.1404 76.6062 99.1845 77.0928 104.32C77.2121 105.579 75.9084 106.463 74.7791 105.898C73.1723 105.086 71.382 103.745 69.913 102.477C69.6192 102.222 69.1968 102.578 69.3988 102.906H69.3896Z" fill="#384864"/>
<path d="M82.747 81.1422C82.0125 83.2128 80.9842 85.5752 79.8365 87.2901C79.0561 88.4394 77.3208 88.3025 76.7607 87.0347C74.4195 81.8081 73.5932 75.8517 74.7408 69.8042C76.1364 62.4432 80.2129 56.2406 85.7769 52.0265C87.5397 50.6947 90.1105 51.1691 91.2581 53.0572C94.894 58.9953 96.4181 66.2377 95.0225 73.5987C93.8748 79.6463 90.9276 84.9002 86.8327 88.9137C85.8411 89.8897 84.1701 89.388 83.8763 88.038C83.4264 86.0313 83.3438 83.459 83.4172 81.2608C83.4264 80.8777 82.8847 80.7773 82.7562 81.1331L82.747 81.1422Z" fill="#384864"/>
<path d="M115.858 109.893C112.699 109.355 110.395 107.622 108.164 105.953C105.593 104.019 102.93 102.03 99.1016 102.03C95.273 102.03 92.6104 104.019 90.0396 105.953C87.8085 107.622 85.5132 109.346 82.3456 109.893C75.8544 110.997 68.9316 114.937 68.9316 122.654C68.9316 130.836 74.5139 136.546 82.5201 136.546C88.0289 136.546 90.7282 134.028 93.1154 131.812C95.0067 130.042 96.5033 128.656 99.1108 128.656C101.718 128.656 103.215 130.051 105.097 131.812C107.475 134.028 110.184 136.546 115.692 136.546C123.689 136.546 129.281 130.836 129.281 122.654C129.281 114.937 122.349 110.997 115.867 109.893H115.858ZM87.7259 126.813C87.6157 127.005 87.4872 127.187 87.3587 127.37C86.4589 125.618 84.6318 124.414 82.5201 124.414C80.4084 124.414 78.5721 125.618 77.6815 127.379C77.5529 127.196 77.4244 127.014 77.3142 126.822C76.8001 125.947 76.5063 124.925 76.5063 123.831C76.5063 120.529 79.1964 117.856 82.5201 117.856C85.8437 117.856 88.5339 120.529 88.5339 123.831C88.5339 124.916 88.2401 125.938 87.7259 126.822V126.813ZM120.898 126.813C120.788 127.005 120.659 127.187 120.531 127.37C119.631 125.618 117.804 124.414 115.692 124.414C113.581 124.414 111.744 125.618 110.854 127.379C110.725 127.196 110.597 127.014 110.487 126.822C109.972 125.947 109.679 124.925 109.679 123.831C109.679 120.529 112.369 117.856 115.692 117.856C119.016 117.856 121.706 120.529 121.706 123.831C121.706 124.916 121.412 125.938 120.898 126.822V126.813Z" fill="#384864"/>
</g>
<defs>
<filter id="filter0_d_853_3785" x="0" y="0" width="197" height="197" filterUnits="userSpaceOnUse" color-interpolation-filters="sRGB">
<feFlood flood-opacity="0" result="BackgroundImageFix"/>
<feColorMatrix in="SourceAlpha" type="matrix" values="0 0 0 0 0 0 0 0 0 0 0 0 0 0 0 0 0 0 127 0" result="hardAlpha"/>
<feMorphology radius="5" operator="dilate" in="SourceAlpha" result="effect1_dropShadow_853_3785"/>
<feOffset dy="4"/>
<feGaussianBlur stdDeviation="5"/>
<feComposite in2="hardAlpha" operator="out"/>
<feColorMatrix type="matrix" values="0 0 0 0 0.764706 0 0 0 0 0.878431 0 0 0 0 0.780392 0 0 0 0.5 0"/>
<feBlend mode="normal" in2="BackgroundImageFix" result="effect1_dropShadow_853_3785"/>
<feBlend mode="normal" in="SourceGraphic" in2="effect1_dropShadow_853_3785" result="shape"/>
</filter>
<clipPath id="clip0_853_3785">
<rect width="97.1206" height="85.2766" fill="white" transform="translate(50.5312 51.2695)"/>
</clipPath>
</defs>
</svg>
