<svg width="321" height="321" viewBox="0 0 321 321" fill="none" xmlns="http://www.w3.org/2000/svg">
<path d="M214.373 207.374C214.373 222.193 204.295 232.53 189.873 232.53C179.93 232.53 175.07 227.975 170.775 223.948C167.366 220.756 164.671 218.227 159.971 218.227C155.27 218.227 152.575 220.744 149.167 223.948C144.872 227.975 139.999 232.53 130.069 232.53C115.647 232.53 105.568 222.181 105.568 207.374C105.568 193.39 118.071 186.27 129.773 184.256C135.471 183.274 139.63 180.143 143.641 177.123C148.281 173.624 153.08 170.015 159.983 170.015C166.886 170.015 171.673 173.624 176.325 177.123C180.336 180.143 184.496 183.274 190.193 184.256C201.895 186.257 214.398 193.39 214.398 207.374H214.373Z" fill="#384864"/>
<path d="M119.609 174.115C119.658 174.963 119.277 175.773 118.6 176.276C117.911 176.792 117.012 176.915 116.212 176.62C116.003 176.546 115.794 176.46 115.597 176.374L115.536 176.35L114.625 175.908C114.305 175.748 114.034 175.626 113.813 175.491C111.61 174.582 109.703 173.502 107.992 172.249C108.989 174.152 109.838 176.178 110.367 178.388V178.437L110.995 180.352C111.044 180.512 111.081 180.684 111.118 180.856C111.303 181.69 111.056 182.562 110.441 183.176C109.961 183.655 109.309 183.925 108.657 183.925C108.485 183.925 108.3 183.913 108.115 183.864C88.316 179.567 73.6233 162.477 72.3928 142.281C72.2943 140.574 72.282 138.868 72.3681 137.173C72.442 135.553 73.1557 134.092 74.3616 133.06C75.5553 132.029 77.1057 131.538 78.7055 131.71C89.3497 132.754 99.3417 137.554 106.836 145.252C114.404 153.011 118.932 163.238 119.609 174.054V174.128V174.115Z" fill="#384864"/>
<path d="M153.338 113.355C151.886 125.461 146.226 136.658 137.403 144.834C136.775 145.423 136.111 146.001 135.421 146.565C135.003 146.921 134.486 147.118 133.969 147.155C133.588 147.179 133.194 147.13 132.825 146.983C131.951 146.627 131.324 145.816 131.188 144.859C131.139 144.478 131.078 144.11 131.016 143.729C130.942 143.287 130.881 142.845 130.819 142.416C130.819 142.342 130.807 142.281 130.795 142.219L130.721 141.102C130.635 139.751 130.536 138.401 130.487 137.014C130.155 137.799 129.786 138.585 129.429 139.371C129.06 140.181 128.715 140.955 128.395 141.703C128.358 141.789 128.321 141.863 128.284 141.949C128.075 142.33 127.854 142.723 127.632 143.115C127.472 143.41 127.3 143.692 127.152 143.987C126.685 144.834 125.811 145.35 124.876 145.35C123.928 145.35 123.067 144.822 122.587 143.975C117.111 134.03 115.031 122.305 116.742 110.986C118.465 99.4944 124.063 88.8624 132.468 81.0541C133.846 79.7772 135.311 78.5618 136.812 77.4446C138.215 76.4133 139.913 76.0204 141.586 76.3396C143.248 76.6588 144.687 77.6533 145.623 79.1388C152.034 89.2307 154.778 101.385 153.326 113.368L153.338 113.355Z" fill="#384864"/>
<path d="M247.536 142.268C246.305 162.452 231.612 179.554 211.813 183.851C211.641 183.888 211.456 183.912 211.271 183.912C210.607 183.912 209.967 183.655 209.487 183.164C208.872 182.55 208.626 181.678 208.81 180.843C208.847 180.671 208.884 180.512 208.933 180.352V180.291L209.536 178.474V178.425C209.536 178.425 209.549 178.4 209.561 178.388C210.078 176.166 210.939 174.152 211.936 172.249C210.225 173.514 208.306 174.582 206.115 175.503C205.882 175.625 205.611 175.76 205.303 175.908L204.331 176.386C204.134 176.472 203.937 176.558 203.728 176.632C202.916 176.927 202.018 176.792 201.341 176.288C200.676 175.797 200.295 175.011 200.319 174.201V174.127C200.984 163.287 205.525 153.035 213.105 145.264C220.599 137.566 230.591 132.766 241.235 131.722C242.847 131.562 244.385 132.041 245.579 133.072C246.785 134.104 247.486 135.565 247.572 137.185C247.659 138.867 247.646 140.586 247.548 142.293L247.536 142.268Z" fill="#384864"/>
<path d="M197.87 143.877C197.415 144.711 196.554 145.227 195.606 145.239C194.671 145.252 193.785 144.76 193.317 143.95C193.158 143.68 192.985 143.398 192.825 143.128C192.604 142.747 192.37 142.354 192.148 141.974C192.099 141.888 192.062 141.814 192.025 141.74C191.705 141.028 191.336 140.292 190.955 139.506C190.586 138.757 190.216 137.983 189.86 137.222C189.835 138.561 189.761 139.886 189.7 141.2L189.65 142.281C189.65 142.281 189.65 142.403 189.638 142.465C189.577 142.907 189.527 143.336 189.466 143.754C189.417 144.122 189.355 144.503 189.306 144.859C189.183 145.792 188.568 146.59 187.706 146.946C187.337 147.093 186.943 147.155 186.562 147.13C186.033 147.093 185.516 146.909 185.097 146.578C184.408 146.037 183.732 145.473 183.092 144.92C174.133 137.075 168.288 126.271 166.627 114.509C164.99 102.871 167.513 91.0109 173.764 81.1154C174.687 79.6544 176.102 78.6723 177.751 78.3408C179.425 78.0093 181.123 78.3653 182.538 79.3598C184.064 80.4156 185.54 81.582 186.943 82.8097C195.483 90.2988 201.254 100.563 203.174 111.723C205.069 122.711 203.174 134.141 197.883 143.877H197.87Z" fill="#384864"/>
<path d="M121.319 215.907C122.931 212.727 126.229 210.542 130.043 210.542C133.858 210.542 137.156 212.727 138.768 215.907C139.002 215.588 139.236 215.257 139.433 214.9C140.355 213.317 140.885 211.463 140.885 209.486C140.885 203.507 136.024 198.658 130.031 198.658C124.038 198.658 119.178 203.507 119.178 209.486C119.178 211.463 119.707 213.304 120.63 214.9C120.827 215.244 121.048 215.588 121.294 215.907H121.319Z" fill="#C3E0C7"/>
<path d="M181.135 215.907C182.747 212.727 186.045 210.542 189.86 210.542C193.675 210.542 196.972 212.727 198.584 215.907C198.818 215.588 199.052 215.257 199.249 214.9C200.172 213.317 200.701 211.463 200.701 209.486C200.701 203.507 195.84 198.658 189.848 198.658C183.855 198.658 178.994 203.507 178.994 209.486C178.994 211.463 179.523 213.304 180.446 214.9C180.643 215.244 180.865 215.588 181.111 215.907H181.135Z" fill="#C3E0C7"/>
<path d="M18.951 145.694L3.81528 143.509L-0.0117188 142.956L1.8464 130.139L3.80297 130.421C3.38459 133.061 3.07695 135.246 2.88006 136.535L2.2894 140.587L10.2879 141.741L10.6694 139.126C10.9278 137.382 11.1862 135.59 11.4939 133.048L13.4504 133.331C13.0567 135.848 12.7983 137.652 12.5398 139.396L12.1584 142.011L21.2152 143.312L21.8305 139.113C22.015 137.824 22.3596 135.455 22.6672 132.926L24.6484 133.208L22.7657 146.234L18.9387 145.682L18.951 145.694Z" fill="#384864"/>
<path d="M25.1901 119.151L17.4746 121.631L22.8767 127.573L25.3501 130.261L24.5994 133.011C23.898 132.25 22.7659 130.973 22.1014 130.163L15.2227 122.367L5.25525 125.596L2.52344 126.455L3.28638 123.681L3.32329 123.656C4.08623 123.398 5.1568 123.055 5.95666 122.797L13.7829 120.243L8.38083 114.178C7.81478 113.589 7.02723 112.68 6.47349 112.054L7.19951 109.39L9.06994 111.539L15.9856 119.531L25.9161 116.302C26.9128 115.983 28.4879 115.431 29.4847 115.136L28.7094 117.972C27.7742 118.279 26.1499 118.782 25.1778 119.138L25.1901 119.151Z" fill="#384864"/>
<path d="M26.7652 111.809L12.6754 105.903L9.11914 104.406L11.5679 98.5862C13.8198 93.2456 16.7854 91.5268 20.4525 93.0737C24.2056 94.6452 25.2762 98.2915 22.9382 103.853L21.7076 106.787L27.8111 109.341L31.3674 110.839L30.3337 113.294L26.7775 111.796L26.7652 111.809ZM21.1293 103.129C22.8643 99.0159 22.1752 96.6587 19.4311 95.5046C16.7977 94.3997 14.9273 95.6274 13.3522 99.372L11.9494 102.699L19.911 106.038L21.1416 103.129H21.1293Z" fill="#384864"/>
<path d="M26.6287 92.3492C20.6359 88.6415 19.1347 81.975 22.8755 75.9469C26.641 69.8942 33.2982 68.2613 39.3402 72.0059C45.333 75.7136 46.8835 82.4169 43.1303 88.4696C39.3894 94.4977 32.646 96.0815 26.6287 92.3615V92.3492ZM41.3214 87.3401C44.2501 82.6257 42.8103 77.3465 37.8512 74.2771C32.9414 71.2447 27.6131 72.3373 24.6844 77.0518C21.768 81.7417 23.1585 86.9841 28.1176 90.0534C33.0275 93.0858 38.405 92.03 41.3214 87.3401Z" fill="#384864"/>
<path d="M44.4234 72.2761L46.0846 70.3486C49.0133 72.3375 52.1635 72.362 54.5385 69.5997C56.4458 67.3898 56.4951 65.0448 54.6615 63.4611C52.828 61.8773 50.9699 62.4912 46.3061 64.3696C42.3807 66.0393 39.5751 66.8373 37.1263 64.7379C34.6406 62.6017 34.7882 59.1763 37.52 55.9965C40.498 52.5466 44.3004 52.2151 47.6844 54.5232L46.0846 56.3894C43.8574 54.8793 41.1625 54.8056 39.0213 57.2856C37.114 59.4955 37.2616 61.423 38.7383 62.6876C40.5349 64.2345 42.4422 63.5102 46.3554 61.8527C50.8469 60.0357 53.6033 59.1518 56.2366 61.4108C59.1161 63.8785 58.9685 67.5862 56.1136 70.9011C52.9019 74.621 48.5703 75.149 44.4234 72.2761Z" fill="#384864"/>
<path d="M60.3829 59.962L49.7509 49.0108L47.0684 46.2484L48.988 44.3945L51.6706 47.1569L62.3025 58.1082L64.9851 60.8706L63.0654 62.7244L60.3829 59.962Z" fill="#384864"/>
<path d="M52.3594 40.9812L65.2186 30.5947L66.4368 32.1048C64.2218 33.8605 62.5483 35.211 61.2685 36.2422L61.0101 36.451L71.8512 49.8208L74.2754 52.8165L72.2204 54.4739L69.7962 51.4783L58.9551 38.1084L58.7459 38.2803C57.4908 39.287 55.768 40.6866 53.5899 42.4791L52.3717 40.969L52.3594 40.9812Z" fill="#384864"/>
<path d="M79.9253 43.8667L71.3976 31.2089L69.2441 28.0168L71.4591 26.5312L73.6126 29.7233L82.1403 42.3811L84.2937 45.5732L82.0787 47.0588L79.9253 43.8667Z" fill="#384864"/>
<path d="M81.6716 33.0992C78.4722 26.8256 80.6625 20.3432 86.9998 17.1266C93.3618 13.8977 99.9083 15.9602 103.132 22.283C106.332 28.5567 104.166 35.0881 97.804 38.317C91.4667 41.5337 84.8833 39.3974 81.6716 33.087V33.0992ZM96.8319 36.4264C101.791 33.9095 103.305 28.6549 100.659 23.4616C98.0501 18.3297 92.9188 16.5004 87.9597 19.0173C83.0252 21.5218 81.487 26.7151 84.1327 31.9083C86.7537 37.0402 91.8974 38.9186 96.8319 36.4264Z" fill="#384864"/>
<path d="M108.189 12.5596L112.668 27.1081L113.801 30.7912L111.303 31.5524L110.17 27.8693L105.679 13.2839L104.547 9.60076L107.254 8.76591L123.854 23.5354L119.4 9.07284L118.267 5.38968L120.79 4.61621L121.922 8.29938L127.546 26.5556L124.839 27.3782L108.177 12.535L108.189 12.5596Z" fill="#384864"/>
<path d="M134.547 1.8293L150.988 0.0859375L151.197 2.01346C148.379 2.28356 146.238 2.51683 144.601 2.68871L144.269 2.72554L146.102 19.8277L146.508 23.6582L143.875 23.9406L143.469 20.1101L141.635 3.00791L141.365 3.03247C139.765 3.20435 137.562 3.43762 134.744 3.7691L134.535 1.84158L134.547 1.8293Z" fill="#384864"/>
<path d="M156.096 19.1033L156.305 3.85505L156.354 0L169.336 0.171881L169.312 2.13624C166.641 2.07485 164.414 2.03802 163.11 2.02574L159.012 1.96435L158.901 10.0305L161.547 10.0673C163.307 10.0919 165.128 10.1164 167.687 10.0919L167.663 12.0685C165.115 12.0071 163.282 11.9826 161.522 11.958L158.877 11.9212L158.753 21.0431L163.011 21.1045C164.316 21.1168 166.715 21.1536 169.275 21.1291L169.25 23.1303L156.059 22.9461L156.108 19.0911L156.096 19.1033Z" fill="#384864"/>
<path d="M179.55 13.4192L176.326 12.9772L175.366 19.9507L174.837 23.7689L172.191 23.4006L172.721 19.5823L174.812 4.46909L175.342 0.650879L181.937 1.55939C187.143 2.27147 189.641 4.70236 189.124 8.3978C188.656 11.7986 185.937 13.6524 182.036 13.4806L188.213 25.3895L188.188 25.5982L185.272 25.193L179.575 13.4192H179.55ZM179.87 11.5408C184.078 12.1178 186.121 10.9637 186.515 8.13998C186.884 5.43899 185.334 4.00256 181.334 3.45008L177.717 2.94672L176.584 11.0865L179.87 11.5408Z" fill="#384864"/>
<path d="M198.98 17.2987L195.842 16.427L193.959 23.204L192.925 26.9117L190.354 26.1996L191.387 22.4919L195.473 7.7961L196.506 4.08838L202.917 5.8563C207.987 7.2559 210.128 9.99372 209.132 13.5787C208.209 16.8812 205.28 18.3668 201.428 17.6793L205.969 30.288L205.908 30.4967L203.065 29.7109L198.98 17.2864V17.2987ZM199.546 15.4694C203.643 16.5989 205.809 15.7272 206.572 12.9771C207.31 10.3498 205.957 8.71689 202.068 7.63649L198.549 6.66659L196.346 14.5854L199.533 15.4694H199.546Z" fill="#384864"/>
<path d="M209.525 28.0536L215.001 13.8121L216.379 10.2148L218.877 11.1725L217.499 14.7697L212.023 29.0113L210.644 32.6085L208.146 31.6509L209.525 28.0536Z" fill="#384864"/>
<path d="M223.406 12.8052L238.246 20.0734L237.385 21.8167C234.862 20.5399 232.93 19.5945 231.454 18.8702L231.146 18.7229L223.554 34.1553L221.855 37.6175L219.48 36.4512L221.179 32.989L228.771 17.5565L228.525 17.4338C227.085 16.7217 225.092 15.7518 222.532 14.5363L223.394 12.793L223.406 12.8052Z" fill="#384864"/>
<path d="M234.346 30.7667C238.333 24.9596 245.077 23.7687 250.946 27.7834C256.841 31.8103 258.157 38.5259 254.134 44.3822C250.147 50.1893 243.366 51.4293 237.472 47.4024C231.602 43.3877 230.335 36.5984 234.346 30.779V30.7667ZM238.678 45.6467C243.268 48.7897 248.621 47.5865 251.919 42.7861C255.179 38.0348 254.33 32.6697 249.753 29.539C245.187 26.4206 239.872 27.5624 236.574 32.3628C233.313 37.1141 234.125 42.5283 238.69 45.6467H238.678Z" fill="#384864"/>
<path d="M261.726 52.3008L259.363 50.0664L254.503 55.1614L251.845 57.9483L249.9 56.1067L252.558 53.3198L263.092 42.2703L265.75 39.4834L270.574 44.0628C274.388 47.6723 274.991 51.0976 272.407 53.7986C270.044 56.2786 266.747 56.2172 263.682 53.7986L261.738 67.058L261.591 67.2176L259.449 65.1919L261.701 52.3131L261.726 52.3008ZM263.092 50.9626C266.181 53.8846 268.506 54.1301 270.475 52.0675C272.358 50.0909 271.939 48.0161 269.011 45.2414L266.365 42.7369L260.692 48.6913L263.092 50.9626Z" fill="#384864"/>
<path d="M265.957 66.7265L277.488 56.7083L280.404 54.1792L282.164 56.1927L279.247 58.7218L267.717 68.74L264.801 71.2691L263.041 69.2556L265.957 66.7265Z" fill="#384864"/>
<path d="M270.006 72.0674L288.55 67.0952L290.359 66.5918L291.737 68.5193L279.789 85.9775C279.173 86.8983 278.509 87.8928 277.906 88.7276L276.245 86.4072C276.823 85.5846 277.524 84.6393 278.177 83.7308L280.293 80.7351L274.953 73.246L271.446 74.2405L268.234 75.1858L266.646 72.9637C267.705 72.6567 268.948 72.3744 270.006 72.0674ZM281.487 79.0654L288.255 69.4524L276.946 72.6813L281.499 79.0532L281.487 79.0654Z" fill="#384864"/>
<path d="M282.337 89.0466L295.824 81.8522L299.233 80.0352L300.5 82.3924L297.091 84.2094L282.005 92.2633L283.912 95.8237C284.601 97.1128 285.82 99.384 287.136 101.704L285.29 102.687L278.953 90.8637L282.362 89.0466H282.337Z" fill="#384864"/>
<path d="M289.831 103.693L304.068 98.1194L307.661 96.7075L312.399 108.764L310.553 109.488C309.606 106.996 308.793 104.933 308.313 103.718L306.812 99.9119L299.281 102.858L300.253 105.314C300.893 106.947 301.558 108.641 302.555 110.998L300.709 111.723C299.81 109.341 299.134 107.647 298.494 106.014L297.522 103.558L289.006 106.898L290.557 110.851C291.037 112.066 291.91 114.301 292.907 116.646L291.037 117.382L286.213 105.13L289.806 103.718L289.831 103.693Z" fill="#384864"/>
<path d="M300.956 124.565L301.448 127.069C298.064 128.137 296.095 130.58 296.796 134.153C297.362 137.014 299.171 138.512 301.559 138.045C303.946 137.579 304.61 135.749 306.013 130.937C307.121 126.824 308.24 124.135 311.403 123.521C314.627 122.895 317.236 125.129 318.036 129.242C318.909 133.711 316.817 136.903 312.904 138.131L312.437 135.725C315.008 134.914 316.731 132.84 316.104 129.635C315.538 126.775 313.938 125.706 312.03 126.075C309.705 126.529 309.089 128.469 307.97 132.557C306.628 137.21 305.607 139.911 302.198 140.574C298.47 141.299 295.64 138.892 294.803 134.607C293.855 129.782 296.132 126.062 300.956 124.601V124.565Z" fill="#384864"/>
<path d="M306.345 144.049L316.239 143.521L320.091 143.312L320.238 145.976L316.387 146.185L306.37 146.713C300.993 146.995 298.975 148.96 299.184 152.901C299.393 156.903 301.743 158.597 306.998 158.315L317.014 157.787L320.866 157.578L321.014 160.218L317.162 160.426L307.268 160.954C300.353 161.323 297.363 158.388 297.067 153.023C296.796 147.842 299.196 144.442 306.358 144.061L306.345 144.049Z" fill="#384864"/>
<path d="M308.177 172.716L308.461 169.487L301.434 168.873L297.595 168.542L297.829 165.877L301.668 166.221L316.902 167.559L320.741 167.891L320.163 174.508C319.695 179.738 317.394 182.329 313.678 182.01C310.257 181.715 308.264 179.1 308.239 175.196L296.635 181.936L296.426 181.911L296.684 178.977L308.19 172.716H308.177ZM310.073 172.949C309.703 177.172 310.959 179.149 313.801 179.395C316.533 179.628 317.886 178.02 318.243 174.005L318.563 170.383L310.356 169.659L310.06 172.949H310.073Z" fill="#384864"/>
<path d="M297.966 192.998L312.695 197.074L316.412 198.105L315.698 200.671L311.982 199.64L295.492 195.085L294.409 198.964C294.016 200.364 293.327 202.856 292.674 205.434L290.656 204.87L294.249 191.954L297.966 192.985V192.998Z" fill="#384864"/>
<path d="M293.276 208.774L307.427 214.544L311.008 216.005L306.098 228L304.264 227.251C305.298 224.796 306.147 222.745 306.639 221.53L308.19 217.736L300.708 214.692L299.711 217.135C299.047 218.768 298.358 220.45 297.447 222.831L295.614 222.082C296.61 219.738 297.299 218.056 297.964 216.423L298.961 213.98L290.495 210.53L288.882 214.458C288.39 215.661 287.48 217.884 286.569 220.265L284.711 219.504L289.695 207.313L293.263 208.774H293.276Z" fill="#384864"/>
<path d="M294.532 242.205L281.698 233.378L278.523 231.192L279.938 229.142L283.113 231.327L295.701 239.983L298.876 242.168L296.969 244.943L276.689 240.584L288.023 257.908L286.128 260.658L282.953 258.472L270.364 249.817L267.189 247.632L268.678 245.483L271.853 247.668L284.614 256.434L273.071 238.632L273.637 237.81L294.557 242.205H294.532Z" fill="#384864"/>
<path d="M273.329 258.178C278.276 263.187 278.165 270.025 273.095 275.01C268.013 280.006 261.159 280.019 256.163 274.973C251.216 269.964 251.29 263.076 256.372 258.079C261.442 253.095 268.358 253.156 273.329 258.19V258.178ZM257.873 259.589C253.911 263.481 254.059 268.957 258.156 273.094C262.205 277.195 267.644 277.391 271.606 273.499C275.544 269.632 275.433 264.206 271.335 260.056C267.287 255.955 261.799 255.722 257.861 259.589H257.873Z" fill="#384864"/>
<path d="M254.292 285.765L245.58 273.266L243.377 270.099L245.531 268.613L247.733 271.781L256.458 284.304L258.66 287.459L256.335 289.067L236.006 280.043L244.669 292.468L246.872 295.635L244.706 297.146L242.503 293.978L231.576 278.288L233.89 276.679L254.292 285.765Z" fill="#384864"/>
<path d="M229.262 284.156L235.834 297.931L237.495 301.406L231.182 304.401C223.959 307.827 217.129 305.936 214.188 299.773C211.223 293.561 214.041 287.115 221.264 283.677L227.601 280.669L229.262 284.144V284.156ZM222.199 285.433C216.354 288.208 214.225 293.487 216.662 298.582C219.11 303.701 224.525 305.396 230.407 302.609L234.246 300.78L226.051 283.604L222.211 285.433H222.199Z" fill="#384864"/>
<path d="M207.249 293.904L211.777 308.477L212.921 312.161L200.517 315.991L199.927 314.113C202.486 313.351 204.615 312.701 205.858 312.308L209.783 311.092L207.396 303.382L204.874 304.168C203.188 304.684 201.453 305.224 199.028 306.034L198.45 304.156C200.899 303.431 202.646 302.891 204.32 302.376L206.842 301.59L204.135 292.873L200.074 294.125C198.832 294.506 196.53 295.218 194.106 296.028L193.516 294.113L206.116 290.221L207.261 293.904H207.249Z" fill="#384864"/>
<path d="M183.216 300.08L185.099 315.218L185.579 319.036L172.695 320.632L172.449 318.68C175.107 318.385 177.309 318.103 178.602 317.943L182.675 317.44L181.678 309.435L179.057 309.767C177.309 309.988 175.501 310.209 172.966 310.589L172.72 308.637C175.254 308.355 177.063 308.121 178.811 307.913L181.432 307.581L180.3 298.521L176.079 299.049C174.787 299.208 172.4 299.503 169.877 299.883L169.631 297.895L182.724 296.274L183.204 300.092L183.216 300.08Z" fill="#384864"/>
<path d="M169.052 320.926L152.514 321V319.06C155.332 319.073 157.485 319.06 159.134 319.06H159.466L159.392 301.86V298.005H162.026V301.848L162.112 319.048H162.383C163.995 319.048 166.21 319.036 169.04 318.987V320.926H169.052Z" fill="#384864"/>
<path d="M143.383 304.72L140.86 304.291C141.07 300.755 139.458 298.054 135.864 297.44C132.985 296.949 130.942 298.115 130.536 300.497C130.13 302.891 131.607 304.156 135.618 307.176C139.076 309.668 141.205 311.669 140.663 314.837C140.11 318.066 137.083 319.698 132.948 318.999C128.456 318.237 126.205 315.144 126.438 311.055L128.863 311.473C128.715 314.149 130.032 316.506 133.268 317.059C136.147 317.55 137.722 316.433 138.055 314.518C138.449 312.185 136.849 310.933 133.416 308.44C129.527 305.531 127.361 303.628 127.94 300.215C128.58 296.482 131.84 294.69 136.16 295.426C141.008 296.249 143.691 299.699 143.358 304.708L143.383 304.72Z" fill="#384864"/>
<path d="M124.581 297.514L120.188 312.124L119.081 315.819L106.652 312.099L107.218 310.208C109.766 311.006 111.894 311.645 113.15 312.013L117.075 313.192L119.401 305.469L116.866 304.708C115.18 304.205 113.433 303.677 110.972 303.002L111.538 301.111C113.974 301.872 115.721 302.4 117.407 302.903L119.942 303.665L122.576 294.923L118.502 293.708C117.247 293.34 114.946 292.64 112.485 291.977L113.063 290.062L125.701 293.843L124.594 297.526L124.581 297.514Z" fill="#384864"/>
<path d="M109.076 296.531L106.738 295.512C107.796 292.136 106.885 289.116 103.551 287.655C100.88 286.489 98.6039 287.115 97.6318 289.337C96.6596 291.559 97.7794 293.143 100.942 297.047C103.686 300.3 105.273 302.756 103.981 305.69C102.665 308.686 99.3299 309.545 95.4906 307.863C91.3191 306.034 89.8793 302.498 91.0976 298.594L93.3495 299.576C92.5496 302.142 93.2756 304.745 96.2782 306.058C98.9485 307.225 100.757 306.525 101.533 304.745C102.48 302.572 101.237 300.976 98.5055 297.722C95.4414 293.965 93.8048 291.584 95.1953 288.428C96.7212 284.954 100.327 284.009 104.326 285.764C108.842 287.741 110.602 291.719 109.064 296.519L109.076 296.531Z" fill="#384864"/>
<path d="M87.6024 281.651L71.9375 292.725L70.4116 293.818L68.4551 292.48L73.6111 271.977C73.8695 270.897 74.1525 269.73 74.4232 268.748L76.7859 270.356C76.5275 271.326 76.1952 272.456 75.8999 273.536L74.9524 277.072L82.5571 282.253L85.4981 280.104L88.1807 278.116L90.4449 279.65C89.5589 280.301 88.4884 281.001 87.6024 281.651ZM74.3986 279.049L71.3838 290.393L80.8713 283.456L74.3986 279.049Z" fill="#384864"/>
<path d="M66.4741 277.293C61.6873 282.413 54.9439 282.732 49.7018 277.846C45.7764 274.187 44.312 269.129 47.2776 264.009L49.2957 265.888C47.2776 269.694 48.1513 273.45 51.2031 276.286C55.2885 280.092 60.6906 279.478 64.4437 275.476C67.9754 271.707 68.9598 266.121 64.6037 262.069C61.0967 258.804 56.6421 258.89 52.9751 261.566L50.9816 259.7C55.9899 255.943 61.6135 256.336 66.105 260.51C71.544 265.581 71.0025 272.468 66.4864 277.293H66.4741Z" fill="#384864"/>
<path d="M39.9678 267.656L29.582 254.814L31.0956 253.598C32.843 255.808 34.1966 257.49 35.2302 258.767L35.4394 259.025L48.8524 248.233L51.8549 245.814L53.5161 247.865L50.5136 250.283L37.1007 261.075L37.2729 261.284C38.282 262.536 39.6725 264.255 41.4814 266.44L39.9678 267.656Z" fill="#384864"/>
<path d="M42.8368 240.24L29.8791 248.343L26.6059 250.394L19.7148 239.418L21.3884 238.374C22.7789 240.658 23.9602 242.524 24.6493 243.629L26.8274 247.103L33.6815 242.819L32.2787 240.584C31.3435 239.099 30.3714 237.552 28.9685 235.428L30.6421 234.384C31.9711 236.557 32.9432 238.104 33.8784 239.59L35.2812 241.824L43.0337 236.975L40.7695 233.378C40.0804 232.273 38.8006 230.247 37.3978 228.111L39.0959 227.042L46.0977 238.202L42.8245 240.253L42.8368 240.24Z" fill="#384864"/>
<path d="M29.3991 228.577L20.3669 232.653L16.8475 234.237L15.74 231.806L19.2594 230.222L28.4023 226.097C33.3122 223.887 34.4812 221.321 32.8569 217.736C31.208 214.09 28.4023 213.353 23.6032 215.514L14.4602 219.639L10.9409 221.223L9.8457 218.817L13.3651 217.233L22.3973 213.157C28.71 210.309 32.5739 211.966 34.7889 216.852C36.93 221.579 35.9333 225.631 29.3991 228.577Z" fill="#384864"/>
<path d="M17.266 202.476L18.1643 205.594L24.9446 203.642L28.6485 202.574L29.3868 205.14L25.6829 206.208L10.9902 210.431L7.28623 211.499L5.44041 205.115C3.98837 200.069 5.1943 196.816 8.7875 195.785C12.0854 194.839 14.891 196.558 16.3184 200.18L24.7231 189.72L24.9322 189.658L25.7444 192.482L17.266 202.463V202.476ZM15.4078 202.942C14.2265 198.866 12.3438 197.479 9.59966 198.265C6.96629 199.026 6.27718 201.015 7.39698 204.894L8.40603 208.393L16.3184 206.122L15.3955 202.942H15.4078Z" fill="#384864"/>
<path d="M17.6102 190.64L17.2287 188.124C20.6496 187.203 22.7169 184.833 22.1632 181.236C21.7202 178.363 19.9728 176.792 17.5732 177.148C15.1737 177.516 14.4353 179.321 12.8233 184.072C11.5436 188.136 10.313 190.775 7.13821 191.266C3.88957 191.758 1.37926 189.413 0.739376 185.275C0.0502705 180.782 2.27756 177.676 6.23991 176.608L6.60908 179.038C4.01263 179.738 2.20372 181.739 2.69594 184.981C3.13894 187.853 4.70173 188.995 6.62138 188.701C8.95942 188.345 9.64852 186.429 10.9406 182.39C12.4788 177.798 13.6109 175.147 17.0318 174.619C20.785 174.042 23.5168 176.571 24.1813 180.892C24.9319 185.754 22.5077 189.376 17.6225 190.64H17.6102Z" fill="#384864"/>
<path d="M8.22051 163.741L8.18359 160.071L11.826 160.034L11.8629 163.705L8.22051 163.741Z" fill="#384864"/>
</svg>
