<svg width="103" height="104" viewBox="0 0 103 104" fill="none" xmlns="http://www.w3.org/2000/svg">
<path d="M29.7211 48.6675V65.1206C29.7211 69.7992 33.4965 73.5916 38.1539 73.5916H48.5145C52.1338 73.5916 55.3939 75.789 56.7668 79.1537C54.215 81.3214 52.5951 84.559 52.5951 88.1787C52.5951 94.8987 58.1768 100.308 64.9365 99.9863C70.7113 99.711 75.5433 95.0944 76.0796 89.3121C76.4566 85.2477 74.7818 81.5603 71.9771 79.1681C73.4098 75.7865 76.7138 73.5916 80.3719 73.5916H90.5672C95.2246 73.5916 99 69.7992 99 65.1206V12.471C99 7.79246 95.2246 4 90.5672 4H74.3391C73.0919 6.48538 73.1939 9.42566 74.5744 11.839C75.604 13.6391 76.1749 15.7391 76.1294 17.9771C75.9902 24.2965 70.8251 29.4502 64.5343 29.5408C57.9592 29.6315 52.5926 24.3032 52.5926 17.7187C52.5926 15.3918 53.2638 13.2232 54.4208 11.3952C55.749 9.29605 56.2279 6.76832 55.5601 4.37357L55.4555 4H38.1547C33.4973 4 29.7219 7.79246 29.7219 12.471V28.8581L29.7068 28.8649C27.0513 30.0982 24.0062 29.8619 21.4451 28.4405C19.7619 27.507 17.8275 26.975 15.7682 26.975C9.07841 26.975 3.69237 32.5828 4.01366 39.374C4.28857 45.1749 8.8853 50.0287 14.6424 50.5658C17.184 50.803 19.5773 50.227 21.5952 49.0681C24.0627 47.651 27.0462 47.4748 29.6444 48.6336L29.7219 48.6683L29.7211 48.6675Z" stroke="#FEFFF7" stroke-width="8" stroke-linecap="round" stroke-linejoin="round"/>
</svg>
