<svg width="113" height="90" viewBox="0 0 113 90" fill="none" xmlns="http://www.w3.org/2000/svg">
<path d="M92.6854 25.9266L92.6854 25.9266L92.6846 25.926C90.7244 24.4084 90.5257 21.561 92.0963 19.6606C93.7678 17.8539 96.6165 17.4758 98.5783 18.9946C107.3 25.8035 112.85 36.2571 112.95 48.0522C112.95 59.7508 107.301 70.2031 98.5789 77.0126C96.6163 78.5319 93.6693 78.1521 92.0979 76.2518C90.5264 74.3514 90.7248 71.5032 92.6854 69.9853L92.6858 69.985C99.2471 64.7908 103.522 56.8067 103.522 47.9557C103.522 39.1044 99.2462 31.2161 92.6854 25.9266Z" fill="#FEFFF7" stroke="#384864" stroke-width="0.1"/>
<path d="M20.0766 28.2242H21.7902L23.1435 27.1732L51.0159 5.52648C51.0166 5.52592 51.0174 5.52537 51.0181 5.52481C52.6156 4.29031 55 5.43519 55 7.47831V82.388C55 84.737 52.6701 85.6481 51.131 84.4559L51.1282 84.4537L23.1356 62.8029L21.7847 61.758L20.0769 61.7579L6.42461 61.7571H6.42431C5.67263 61.7571 5 61.1445 5 60.2736V29.7077C5 28.8368 5.67262 28.2242 6.42431 28.2242H20.0766Z" stroke="#FEFFF6" stroke-width="10"/>
<path d="M80.4414 33.9297C84.1467 38.2106 89.1584 50.0012 79.5626 62.9164" stroke="#FEFFF6" stroke-width="8" stroke-linecap="round"/>
</svg>
