<svg width="124" height="104" viewBox="0 0 124 104" fill="none" xmlns="http://www.w3.org/2000/svg">
<path d="M105.981 40.5265C109.07 40.2456 112.141 41.2359 114.485 43.2694C117.721 46.5579 117.622 52.7564 117.533 58.2253C117.502 60.1743 117.472 62.0243 117.577 63.7112L115.479 61.9936C115.086 61.6726 114.582 61.5206 114.077 61.571C113.573 61.6214 113.109 61.8698 112.787 62.2625C112.119 63.0803 112.239 64.2849 113.056 64.9532L120.068 70.69C120.856 71.3346 122.012 71.2475 122.695 70.4928C123.379 69.7373 123.351 68.5788 122.631 67.8583C121.226 66.4522 121.293 62.3015 121.357 58.2867C121.457 52.0667 121.571 45.0177 117.211 40.5872H117.21C114.153 37.8151 110.097 36.4125 105.981 36.7012C104.925 36.7012 104.068 37.5575 104.068 38.6135C104.068 39.6704 104.925 40.5258 105.981 40.5258L105.981 40.5265Z" fill="#FEFFF7"/>
<path d="M62.2811 61.5829C61.78 61.5061 61.2686 61.6333 60.8606 61.9347C60.4525 62.236 60.181 62.6876 60.1068 63.1896L54.6141 99.8068H45.4634C46.6031 98.1796 48.0296 96.7745 49.6748 95.6603C50.1733 95.3257 50.4866 94.7759 50.5216 94.1766L52.4339 59.7558V59.755C52.4638 59.2479 52.2905 58.7493 51.9516 58.3703C51.6135 57.9912 51.138 57.7616 50.6309 57.7334C50.1238 57.7052 49.6252 57.8802 49.2471 58.2192C48.8689 58.5589 48.6418 59.0353 48.6145 59.5424L46.7535 93.0475C44.9556 94.404 40.9629 97.8469 40.9629 101.718C40.9629 102.774 41.8191 103.631 42.8752 103.631H56.261C57.2078 103.631 58.0119 102.938 58.1519 102.002L63.8887 63.7566C63.9639 63.2554 63.8375 62.7441 63.5353 62.3369C63.2339 61.9288 62.7832 61.6573 62.2812 61.5822L62.2811 61.5829Z" fill="#FEFFF7"/>
<path d="M103.009 97.6933C103.915 97.24 104.31 96.1592 103.911 95.2288L98.1737 81.8429C97.9962 81.4289 97.6777 81.0908 97.2748 80.8876C93.2044 78.5861 89.6207 75.5136 86.7232 71.8436C86.0651 71.0181 84.8614 70.8815 84.0358 71.5397C83.2094 72.197 83.0728 73.4007 83.731 74.2271C86.83 78.1328 90.6228 81.4332 94.9212 83.9609L99.7539 95.2374C97.7485 96.8073 96.5295 99.1755 96.4167 101.719C96.4167 102.775 97.2729 103.632 98.3289 103.632H102.153C103.209 103.632 104.066 102.775 104.066 101.719C104.066 100.663 103.209 99.8071 102.153 99.8071H100.801C101.295 98.8869 102.068 98.1466 103.009 97.6933Z" fill="#FEFFF7"/>
<path d="M86.8468 68.2003C86.8007 67.6958 86.5548 67.2297 86.1647 66.9053C85.7745 66.5817 85.2717 66.4255 84.7663 66.4733C78.8588 67.0214 72.4843 67.2988 65.8205 67.2988C64.7645 67.2988 63.9082 68.1551 63.9082 69.2111C63.9082 70.2671 64.7645 71.1233 65.8205 71.1233C72.6021 71.1233 79.0953 70.8399 85.1199 70.2807C85.6245 70.2346 86.0906 69.9888 86.4141 69.5986C86.7385 69.2085 86.8937 68.7057 86.8468 68.2003Z" fill="#FEFFF7"/>
<path d="M118.087 79.3901C117.543 77.0117 116.106 74.9338 114.074 73.5843L111.716 72.0118L111.717 63.4741C111.717 63.1676 111.345 32.8779 79.2083 32.8779C56.956 32.8779 48.3017 28.7537 45.5262 26.8902L52.0185 18.7741V18.7732C52.4778 18.1995 52.5674 17.4133 52.249 16.7508C51.9306 16.0884 51.2604 15.6667 50.5254 15.6667H42.265L44.3694 13.0365C44.8287 12.4628 44.9183 11.6765 44.5999 11.0141C44.2815 10.3516 43.6113 9.9299 42.8763 9.9299H30.3884C28.3234 8.69033 25.962 8.03044 23.5539 8.01763H18.4677L3.57432 0.570942C2.98101 0.274704 2.27756 0.306306 1.71328 0.654603C1.14985 1.00292 0.806667 1.61843 0.806667 2.28088V15.8154C0.799837 18.7222 2.12134 21.4719 4.39473 23.2817L10.4858 28.1537C11.2311 33.1479 16.3933 58.9642 44.1985 67.9769C45.2007 68.2954 46.2713 67.7447 46.5957 66.7442C46.9201 65.7445 46.3763 64.6697 45.3783 64.3393C17.1402 55.1834 14.2904 28.1112 14.1833 26.9638C14.1355 26.4465 13.8794 25.971 13.4739 25.6466L6.78356 20.294C5.41936 19.2081 4.62628 17.5578 4.63054 15.8138V5.37397L17.161 11.6392C17.4265 11.7724 17.7193 11.8407 18.0164 11.8407H23.5535C25.7244 11.8441 27.8295 12.5825 29.5267 13.9365L35.9447 19.0714V19.0705C36.2837 19.342 36.7045 19.4906 37.139 19.4897H46.5467L41.3827 25.9453C40.8372 26.6257 40.8227 27.5895 41.346 28.287C41.9914 29.1475 48.541 36.701 79.2089 36.701C107.482 36.701 107.889 62.3822 107.893 63.4727V73.034H107.894C107.894 73.6735 108.213 74.2702 108.745 74.6245L111.954 76.7647H111.955C113.174 77.5748 114.036 78.8221 114.361 80.2485L118.875 99.8056H110.366C110.859 98.8853 111.632 98.1452 112.574 97.6919C113.479 97.2386 113.875 96.1578 113.475 95.2273L107.738 81.8415C107.561 81.4257 107.241 81.0868 106.837 80.8845C101.381 77.7958 96.8376 73.3209 93.6652 67.9134C90.4929 62.5053 88.8044 56.3561 88.7709 50.0867C88.7709 49.0307 87.9147 48.1745 86.8587 48.1745C85.8027 48.1745 84.9464 49.0307 84.9464 50.0867C84.9259 56.9547 86.7229 63.7064 90.1548 69.6559C93.5866 75.6053 98.5311 80.5414 104.486 83.9629L109.318 95.2359C107.313 96.8058 106.094 99.1741 105.981 101.718C105.981 102.774 106.837 103.63 107.893 103.63H121.279C121.862 103.63 122.413 103.365 122.776 102.908C123.139 102.452 123.273 101.855 123.143 101.288L118.087 79.3901ZM35.4181 13.7546H38.8969L37.5395 15.4517L35.4181 13.7546Z" fill="#FEFFF7"/>
<path d="M42.0244 95.6604C42.5229 95.3257 42.8362 94.7759 42.8712 94.1766L44.1458 71.2294V71.2286C44.1757 70.7215 44.0024 70.2229 43.6635 69.8439C43.3254 69.4649 42.8499 69.2352 42.3428 69.207C41.8357 69.1789 41.3372 69.3539 40.959 69.6937C40.5808 70.0326 40.3529 70.5089 40.3264 71.016L39.1031 93.0475C37.3052 94.404 33.3125 97.847 33.3125 101.718C33.3125 102.774 34.1688 103.631 35.2248 103.631H37.137C38.0727 103.631 38.8717 102.953 39.0237 102.029C39.1765 101.106 38.6378 100.207 37.7517 99.907C38.8956 98.2354 40.3452 96.7945 42.0245 95.6598L42.0244 95.6604Z" fill="#FEFFF7"/>
<path d="M44.6429 37.4336C44.9391 36.7191 44.7752 35.8961 44.2289 35.3498L38.4921 29.613C37.7451 28.866 36.5346 28.866 35.7876 29.613C35.0406 30.36 35.0406 31.5705 35.7876 32.3166L38.2598 34.7888L33.3152 34.7896C32.7005 34.7896 32.1234 35.085 31.764 35.5844C31.4046 36.0829 31.3073 36.7232 31.5011 37.3063L32.4752 40.2276V40.2284C29.6282 39.5899 27.0994 37.961 25.3401 35.6331C24.7494 34.764 23.5678 34.5336 22.6937 35.1192C21.8204 35.7048 21.5831 36.8854 22.1627 37.7622C25.2224 41.9111 30.073 44.357 35.2276 44.3509C35.8422 44.3501 36.4193 44.0547 36.7787 43.5561C37.1381 43.0576 37.2354 42.4165 37.0417 41.8334L35.9677 38.6142H42.8766C43.65 38.6134 44.3467 38.1482 44.6429 37.4336Z" fill="#FEFFF7"/>
<path d="M21.8379 15.667H25.6624V19.4915H21.8379V15.667Z" fill="#FEFFF7"/>
</svg>
