<svg width="84" height="67" viewBox="0 0 84 67" fill="none" xmlns="http://www.w3.org/2000/svg">
<path d="M83.4156 53.2606C82.7868 52.8705 68.411 44.0497 53.156 43.3251L56.3312 36.4244C56.473 36.1178 56.473 35.7691 56.3312 35.4625C54.9701 32.5057 53.4976 29.0802 52.8437 27.2905C66.8758 25.6175 70.6998 2.90459 70.8603 1.90307C70.9364 1.43491 70.7143 0.969481 70.2919 0.706485C69.8694 0.44349 69.3233 0.430388 68.8862 0.674839C68.8247 0.708669 62.4134 4.11998 35.9807 4.16636L35.0526 3.30207C34.6893 2.96377 34.1432 2.85465 33.6639 3.02216C32.5026 3.4281 22.3125 7.14714 22.3125 12.7219C22.3125 14.4467 22.5826 15.677 22.8715 16.9811C23.2248 18.5847 23.625 20.4022 23.625 23.7219C23.625 28.2065 19.3857 29.5445 18.341 29.8064C17.5048 29.6656 15.0111 29.2908 12.3468 29.2908C10.3992 29.2908 8.75565 29.4937 7.4589 29.897C4.05045 30.9555 3.045 32.8893 2.7486 33.9609C0.0328497 35.7047 0 39.4412 0 39.6109C0 40.0033 0.203325 40.3726 0.54492 40.6024C0.88593 40.8321 1.32714 40.8943 1.72617 40.7721C1.76426 40.7601 5.52012 39.6109 9.18747 39.6109C10.4437 39.6109 11.7258 41.0143 13.3482 42.791C14.7591 44.3346 16.5139 46.2558 18.8988 47.9221C21.9006 50.0196 23.9701 50.7873 25.4824 51.3466C26.6162 51.7683 27.3018 52.021 27.8907 52.6419C28.3161 53.1062 28.7754 55.6069 28.8762 57.993C28.8944 58.4377 29.1727 58.8388 29.6004 59.0379L29.884 59.17L27.7881 61.903C27.3146 61.7164 26.7949 61.6111 26.25 61.6111C24.079 61.6111 22.3125 63.2561 22.3125 65.2778C22.3125 65.9538 22.9008 66.5 23.625 66.5C24.3492 66.5 24.9375 65.9538 24.9375 65.2778C24.9375 64.6034 25.5269 64.0555 26.25 64.0555C26.973 64.0555 27.5625 64.6034 27.5625 65.2778C27.5625 65.9538 28.1508 66.5 28.875 66.5C29.5992 66.5 30.1875 65.9538 30.1875 65.2778C30.1875 64.6645 30.0088 64.0948 29.7228 63.5863L32.2664 60.2694C32.4422 60.3447 32.6273 60.3889 32.8113 60.3889C33.1523 60.3889 33.4886 60.2656 33.7406 60.031L38.349 55.7395C44.1581 58.1365 49.2252 59.1666 55.1251 59.1666C68.2753 59.1666 82.4371 55.6085 83.0326 55.4573C83.5288 55.3302 83.9003 54.9466 83.9829 54.4736C84.0656 54.0005 83.8435 53.5274 83.4158 53.2606L83.4156 53.2606ZM9.18653 37.1663C6.82808 37.1663 4.49663 37.5734 2.90873 37.9302C3.16068 37.1172 3.63294 36.2289 4.52303 35.8158C4.94315 35.6205 5.2197 35.1911 5.24724 34.7562C5.25134 34.6891 5.38377 33.1172 8.28819 32.2152C9.31476 31.896 10.6793 31.7351 12.3452 31.7351C13.8523 31.7351 15.3166 31.8693 16.397 32.003L15.8867 32.954C15.5627 33.558 15.8252 34.2925 16.4732 34.5942L20.3099 36.38C19.8453 36.7876 19.192 37.1663 18.374 37.1663C17.8895 37.1663 17.4447 37.4145 17.2162 37.8118C16.9877 38.209 17.0129 38.6919 17.2818 39.0657L19.0853 41.5848C18.0288 41.9613 16.4784 42.2265 15.3645 41.1898C15.3423 41.1691 15.3136 41.1631 15.2913 41.1445C13.3354 39.0046 11.6327 37.1663 9.18653 37.1663ZM32.5535 57.6788L31.459 57.1691C31.3436 55.458 30.9815 52.2072 29.8588 51.0236C28.8545 49.9651 27.743 49.5532 26.4539 49.0741C25.0037 48.5361 23.1979 47.8677 20.4757 45.9661C19.6946 45.4211 19.0097 44.8427 18.361 44.2573C19.7262 44.063 20.9608 43.5474 21.7277 43.0705C22.3301 42.6951 22.493 41.9378 22.091 41.3752L20.516 39.174C22.469 38.3392 23.434 36.5856 23.4862 36.4889C23.6426 36.1992 23.6672 35.8631 23.5571 35.5553C23.4469 35.2487 23.2108 34.9944 22.8997 34.8487L18.8233 32.9504L19.2803 32.0998C22.0061 31.3692 26.2494 28.9171 26.2494 23.7216C26.2494 20.1537 25.8205 18.2069 25.442 16.4898C25.1707 15.2599 24.9369 14.1981 24.9369 12.7216C24.9369 9.72493 30.8589 6.76812 33.8091 5.60093L38.7404 10.193C37.033 11.6165 34.1244 14.4959 34.1244 17.6105C34.1244 22.4825 36.491 25.2298 38.5777 27.6534C40.414 29.7852 41.9995 31.6257 41.9995 34.7216C41.9995 38.7747 37.5158 40.943 37.4755 40.9621C36.8268 41.2639 36.5643 41.9988 36.8889 42.6023C37.118 43.0306 37.5815 43.2772 38.0631 43.2772C38.26 43.2772 38.461 43.2358 38.6485 43.149C38.8928 43.035 44.6245 40.3013 44.6245 34.7216C44.6245 30.7664 42.5912 28.4064 40.6255 26.1234C38.6327 23.8095 36.7495 21.623 36.7495 17.6105C36.7495 15.1147 40.1608 12.1765 41.4757 11.2538C41.7786 11.041 41.969 10.7158 41.9954 10.3627C42.0218 10.0097 41.8823 9.66215 41.6145 9.41333L38.5853 6.59243C55.7903 6.40746 64.1873 4.73674 67.8293 3.66341C67.517 5.02641 67.0207 6.93675 66.3081 9.0549H53.8118C53.0876 9.0549 52.4993 9.60273 52.4993 10.2771C52.4993 10.9515 53.0876 11.4994 53.8118 11.4994H65.4146C65.0929 12.3107 64.7414 13.1335 64.3552 13.9525C64.3406 13.9508 64.3277 13.9437 64.3119 13.9437H49.8744C49.1501 13.9437 48.5619 14.4916 48.5619 15.166C48.5619 15.8404 49.1501 16.3882 49.8744 16.3882H63.0925C62.6079 17.2339 62.0847 18.0541 61.5187 18.8326H47.2494C46.5251 18.8326 45.9369 19.3805 45.9369 20.0549C45.9369 20.7293 46.5251 21.2771 47.2494 21.2771H59.4375C57.2157 23.4749 54.4957 24.9438 51.1869 24.9438C46.6048 24.9438 44.3278 22.9358 44.2401 22.8572C43.7268 22.3792 42.8971 22.3792 42.3844 22.8572C41.8711 23.3352 41.8711 24.1078 42.3844 24.5852C42.4987 24.6916 45.1155 27.0177 50.1258 27.3265C50.3332 28.0025 50.656 28.8728 51.0404 29.8321L48.562 29.8327C47.8377 29.8327 47.2495 30.3805 47.2495 31.0549C47.2495 31.7293 47.8377 32.2771 48.562 32.2771H52.0624C52.4221 33.1092 52.7907 33.9419 53.1428 34.7216H49.8745C49.1503 34.7216 48.562 35.2678 48.562 35.9438C48.562 36.6199 49.1503 37.166 49.8745 37.166H53.1335L52.0085 39.6105H48.562C47.8378 39.6105 47.2495 40.1567 47.2495 40.8327C47.2495 41.5088 47.8378 42.0549 48.562 42.0549H50.884L50.3133 43.2968C43.8258 43.4862 36.6504 45.6872 36.334 45.7854C35.7211 45.9748 35.3485 46.5515 35.4545 47.1446L36.6569 53.858L32.5535 57.6788ZM55.124 56.7217C49.5587 56.7217 44.7658 55.7221 39.239 53.4228L38.2324 47.7957C40.5673 47.1529 46.3054 45.7217 51.1869 45.7217C62.608 45.7217 74.2029 51.1032 79.2909 53.7955C74.3883 54.8508 64.3729 56.7217 55.1244 56.7217H55.124Z" fill="#67787F"/>
</svg>
