<svg width="130" height="130" viewBox="0 0 130 130" fill="none" xmlns="http://www.w3.org/2000/svg">
<g clip-path="url(#clip0_1218_3616)">
<path d="M102.2 67.099C102.97 67.229 103.7 66.739 103.89 65.989C103.95 65.769 104.39 63.819 102.98 62.279C102.5 61.749 101.87 61.359 101.11 61.099C101.36 60.949 101.57 60.729 101.71 60.459C101.95 59.969 101.9 59.379 101.59 58.939C101.03 58.139 99.4603 56.779 97.1703 56.719C94.4603 56.699 91.5603 58.329 88.5303 61.719C85.7403 57.809 78.1403 48.769 67.6803 49.239C60.7003 49.559 56.7803 52.289 53.9203 54.279C52.0403 55.589 51.0303 56.209 50.0603 56.169C49.1703 54.579 47.4203 52.979 46.0903 52.369C45.2103 49.409 46.0403 45.369 47.0203 41.579C47.2203 40.779 47.4003 40.089 47.5103 39.539C47.7103 38.529 47.9703 37.359 48.2403 36.139C49.0103 32.649 49.8003 29.049 49.8003 27.049C49.8003 25.229 48.6103 23.069 46.7703 21.549C44.6603 19.809 42.0203 19.149 39.3403 19.669C36.0903 20.309 34.4103 22.659 33.5303 24.809C31.5203 25.249 26.9503 26.609 25.9303 30.059C25.5903 31.229 25.3203 32.679 26.2703 33.609C26.7203 34.049 27.2503 34.189 27.7603 34.189C28.3503 34.189 28.9403 33.999 29.4003 33.849C29.6203 33.779 29.8603 33.699 29.9903 33.679C30.3503 33.619 30.9403 33.489 31.6303 33.339C32.5903 33.119 34.7003 32.639 35.6003 32.619C36.3803 33.169 37.3003 33.619 38.3603 33.789C38.5903 35.569 38.7203 37.739 38.4303 38.609C38.4003 38.709 36.1703 45.589 36.5203 53.999C36.4103 54.109 36.3103 54.239 36.2403 54.389C35.7403 55.449 34.2203 59.049 35.9203 61.049C36.4003 61.619 37.0303 61.929 37.7003 61.989C38.0603 63.339 38.5103 64.689 39.0803 66.019C39.5103 67.209 45.8503 83.759 62.0403 83.759H62.0803C63.4103 85.079 64.9003 86.399 66.5503 87.719C66.4803 88.569 66.6203 89.3791 66.7503 89.899C66.5303 90.719 65.9603 92.929 64.7403 97.899C64.1703 100.229 63.8603 101.859 63.6403 103.039C63.2203 105.289 63.1703 105.319 62.6603 105.679C61.5703 106.429 58.1903 107.699 56.3203 108.319C55.6403 108.539 55.2103 109.219 55.3003 109.929C55.4503 111.179 56.0603 111.239 58.9603 111.489C59.4403 111.529 59.9203 111.569 60.3203 111.599C60.5603 112.029 60.9903 112.319 61.4803 112.359C62.3303 112.439 63.1003 112.479 63.8003 112.479C70.3303 112.479 71.1403 109.189 71.2103 108.779C71.2203 108.709 71.2303 108.639 71.2303 108.569C71.4703 102.199 72.7203 97.359 73.4703 94.469C73.9503 92.619 74.2103 91.599 74.1103 90.839C74.1103 90.599 74.4303 89.909 74.6403 89.449C75.3003 87.999 76.3903 85.609 74.5103 83.989C74.8903 83.879 75.2803 83.729 75.6403 83.499C76.2403 83.119 76.6203 82.519 76.7303 81.809C76.7703 81.579 76.7603 81.339 76.7303 81.099C84.9903 78.599 87.6303 75.589 88.4503 73.739C89.9203 73.809 92.6003 74.109 94.7603 75.319C95.0103 75.459 95.3003 75.529 95.5803 75.509C95.9503 75.489 97.8003 75.299 98.4303 73.759C98.6603 73.199 98.6703 72.599 98.4603 71.959C98.8903 72.019 99.4203 72.189 100.04 72.559C100.71 72.959 101.57 72.779 102.02 72.149C102.14 71.989 103.17 70.489 102.48 68.719C102.24 68.089 101.81 67.529 101.22 67.049C101.54 67.029 101.86 67.039 102.17 67.089L102.2 67.099ZM96.2003 65.609C95.6703 65.929 95.3903 66.539 95.4903 67.149C95.5903 67.759 96.0603 68.239 96.6603 68.369C97.5403 68.549 98.1703 68.759 98.6203 68.969C97.0103 68.819 95.8003 69.389 95.1903 69.919C94.8903 70.179 94.7003 70.559 94.6703 70.959C94.6403 71.359 94.7803 71.759 95.0503 72.059C95.0903 72.099 95.1203 72.139 95.1503 72.179C91.5103 70.589 87.4403 70.729 87.2603 70.739C86.8403 70.759 86.4403 70.809 86.1703 71.129C85.9003 71.449 85.7703 71.729 85.8303 72.149C85.8303 72.189 85.3603 74.799 78.4003 77.399C78.4203 77.249 78.4403 77.089 78.4403 76.919C78.4403 75.659 77.8903 74.379 77.2403 73.299C77.8903 73.179 78.5103 72.949 79.0103 72.539C79.6603 72.009 80.0203 71.239 80.0203 70.369C80.0203 69.109 79.2803 68.049 78.3403 67.219C79.0003 66.899 79.4503 66.479 79.6803 65.949C79.8503 65.549 80.1303 64.509 79.0503 63.369C77.4003 61.619 66.7403 53.079 59.2803 57.339C59.2203 57.369 59.1703 57.409 59.1203 57.449C58.9103 57.609 54.0103 61.389 54.0103 68.159C54.0103 72.199 55.7503 76.349 59.1803 80.559C46.8203 78.749 42.1403 65.639 41.9203 64.999C41.9103 64.969 41.8903 64.929 41.8803 64.899C41.4103 63.809 41.0303 62.699 40.7203 61.579C41.3903 61.969 42.1903 62.289 43.0203 62.289C43.4903 62.289 43.9603 62.189 44.4303 61.949C45.3103 61.499 45.7803 60.819 45.9703 60.089C46.8203 60.169 47.8603 60.199 48.8403 60.049C49.4803 59.959 49.9903 59.639 50.3003 59.179C52.2303 59.129 53.9103 57.959 55.6603 56.739C58.3603 54.859 61.7203 52.519 67.8403 52.239C79.0803 51.739 87.0503 64.859 87.1303 64.989C87.3803 65.409 87.8303 65.689 88.3203 65.719C88.8103 65.749 89.2903 65.539 89.5903 65.149C92.3203 61.699 94.9203 59.769 96.9303 59.719C95.8703 60.639 95.3503 61.689 95.3103 61.769C95.0603 62.269 95.1203 62.869 95.4503 63.319C95.7803 63.769 96.3303 63.999 96.8903 63.909C99.1503 63.549 100.15 63.879 100.56 64.129C98.2503 64.419 96.3203 65.549 96.2203 65.619L96.2003 65.609ZM73.7303 81.109C72.9203 81.379 71.7703 81.069 71.3903 80.919C70.8703 80.709 70.2803 80.799 69.8503 81.169C69.4203 81.529 69.2403 82.109 69.3603 82.649C69.9103 85.009 69.7403 85.979 69.6303 86.319C61.3903 79.999 57.0203 73.739 57.0003 68.179C56.9803 63.239 60.3003 60.319 60.8503 59.869C65.6503 57.249 73.2403 62.199 76.1403 64.729C75.5303 64.829 74.7303 64.899 74.0103 64.899C73.2903 64.899 72.6703 65.419 72.5403 66.129C72.4103 66.839 72.8103 67.549 73.4903 67.799C75.1803 68.439 76.8403 69.599 77.0203 70.249C76.5803 70.419 75.3903 70.419 74.4403 70.229C73.8003 70.099 73.1303 70.399 72.8203 70.989C72.5103 71.569 72.6103 72.289 73.0803 72.759C73.7503 73.439 75.0503 75.049 75.3803 76.349C74.8903 76.209 74.2103 75.919 73.6603 75.599C73.0303 75.229 72.2303 75.369 71.7603 75.929C71.2903 76.489 71.2903 77.299 71.7603 77.859C72.7003 78.969 73.5703 80.409 73.7603 81.109H73.7303ZM62.6903 109.449C62.6303 109.339 62.5603 109.249 62.4803 109.159C63.2303 108.819 63.9003 108.469 64.3703 108.139C65.9503 107.049 66.1703 105.889 66.6003 103.589C66.8203 102.439 67.1103 100.859 67.6603 98.609C69.2603 92.079 69.7503 90.319 69.7603 90.299C69.8403 90.0191 69.8303 89.729 69.7503 89.449C69.7503 89.439 69.7503 89.419 69.7403 89.409C70.3503 89.389 71.0203 89.1991 71.5903 88.689C71.6703 88.609 71.7503 88.529 71.8203 88.439C71.4003 89.369 71.0303 90.259 71.1403 91.149C71.1503 91.479 70.8403 92.669 70.5703 93.719C69.8003 96.689 68.5203 101.639 68.2503 108.219C67.9603 108.729 66.5403 109.679 62.6903 109.449ZM41.2703 39.569C42.0203 37.389 41.2903 32.949 41.1403 32.079C41.0103 31.359 40.3903 30.839 39.6603 30.839H39.5303C39.1203 30.869 38.7403 30.799 38.3703 30.679C38.6803 29.529 38.5903 28.059 38.0503 26.899C37.7103 26.179 37.2203 25.609 36.6303 25.209C37.2703 24.009 38.2803 22.899 39.9103 22.579C42.2003 22.129 43.8703 23.019 44.8603 23.829C46.1203 24.869 46.7903 26.239 46.7903 27.009C46.7903 28.679 46.0003 32.279 45.3003 35.449C45.0303 36.689 44.7703 37.869 44.5603 38.909C44.4603 39.419 44.2903 40.059 44.1003 40.799C43.2903 43.969 42.0303 48.889 43.1103 52.949C42.2003 53.339 40.8803 53.769 39.5103 53.769C39.2103 46.059 41.2203 39.649 41.2503 39.559L41.2703 39.569ZM28.8203 30.879C29.4103 28.939 33.1903 27.889 34.7103 27.619C34.9003 27.649 35.1003 27.749 35.2703 28.059C35.5403 28.539 35.5903 29.189 35.5403 29.619C34.4003 29.649 32.8303 29.989 30.9703 30.399C30.3603 30.539 29.8403 30.659 29.5203 30.709C29.2803 30.749 29.0403 30.809 28.8103 30.879H28.8203ZM38.1303 58.779C38.1003 58.329 38.2403 57.559 38.5203 56.729C41.3703 57.049 44.0203 55.919 45.2603 55.279C45.8403 55.659 46.6303 56.459 47.1503 57.139C45.9003 57.119 44.7603 56.869 44.7403 56.869C44.2003 56.749 43.6303 56.939 43.2703 57.369C42.9103 57.799 42.8203 58.389 43.0303 58.899C43.0503 58.939 43.1003 59.179 43.0603 59.249C42.8003 59.379 41.7403 58.779 41.0203 57.999C40.7303 57.689 40.3303 57.509 39.9103 57.509H39.7903C39.3303 57.549 38.9103 57.789 38.6503 58.179C38.5303 58.369 38.3203 58.599 38.1403 58.779H38.1303Z" fill="#67787F"/>
</g>
<defs>
<clipPath id="clip0_1218_3616">
<rect width="130" height="130" fill="white"/>
</clipPath>
</defs>
</svg>
