<svg width="130" height="130" viewBox="0 0 130 130" fill="none" xmlns="http://www.w3.org/2000/svg">
<g clip-path="url(#clip0_1218_3621)">
<path d="M102.96 47.1931C107.18 46.6031 110.24 44.9031 112.05 42.1331C114.96 37.6831 113.46 32.1931 113.39 31.9631C113.27 31.5231 112.94 31.1531 112.52 30.9831C112.09 30.8031 111.61 30.8431 111.21 31.0631C109.08 32.2831 107.89 33.4931 107.03 34.3731C106.67 34.7431 106.36 35.0631 106.08 35.2731C105.82 35.4731 105.38 35.5231 104.87 35.5831C104.1 35.6731 103.15 35.7831 102.38 36.5231C101.2 37.6531 99.4804 38.7131 98.6304 38.5331C97.6904 38.3331 96.8404 38.4231 96.1304 38.6131C95.7204 37.5631 95.0304 36.5431 94.2404 35.9431C94.1804 35.7231 94.1804 35.2231 94.1904 34.9031C94.1904 33.8531 94.1904 32.2531 92.8404 31.4331C92.0404 30.9531 91.7104 30.7531 91.3804 28.7031C90.8704 25.5731 88.8504 24.6631 88.6304 24.5631C87.9104 24.2631 87.0804 24.5631 86.7204 25.2631C83.7504 31.0531 84.8504 37.7131 85.6504 42.5731C86.0204 44.8131 86.3704 46.9331 86.0904 47.8331C84.5104 52.9031 75.2004 58.2731 70.1004 58.9531C70.4804 57.7131 70.8204 56.4431 70.0304 55.4231C69.5104 54.7431 68.6504 54.4331 67.5004 54.4731C65.5804 54.5531 63.7404 55.7931 62.0104 58.1631C61.7704 58.5031 61.3004 59.2231 60.8204 60.0631C60.7604 60.0631 60.7104 60.0831 60.6504 60.0831C56.2104 60.7231 51.6304 61.3831 49.3504 61.1731C48.6404 61.1031 47.9004 60.9931 47.1404 60.8831C43.3204 60.3131 38.5604 59.5931 31.2104 62.8231C26.1804 65.0331 24.6304 67.6931 24.1404 69.1031C22.2604 70.0631 21.0504 71.2131 20.8704 72.3431C20.7504 73.1531 21.1104 73.9031 21.8304 74.3031C22.5404 74.7031 23.7304 75.6631 24.1304 76.0031C24.1304 76.0031 24.1404 76.0131 24.1504 76.0231C24.6004 76.3931 31.8104 82.2031 40.4604 86.0231C39.7804 88.1931 39.1504 89.8931 38.8004 90.3031C37.5004 91.3631 36.9004 92.9131 37.3004 94.1631C37.6204 95.1631 38.4904 95.8031 39.6304 95.8931H39.7604C41.4304 95.8931 45.6304 93.9131 48.3904 91.4631C49.2704 90.6831 49.9704 89.8931 50.5004 89.0931C51.6204 89.2531 52.7304 89.3531 53.8304 89.3531H54.4204C58.8604 89.2231 62.9604 88.6831 66.7204 87.7631C69.3204 88.3431 71.8204 88.6131 74.0204 88.6131C77.8604 88.6131 80.7604 87.7931 81.6304 86.4131C82.0804 85.6931 82.1804 84.8731 81.9104 84.1131C81.6204 83.3031 80.9404 82.6131 79.8804 82.0131C81.9704 80.5631 83.8604 78.9031 85.5504 77.0331C94.8604 66.7131 94.9204 53.5231 94.8204 50.7431C95.3604 50.0331 97.3704 47.9731 102.98 47.1931H102.96ZM76.8904 80.3631C76.5504 80.0731 76.1704 79.7531 75.8304 79.4631C74.1604 78.0331 72.5904 76.7331 71.1204 75.7431C78.3204 73.2031 85.6404 69.2231 90.7904 60.1831C89.7304 64.7831 87.5804 70.3031 83.2904 75.0431C81.4304 77.0931 79.2904 78.8631 76.8904 80.3631ZM76.8904 83.9731C77.9604 84.3331 78.5604 84.6831 78.8504 84.9131C77.2704 85.6731 70.9004 86.4731 62.9404 83.5331C55.1504 80.6531 56.1004 73.6631 56.1404 73.3531C56.2704 72.5331 55.7104 71.7731 54.9004 71.6431C54.1704 71.5231 53.4704 71.9731 53.2404 72.6631C51.5104 72.1231 49.7504 71.5331 48.0104 70.9331C41.4104 68.6831 34.5904 66.3731 29.1704 67.4231C29.9504 66.8231 31.0004 66.1931 32.4004 65.5731C38.9504 62.6931 43.0504 63.3031 46.6704 63.8531C47.4904 63.9731 48.2804 64.0931 49.0504 64.1631C51.6804 64.4131 56.2404 63.7531 61.0604 63.0631C64.1604 62.6131 67.3604 62.1531 69.5904 62.0331C75.5504 61.7031 86.8104 55.4831 88.9204 48.7431C89.4204 47.1531 89.0404 44.9231 88.5804 42.0931C87.9304 38.1731 87.1504 33.4531 88.3804 29.1431V29.2031C88.8004 31.7531 89.4404 32.8831 91.1104 33.9331C91.1604 34.1531 91.1604 34.6231 91.1504 34.9131C91.1504 35.9931 91.1504 37.4731 92.3904 38.3431C92.9704 38.7431 93.4804 39.9631 93.5204 40.4431C93.3804 41.0231 93.6004 41.6231 94.0804 41.9931C94.6204 42.4031 95.3604 42.3931 95.9004 41.9931C95.9004 41.9931 96.8904 41.2531 97.9904 41.4831C100.67 42.0431 103.6 39.4931 104.41 38.7231C104.52 38.6631 104.93 38.6131 105.21 38.5731C105.96 38.4831 106.98 38.3631 107.89 37.6631C108.34 37.3131 108.74 36.9131 109.16 36.4731C109.63 35.9931 110.13 35.4731 110.81 34.9331C110.9 36.5131 110.73 38.6731 109.52 40.5031C108.2 42.5131 105.85 43.7631 102.54 44.2231C94.0704 45.4031 92.1004 49.2831 91.9004 49.7231C91.8904 49.7531 91.8904 49.7931 91.8704 49.8231C91.8604 49.8531 91.8404 49.8731 91.8304 49.9131C86.9404 66.3231 76.5304 71.0131 67.0004 73.9431C65.9604 73.7031 65.7304 73.3031 65.4304 72.7231C65.1304 72.1631 64.6904 71.3231 63.6104 70.9631C62.8204 70.7031 61.9704 71.1231 61.7104 71.9131C61.4604 72.6731 61.8404 73.4931 62.5804 73.7831C62.6304 73.8631 62.7104 74.0131 62.7704 74.1331C63.2404 75.0131 64.0304 76.4931 66.8404 76.9831C68.6404 77.2931 71.9104 80.0831 73.8604 81.7531C75.4804 83.1431 76.2204 83.7631 76.8704 83.9831L76.8904 83.9731ZM53.8104 86.3631C41.8604 86.3631 26.4904 74.0731 26.0504 73.7131C25.9004 73.5931 25.1804 72.9931 24.4104 72.4231C25.2604 71.8131 26.9504 70.9531 29.5904 70.3931C34.2304 69.4031 40.7504 71.6231 47.0604 73.7731C49.0904 74.4631 51.1404 75.1631 53.1704 75.7631C53.5604 79.1031 55.4304 83.4031 60.7104 85.8331C58.6704 86.1031 56.5504 86.2831 54.3304 86.3531H53.8204L53.8104 86.3631ZM40.6304 92.6931C40.6304 92.6931 40.6704 92.6631 40.6904 92.6431C41.4904 91.9831 42.3904 89.8131 43.2504 87.1731C44.5504 87.6631 45.8704 88.0831 47.2004 88.4331C45.3504 90.4131 42.2704 92.1031 40.6304 92.6931ZM67.3804 57.5031C67.3104 57.7531 67.2304 58.0231 67.1604 58.2531C67.0704 58.5531 66.9604 58.8931 66.8604 59.2631C66.1804 59.3431 65.4704 59.4231 64.7304 59.5231C65.5404 58.4831 66.4704 57.6531 67.3804 57.5031Z" fill="#67787F"/>
</g>
<defs>
<clipPath id="clip0_1218_3621">
<rect width="130" height="130" fill="white"/>
</clipPath>
</defs>
</svg>
