<svg width="84" height="67" viewBox="0 0 84 67" fill="none" xmlns="http://www.w3.org/2000/svg">
<path d="M12.5103 1.37331C11.0586 1.7154 9.41326 2.69279 7.49375 4.9082C5.83233 6.79782 3.78377 8.99694 3.23534 9.37161C3.04178 9.50193 2.76756 9.64854 2.50948 9.79515C1.52552 10.3164 -0.781115 11.5382 0.267357 13.721C0.412531 14.0305 0.444792 14.2097 0.460922 14.4377C0.606095 15.5455 1.15453 16.0993 2.33204 16.3599C3.73538 16.6532 6.8808 16.4088 7.80023 16.1482C8.30027 16.0993 10.0101 16.2133 10.9618 16.4088C10.6553 23.4134 14.8492 26.9972 18.6398 28.7728C19.5754 30.3855 20.8497 32.4706 22.0917 34.2136C19.7689 36.6571 17.2526 39.2146 16.559 39.7358C15.5589 40.4689 12.8974 42.4399 14.1072 45.7631C14.3653 46.4635 14.8492 48.2554 15.3976 50.1613C17.2526 56.8239 17.7849 58.404 18.3817 59.023C19.1721 59.8212 22.2692 62.0529 22.8821 62.4927C23.1241 62.6556 23.3821 62.7533 23.6725 62.7533C23.8499 62.7533 24.0112 62.7208 24.1725 62.6556C24.5919 62.4764 24.9145 62.1018 25.0113 61.6456C25.2855 60.2447 26.0437 55.5044 24.2048 53.5333C23.0273 52.2627 21.382 46.7079 21.5917 45.3721C21.882 45.03 22.6563 44.1992 23.3821 43.4173C25.4791 41.1856 27.0276 39.4915 28.1245 38.1557C28.2535 38.172 28.3987 38.1883 28.5277 38.1883C28.8665 41.9838 29.5601 48.5161 30.5279 49.9821C31.3021 51.155 32.6571 57.8175 32.3345 59.6583C32.1732 60.5216 31.0118 61.5479 30.3182 62.1832C29.5439 62.8674 29.0278 63.3235 29.0116 64.0891C28.9955 64.4638 29.1729 64.9036 29.431 65.1805C29.6891 65.4575 30.1246 65.881 33.9637 66.4837C34.0282 66.5 34.0927 66.5 34.1733 66.5C34.5121 66.5 34.8508 66.3697 35.1089 66.1416L38.7544 62.6882C39.077 62.395 39.2221 61.9714 39.1738 61.5316L38.4156 54.8039C37.9962 51.1876 37.5446 47.0825 37.5446 46.5776C37.5446 46.2355 37.593 44.3947 37.6575 42.4074C37.7059 40.6806 37.7543 38.9213 37.7865 37.8136C38.706 37.6019 40.4803 37.3901 43.1096 38.1557C47.368 39.3937 55.0138 40.0942 59.0625 37.3087C61.1272 39.7521 63.7564 43.4336 64.0145 45.3884C64.3532 47.9622 63.2886 49.3305 59.0141 51.8229C55.0621 54.136 54.4653 54.6736 54.0782 56.3026L54.0298 56.4818C54.0137 56.5306 52.82 62.4764 54.1427 64.2846C54.4653 64.7244 54.9331 65.0013 55.4654 65.0176C59.869 65.2783 60.2561 61.9389 60.4174 60.5054C60.4497 60.2447 60.4819 59.8701 60.4819 59.8375C61.2401 58.7298 68.3052 53.5007 70.6602 52.6537C72.0635 52.1487 73.0798 50.8129 73.4991 48.8907C73.612 48.3369 73.6927 47.7504 73.7088 47.1314C74.2895 47.4735 74.8057 47.783 75.0154 47.9785C75.5638 48.5323 76.1606 51.9369 76.1606 55.9605C76.1606 56.8239 76.2736 57.4429 76.3703 57.8827C76.4026 58.013 76.4187 58.1596 76.4349 58.2411C76.3381 58.3551 76.0316 58.6483 75.1283 59.251C74.0476 59.9841 73.9669 62.1506 74.4024 63.3235C74.838 64.5289 75.8058 65.2294 77.0156 65.2294C77.1446 65.2294 77.2736 65.2294 77.4027 65.2131C80.1287 64.9036 84 60.9452 84 59.023C84 58.5669 83.8387 57.3451 83.4193 54.2012C82.9838 50.9595 82.387 46.5124 82.387 45.2418C82.387 43.0427 80.0803 41.8209 78.3866 40.925C77.9995 40.7132 77.4511 40.42 77.193 40.2408C76.9349 38.9865 75.951 36.0218 75.6283 35.0607C75.5154 34.7186 75.4186 34.4091 75.3057 34.1158C76.3703 32.552 77.2736 30.9068 77.6124 29.6036C78.4995 26.2642 77.7414 18.722 71.9506 15.578C69.0794 14.0142 58.514 9.43677 41.5772 15.4314C40.1093 15.0079 35.5283 13.9165 29.9633 15.2522C27.947 15.7409 25.9791 14.6495 24.6887 13.6395C23.2208 12.5155 22.0756 11.1146 21.2691 9.92547C24.5919 7.6286 25.9146 2.54618 25.9791 2.25296C26.0759 1.862 25.9953 1.45476 25.7694 1.12896C25.5275 0.803167 25.1726 0.591399 24.7855 0.55882C21.3659 0.265603 18.8979 1.11267 17.2042 2.12264C17.1074 2.07377 17.0268 2.00861 16.93 1.94345M9.54231 6.71637C12.2038 3.6376 13.7846 3.84936 14.7685 4.11C14.704 4.19145 14.6234 4.2729 14.5588 4.32177C14.5105 4.37064 14.4782 4.40322 14.4459 4.4358C14.0588 4.68014 13.8169 5.10368 13.8169 5.59237C13.8169 6.3417 14.4298 6.96072 15.1718 6.96072C15.8009 6.96072 16.1558 6.58605 16.4945 6.22768C17.2526 5.42948 19.0915 3.50728 22.7853 3.3118C21.9465 5.42948 20.1399 8.73631 17.2526 8.34535C16.5106 8.24761 15.8331 8.76889 15.7202 9.51822C15.6234 10.2676 16.1396 10.9517 16.8816 11.0658C17.2042 11.1146 17.4946 11.1309 17.7849 11.1309C18.1075 11.1309 18.3979 11.0983 18.7043 11.0495C18.8818 11.3427 19.0753 11.6196 19.2689 11.8965C21.8336 15.5455 26.1566 19.0641 30.5924 18.0052C36.4155 16.6043 41.0933 18.2333 41.1417 18.2496C41.432 18.3636 41.7707 18.3636 42.0611 18.2496C58.1914 12.4015 68.031 16.6369 70.6602 18.0704C75.0638 20.465 75.6606 26.4596 74.9993 28.9846C74.3379 31.5095 70.6763 35.9892 69.7569 36.5267C69.3375 36.7711 68.7891 37.2598 68.6278 38.3186C68.3374 40.3223 69.6279 43.9549 70.7247 45.0626C70.9828 45.421 71.2732 47.2129 70.7731 48.7767C70.6118 49.298 70.3053 49.9658 69.7569 50.1613C67.1922 51.0898 58.9657 56.9053 58.1108 58.632C57.8688 59.1207 57.8043 59.6746 57.7237 60.261C57.5624 61.5642 57.4817 62.2647 56.2719 62.3461C56.1268 61.0918 56.401 58.1922 56.6591 57.1822L56.7074 56.9705C56.8204 56.4818 56.8688 56.2537 60.3529 54.2175C64.1758 51.9858 67.3051 49.7541 66.676 45.0463C66.1598 41.2019 60.7884 35.1747 60.1755 34.5068C59.9174 34.2299 59.5625 34.067 59.1754 34.067C58.7883 34.067 58.4334 34.2299 58.1753 34.5068C55.7074 37.1946 48.2713 36.8525 43.8354 35.5494C38.7866 34.0833 36.0445 35.5005 35.7541 35.6634C35.3347 35.9077 35.0605 36.3638 35.0605 36.8525C35.0605 37.4064 34.996 40.029 34.9153 42.3422C34.8508 44.4273 34.8024 46.2355 34.8024 46.5938C34.8024 47.3758 35.4799 53.3215 35.6896 55.1297L36.3671 61.1732L33.7056 63.6982C33.4314 63.6493 33.141 63.6004 32.8668 63.5353C33.754 62.6719 34.7218 61.5316 34.9637 60.1633C35.3831 57.7687 33.9637 50.3568 32.7539 48.5161C32.2377 47.5875 31.4796 41.6906 31.0763 36.7548C31.0118 36.0218 30.3666 35.4353 29.6407 35.5005C29.0923 35.5331 27.4147 35.5168 26.3017 35.0607C25.4468 34.5883 22.7208 30.5484 20.7045 27.0624C20.5593 26.818 20.3496 26.6225 20.0754 26.4922C15.446 24.4397 13.2684 20.9537 13.6394 16.1156C13.6717 15.8061 13.6717 15.5943 13.6555 15.4803C13.6233 15.2034 13.4942 14.6658 12.8813 14.2748C11.7199 13.5255 7.80023 13.2649 6.97758 13.5418C6.5098 13.6721 4.09025 13.8676 3.02565 13.7373C2.97726 13.4929 2.8966 13.1671 2.75143 12.8088C2.99339 12.6296 3.44504 12.3852 3.70312 12.2549C4.04186 12.0757 4.39673 11.8802 4.7032 11.6685C5.78394 10.9191 8.8487 7.44941 9.46166 6.76524V6.74895L9.54231 6.71637ZM77.1446 43.3848C77.9189 43.792 79.6932 44.7368 79.6932 45.2744C79.6932 46.6264 80.161 50.145 80.7578 54.6084C80.9997 56.384 81.274 58.3877 81.3062 58.9578C80.9514 59.8049 78.5318 62.3624 77.1123 62.5253H77.0317C76.8865 62.3298 76.8543 61.7271 76.9349 61.3687C78.9835 59.9515 79.4028 59.137 79.0641 57.3777C78.9996 57.003 78.9028 56.5795 78.9028 55.9768C78.9028 53.4682 78.6931 47.4572 76.7575 45.8771C76.3381 45.535 75.6767 45.1441 74.8541 44.6391C74.2895 44.297 73.6282 43.906 72.9346 43.4662C72.8378 43.3359 72.7571 43.2056 72.6604 43.0915C72.0797 42.5051 71.1441 39.6544 71.2731 38.7096C71.8216 38.3349 72.5474 37.6182 73.3056 36.7222C73.9347 38.6118 74.4831 40.4363 74.5476 40.8924C74.6767 42.0816 75.7735 42.6517 77.1446 43.3848ZM21.4304 41.544C20.2529 42.7983 19.6238 43.4662 19.3496 43.8409C17.801 45.9423 20.769 53.8265 22.253 55.4066C22.6724 55.8465 22.7692 57.3451 22.6563 58.9252C21.6885 58.2085 20.7529 57.4917 20.3819 57.1497C19.9303 56.3026 18.7366 52.0184 18.0107 49.4283C17.4462 47.392 16.9461 45.6165 16.6719 44.8345C16.3493 43.9386 16.4945 43.2056 18.1882 41.9513C19.0753 41.2834 21.7368 38.563 23.8338 36.3638C24.3177 36.8851 24.7694 37.2598 25.1565 37.4715C23.8661 38.9539 22.3337 40.5829 21.4304 41.544Z" fill="#67787F"/>
</svg>
