<svg width="104" height="67" viewBox="0 0 104 67" fill="none" xmlns="http://www.w3.org/2000/svg">
<path d="M83.6772 26.2187C82.3958 25.1267 81.2156 23.8945 80.1311 22.7262C79.7313 22.2959 79.3218 21.8746 78.913 21.4533C78.6579 21.1903 78.4023 20.9279 78.1496 20.6627C78.0201 20.527 77.8747 20.3862 77.7243 20.2409C77.5337 20.0559 77.3341 19.8597 77.1571 19.6624C77.7175 19.7166 78.2463 19.7477 78.7252 19.7477C83.8718 19.7477 84.5272 16.8976 84.5554 16.7631C84.6442 16.3333 84.3727 15.9239 83.9458 15.8227C83.5228 15.722 83.0863 15.9895 82.9726 16.4131C82.9675 16.4323 82.4569 18.1236 78.7461 18.1271C78.8298 17.9999 78.9073 17.8698 78.9774 17.7363C81.5577 17.4502 82.5067 14.621 82.6435 13.0733C82.6831 12.6277 82.3545 12.2358 81.9095 12.1951C81.4695 12.1544 81.0708 12.4835 81.0284 12.9279C81.0183 13.0354 80.8079 15.1018 79.5656 15.8634C79.699 14.9207 79.6323 14.0051 79.487 13.3356C79.3925 12.899 78.9616 12.6236 78.5251 12.7164C78.088 12.8103 77.8092 13.2412 77.9025 13.6783C77.9296 13.8084 78.4363 16.3107 77.0226 17.6763C76.7427 17.1085 76.2354 16.2824 75.4154 15.3855C78.205 13.3555 77.9945 9.90483 77.9838 9.75094C77.9516 9.30421 77.5608 8.97339 77.1164 9.0011C76.6696 9.03333 76.3343 9.42181 76.3665 9.86856C76.3688 9.89797 76.5412 12.7571 74.2182 14.237L73.9942 14.0493C73.5922 13.7128 73.1522 13.3441 72.7021 12.9415C73.094 11.6471 73.12 10.5223 73.1211 10.4273C73.1262 9.97945 72.7677 9.61246 72.3198 9.60736H72.3102C71.8668 9.60736 71.5049 9.96418 71.4993 10.4087C71.4993 10.4228 71.488 10.9397 71.3585 11.6347C70.8687 11.1105 70.3971 10.5376 69.9747 9.90876C70.7681 9.39303 71.2753 8.62396 71.393 7.71744C71.5462 6.53783 71.1996 5.36441 70.8818 4.58861C70.7121 4.17467 70.2405 3.97731 69.8243 4.14583C69.4098 4.31548 69.2113 4.78879 69.3815 5.2033C69.6247 5.7982 69.8927 6.68151 69.7853 7.50943C69.7321 7.91827 69.5189 8.2474 69.1672 8.50074C68.6226 7.34713 68.2709 6.03523 68.2567 4.53386C68.2522 4.08656 67.9129 3.75461 67.4385 3.73086C66.9906 3.73538 66.631 4.10126 66.6355 4.54912C66.6519 6.21219 67.0251 7.67013 67.5974 8.95261C67.2417 8.95544 66.8865 8.91472 66.5716 8.79711C66.1554 8.63934 65.6855 8.85309 65.5283 9.27211C65.3711 9.69114 65.5837 10.1582 66.0033 10.3154C66.4879 10.497 67.0251 10.5857 67.5651 10.5857C67.8552 10.5857 68.1436 10.5507 68.4275 10.5004C69.1338 11.6161 69.973 12.5672 70.8049 13.3827C70.452 14.1155 69.9193 14.7862 69.1175 15.1403C67.7196 13.9408 66.256 12.4292 65.3559 10.5581C64.2532 8.26618 64.014 4.97449 64.7751 2.55357C64.9091 2.12663 64.6716 1.6714 64.2447 1.53682C63.8205 1.4045 63.3625 1.63974 63.2279 2.06726C62.598 4.07198 62.5612 6.50984 63.0453 8.71463C62.4351 8.60096 61.6321 8.33405 60.9841 7.68712C60.0923 6.79648 59.6919 5.39461 59.7943 3.52003C59.8186 3.07273 59.4759 2.69045 59.0292 2.66614C58.5892 2.63617 58.1996 2.98451 58.1753 3.43126C58.0458 5.79789 58.6113 7.62093 59.8553 8.85101C61.1214 10.1024 62.7308 10.3621 63.5412 10.4096C63.6509 10.7008 63.7634 10.9892 63.894 11.2606C65.2037 13.9818 67.5788 16.0362 69.251 17.3453C70.5341 18.3496 72.7746 20.1026 75.0546 20.1026C75.1847 20.1026 75.3148 20.0902 75.4448 20.0783C75.7575 20.585 76.1935 21.0159 76.5973 21.4061C76.7313 21.5362 76.8614 21.6611 76.9767 21.7822C77.2329 22.0508 77.4913 22.3166 77.7498 22.5829C78.1507 22.9957 78.5516 23.4085 78.943 23.8292C80.0609 25.0337 81.2806 26.3066 82.6249 27.4529C83.0445 27.8103 83.3312 28.52 83.2509 29.0023C83.208 29.259 83.0705 29.4202 82.8059 29.5248C82.1855 29.7686 81.2366 29.6289 80.1379 29.4677C79.0182 29.3026 77.6554 29.1035 76.1636 29.2523C76.1919 29.0091 76.2365 28.7761 76.2592 28.5301C76.3004 28.084 75.9725 27.6892 75.5263 27.6485C75.0767 27.6061 74.6854 27.9358 74.6447 28.3814C74.5078 29.8709 74.2573 31.2971 73.9011 32.6215C73.2672 34.9778 71.7821 37.323 69.3596 39.7907C68.0392 41.136 66.7396 42.0871 65.3881 42.6979C64.17 43.2476 62.8642 43.4506 61.4936 43.6095C61.9166 42.9185 62.3045 42.1963 62.5884 41.4069C63.2449 39.5821 63.5576 37.4083 63.4926 35.1769C63.5 34.9902 63.6464 30.5805 61.052 28.0602C60.7308 27.748 60.2173 27.7559 59.9058 28.0766C59.5936 28.3978 59.6015 28.9112 59.9222 29.2228C61.993 31.2343 61.8742 35.074 61.8726 35.1662C61.9314 37.2534 61.6509 39.2214 61.0628 40.8578C60.6296 42.0612 59.9064 43.1237 59.1396 44.2485C58.2947 45.4881 57.4211 46.7706 56.9223 48.3014C55.8994 51.4393 55.8338 54.4613 56.0498 58.0336C56.1832 60.2486 56.6786 62.0214 57.757 64.0063L55.2977 63.9741C54.8566 63.9696 54.4823 64.3264 54.4766 64.7743C54.471 65.2221 54.8289 65.5897 55.2768 65.5954L59.1781 65.6463H59.1888C59.4823 65.6463 59.7526 65.4873 59.8968 65.2312C60.0416 64.9716 60.0331 64.6532 59.8742 64.4016C58.4311 62.121 57.8136 60.3081 57.6699 57.9358C57.4595 54.4513 57.5189 51.7079 58.4655 48.8042C58.8676 47.5698 59.5773 46.4936 60.3395 45.3722L60.9423 45.305C62.6365 45.12 64.3891 44.9283 66.0572 44.1751C67.5953 43.4807 69.0549 42.4181 70.5189 40.9268C73.141 38.2543 74.7607 35.6757 75.4692 33.0427C75.6529 32.3585 75.8079 31.6477 75.938 30.9187C77.3732 30.705 78.7167 30.8984 79.9032 31.0725C80.6367 31.1806 81.3147 31.2806 81.9475 31.2806C82.4604 31.2806 82.9433 31.2151 83.402 31.0347C84.1993 30.7208 84.7139 30.0942 84.8513 29.2708C85.0238 28.2292 84.5307 26.9466 83.6774 26.2189L83.6772 26.2187ZM70.4668 16.2366C71.1493 15.7774 71.6588 15.1695 72.0349 14.513C72.3583 14.7935 72.6688 15.0531 72.9549 15.2923L73.2592 15.5468C74.6084 16.6811 75.2803 17.8025 75.5811 18.4211C73.8631 18.7819 71.6741 17.1759 70.4668 16.2366Z" fill="#67787F"/>
<path d="M54.6061 53.8096C54.2204 52.1255 54.1978 50.4313 54.174 48.6381C54.1678 48.1676 54.1616 47.696 54.148 47.2244C54.1033 45.6093 53.9461 43.9761 53.7946 42.3967C53.7273 41.6966 53.6606 40.9971 53.6023 40.2993L51.9867 40.4333C52.045 41.1379 52.1128 41.8442 52.1807 42.5517C52.2225 42.9877 52.2604 43.4333 52.3 43.8755C50.3666 43.9253 44.3022 44.0423 39.0263 43.7274C40.4784 42.4889 41.2487 41.415 41.3057 41.3331C41.5625 40.9672 41.4731 40.4628 41.1073 40.2055C40.7414 39.9488 40.237 40.0375 39.9785 40.4017C39.9553 40.4351 37.5712 43.7585 33.135 45.2689C28.0122 47.0129 25.4414 50.8266 25.4414 52.4716C25.4414 53.5596 25.6161 54.6442 25.7858 55.692C25.8316 55.9759 25.8774 56.2575 25.9187 56.5369C25.9831 56.9695 26.0335 57.4208 26.0849 57.8794C26.2665 59.495 26.4542 61.1654 27.2267 62.6063C27.5241 63.1604 27.8668 63.6892 28.2197 64.201L26.6539 64.1756H26.6403C26.1992 64.1756 25.8373 64.5296 25.8299 64.9735C25.8226 65.4213 26.18 65.79 26.6279 65.7974L29.7861 65.8483H29.7991C30.0982 65.8483 30.3736 65.6832 30.515 65.4185C30.6581 65.1499 30.6383 64.8236 30.4641 64.5737L30.0728 64.0195C29.5712 63.3126 29.0532 62.582 28.6556 61.84C28.0308 60.6751 27.8606 59.1619 27.6966 57.6984C27.6429 57.2206 27.5897 56.7506 27.523 56.2994C27.48 56.0132 27.4336 55.7248 27.3867 55.4342C27.2278 54.4491 27.0627 53.4306 27.0627 52.4721C27.0627 51.6471 29.0464 48.3745 33.6575 46.8048C34.9496 46.3649 36.0767 45.792 37.0443 45.1847C37.0901 45.1966 37.1308 45.2198 37.18 45.2238C40.4168 45.4912 44.1875 45.5608 47.2338 45.5608C49.6015 45.5608 51.5259 45.5189 52.4268 45.4952C52.4686 46.089 52.511 46.6838 52.5274 47.2703C52.5399 47.734 52.5466 48.1977 52.5523 48.6603C52.576 50.4597 52.6004 52.3201 53.0256 54.1727C53.5583 56.4979 53.7296 62.9169 53.7319 62.9814L55.3526 62.9396C55.3458 62.6681 55.175 56.2928 54.6061 53.8098L54.6061 53.8096Z" fill="#67787F"/>
<path d="M26.4291 62.5523C25.237 58.0046 23.4501 50.8461 23.4127 49.6823C23.3652 48.2245 23.3522 47.8326 24.6178 46.6897C26.2363 45.2273 26.7599 44.6229 26.7599 43.048C26.7599 41.8112 26.3261 38.2905 24.3446 36.8672C23.9816 36.6059 23.4754 36.689 23.2131 37.0527C22.9518 37.4163 23.0344 37.9229 23.3985 38.1842C24.7003 39.1201 25.1386 41.9164 25.1386 43.0486C25.1386 43.8788 25.0894 44.0795 23.531 45.4871C21.7887 47.0608 21.7366 48.0261 21.795 49.8137C21.847 51.4293 24.5529 61.7886 24.8611 62.9642C24.9567 63.3284 25.2852 63.5699 25.6449 63.5699C25.7127 63.5699 25.7817 63.5614 25.8507 63.5427C26.2839 63.4285 26.5429 62.9857 26.4292 62.5526L26.4291 62.5523Z" fill="#67787F"/>
<path d="M22.5017 37.7854C22.845 32.9805 24.5426 31.0719 26.9035 28.8998C29.0478 26.9268 34.2945 26.3631 38.1353 26.4789C41.643 26.5852 44.2912 26.5179 46.7228 26.2617C47.7831 26.1498 48.8355 25.9586 49.8528 25.7743C51.7258 25.4344 53.4929 25.1138 55.3183 25.2404C56.3843 25.3145 57.4361 25.5164 58.5501 25.7296C59.9536 25.9982 61.4047 26.2764 62.8862 26.2764C65.4055 26.2764 69.8321 23.7707 71.0741 23.0379C71.3494 23.3376 71.6763 23.6311 72.1033 23.8895C72.2345 23.9692 72.3798 24.0071 72.5228 24.0071C72.7971 24.0071 73.0646 23.868 73.2167 23.6169C73.4491 23.2335 73.327 22.7353 72.9441 22.5035C72.3696 22.1551 72.0303 21.7265 71.8318 21.3555C72.9266 21.4975 73.5803 22.0471 73.625 22.0861C73.9581 22.3819 74.4676 22.3531 74.7656 22.0222C75.0653 21.6892 75.0382 21.1768 74.7057 20.8777C74.6412 20.8194 73.0929 19.4583 70.6499 19.7393C70.2247 19.788 69.9103 20.1589 69.9323 20.5865C69.934 20.6255 69.9713 21.079 70.2032 21.6699C68.5282 22.6522 64.7309 24.6557 62.8863 24.6557C61.5585 24.6557 60.2455 24.4041 58.8554 24.1378C57.7437 23.9246 56.594 23.704 55.4308 23.6237C53.4074 23.4835 51.4531 23.8369 49.5639 24.1796C48.5754 24.3583 47.5535 24.5438 46.5532 24.6495C44.1968 24.8983 41.6148 24.9628 38.185 24.8587C36.6848 24.8158 29.0342 24.7366 25.8058 27.7072C23.3408 29.9748 21.2688 32.2905 20.8849 37.67C20.8532 38.1167 21.1891 38.5046 21.6359 38.5363C21.6556 38.5374 21.6749 38.538 21.6947 38.538C22.1154 38.538 22.4712 38.2123 22.5017 37.7854Z" fill="#67787F"/>
<path d="M77.8781 24.5032C77.8781 25.0184 77.4608 25.4357 76.9462 25.4357C76.4316 25.4357 76.0137 25.0184 76.0137 24.5032C76.0137 23.9886 76.4316 23.5713 76.9462 23.5713C77.4608 23.5713 77.8781 23.9886 77.8781 24.5032Z" fill="#67787F"/>
</svg>
