<svg width="130" height="130" viewBox="0 0 130 130" fill="none" xmlns="http://www.w3.org/2000/svg">
<g clip-path="url(#clip0_1218_3633)">
<path d="M19.4624 34.3302C19.4024 34.4802 19.3624 34.6402 19.3524 34.8102C18.8624 41.8202 18.2724 53.8902 19.8124 56.0002C21.6224 58.4602 23.9224 59.3702 26.6724 58.6802L28.7824 58.1502C29.4824 57.9702 29.9624 57.3202 29.9124 56.6002C29.8024 54.8802 30.0224 52.5502 30.5024 51.9702C30.8324 51.5602 31.2024 51.1702 31.5724 50.7702C32.0324 50.2802 32.5124 49.7602 32.9924 49.1702C33.5924 50.5102 34.0424 51.7702 34.0424 52.3402V53.0202C33.9824 59.4202 34.2424 63.7002 34.8524 66.3002C29.1224 67.6902 21.3924 70.3902 20.9724 74.9102C20.3924 81.1102 25.3524 90.3902 26.3524 91.9602C27.3324 93.5002 31.8024 97.6302 32.6824 98.4402C32.9624 98.7002 33.3224 98.8302 33.6924 98.8302C33.7724 98.8302 33.8624 98.8302 33.9424 98.8102C34.4024 98.7302 34.7924 98.4502 35.0124 98.0402C38.0224 92.4002 37.5524 91.1502 37.3724 90.6702C37.1824 90.1702 36.8124 89.7902 36.3224 89.6102C35.6524 89.3602 34.9924 89.1602 34.5524 89.0402L32.2924 86.1802C32.0424 85.1702 31.2424 82.0002 30.6424 79.7902C34.0524 79.6702 40.2724 79.2702 45.0024 78.0502C46.7224 81.5602 52.3924 94.9102 52.5624 96.6102C52.5624 97.5102 52.2624 99.2202 52.0224 100.6C51.7624 102.11 51.5924 103.07 51.5924 103.7C51.5924 104.53 52.2624 105.2 53.0924 105.2H58.7724C59.2124 105.2 59.6424 105 59.9224 104.66C60.2124 104.32 60.3224 103.87 60.2424 103.43C60.2424 103.43 60.1524 102.71 60.7524 102.12C62.2524 100.62 62.9124 98.7202 62.4324 97.2802C62.2624 96.7702 61.9324 96.3702 61.5924 95.9502C61.0324 95.2602 60.3924 94.4902 60.2624 93.1102C60.0024 90.5002 58.6824 85.4102 58.5224 84.7902C57.9224 81.5602 57.3024 78.0702 56.9624 76.0002C60.4324 76.4002 67.8224 76.9002 74.9824 75.1302C74.9524 77.0402 75.1824 79.4802 76.1024 82.1802C77.4224 86.1102 77.2424 86.3402 76.9424 86.7202C76.7524 86.9602 76.4824 87.2902 76.2224 87.7602C76.0024 88.1402 75.1324 89.2602 74.2024 90.4502C69.6924 96.2302 65.6624 101.67 66.0024 104.77C66.0824 105.53 66.7224 106.11 67.4924 106.11H73.0824C73.6324 106.11 74.1424 105.8 74.4024 105.32L76.5924 101.21C77.0824 100.48 82.2824 92.8202 86.3524 90.4902C86.5324 90.3902 86.6924 90.2502 86.8124 90.0802C86.9924 89.8302 88.5524 87.5202 86.6924 83.0402C86.2624 82.0002 86.5524 80.4202 87.1524 78.7802C88.8424 80.5302 90.6424 82.0002 92.1824 82.4102C98.2924 84.0502 101.002 90.2302 101.302 92.2902C101.622 94.5302 102.342 97.6402 102.642 98.9102C102.142 99.8602 101.242 101.84 101.242 103.68C101.242 104.51 101.912 105.18 102.742 105.18H108.092C108.412 105.18 108.722 105.08 108.982 104.89C109.482 104.52 111.142 103.22 111.662 101.93C112.032 101.01 111.712 99.7802 110.722 96.3702C110.082 94.1702 109.362 91.6802 109.182 89.9202C108.972 87.9202 108.402 86.8302 107.982 86.0402C107.582 85.2802 107.472 85.0802 107.742 84.1502C108.272 82.2802 106.952 80.4202 105.412 78.2802C104.002 76.3102 102.432 74.1202 102.312 71.9602L110.552 70.5502C111.302 70.4202 111.832 69.7602 111.802 69.0002C111.362 59.6702 108.832 53.3202 104.282 50.1302C100.322 47.3502 96.1024 47.9002 94.5824 48.2302C88.1624 45.4102 78.8624 42.5702 68.7624 46.7502C64.3624 48.5702 59.6824 47.6102 55.6824 45.7802L58.5624 40.1502C58.8024 39.6902 58.7824 39.1302 58.5024 38.6802C58.2224 38.2302 57.7424 37.9602 57.2224 37.9602C55.6524 37.9602 53.5124 36.0002 51.2424 33.9202C48.2024 31.1302 44.4324 27.6702 39.4524 26.2702C33.8624 24.7002 29.0124 26.2902 25.9324 27.8802C25.1324 28.0902 24.3724 28.4102 23.6724 28.8502C22.7124 28.4702 21.6424 28.1302 20.5524 27.9502C20.1524 27.8802 19.7524 27.9802 19.4224 28.2102C19.0924 28.4402 18.8824 28.8002 18.8124 29.1902C18.7924 29.3402 18.4324 31.7902 19.5024 34.1502C19.4824 34.2002 19.4524 34.2402 19.4324 34.2902L19.4624 34.3302ZM21.8224 31.3902C24.0024 32.1202 25.8324 33.3202 25.8524 33.3402C26.5424 33.8002 27.4724 33.6102 27.9324 32.9202C28.3924 32.2302 28.2024 31.3002 27.5124 30.8402C27.4924 30.8302 27.4124 30.7802 27.2824 30.7002C31.2924 30.1502 37.0324 33.7802 44.4024 41.5102C48.8024 46.1302 59.8024 53.7502 69.9124 49.5602C79.3824 45.6402 87.9724 48.5202 94.3924 51.4702C100.472 54.2602 100.732 64.4202 99.4724 70.1602C98.6324 74.0002 101.042 77.3602 102.972 80.0602C103.722 81.1102 104.982 82.8602 104.862 83.3602C104.262 85.4502 104.832 86.5202 105.332 87.4702C105.682 88.1402 106.052 88.8302 106.202 90.2602C106.412 92.2802 107.172 94.9102 107.842 97.2302C108.222 98.5502 108.732 100.32 108.802 100.97C108.602 101.27 108.102 101.77 107.572 102.21H104.512C104.812 101.24 105.292 100.32 105.522 99.9302C105.722 99.5902 105.782 99.1902 105.692 98.8102C105.682 98.7702 104.652 94.5702 104.272 91.9002C103.842 88.8602 100.382 81.5402 92.9624 79.5502C90.7824 78.9702 86.2324 73.4102 83.7024 69.6502C83.2424 68.9802 82.3324 68.7902 81.6524 69.2202C71.6924 75.5302 55.6324 72.8302 55.4724 72.8002C55.0324 72.7202 54.5824 72.8402 54.2524 73.1302C53.9124 73.4102 53.7124 73.8402 53.7124 74.2802C53.7124 75.2402 55.0224 82.3902 55.5824 85.4302C55.5824 85.4702 55.5924 85.5002 55.6024 85.5402C55.6124 85.5902 57.0324 90.9602 57.2724 93.4502C57.5024 95.7202 58.6024 97.0802 59.2724 97.8902C59.4024 98.0502 59.5724 98.2602 59.5824 98.2602C59.6224 98.4402 59.4724 99.1902 58.6224 100.04C57.8924 100.77 57.5424 101.56 57.3724 102.24H54.7824C54.8424 101.89 54.9024 101.52 54.9724 101.16C55.2624 99.5102 55.5624 97.8102 55.5624 96.6602C55.5624 94.2502 48.3124 77.9202 47.4224 76.2402C46.6724 74.8202 44.7224 73.1102 42.4724 71.1302C40.7324 69.6002 38.9424 68.0302 38.2324 66.9902C37.7424 66.2802 36.9424 63.5302 37.0324 53.0902V52.3902C37.0324 50.2702 34.9024 46.2702 34.4724 45.4802C34.2024 44.9902 33.6824 44.6702 33.1224 44.7002C32.5624 44.7102 32.0624 45.0302 31.8124 45.5302C31.1624 46.8302 30.2524 47.8202 29.3624 48.7602C28.9424 49.2102 28.5324 49.6502 28.1624 50.1002C27.0724 51.4302 26.8824 53.9702 26.8724 55.5602L25.9224 55.8002C24.3924 56.1802 23.2924 55.7202 22.2524 54.3202C21.6224 53.0302 21.7224 44.8902 22.1824 37.2702C22.4224 37.4202 22.6924 37.4902 22.9624 37.4902C23.4624 37.4902 23.9524 37.2402 24.2424 36.7802C24.6824 36.0802 24.4624 35.1502 23.7624 34.7102C22.4324 33.8802 21.9624 32.5002 21.8124 31.4002L21.8224 31.3902ZM38.6624 29.1902C42.9424 30.4002 46.2824 33.4602 49.2324 36.1602C51.2824 38.0402 53.1224 39.7302 55.0224 40.5202L53.0324 44.4202C50.1324 42.7102 47.8124 40.7202 46.5724 39.4302C44.3424 37.0902 38.7924 31.2702 33.0024 28.7902C34.7424 28.5702 36.6524 28.6302 38.6524 29.1902H38.6624ZM102.752 68.8702C103.522 63.6202 103.292 55.6902 98.9524 51.1302C100.102 51.3302 101.372 51.7702 102.602 52.6402C106.082 55.1002 108.192 60.3502 108.742 67.8502L102.752 68.8702ZM83.9324 84.2102C84.8524 86.4402 84.6124 87.7102 84.4724 88.1502C79.6924 91.1602 74.2924 99.2802 74.0624 99.6402C74.0324 99.6802 74.0124 99.7202 73.9924 99.7602L72.1924 103.14H69.2724C70.4424 100.18 74.7624 94.6302 76.5724 92.3202C77.8424 90.6902 78.5224 89.8102 78.8324 89.2702C78.9824 89.0002 79.1424 88.8102 79.3024 88.6102C80.5824 87.0102 80.5224 85.9102 78.9524 81.2502C78.0024 78.4202 77.9124 75.9402 78.0424 74.2302C79.4124 73.7502 80.7524 73.1802 82.0224 72.4802C82.7324 73.4702 83.7624 74.8702 84.9424 76.3102C83.8224 78.8002 82.9524 81.8602 83.9324 84.2202V84.2102ZM33.3224 91.8302C33.3224 91.8302 33.7824 91.9502 34.3824 92.1302C34.1824 92.7902 33.7624 93.8002 33.2524 94.8802C31.3824 93.1102 29.3224 91.0502 28.8824 90.3602C27.6624 88.4402 23.5024 80.1202 23.9624 75.2002C24.1824 72.8102 30.2724 70.5102 36.1024 69.1102C37.1024 70.3602 38.7524 71.8202 40.4924 73.3402C41.2624 74.0202 42.1224 74.7702 42.8724 75.4802C38.6624 76.3302 32.9624 76.7802 28.6424 76.8502C28.1624 76.8502 27.7224 77.0902 27.4424 77.4802C27.1624 77.8702 27.0924 78.3702 27.2424 78.8202C27.6424 80.0302 28.8724 84.8402 29.4624 87.2202C29.5124 87.4302 29.6124 87.6202 29.7424 87.7902L32.5024 91.2902C32.7124 91.5502 32.9924 91.7402 33.3124 91.8202L33.3224 91.8302Z" fill="#67787F"/>
</g>
<defs>
<clipPath id="clip0_1218_3633">
<rect width="130" height="130" fill="white"/>
</clipPath>
</defs>
</svg>
