<svg width="130" height="130" viewBox="0 0 130 130" fill="none" xmlns="http://www.w3.org/2000/svg">
<g clip-path="url(#clip0_1218_3638)">
<path d="M51.6209 36.076C51.6209 35.246 50.9509 34.576 50.1209 34.576C49.2909 34.576 48.6209 35.246 48.6209 36.076C48.6209 38.606 44.4409 42.676 43.0109 43.356C42.0509 42.496 40.1109 38.506 40.6509 34.596C40.9409 32.516 41.8609 31.886 41.9509 31.826C42.6609 31.446 42.9509 30.566 42.5909 29.836C42.2209 29.096 41.3209 28.786 40.5809 29.156C40.3409 29.276 38.1909 30.436 37.6809 34.186C37.1109 38.306 38.7209 42.996 40.6009 45.146C41.3409 45.996 42.1209 46.426 42.9109 46.426C45.5009 46.426 51.6209 40.296 51.6209 36.076Z" fill="#67787F"/>
<path d="M54.3604 109.326C54.7304 110.326 55.6104 110.946 56.7904 111.026C57.5104 111.076 60.3204 111.086 63.7104 111.086C70.1404 111.086 78.6804 111.026 79.2204 111.026H94.6404C94.7204 111.026 94.8104 111.026 94.8904 111.006C95.3804 110.926 106.84 108.906 110.82 100.556C113.16 95.6559 112.4 89.7159 108.57 82.9159C108.21 82.2759 107.44 81.9959 106.76 82.2459C106.07 82.4959 105.66 83.2059 105.79 83.9259C105.8 83.9959 107.08 91.4059 103.31 96.5459C101.74 98.6859 99.4704 100.166 96.5604 100.956C96.8304 100.096 97.1004 99.0359 97.3304 97.8359C97.4904 97.0459 97.6104 96.1959 97.7004 95.3059C97.7204 95.1259 97.7404 94.9559 97.7504 94.7759C97.7604 94.6259 97.7704 94.4859 97.7804 94.3359C97.8404 93.3859 97.8704 92.3859 97.8304 91.3459C97.8104 90.7359 97.7804 90.1059 97.7304 89.4459C97.7204 89.3159 97.6904 89.1859 97.6404 89.0659C96.9804 83.8159 94.6304 77.8359 88.6504 72.3059C83.8604 67.8759 80.0004 64.3859 76.9104 61.5759C71.0204 56.2359 67.7704 53.2859 66.9604 51.9159C66.4204 51.0059 65.5304 50.2859 64.4004 49.3759C61.9904 47.4359 58.6904 44.7759 57.2504 38.7359C55.6204 31.8859 53.1504 27.6759 49.4804 25.4559C46.3904 23.5859 42.4504 23.2459 37.7704 24.4359C37.1004 24.5659 33.7904 25.3959 32.4104 29.5459C31.3604 32.6859 27.6904 34.6759 26.3204 35.1159C25.3204 34.6359 23.9404 34.7359 22.0104 35.4259C20.7004 35.8959 19.6904 36.9259 19.3104 38.2059C18.9504 39.4259 19.1804 40.7159 19.9604 41.7459C20.8704 42.9459 21.7804 43.6059 22.7504 43.7759H22.8604C25.6104 49.2559 27.3004 49.6259 27.8704 49.7459C27.9404 49.7559 33.8404 50.8459 37.1404 50.5359C37.5704 51.6859 38.0704 53.3459 38.0704 54.5959C38.0704 55.2159 37.3404 57.1559 36.7504 58.7059C35.2504 62.6759 33.5604 67.1759 34.7504 69.9959C35.6404 72.1059 38.6704 78.5659 44.1404 84.0059C44.9104 86.9359 45.5404 89.7459 45.6704 91.4759C45.9604 95.5459 45.1804 101.256 44.8904 103.226C43.8104 103.896 42.0204 105.276 42.0104 107.196C42.0104 108.666 42.9904 109.906 44.9404 110.886C45.1504 110.986 45.3804 111.046 45.6104 111.046H50.6904C50.9004 111.046 51.1204 110.996 51.3104 110.916C52.1604 110.526 53.4004 109.556 54.1704 107.986C54.1404 108.436 54.1904 108.886 54.3404 109.296L54.3604 109.326ZM51.8304 104.236C52.1504 106.616 50.8704 107.726 50.3204 108.086H46.0004C45.1004 107.586 45.0304 107.256 45.0304 107.246C45.0304 106.926 45.9304 106.066 46.9404 105.556C47.3704 105.346 47.6804 104.936 47.7604 104.456C47.8104 104.136 49.0604 96.6259 48.6904 91.2859C48.3204 85.9459 43.8204 72.2859 43.6304 71.7059C43.3704 70.9159 42.5204 70.4859 41.7404 70.7559C40.9504 71.0159 40.5304 71.8659 40.7904 72.6459C40.8104 72.6959 41.4004 74.4959 42.1704 77.0159C39.6404 73.4659 38.1304 70.1959 37.5604 68.8459C36.8304 67.1259 38.5004 62.7059 39.6004 59.7759C40.5604 57.2159 41.1104 55.7159 41.1104 54.6059C41.1104 51.8359 39.5304 48.3659 39.4604 48.2159C39.2104 47.6759 38.6404 47.3659 38.0604 47.3659C37.8604 47.3659 37.6704 47.4059 37.4804 47.4759C36.4604 47.8759 30.9204 47.3459 28.5704 46.8459C28.1604 46.6759 27.0504 45.3559 25.6304 42.5759C26.3004 41.8759 26.8604 40.9659 27.2504 40.0259C27.5904 39.2059 27.7604 38.4559 27.7804 37.7959C30.0604 36.8859 33.9704 34.3759 35.2604 30.5159C36.1704 27.7959 38.2304 27.4259 38.3004 27.4059C38.3604 27.4059 38.4104 27.3859 38.4704 27.3759C42.4204 26.3659 45.5204 26.5859 47.9404 28.0459C50.8704 29.8159 52.9104 33.4359 54.3404 39.4459C56.0204 46.4859 59.9404 49.6359 62.5304 51.7259C63.3504 52.3859 64.1304 53.0159 64.3904 53.4559C65.4304 55.2159 68.4004 57.9159 74.9104 63.8159C78.0004 66.6159 81.8504 70.1059 86.6304 74.5259C91.7204 79.2359 93.9104 84.2459 94.6404 88.6959L94.9304 88.8559C94.7904 89.1059 94.7204 89.3959 94.7504 89.6959C96.0304 105.766 85.8704 107.846 84.7904 108.026H79.2104C72.5104 108.066 59.7104 108.126 57.1904 108.026C57.3104 107.066 58.5504 105.126 59.2904 104.586C61.4304 104.996 67.6604 104.756 71.3804 104.566C72.0604 104.526 72.6404 104.036 72.7704 103.366C72.9004 102.696 72.5704 102.016 71.9604 101.716C67.9204 99.7359 64.8704 96.6359 63.8104 93.4059C63.0004 90.9359 63.2904 88.3359 64.6704 85.6759C66.1804 82.7759 68.2004 80.9959 70.6604 80.3859C75.4904 79.1859 80.7004 82.7059 80.7504 82.7459C81.4304 83.2159 82.3604 83.0459 82.8404 82.3659C83.3104 81.6859 83.1404 80.7459 82.4604 80.2759C82.2004 80.0959 76.1304 75.9459 69.9604 77.4759C66.6204 78.3059 63.9504 80.5959 62.0204 84.2959C60.2504 87.6959 59.8904 91.0859 60.9704 94.3459C61.2404 95.1659 61.5904 95.9359 61.9904 96.6559C59.9304 94.3159 57.4304 91.7759 55.0204 89.5159C55.1504 88.7859 55.3104 88.1859 55.5004 87.8059C55.8604 87.0859 59.0204 80.6759 58.8104 77.4359C58.7604 76.6059 58.0504 75.9759 57.2204 76.0359C56.3904 76.0859 55.7604 76.7959 55.8204 77.6259C55.9204 79.2659 54.3504 83.4059 52.8204 86.4759C51.1804 89.7559 51.3404 100.416 51.8504 104.226L51.8304 104.236ZM23.1604 40.7759C23.0204 40.6859 22.7404 40.4659 22.3404 39.9459C22.0904 39.6159 22.1104 39.2959 22.1704 39.0859C22.2804 38.7159 22.5804 38.4259 23.0004 38.2759C23.9404 37.9459 24.4904 37.8559 24.7604 37.8359C24.6804 38.6859 23.7804 40.3759 23.1604 40.7759ZM105.73 98.2959C107.42 95.9859 108.28 93.3759 108.68 90.9959C109.43 94.0959 109.24 96.8659 108.11 99.2459C104.99 105.796 95.6304 107.806 94.4904 108.026H91.4804C92.6304 107.106 93.7704 105.906 94.7704 104.366C99.6004 103.676 103.29 101.646 105.73 98.3059V98.2959ZM65.1804 100.696C65.5904 101.076 66.0004 101.436 66.4204 101.766C66.2304 101.766 66.0604 101.766 65.8704 101.776C65.6704 101.436 65.4404 101.076 65.1804 100.696ZM54.8004 103.836C54.4604 101.296 54.3704 96.8959 54.5904 93.2759C57.8504 96.4759 60.7804 99.7159 62.3704 101.816C61.1304 101.816 60.2204 101.766 59.9104 101.676C59.0004 101.306 58.0004 101.636 56.9604 102.656C56.3504 103.246 55.4404 104.426 54.8304 105.726C54.8904 105.136 54.8904 104.516 54.8004 103.826V103.836Z" fill="#67787F"/>
</g>
<defs>
<clipPath id="clip0_1218_3638">
<rect width="130" height="130" fill="white"/>
</clipPath>
</defs>
</svg>
