<svg width="130" height="130" viewBox="0 0 130 130" fill="none" xmlns="http://www.w3.org/2000/svg">
<g clip-path="url(#clip0_1218_3720)">
<path d="M109.595 104.909C103.543 104.909 97.7717 99.7799 94.6537 96.4359L94.4607 98.6219C94.4117 99.1729 94.0647 99.6529 93.5547 99.8699C93.0447 100.086 92.4577 100.007 92.0277 99.6589C91.8917 99.5509 78.7237 88.9609 71.7897 82.8459C71.5397 82.8509 71.2917 82.8539 71.0447 82.8539C50.6967 82.8559 39.6317 65.1299 38.2577 58.1899C32.1437 55.3149 31.6447 50.3789 31.3707 47.6779C31.3367 47.3479 31.2947 46.9309 31.2477 46.6599C29.6617 46.2289 23.6677 47.1789 21.2787 49.0699C20.8327 49.4219 20.2267 49.4929 19.7127 49.2529C19.1977 49.0129 18.8637 48.5029 18.8477 47.9349C18.7257 43.4569 21.9807 40.7909 25.3767 39.3679C23.5067 39.1129 21.0357 38.9879 18.1047 39.2239C17.4947 39.2769 16.9067 38.9409 16.6357 38.3859C16.3657 37.8309 16.4627 37.1669 16.8807 36.7129L17.3967 36.1469C19.9137 33.3699 22.7567 30.2309 30.5027 30.6269C33.1707 28.0669 36.6087 26.8399 40.2637 27.1529C44.0837 27.4839 47.6847 29.5579 49.6607 32.5659C50.4647 33.7889 51.0387 35.3859 51.2937 37.1279C68.8947 37.7879 93.1377 60.2659 96.8887 65.6439C97.1457 66.0119 97.2237 66.4749 97.1027 66.9069C96.9817 67.3389 96.6737 67.6939 96.2637 67.8749L93.7357 68.9899C98.3237 71.9839 108.61 78.6849 114.232 82.2619C114.57 82.4779 114.808 82.8199 114.893 83.2129C114.977 83.6059 114.901 84.0149 114.68 84.3509C112.877 87.0989 107.235 88.5389 100.431 86.5439C105.649 91.8469 112.893 99.0959 115.044 101.117C115.391 101.442 115.563 101.911 115.508 102.383C115.453 102.855 115.178 103.273 114.767 103.509C113.057 104.495 111.315 104.909 109.595 104.909ZM93.4737 91.2419C93.9377 91.2419 94.3847 91.4579 94.6727 91.8409C94.7697 91.9679 103.57 103.541 111.319 101.691C106.219 96.7029 94.2937 84.6609 92.6877 82.8429C92.1927 82.2819 92.1857 81.4429 92.6717 80.8749C93.1567 80.3069 93.9887 80.1829 94.6177 80.5849C101.811 85.1749 108.123 84.9569 110.881 83.6819C103.092 78.6909 89.9207 70.0809 89.7767 69.9879C89.3167 69.6869 89.0577 69.1579 89.1027 68.6099C89.1477 68.0619 89.4897 67.5819 89.9927 67.3599L93.2607 65.9189C87.4907 59.3849 66.5647 40.8549 51.4047 40.1339C51.2597 42.1609 50.6607 44.2099 49.4827 45.9719C48.1187 48.0139 44.8067 51.2429 37.9437 49.9309C37.1307 49.7759 36.5967 48.9899 36.7527 48.1759C36.9077 47.3629 37.6887 46.8249 38.5077 46.9849C42.3867 47.7259 45.3207 46.7999 46.9887 44.3049C49.0387 41.2389 48.7287 36.6109 47.1527 34.2129C45.6697 31.9549 42.9297 30.3949 40.0047 30.1409C37.0457 29.8879 34.2717 30.9689 32.1817 33.1929C31.8707 33.5239 31.4267 33.6969 30.9757 33.6619C25.9977 33.2909 23.5367 34.4229 21.6207 36.1099C26.1167 36.1709 30.4887 36.9809 31.7127 38.6929C32.0227 39.1269 32.0787 39.6929 31.8607 40.1789C31.6417 40.6649 31.1817 40.9989 30.6517 41.0559C30.5797 41.0629 24.8457 41.7799 22.6697 45.0019C25.7697 43.8459 29.6597 43.2949 31.7747 43.7169C32.7747 43.9169 33.4667 44.3509 33.8317 45.0069C34.1787 45.6309 34.2557 46.3999 34.3547 47.3729C34.6227 50.0159 34.9887 53.6349 40.1887 55.7599C40.7147 55.9749 41.0747 56.4699 41.1167 57.0369C41.4197 61.0939 50.9207 80.6519 72.2807 79.8279C72.6787 79.8179 73.0457 79.9489 73.3347 80.2059C78.4467 84.7489 87.5557 92.1789 91.7207 95.5529L91.9807 92.6079C92.0357 91.9889 92.4657 91.4679 93.0627 91.2979C93.1997 91.2589 93.3377 91.2399 93.4747 91.2399L93.4737 91.2419Z" fill="#67787F"/>
<path d="M90.179 77.8411C90.134 77.8411 90.089 77.8391 90.043 77.8351C62.105 75.3401 52.118 66.3071 45.719 53.5101C45.349 52.7691 45.649 51.8681 46.39 51.4971C47.13 51.1271 48.032 51.4281 48.403 52.1681C54.522 64.4061 63.667 72.4681 90.311 74.8471C91.136 74.9211 91.745 75.6491 91.671 76.4741C91.602 77.2541 90.946 77.8411 90.179 77.8411Z" fill="#67787F"/>
<path d="M85.8109 67.9959C85.5179 67.9959 85.2219 67.9109 84.9619 67.7319L72.4609 59.1469C71.7779 58.6779 71.6059 57.7449 72.0739 57.0619C72.5439 56.3789 73.4769 56.2059 74.1599 56.6749L86.6609 65.2599C87.3439 65.7289 87.5159 66.6619 87.0479 67.3449C86.7569 67.7679 86.2879 67.9959 85.8109 67.9959Z" fill="#67787F"/>
<path d="M77.0711 70.3678C76.7771 70.3678 76.4801 70.2818 76.2191 70.1018L69.3511 65.3588C68.6691 64.8878 68.4981 63.9538 68.9691 63.2718C69.4401 62.5908 70.3731 62.4198 71.0561 62.8898L77.9241 67.6328C78.6061 68.1038 78.7771 69.0378 78.3061 69.7198C78.0151 70.1408 77.5461 70.3678 77.0711 70.3678Z" fill="#67787F"/>
<path d="M91.1027 89.9298C90.7627 89.9298 90.4207 89.8148 90.1397 89.5788L80.6927 81.6528C80.0577 81.1208 79.9747 80.1738 80.5067 79.5398C81.0377 78.9058 81.9847 78.8218 82.6197 79.3548L92.0667 87.2808C92.7017 87.8128 92.7847 88.7598 92.2527 89.3938C91.9557 89.7478 91.5307 89.9298 91.1027 89.9298Z" fill="#67787F"/>
<path d="M53.4626 99.4839C52.7556 99.4839 52.1256 98.9809 51.9906 98.2599L51.0396 93.1879C50.8996 92.4419 51.3396 91.7089 52.0636 91.4809C52.1396 91.4569 59.4656 89.1519 61.0976 88.6169C61.8996 87.9149 64.1916 84.0329 65.8886 80.7339C66.2696 79.9979 67.1736 79.7079 67.9096 80.0869C68.6456 80.4659 68.9356 81.3709 68.5566 82.1069C64.0926 90.7819 62.6546 91.2619 62.1816 91.4189C61.1676 91.7569 56.5216 93.2229 54.2336 93.9439L54.9396 97.7089C55.0916 98.5229 54.5556 99.3069 53.7416 99.4589C53.6476 99.4769 53.5546 99.4849 53.4636 99.4849L53.4626 99.4839Z" fill="#67787F"/>
<path d="M58.8871 101.386C58.2031 101.386 57.5851 100.915 57.4261 100.221L56.4251 95.8558C56.3301 95.4448 56.4131 95.0138 56.6541 94.6678L60.4741 89.1418C60.9461 88.4608 61.8811 88.2908 62.5601 88.7608C63.2421 89.2318 63.4131 90.1658 62.9411 90.8478L59.4971 95.8298L60.3511 99.5508C60.5371 100.359 60.0321 101.163 59.2241 101.348C59.1121 101.374 58.9981 101.387 58.8881 101.387L58.8871 101.386Z" fill="#67787F"/>
<path d="M40.5938 95.9329C39.7648 95.9329 39.0938 95.2619 39.0938 94.4329V89.7009C39.0938 88.9289 39.6797 88.2829 40.4487 88.2079L49.8387 87.2939L57.2397 78.1029C57.7598 77.4589 58.7037 77.3569 59.3477 77.8749C59.9937 78.3949 60.0947 79.3389 59.5757 79.9839L51.7807 89.6659C51.5277 89.9799 51.1587 90.1789 50.7577 90.2179L42.0947 91.0609V94.4319C42.0947 95.2609 41.4237 95.9319 40.5947 95.9319L40.5938 95.9329Z" fill="#67787F"/>
<path d="M45.1582 99.1658C44.3292 99.1658 43.6582 98.4948 43.6582 97.6658V92.7208C43.6582 92.2428 43.8862 91.7928 44.2722 91.5108L49.7242 87.5158C50.1482 87.2058 50.7022 87.1398 51.1872 87.3408L55.9152 89.3088C56.6802 89.6268 57.0422 90.5048 56.7242 91.2698C56.4062 92.0338 55.5312 92.3988 54.7632 92.0778L50.8152 90.4348L46.6582 93.4798V97.6648C46.6582 98.4938 45.9872 99.1658 45.1582 99.1658Z" fill="#67787F"/>
</g>
<defs>
<clipPath id="clip0_1218_3720">
<rect width="130" height="130" fill="white"/>
</clipPath>
</defs>
</svg>
