<svg width="104" height="67" viewBox="0 0 104 67" fill="none" xmlns="http://www.w3.org/2000/svg">
<path d="M87.1099 34.0243C85.6897 32.0495 83.1061 30.7549 79.8358 30.3809C79.3879 30.3297 78.9018 30.3056 78.3995 30.2933C77.0642 28.9579 73.3173 25.3922 69.3762 23.2884C65.4025 21.1657 59.4714 20.4585 54.2357 19.8343L54.2254 19.8331C50.5956 19.4005 46.8421 18.9531 45.7635 18.1452C43.0987 16.1482 38.2846 14.745 36.4781 14.266C35.541 12.3905 33.6832 11.5 30.7746 11.5C27.4099 11.5 26.0674 13.7389 25.3466 14.9423L25.3333 14.9645C25.2272 15.1412 25.0955 15.361 25.0044 15.4847C24.862 15.5169 24.6763 15.5443 24.4599 15.5761C24.3777 15.5882 24.291 15.601 24.2005 15.6149L24.1991 15.6152C21.9444 15.9609 16.6679 16.7699 16.9419 21.4344C17.0309 22.9537 18.3382 24.077 20.3155 24.9069C20.9068 25.4394 23.3213 27.5185 26.164 28.657C28.0315 29.4062 34.4928 35.6095 38.5974 39.8071L36.1672 45.3792L27.8826 47.7823C27.2042 47.9797 26.7658 48.6598 26.853 49.3837C26.9396 50.1064 27.5249 50.6562 28.2296 50.676L37.2207 50.9296C37.5044 50.9241 43.8295 50.7426 46.9565 46.3352C48.7338 47.3596 52.2371 49.0597 56.5411 49.5541C55.6316 51.1543 54.7835 53.1019 54.2257 54.4868C54.0077 55.028 54.1211 55.6513 54.5141 56.0746C54.7888 56.369 55.1621 56.5276 55.5437 56.5276C55.7097 56.5276 55.8769 56.4974 56.0376 56.4363C56.1123 56.4079 63.4657 53.6376 68.4888 53.8604C74.243 54.1288 81.8055 49.9726 83.2214 47.7354C83.4131 47.432 83.6826 47.0438 83.9948 46.5943L84.0629 46.4962C85.5171 44.4048 87.7137 41.2433 88.1861 38.6051C88.471 37.0142 88.0882 35.3869 87.1093 34.0243L87.1099 34.0243ZM37.2077 24.2294C30.9328 24.1652 24.8066 23.3784 21.7586 22.3892C21.6373 22.3269 21.5155 22.2862 21.3853 22.2615C20.4937 21.9387 19.9209 21.5981 19.7895 21.2556C19.6939 19.6239 21.651 18.9871 24.6185 18.5316C25.3268 18.423 25.795 18.3508 26.169 18.1965C26.9428 17.8766 27.3637 17.1754 27.7712 16.4966L27.7724 16.4946L27.7731 16.4935C28.4315 15.3961 29.0003 14.4482 30.7747 14.4482C33.9565 14.4482 34.1226 15.6658 34.2826 16.8426C34.3919 17.6498 35.1241 18.2169 35.8939 18.0972C36.3191 18.0355 36.6607 17.7782 36.8781 17.4338C38.914 18.0293 42.2357 19.1432 44.0889 20.5317C45.773 21.7931 49.3593 22.2207 53.8993 22.7613C58.8938 23.3562 64.5547 24.0307 68.067 25.9061C70.4044 27.1545 72.7252 29.0282 74.4004 30.5203C69.2167 31.1671 63.3168 33.0856 61.0181 35.5418C59.6224 37.0328 58.4328 40.3152 58.9751 43.4619C59.1865 44.6863 59.638 45.7663 60.3087 46.6802C55.2616 47.0826 50.7975 45.0955 48.6546 43.9223C49.0452 43.5564 49.4017 43.3607 49.7164 43.191C51.9232 42.0025 51.4537 40.3911 50.4857 38.0683C50.2062 37.3981 49.9267 36.6711 49.6412 35.9275L49.6396 35.9232C48.239 32.2823 46.7915 28.5191 44.1839 27.5389C43.4428 27.2618 42.2644 27.0933 40.8562 27.8783C38.2941 29.3076 37.8511 32.4073 38.0331 35.1202C35.1324 32.2464 31.1335 28.4467 28.5949 26.7089C31.5928 27.0323 34.6739 27.1508 37.1803 27.1767H37.1941C37.9758 27.1767 38.613 26.5256 38.6208 25.7166C38.6286 24.9038 37.9961 24.2374 37.2077 24.2294ZM37.8294 47.9331C38.1221 47.7825 38.3585 47.5314 38.4947 47.2191L41.605 40.0883C41.6073 40.0837 41.608 40.0785 41.6087 40.0734C41.6093 40.0688 41.6099 40.0642 41.6116 40.0599C41.6313 40.0123 41.6401 39.9627 41.6489 39.9128C41.6535 39.8869 41.658 39.861 41.6642 39.8352C41.6687 39.8165 41.6735 39.7979 41.6782 39.7794C41.7001 39.693 41.7219 39.6074 41.7239 39.518C41.7251 39.4648 41.7157 39.4135 41.7064 39.3619C41.7016 39.3357 41.6968 39.3095 41.6934 39.2829C41.6894 39.2526 41.6872 39.2221 41.6851 39.1917C41.681 39.1328 41.6769 39.0741 41.6588 39.0175C40.9266 36.7385 40.0989 31.6535 42.2118 30.4754C42.511 30.3088 42.7338 30.2563 42.907 30.2563C43.0294 30.2563 43.1273 30.2823 43.208 30.3131C44.6123 30.8406 45.985 34.4099 46.9878 37.0171L46.9884 37.0187L47.0374 37.1458C47.3171 37.871 47.5902 38.5794 47.8639 39.236C48.1512 39.9241 48.2969 40.3412 48.3698 40.5918C47.6489 40.98 46.5023 41.6267 45.3412 43.483C45.3392 43.4861 45.3364 43.4884 45.3335 43.4907C45.3305 43.4932 45.3275 43.4956 45.3251 43.4991C45.3218 43.5043 45.32 43.5099 45.3182 43.5154C45.3164 43.521 45.3147 43.5265 45.3114 43.5318C45.293 43.5614 45.2747 43.5909 45.2563 43.6203C45.1708 43.7577 45.0852 43.8952 44.9996 44.0502C43.3448 47.0567 39.3462 47.7683 37.8294 47.9331ZM85.3802 38.0696C85.0242 40.0593 82.9722 43.0115 81.7461 44.7752C81.3752 45.3084 81.0569 45.7682 80.8335 46.1211C80.1664 47.1758 73.64 51.1611 68.6186 50.9143C65.1918 50.7551 60.9994 51.7746 58.1877 52.6201C58.8565 51.2377 59.4842 50.1214 59.8604 49.6696C61.053 49.6128 62.2827 49.44 63.5344 49.1284C69.3984 51.5043 77.3945 45.9761 78.6361 44.0519C79.3593 42.9312 80.9575 41.9353 81.5122 41.6458C82.2151 41.2799 82.4994 40.3937 82.1464 39.6674C81.7928 38.9417 80.9394 38.6455 80.2341 39.0096C79.9618 39.1509 77.5353 40.4425 76.2621 42.4166C75.4642 43.6521 68.4768 48.3669 64.2527 46.2649C62.8773 45.5799 62.0466 44.4642 61.7856 42.9473C61.4117 40.7837 62.3076 38.4095 63.0696 37.595C65.1126 35.4123 72.2954 33.3356 77.4428 33.2307C77.5891 33.2813 77.7396 33.3227 77.8925 33.3227C78.0376 33.3227 78.1803 33.2832 78.3201 33.2375C78.7387 33.2492 79.1454 33.2708 79.5234 33.314C81.9972 33.5967 83.8783 34.4748 84.8202 35.785C85.3272 36.4904 85.5213 37.2809 85.3798 38.0696L85.3802 38.0696Z" fill="#67787F"/>
<path d="M87.1099 34.0243C85.6897 32.0495 83.1061 30.7549 79.8358 30.3809C79.3879 30.3297 78.9018 30.3056 78.3995 30.2933C77.0642 28.9579 73.3173 25.3922 69.3762 23.2884C65.4025 21.1657 59.4714 20.4585 54.2357 19.8343L54.2254 19.8331C50.5956 19.4005 46.8421 18.9531 45.7635 18.1452C43.0987 16.1482 38.2846 14.745 36.4781 14.266C35.541 12.3905 33.6832 11.5 30.7746 11.5C27.4099 11.5 26.0674 13.7389 25.3466 14.9423L25.3333 14.9645C25.2272 15.1412 25.0955 15.361 25.0044 15.4847C24.862 15.5169 24.6763 15.5443 24.4599 15.5761C24.3777 15.5882 24.291 15.601 24.2005 15.6149L24.1991 15.6152C21.9444 15.9609 16.6679 16.7699 16.9419 21.4344C17.0309 22.9537 18.3382 24.077 20.3155 24.9069C20.9068 25.4394 23.3213 27.5185 26.164 28.657C28.0315 29.4062 34.4928 35.6095 38.5974 39.8071L36.1672 45.3792L27.8826 47.7823C27.2042 47.9797 26.7658 48.6598 26.853 49.3837C26.9396 50.1064 27.5249 50.6562 28.2296 50.676L37.2207 50.9296C37.5044 50.9241 43.8295 50.7426 46.9565 46.3352C48.7338 47.3596 52.2371 49.0597 56.5411 49.5541C55.6316 51.1543 54.7835 53.1019 54.2257 54.4868C54.0077 55.028 54.1211 55.6513 54.5141 56.0746C54.7888 56.369 55.1621 56.5276 55.5437 56.5276C55.7097 56.5276 55.8769 56.4974 56.0376 56.4363C56.1123 56.4079 63.4657 53.6376 68.4888 53.8604C74.243 54.1288 81.8055 49.9726 83.2214 47.7354C83.4131 47.432 83.6826 47.0438 83.9948 46.5943L84.0629 46.4962C85.5171 44.4048 87.7137 41.2433 88.1861 38.6051C88.471 37.0142 88.0882 35.3869 87.1093 34.0243L87.1099 34.0243ZM37.2077 24.2294C30.9328 24.1652 24.8066 23.3784 21.7586 22.3892C21.6373 22.3269 21.5155 22.2862 21.3853 22.2615C20.4937 21.9387 19.9209 21.5981 19.7895 21.2556C19.6939 19.6239 21.651 18.9871 24.6185 18.5316C25.3268 18.423 25.795 18.3508 26.169 18.1965C26.9428 17.8766 27.3637 17.1754 27.7712 16.4966L27.7724 16.4946L27.7731 16.4935C28.4315 15.3961 29.0003 14.4482 30.7747 14.4482C33.9565 14.4482 34.1226 15.6658 34.2826 16.8426C34.3919 17.6498 35.1241 18.2169 35.8939 18.0972C36.3191 18.0355 36.6607 17.7782 36.8781 17.4338C38.914 18.0293 42.2357 19.1432 44.0889 20.5317C45.773 21.7931 49.3593 22.2207 53.8993 22.7613C58.8938 23.3562 64.5547 24.0307 68.067 25.9061C70.4044 27.1545 72.7252 29.0282 74.4004 30.5203C69.2167 31.1671 63.3168 33.0856 61.0181 35.5418C59.6224 37.0328 58.4328 40.3152 58.9751 43.4619C59.1865 44.6863 59.638 45.7663 60.3087 46.6802C55.2616 47.0826 50.7975 45.0955 48.6546 43.9223C49.0452 43.5564 49.4017 43.3607 49.7164 43.191C51.9232 42.0025 51.4537 40.3911 50.4857 38.0683C50.2062 37.3981 49.9267 36.6711 49.6412 35.9275L49.6396 35.9232C48.239 32.2823 46.7915 28.5191 44.1839 27.5389C43.4428 27.2618 42.2644 27.0933 40.8562 27.8783C38.2941 29.3076 37.8511 32.4073 38.0331 35.1202C35.1324 32.2464 31.1335 28.4467 28.5949 26.7089C31.5928 27.0323 34.6739 27.1508 37.1803 27.1767H37.1941C37.9758 27.1767 38.613 26.5256 38.6208 25.7166C38.6286 24.9038 37.9961 24.2374 37.2077 24.2294ZM37.8294 47.9331C38.1221 47.7825 38.3585 47.5314 38.4947 47.2191L41.605 40.0883C41.6073 40.0837 41.608 40.0785 41.6087 40.0734C41.6093 40.0688 41.6099 40.0642 41.6116 40.0599C41.6313 40.0123 41.6401 39.9627 41.6489 39.9128C41.6535 39.8869 41.658 39.861 41.6642 39.8352C41.6687 39.8165 41.6735 39.7979 41.6782 39.7794C41.7001 39.693 41.7219 39.6074 41.7239 39.518C41.7251 39.4648 41.7157 39.4135 41.7064 39.3619C41.7016 39.3357 41.6968 39.3095 41.6934 39.2829C41.6894 39.2526 41.6872 39.2221 41.6851 39.1917C41.681 39.1328 41.6769 39.0741 41.6588 39.0175C40.9266 36.7385 40.0989 31.6535 42.2118 30.4754C42.511 30.3088 42.7338 30.2563 42.907 30.2563C43.0294 30.2563 43.1273 30.2823 43.208 30.3131C44.6123 30.8406 45.985 34.4099 46.9878 37.0171L46.9884 37.0187L47.0374 37.1458C47.3171 37.871 47.5902 38.5794 47.8639 39.236C48.1512 39.9241 48.2969 40.3412 48.3698 40.5918C47.6489 40.98 46.5023 41.6267 45.3412 43.483C45.3392 43.4861 45.3364 43.4884 45.3335 43.4907C45.3305 43.4932 45.3275 43.4956 45.3251 43.4991C45.3218 43.5043 45.32 43.5099 45.3182 43.5154C45.3164 43.521 45.3147 43.5265 45.3114 43.5318C45.293 43.5614 45.2747 43.5909 45.2563 43.6203C45.1708 43.7577 45.0852 43.8952 44.9996 44.0502C43.3448 47.0567 39.3462 47.7683 37.8294 47.9331ZM85.3802 38.0696C85.0242 40.0593 82.9722 43.0115 81.7461 44.7752C81.3752 45.3084 81.0569 45.7682 80.8335 46.1211C80.1664 47.1758 73.64 51.1611 68.6186 50.9143C65.1918 50.7551 60.9994 51.7746 58.1877 52.6201C58.8565 51.2377 59.4842 50.1214 59.8604 49.6696C61.053 49.6128 62.2827 49.44 63.5344 49.1284C69.3984 51.5043 77.3945 45.9761 78.6361 44.0519C79.3593 42.9312 80.9575 41.9353 81.5122 41.6458C82.2151 41.2799 82.4994 40.3937 82.1464 39.6674C81.7928 38.9417 80.9394 38.6455 80.2341 39.0096C79.9618 39.1509 77.5353 40.4425 76.2621 42.4166C75.4642 43.6521 68.4768 48.3669 64.2527 46.2649C62.8773 45.5799 62.0466 44.4642 61.7856 42.9473C61.4117 40.7837 62.3076 38.4095 63.0696 37.595C65.1126 35.4123 72.2954 33.3356 77.4428 33.2307C77.5891 33.2813 77.7396 33.3227 77.8925 33.3227C78.0376 33.3227 78.1803 33.2832 78.3201 33.2375C78.7387 33.2492 79.1454 33.2708 79.5234 33.314C81.9972 33.5967 83.8783 34.4748 84.8202 35.785C85.3272 36.4904 85.5213 37.2809 85.3798 38.0696L85.3802 38.0696Z" stroke="#FEFFF7"/>
<path d="M28.9529 18.2939C28.6818 18.5741 28.5391 18.9425 28.5391 19.3405C28.5391 19.7244 28.6818 20.107 28.9529 20.3872C29.2241 20.6532 29.5806 20.8148 29.9658 20.8148C30.0518 20.8148 30.1509 20.8006 30.2369 20.7852C30.3367 20.7716 30.4221 20.742 30.5081 20.6976C30.5941 20.668 30.6795 20.6241 30.7505 20.5649C30.8365 20.5057 30.9076 20.447 30.9793 20.3878C31.0366 20.3143 31.0933 20.2403 31.1507 20.1514C31.208 20.078 31.2504 19.9891 31.2791 19.9009C31.3215 19.812 31.3501 19.7244 31.3651 19.6207C31.3788 19.5318 31.3937 19.4294 31.3937 19.3405C31.3937 18.9573 31.2361 18.5741 30.9799 18.2939C30.4507 17.7484 29.4803 17.7484 28.9529 18.2939Z" fill="#67787F"/>
<path d="M28.9529 18.2939C28.6818 18.5741 28.5391 18.9425 28.5391 19.3405C28.5391 19.7244 28.6818 20.107 28.9529 20.3872C29.2241 20.6532 29.5806 20.8148 29.9658 20.8148C30.0518 20.8148 30.1509 20.8006 30.2369 20.7852C30.3367 20.7716 30.4221 20.742 30.5081 20.6976C30.5941 20.668 30.6795 20.6241 30.7505 20.5649C30.8365 20.5057 30.9076 20.447 30.9793 20.3878C31.0366 20.3143 31.0933 20.2403 31.1507 20.1514C31.208 20.078 31.2504 19.9891 31.2791 19.9009C31.3215 19.812 31.3501 19.7244 31.3651 19.6207C31.3788 19.5318 31.3937 19.4294 31.3937 19.3405C31.3937 18.9573 31.2361 18.5741 30.9799 18.2939C30.4507 17.7484 29.4803 17.7484 28.9529 18.2939Z" stroke="#FEFFF7"/>
</svg>
