<svg width="130" height="130" viewBox="0 0 130 130" fill="none" xmlns="http://www.w3.org/2000/svg">
<g clip-path="url(#clip0_1218_3645)">
<path d="M90.302 107.614C89.912 108.054 89.822 108.684 90.062 109.224C90.302 109.764 90.842 110.104 91.432 110.104H96.262C96.862 110.104 97.402 109.754 97.642 109.204C98.082 108.194 98.662 107.114 98.922 106.804C99.252 106.584 99.622 106.184 99.822 105.474C100.112 104.404 99.912 102.704 99.392 101.774C98.932 100.584 97.552 92.9842 98.112 91.2542C98.292 90.7042 98.132 90.1042 97.722 89.7042C95.692 87.7842 92.982 84.3742 93.142 82.9742C93.292 81.7442 93.302 79.4942 93.322 77.1042C93.322 76.0642 93.342 74.8042 93.372 73.6442C93.512 73.6942 93.652 73.7342 93.802 73.7442C94.432 73.8042 95.042 73.4442 95.302 72.8642C95.372 72.7142 96.912 69.1542 94.902 65.4842C92.992 62.0142 88.662 59.7542 82.022 58.7742C75.112 57.7542 70.762 57.4242 67.892 57.2042C66.232 57.0742 64.792 56.9642 64.312 56.7942V56.7642C63.882 54.2542 60.392 47.6442 57.202 45.6142C57.132 45.5742 57.062 45.5442 56.992 45.5042C56.742 44.8042 56.512 44.0842 56.282 43.3842C56.202 43.1342 56.122 42.8942 56.052 42.6542C57.192 42.0842 57.992 41.3442 58.342 40.9842C61.712 41.9142 64.582 42.2842 66.982 42.2842C74.862 42.2842 77.822 38.4242 78.002 38.1942C78.372 37.6942 78.392 37.0142 78.052 36.4842C77.712 35.9642 77.082 35.7042 76.472 35.8342C75.212 36.1142 74.392 36.0242 73.862 35.8342C74.852 34.7642 75.172 33.4242 75.222 33.2042C75.332 32.7042 75.172 32.1742 74.812 31.8142C74.442 31.4542 73.922 31.3042 73.422 31.4142C67.562 32.7642 62.402 30.8242 60.082 29.6942C60.602 28.1742 60.742 25.8342 60.492 22.6942C60.432 21.9242 59.792 21.3142 59.012 21.3142C58.222 21.3342 57.582 21.8942 57.502 22.6642C57.402 23.6842 55.282 24.9542 53.462 25.6742C52.522 24.5442 51.442 21.1742 50.962 18.3542C50.872 17.8642 50.552 17.4442 50.102 17.2442C49.642 17.0442 49.122 17.0742 48.702 17.3342C46.292 18.8242 45.992 26.0842 46.382 27.7142C46.442 27.9742 46.482 28.3642 46.502 28.8342C44.812 27.8542 42.952 27.8142 41.872 27.7942H41.492C41.032 27.7142 39.752 26.5142 38.742 24.9942C37.892 23.7142 35.932 23.4942 34.782 23.4942C32.162 22.0642 29.492 22.4842 27.392 24.6942C26.302 25.8442 26.182 26.9042 26.272 27.5942C26.352 28.2342 26.632 28.7242 26.922 29.0842C26.652 32.3842 28.202 33.6642 29.592 34.1542C29.962 34.3042 31.322 35.1942 32.632 36.1242C32.342 37.3142 32.162 39.2342 33.052 41.3742C33.232 41.8042 33.602 42.1242 34.052 42.2442C34.502 42.3642 34.982 42.2642 35.352 41.9742C35.472 42.5042 35.682 43.0542 36.012 43.5742C36.442 44.2642 37.342 44.4842 38.042 44.0742L38.302 43.9242C38.302 43.9842 38.312 44.0442 38.322 44.1042C36.962 51.3242 35.122 64.8042 38.752 71.4242C39.022 71.9142 39.532 72.2042 40.072 72.2042C40.262 72.2042 40.462 72.1642 40.652 72.0842C40.692 72.0642 40.982 71.9442 41.392 71.7142C42.222 73.9642 43.232 76.2142 44.192 77.2242C44.982 78.0442 46.262 79.8842 47.572 81.9442C47.762 89.7142 47.872 99.2142 47.512 100.904C47.302 101.864 46.652 102.654 45.892 103.574C44.822 104.864 43.612 106.334 43.532 108.564C43.522 108.974 43.672 109.364 43.952 109.654C44.232 109.944 44.622 110.114 45.032 110.114H49.962C50.532 110.114 51.042 109.794 51.302 109.284C52.342 107.224 53.662 105.124 54.182 104.694C54.702 104.484 55.062 104.004 55.112 103.434L55.322 101.034C55.462 102.254 55.532 103.224 55.512 103.634C55.392 103.874 55.042 104.354 54.812 104.694C53.892 105.994 53.102 107.114 53.412 108.254L53.622 109.014C53.802 109.664 54.392 110.124 55.072 110.124H59.212C59.612 110.124 59.992 109.964 60.272 109.684L62.852 107.104C63.202 106.754 63.362 106.254 63.262 105.764C63.252 105.704 62.192 100.124 61.932 98.3742C61.632 96.4542 61.192 82.8342 61.462 81.4942C61.492 81.4142 61.512 81.3342 61.542 81.2642C63.802 81.7242 68.592 82.4142 73.862 81.4242C73.962 82.9542 74.352 84.5342 75.292 85.9642C75.912 86.9042 76.532 87.7542 77.122 88.5742C79.082 91.2742 80.492 93.2242 80.172 95.5342C79.412 100.994 78.892 102.514 78.712 102.914C77.442 103.824 75.552 106.604 75.822 108.814C75.912 109.564 76.552 110.134 77.312 110.134H82.322C83.012 110.134 83.622 109.654 83.782 108.984C83.982 108.164 84.592 106.854 85.102 106.674C87.542 105.814 87.182 102.854 87.022 101.584C87.002 101.414 86.982 101.264 86.982 101.174C86.982 99.9542 87.332 95.5942 87.832 92.4442C89.392 94.0242 90.782 95.5542 91.072 96.4942C92.002 99.4842 91.952 104.824 91.762 105.634C91.662 105.944 90.992 106.894 90.342 107.634L90.302 107.614ZM88.132 88.5342C85.922 86.3642 83.412 83.9142 82.832 82.3942C81.112 77.8442 76.682 77.7042 76.492 77.7042C76.342 77.7042 76.162 77.7242 76.012 77.7742C68.572 80.1542 61.032 78.0542 60.952 78.0342C60.252 77.8342 59.522 78.1642 59.202 78.8042C59.132 78.9442 58.962 79.3442 58.572 80.5142C57.972 82.3142 58.732 97.5142 58.922 98.7942C59.142 100.204 59.822 103.884 60.132 105.504L58.542 107.094H56.742C56.902 106.844 57.082 106.594 57.222 106.404C57.722 105.704 58.152 105.094 58.342 104.534C58.912 102.884 57.242 93.6142 56.972 92.4442C56.572 90.6642 56.132 90.0442 55.462 89.2442C55.082 88.7942 54.662 88.2842 54.012 87.0542C52.492 84.1342 48.392 77.2742 46.312 75.1242C45.682 74.4742 44.812 72.4442 44.002 70.1942C44.022 70.2042 44.042 70.2242 44.062 70.2442C44.542 70.5042 45.122 70.4942 45.592 70.1942C45.772 70.0842 48.892 68.0642 50.122 64.1542C50.252 64.2342 50.402 64.2942 50.552 64.3242C51.152 64.4642 51.762 64.2242 52.112 63.7242C52.292 63.4742 53.132 62.2342 53.872 60.6042C54.512 61.7842 55.042 61.9242 55.752 61.8442C56.072 61.8042 57.122 61.5742 57.232 60.1042C57.242 60.0142 57.292 59.8142 57.352 59.5442C57.872 57.1042 58.432 54.0042 58.412 51.3242C59.872 53.5042 61.122 56.1042 61.312 57.2442C61.742 59.7242 63.582 59.8642 67.632 60.1742C70.462 60.3942 74.752 60.7142 81.562 61.7142C87.112 62.5342 90.802 64.3142 92.232 66.8642C92.432 67.2242 92.582 67.5842 92.692 67.9342C92.292 67.8842 91.882 67.9842 91.532 68.2042C90.512 68.8542 90.382 69.8442 90.322 77.0542C90.302 79.2542 90.282 81.5342 90.162 82.5942C89.802 85.5942 93.442 89.6442 95.062 91.2842C94.672 94.8142 96.202 102.284 96.772 103.214C96.902 103.464 96.982 104.154 96.952 104.524C96.602 104.844 96.062 105.524 95.312 107.094H94.352C94.462 106.884 94.542 106.674 94.602 106.484C94.972 105.284 95.022 99.1342 93.912 95.5642C93.282 93.5542 90.902 91.2242 88.152 88.5242L88.132 88.5342ZM84.012 101.914C84.142 102.994 84.142 103.654 84.062 103.814C82.522 104.364 81.642 105.954 81.192 107.104H79.112C79.492 106.334 80.052 105.574 80.322 105.384C81.242 104.924 81.982 103.974 83.102 95.9242C83.592 92.4242 81.702 89.8142 79.512 86.7942C78.942 86.0042 78.342 85.1842 77.752 84.2842C77.052 83.2342 76.812 81.9842 76.792 80.7442C77.532 80.8742 79.252 81.3842 80.032 83.4542C80.762 85.3742 82.872 87.5742 85.232 89.8942C84.262 94.0042 83.942 101.054 83.942 101.144C83.942 101.324 83.972 101.594 84.012 101.924V101.914ZM49.012 107.094H46.962C47.252 106.594 47.662 106.084 48.172 105.464C49.052 104.404 50.052 103.194 50.412 101.514C50.782 99.8042 50.752 93.0042 50.652 87.1242C50.912 87.5942 51.152 88.0342 51.362 88.4342C52.152 89.9542 52.742 90.6542 53.162 91.1642L52.152 102.454C51.462 103.074 50.452 104.364 49.012 107.094ZM40.962 46.1842C42.192 45.6242 44.672 44.1842 44.902 41.6042C44.972 40.7742 44.362 40.0542 43.542 39.9842C42.732 39.9042 41.992 40.5242 41.922 41.3442C41.882 41.8042 41.542 42.2342 41.102 42.6042C40.952 41.8442 40.772 41.2542 40.742 41.1342C40.612 40.6942 40.282 40.3342 39.852 40.1642C39.422 39.9942 38.942 40.0342 38.542 40.2642L38.192 40.4642C38.252 39.8142 38.502 39.3242 38.512 39.2942C38.852 38.6742 38.712 37.8942 38.172 37.4342C37.632 36.9742 36.842 36.9542 36.282 37.3942L35.352 38.1142C35.342 36.9842 35.692 36.2042 35.702 36.1642C36.022 35.5142 35.822 34.7242 35.232 34.2942C34.142 33.5042 31.512 31.6242 30.532 31.2842C30.242 31.1842 29.572 30.9542 29.922 28.7042C30.012 28.1042 29.702 27.5142 29.192 27.1942C29.192 27.1942 29.222 27.0242 29.522 26.7142C30.732 25.4342 32.012 25.2842 33.552 26.2342C33.802 26.3942 34.102 26.4742 34.402 26.4542C35.092 26.4242 35.962 26.5442 36.252 26.6942C37.102 27.9442 39.172 30.6542 41.322 30.7442H41.762C43.522 30.7942 45.182 30.9642 46.182 32.6542C47.662 35.1542 48.002 36.1442 48.002 36.1442C48.202 36.8242 48.842 37.2542 49.562 37.2042C49.602 37.2042 53.732 36.8942 55.502 39.4342C54.972 39.8342 54.182 40.2942 53.262 40.3642C52.272 40.4442 51.322 40.0642 50.332 39.2142C49.702 38.6742 48.762 38.7442 48.212 39.3742C47.672 40.0042 47.742 40.9442 48.372 41.4942C49.852 42.7742 51.432 43.3942 53.082 43.3742C53.182 43.6742 53.282 43.9742 53.372 44.2642C53.812 45.6542 54.312 47.2242 54.982 48.6542C55.382 49.5042 55.652 51.3342 55.072 55.2842C55.012 55.0942 54.952 54.9042 54.902 54.7242C54.672 53.9542 53.872 53.5142 53.102 53.7042C52.322 53.9042 51.842 54.6642 51.992 55.4542C52.212 56.5442 51.702 58.1342 51.022 59.5742C50.562 58.9242 50.142 58.5142 50.052 58.4242C49.592 57.9842 48.902 57.8742 48.332 58.1642C47.762 58.4542 47.442 59.0642 47.522 59.7042C47.842 62.1342 47.112 64.0142 46.222 65.3342C46.072 64.7642 45.602 64.3142 44.992 64.2242C44.252 64.1042 43.552 64.5642 43.332 65.2742C42.862 66.8142 41.652 67.9042 40.702 68.5642C38.602 62.8142 39.802 52.7042 40.942 46.1842H40.962ZM52.512 28.6942C52.862 28.8642 53.262 28.8942 53.632 28.7742C54.192 28.5942 55.912 27.9842 57.492 26.9442C57.422 27.8942 57.302 28.6442 57.142 28.9642C56.752 29.2042 56.482 29.6242 56.442 30.0942C56.382 30.6542 56.642 31.1942 57.112 31.5042C57.382 31.6742 62.862 35.1842 70.192 34.8542C70.002 35.2042 69.962 35.6142 70.082 36.0042C70.312 36.7442 70.992 37.7642 72.272 38.4042C69.592 39.3742 65.062 39.9142 57.992 37.7642C55.982 34.8042 52.292 34.2842 50.442 34.2242C50.222 33.7442 49.882 33.0942 49.412 32.2442C49.502 30.5942 49.552 28.2442 49.252 27.0042C49.112 26.4142 49.142 25.2042 49.272 23.9342C50.012 25.9942 51.062 27.9942 52.522 28.7042L52.512 28.6942Z" fill="#67787F"/>
</g>
<defs>
<clipPath id="clip0_1218_3645">
<rect width="130" height="130" fill="white"/>
</clipPath>
</defs>
</svg>
