<svg width="130" height="130" viewBox="0 0 130 130" fill="none" xmlns="http://www.w3.org/2000/svg">
<g clip-path="url(#clip0_1218_3655)">
<path d="M95.2751 67.7061C95.7151 67.3561 95.9251 66.7761 95.8051 66.2261C94.5351 60.1761 89.2151 58.8761 85.9051 59.0461C83.9451 56.5461 76.7551 48.5761 64.6751 48.0261C53.2151 47.4961 49.6951 56.1861 48.6851 60.1261C46.4951 58.7561 46.5351 55.7761 46.8051 53.9361C47.4551 49.4661 52.5151 41.1161 53.7351 39.2861C55.1551 37.1561 56.0751 33.5061 56.4651 31.9461L56.5251 31.6961C57.4851 27.9461 57.3351 26.9161 56.3151 25.3261L56.1551 25.0761C55.2051 23.5461 52.3851 20.0961 46.5351 21.2861C43.3251 21.9361 41.8451 23.9961 41.2551 25.9361C39.4551 26.0861 35.8151 26.5861 34.0651 28.2761C32.0051 30.2761 31.0851 36.6461 32.2651 38.1761C32.5951 38.6061 33.0851 38.8461 33.5951 38.8461C33.8851 38.8461 34.1951 38.7661 34.4651 38.5961C35.1651 38.1761 35.2451 37.4761 35.2851 37.0561C35.3751 36.2361 35.5051 35.1061 38.1751 34.7961C39.9951 34.5861 41.3351 34.5161 42.3051 34.4661C42.7651 34.4461 43.1851 34.4161 43.5551 34.3861C43.6451 34.4461 43.7251 34.5261 43.8151 34.5661C44.1251 34.6961 45.2751 35.1561 46.5751 35.2861C46.1851 36.1161 45.4351 37.4561 44.0351 39.5761C42.1951 42.3461 36.3651 52.1161 38.7651 61.3761C40.0351 66.2961 43.4151 70.2061 48.8051 73.0061C53.7351 75.5661 58.5151 76.4861 62.8851 76.4661L64.8251 83.6761L60.1851 85.0961C59.7751 85.2161 59.4451 85.5161 59.2651 85.8961L56.8451 91.0761C56.4951 91.8261 56.8151 92.7161 57.5651 93.0661C57.7751 93.1661 57.9851 93.2061 58.1951 93.2061C58.7551 93.2061 59.3051 92.8861 59.5551 92.3361L61.6951 87.7561L65.5951 86.5661L66.0351 88.1961C66.2951 89.1761 66.9651 89.9661 67.8251 90.4161L65.6051 109.216L60.1151 111.126C59.3351 111.396 58.9151 112.256 59.1951 113.036C59.4151 113.656 59.9951 114.046 60.6151 114.046C60.7751 114.046 60.9451 114.016 61.1051 113.966L67.4751 111.746C68.0151 111.556 68.4051 111.076 68.4751 110.506L70.9551 89.5061V84.9361L82.1651 81.5061C82.6951 81.4761 83.2051 81.2861 83.6251 80.9461C83.7051 80.8761 83.7851 80.8061 83.8451 80.7161C84.3251 80.2161 84.5951 79.5661 84.5751 78.8661C84.5651 78.3961 84.4151 77.9561 84.1751 77.5661C85.3451 77.1961 86.7251 76.5061 87.6751 75.1961C87.9051 74.8761 88.0951 74.5461 88.2451 74.1961C88.8451 75.3061 89.1651 76.4761 89.4451 78.4661C89.5351 79.1161 90.0351 79.6261 90.6751 79.7361C90.7551 79.7461 90.8451 79.7561 90.9251 79.7561C91.4751 79.7561 91.9951 79.4461 92.2551 78.9461C94.7151 74.1661 94.1051 70.2261 92.6351 67.4861C92.9751 67.6161 93.3051 67.7561 93.6351 67.9061C94.1451 68.1361 94.7551 68.0661 95.1951 67.7061H95.2751ZM86.3051 68.5361C85.6751 68.8661 85.3551 69.5861 85.5551 70.2661C85.9351 71.6161 85.8551 72.6761 85.3251 73.4161C85.1751 73.6261 84.9851 73.8061 84.7851 73.9661C84.7851 72.7561 84.4051 71.4061 83.6151 70.0361C82.7751 68.5761 81.9251 67.8461 81.0751 67.8461C80.8351 67.8461 80.5951 67.9061 80.3651 68.0161C80.3151 68.0461 80.1751 68.1161 79.9551 68.2561C75.3751 71.1361 63.3151 77.1061 50.2251 70.3161C45.6251 67.9361 42.7651 64.6661 41.7151 60.6061C39.5751 52.3461 45.3951 43.0061 46.5851 41.2161C50.4751 35.3561 50.3251 33.9661 49.8251 33.0561C49.4351 32.3261 48.5551 31.9461 47.8051 32.2261C47.5051 32.3361 47.0451 32.3061 46.5551 32.2261C46.9351 30.9661 47.0451 29.0261 46.1651 27.5861C45.8751 27.1161 45.3351 26.4761 44.4151 26.1161C44.8351 25.3061 45.6451 24.5261 47.1551 24.2161C50.8051 23.4761 52.6851 25.1361 53.6251 26.6461L53.8051 26.9261C54.2451 27.6161 54.4151 27.8861 53.6351 30.9461L53.5751 31.1961C53.2551 32.4861 52.3851 35.9061 51.2551 37.6061C51.1851 37.7061 44.7051 47.6361 43.8551 53.4861C43.2451 57.6461 44.4151 62.4861 49.4951 63.6161C49.9151 63.7161 50.3551 63.6161 50.6951 63.3661C51.0451 63.1161 51.2651 62.7261 51.3051 62.3061C51.3551 61.8261 52.6651 50.4661 64.5451 51.0161C77.0451 51.5861 83.9051 61.3661 83.9751 61.4661C84.2951 61.9361 84.8651 62.1861 85.4251 62.1061C85.9151 62.0361 89.2851 61.6661 91.3851 63.8661C90.2851 63.5761 89.1551 63.4061 88.3351 63.5961C87.7551 63.7261 87.3051 64.1961 87.1951 64.7861C87.0851 65.3761 87.3351 65.9661 87.8351 66.3061C88.0051 66.4261 91.1551 68.6061 91.0151 72.8561C90.3451 71.5961 89.4351 70.4761 88.1651 68.9261C87.7151 68.3761 86.9451 68.2161 86.3151 68.5461L86.3051 68.5361ZM67.7351 82.7861L65.9851 76.2961C66.5851 76.2361 67.1651 76.1561 67.7451 76.0661L68.0151 76.1761V82.7061L67.7351 82.7961V82.7861ZM77.9951 72.7761C79.0851 72.2461 80.0351 71.7161 80.8351 71.2461C81.2851 71.9461 81.8251 73.1061 81.7751 74.0861C81.7551 74.5561 81.5851 74.8861 81.2551 75.1461L77.9951 72.7861V72.7761ZM79.1951 77.3461L72.8451 74.8461C73.5251 74.6261 74.1751 74.3961 74.7951 74.1661L79.1951 77.3561V77.3461ZM35.2251 32.4961C35.4651 31.5961 35.7751 30.7961 36.1751 30.4161C37.1451 29.4761 40.3351 28.9461 42.2851 28.8661C42.3351 28.8661 42.3851 28.8661 42.4351 28.8561C42.5951 28.8361 42.7251 28.8261 42.8451 28.8261C43.3751 28.8261 43.5151 29.0161 43.5651 29.0961C43.9451 29.6261 43.8451 30.8461 43.7051 31.3461C43.3851 31.3961 42.7751 31.4261 42.1851 31.4661C41.1651 31.5161 39.7751 31.5961 37.8651 31.8161C36.8551 31.9361 35.9751 32.1661 35.2351 32.5161L35.2251 32.4961ZM71.0151 77.3461L77.3551 79.8461L71.0151 81.7861V77.3461Z" fill="#67787F"/>
<path d="M66.4946 53.2963C63.2346 53.0563 60.1746 54.2363 58.2846 56.4663C56.6446 58.4163 56.3046 60.7263 57.3346 62.9763C59.0146 66.6563 63.4746 68.7163 68.6046 68.7163C71.2446 68.7163 74.0546 68.1763 76.7646 67.0263C77.0646 66.8963 77.3146 66.6763 77.4746 66.3963C77.4746 66.3963 77.4946 66.4063 77.4946 66.4163C77.9546 66.8363 78.6246 66.9263 79.1746 66.6463C79.7246 66.3663 80.0546 65.7763 79.9946 65.1563C79.9846 65.0463 78.7746 54.2263 66.4846 53.3063L66.4946 53.2963ZM74.0546 61.9163C73.4246 61.8563 72.8446 62.2163 72.5846 62.7863C72.3246 63.3563 72.4446 64.0263 72.8846 64.4663L73.4246 65.0063C67.6846 66.6063 61.6746 65.2563 60.0546 61.7163C59.5046 60.5163 59.6746 59.4563 60.5746 58.3963C61.7246 57.0363 63.5846 56.2663 65.6446 56.2663C65.8546 56.2663 66.0546 56.2663 66.2646 56.2863C72.1146 56.7263 74.8046 59.8263 76.0246 62.2963C74.9446 61.9763 74.1246 61.9163 74.0546 61.9063V61.9163Z" fill="#67787F"/>
</g>
<defs>
<clipPath id="clip0_1218_3655">
<rect width="130" height="130" fill="white"/>
</clipPath>
</defs>
</svg>
