<svg width="130" height="130" viewBox="0 0 130 130" fill="none" xmlns="http://www.w3.org/2000/svg">
<g clip-path="url(#clip0_1218_3662)">
<path d="M27.8447 52.3799C28.5347 52.4799 29.1547 52.4499 29.6947 52.3499C29.8447 53.3699 30.1347 54.5599 30.4947 55.9399C30.7347 56.8599 30.9947 57.9099 31.0147 58.2999C31.0447 59.0799 31.6347 60.3299 32.4547 61.6999C31.9947 63.8599 31.5447 66.3599 31.5447 67.7299C31.5447 70.3799 32.7747 75.1199 32.8247 75.3199C32.9247 75.7199 33.1947 76.0499 33.5447 76.2499L39.2947 79.4299C39.5247 79.5599 39.7747 79.6199 40.0247 79.6199C40.0647 79.6199 40.0947 79.6099 40.1347 79.6099L40.1947 79.8599C40.3347 80.4999 40.8847 80.9799 41.5447 81.0299L45.6547 81.3399H45.7647C46.1247 81.3399 46.4747 81.2099 46.7547 80.9699C47.0547 80.7099 47.2447 80.3299 47.2647 79.9299L47.3647 78.2899C47.4547 76.7799 46.6547 75.0099 46.1147 74.0099C46.2947 73.6499 46.5247 73.2099 46.7947 72.7799C50.7347 74.7999 54.4047 75.8599 57.6547 76.3099C58.2447 79.0999 59.5647 82.3599 62.5847 83.7699C63.9247 84.3999 65.3847 84.8599 66.7947 85.3099C70.4847 86.4899 74.2947 87.7099 77.0847 92.0499C76.4747 93.9599 75.2747 97.8599 75.2747 99.1499V99.6199C75.2947 101.8 75.2147 103.16 75.0347 103.68C74.9547 103.75 74.8447 103.83 74.7247 103.92C72.1247 105.96 70.5947 107.43 70.4347 108.9C70.3747 109.48 70.5347 110.04 70.8847 110.48C71.5547 111.31 73.1447 111.61 74.9047 111.61C75.3447 111.61 75.7947 111.58 76.2447 111.55C77.5747 112.6 79.6447 113.2 80.5747 113.28C80.9847 113.31 81.3647 113.33 81.7347 113.33C83.6047 113.33 84.9947 112.89 85.8647 112.02C87.2947 110.59 87.3947 102.37 87.3947 101.34C87.5147 100.89 88.1347 99.4399 88.6347 98.2599C90.2647 94.4599 91.3247 91.8599 91.2247 90.4499C91.1247 89.1099 90.0347 87.4299 88.2347 84.8299C87.3147 83.4899 86.1647 81.8299 85.9747 81.1399C85.7647 80.3399 85.8547 77.9199 86.0547 75.4699C87.0247 77.5699 88.0947 80.6699 88.9747 83.1899C90.4147 87.3299 92.0447 92.0299 94.0147 95.7799C98.9047 105.12 112.295 104.95 112.855 104.94C113.645 104.92 114.285 104.29 114.325 103.5C114.355 102.71 113.765 102.03 112.985 101.95C110.925 101.74 104.245 97.2199 102.895 95.7199C98.2947 90.6599 96.3447 77.6999 94.7847 67.2899L94.3647 64.5399C93.2647 57.3399 87.5047 50.7299 77.2647 44.8899C76.8847 44.6799 76.6147 44.5299 76.4847 44.4399C75.0047 43.4199 63.0747 39.4599 58.1147 41.5199C54.4647 43.0399 46.9947 44.6099 44.7447 44.9399C44.0947 43.6099 42.9847 39.8399 43.1347 37.6699C43.1947 36.8099 43.1547 36.0699 43.0147 35.4099C44.4947 33.8399 46.2747 31.6599 46.5147 29.9799C46.8147 27.9099 45.9847 22.4399 44.7547 21.0199C44.2547 20.4399 43.6847 20.3599 43.3847 20.3599C42.1547 20.3599 40.9947 21.4699 37.1847 26.2999L36.9647 26.5799C36.4447 27.2399 36.0947 28.0799 35.8547 28.9499C35.6447 28.6199 35.4347 28.2699 35.2347 27.9399C32.4247 23.3399 31.2547 21.6199 30.2847 21.1299C29.6047 20.7899 28.8047 20.9399 28.3047 21.4999C27.1347 22.7999 28.1947 28.9999 29.2247 33.1399C28.3447 34.1699 26.7147 36.1899 26.2747 37.4499C26.0347 38.1299 25.9647 38.6799 25.8947 39.1199C25.8147 39.6699 25.7947 39.8099 25.5847 40.0499C24.9247 40.8199 21.5947 46.2499 22.8347 48.8599C23.8447 50.9699 25.3747 52.0599 27.8047 52.4099L27.8447 52.3799ZM28.8947 39.4999C28.9447 39.1399 28.9947 38.8099 29.1347 38.4099C29.3647 37.7399 30.8047 35.8699 32.0147 34.5099C32.0847 34.4299 33.4447 32.8899 35.4047 32.9899C35.4047 33.4799 35.4247 33.8299 35.4347 33.9499C35.4947 34.7799 36.2147 35.3999 37.0347 35.3399C37.8647 35.2799 38.4847 34.5699 38.4247 33.7399C38.3247 32.2499 38.4847 29.4899 39.3347 28.4099L39.5547 28.1299C40.2547 27.2399 41.8147 25.2699 42.8947 24.0999C43.3147 25.6899 43.7247 28.3199 43.5547 29.5199C43.4147 30.4899 41.2247 33.0799 39.2547 34.8899C38.6447 35.4499 38.6047 36.3999 39.1647 37.0099C39.4347 37.2999 39.7847 37.4499 40.1447 37.4799C40.0247 39.6299 41.3747 47.6399 43.9247 47.9499C45.3247 48.1399 55.2447 45.9199 59.2647 44.2499C62.8047 42.7799 73.6047 46.1099 74.7847 46.8699C74.9547 46.9899 75.2947 47.1899 75.7847 47.4599C85.1947 52.8299 90.4547 58.7099 91.4047 64.9599L91.8247 67.7099C93.5347 79.0899 95.4747 91.9799 100.685 97.7199C101.155 98.2399 102.295 99.1799 103.725 100.22C100.955 99.1199 98.2347 97.3299 96.6847 94.3699C94.8247 90.8199 93.2247 86.2299 91.8247 82.1899C89.8747 76.5799 88.5747 73.0099 86.9847 71.2899C87.5847 70.3499 88.3847 69.0399 88.8347 68.0199C89.7547 65.9499 89.0047 63.0299 88.9147 62.6999C88.6947 61.8999 87.8747 61.4299 87.0747 61.6499C86.2747 61.8699 85.8047 62.6899 86.0247 63.4899C86.2147 64.1999 86.4847 65.9399 86.1047 66.7999C85.4347 68.2999 83.7447 70.7799 83.7247 70.8099C83.7247 70.8099 83.7147 70.8299 83.7047 70.8399C83.6847 70.8699 83.6647 70.9099 83.6447 70.9499C83.6147 71.0099 83.5847 71.0599 83.5647 71.1199C83.5547 71.1599 83.5447 71.1899 83.5347 71.2299C83.5147 71.2899 83.5047 71.3599 83.4947 71.4199C83.4947 71.4399 83.4947 71.4499 83.4847 71.4699C83.3147 72.8199 82.5247 79.6699 83.1147 81.8999C83.4347 83.0999 84.5347 84.6899 85.8047 86.5299C86.7047 87.8299 88.1947 89.9899 88.2747 90.6499C88.2947 91.5299 86.6947 95.2799 85.9247 97.0699C84.7447 99.8399 84.4347 100.61 84.4347 101.23C84.4347 102.9 84.1247 108.68 83.6747 109.98C83.3047 110.21 82.4047 110.41 80.8647 110.28C80.3647 110.24 79.5947 109.97 78.9647 109.68C80.4947 109.04 82.4847 108.1 83.1647 104.98C83.2947 104.37 83.4547 103.67 83.6247 102.92C84.5447 98.8199 85.2547 95.5599 85.2547 93.9799C85.2547 91.8799 82.1447 83.5899 79.6447 82.5499C78.1147 81.9099 74.3047 78.9499 73.8247 77.2799C73.3247 75.5199 73.0547 72.9099 73.0547 72.8899V72.8399C72.8047 70.9599 73.0347 69.2499 73.6847 68.1499C74.6747 66.4599 76.0147 61.8899 76.1647 61.3699C76.3947 60.5699 75.9347 59.7399 75.1347 59.5099C74.3447 59.2799 73.5047 59.7399 73.2747 60.5299C72.7547 62.3399 71.6947 65.5899 71.0947 66.6199C70.0447 68.4099 69.9047 70.5399 69.9847 72.0899C67.3947 73.1099 59.3047 75.4899 48.9447 70.4899C53.5347 66.3399 53.8047 65.9199 53.9347 65.2399C54.0347 64.7299 54.8747 60.1599 52.6647 58.0999C51.8047 57.2999 50.6447 54.5099 50.0947 52.7899C49.8447 51.9999 49.0047 51.5599 48.2147 51.8199C47.4247 52.0699 46.9847 52.9099 47.2447 53.6999C47.5047 54.5199 48.8947 58.6699 50.6247 60.2999C51.2547 60.8899 51.2747 62.9899 51.0447 64.3899C50.4047 65.1399 47.9447 67.3599 46.8447 68.3499C46.3947 68.7499 46.0147 69.0999 45.7447 69.3499C44.2047 70.7699 43.1747 73.2599 43.0647 73.5399C42.8847 73.9799 42.9347 74.4899 43.1847 74.8899C43.7047 75.7199 44.4447 77.3199 44.3947 78.1099V78.2399L42.9047 78.1299L41.9247 73.7599C42.4047 72.7599 43.3047 70.9799 43.9947 70.0099C45.2847 68.1899 45.4347 65.5299 45.4447 65.2299C45.4647 64.7799 45.2747 64.3399 44.9347 64.0399C43.4247 62.7199 41.9847 60.9999 41.8147 60.3599C41.9747 59.6199 41.5547 58.8599 40.8247 58.6199C40.0347 58.3499 39.1947 58.7799 38.9247 59.5699C38.2947 61.4499 40.3247 63.8999 42.3747 65.7899C42.3147 66.1899 42.2247 66.6699 42.0747 67.1399C40.9647 66.5799 39.9647 66.0299 39.4247 65.6599C37.8447 64.5699 34.2247 59.3599 34.0447 58.1999C34.0147 57.4999 33.7547 56.4899 33.4347 55.2199C33.1547 54.1399 32.6247 52.0699 32.5847 51.1199C32.7047 51.0799 32.8347 51.0499 32.9547 51.0099C33.3147 50.9499 33.7347 50.8899 34.1247 50.8599C34.9047 50.7899 35.4947 50.1299 35.4847 49.3499C35.4747 48.5699 34.8647 47.9299 34.0847 47.8699C33.5447 47.8299 32.9347 47.9299 32.3847 48.0599C30.8947 48.3199 30.4147 48.6799 30.1747 48.9899C29.9647 49.1599 29.3247 49.5699 28.3147 49.4299C26.6847 49.1899 26.1247 48.6099 25.6347 47.5899C25.3947 46.6699 27.0747 42.9799 27.9347 41.9799C28.7247 41.0599 28.8347 40.1999 28.9347 39.5099L28.8947 39.4999ZM31.0547 26.8299C31.6647 27.7999 32.2647 28.7899 32.6847 29.4699C32.8647 29.7699 33.0347 30.0399 33.1847 30.2999C32.6647 30.4599 32.1847 30.6799 31.7547 30.9199C31.4847 29.5899 31.2347 28.1299 31.0447 26.8299H31.0547ZM73.9247 108.58C74.3747 108.09 75.1847 107.36 76.5847 106.27C76.8347 106.08 77.0247 105.92 77.1347 105.83C78.1347 104.97 78.3047 103.14 78.2747 99.5899V99.1399C78.2747 98.4399 79.2547 95.0499 80.1547 92.3199C80.2847 91.9099 80.2447 91.4699 80.0247 91.0999C76.6347 85.2999 71.8947 83.7899 67.7047 82.4499C66.3247 82.0099 65.0247 81.5899 63.8547 81.0499C62.2447 80.2999 61.3147 78.4699 60.7947 76.5799C65.0547 76.7099 68.3547 75.8599 70.3047 75.1699C70.4447 76.0899 70.6547 77.1699 70.9147 78.0999C71.7747 81.0999 76.6547 84.5599 78.3847 85.2799C79.4447 86.0099 81.8747 91.6899 82.1847 93.6299C81.6247 95.5099 80.9747 97.6999 80.7047 98.6099C80.4747 99.3799 80.3947 100.62 80.2847 102.58C80.2547 103.11 80.2147 103.78 80.1647 104.47C79.7747 106.05 78.9547 106.4 77.6147 106.97C77.1847 107.15 76.7447 107.33 76.3047 107.57C75.7947 107.85 75.4747 108.21 75.2747 108.58C74.7747 108.6 74.3047 108.6 73.9247 108.58ZM34.5447 67.7299C34.5447 67.1399 34.6647 66.1999 34.8547 65.1299C35.2547 65.6299 35.6447 66.0999 36.0247 66.5199C35.4447 70.3899 37.0547 72.6099 37.5647 73.1899C37.9347 73.7499 38.4847 74.4799 39.1247 75.0699L39.3347 76.0199L35.5747 73.9399C35.1847 72.3499 34.5447 69.3599 34.5447 67.7299ZM39.8047 71.2099C39.7147 71.1099 39.0847 70.3599 38.9247 68.8599C39.4247 69.1399 39.9947 69.4399 40.5947 69.7399C40.3147 70.2399 40.0447 70.7399 39.8047 71.2099Z" fill="#67787F"/>
</g>
<defs>
<clipPath id="clip0_1218_3662">
<rect width="130" height="130" fill="white"/>
</clipPath>
</defs>
</svg>
