<svg width="130" height="130" viewBox="0 0 130 130" fill="none" xmlns="http://www.w3.org/2000/svg">
<g clip-path="url(#clip0_1218_3650)">
<path d="M99.1098 75.5168C99.1098 73.1068 97.9798 70.8668 96.1298 69.4268C96.6298 68.5168 96.8798 67.4268 96.5698 66.3368C96.1598 64.8768 95.1298 63.7568 93.7498 63.2568C93.3998 63.1268 93.0498 63.0468 92.6998 63.0168C92.0298 60.1168 89.4298 57.9468 86.3298 57.9468C85.6298 57.9468 84.9398 58.0568 84.2798 58.2768C83.2198 55.6668 80.6698 53.8768 77.6998 53.8768C75.4298 53.8768 73.3698 54.9268 72.0498 56.6468C71.4598 56.2368 70.6898 56.0068 69.4898 56.0068C68.2898 56.0068 67.4898 56.3368 66.8798 56.7968C65.2298 55.6268 63.7598 55.5268 62.7598 55.6968C62.6998 55.7068 62.6298 55.7168 62.5698 55.7368C62.4998 55.3268 62.3798 54.9268 62.2098 54.5368C61.8198 53.6368 61.1898 52.8568 60.4498 52.3268C60.5498 51.8868 60.5998 51.4268 60.5998 50.9668C60.5998 49.8768 60.3098 48.8068 59.7798 47.8668C60.7798 46.9268 61.3698 45.5968 61.3698 44.1568C61.3698 42.5768 60.6798 41.5968 59.8598 40.9768C60.4598 40.1668 60.6798 39.3668 60.7498 38.7468C60.9198 37.0468 60.0798 35.6368 59.4698 34.8668C59.6798 32.8668 59.2098 31.5968 58.6398 30.7968C58.1198 28.0468 56.7298 26.0668 55.3698 24.8368C55.6898 23.9068 55.8598 22.6668 55.7498 21.0068C55.6098 18.7368 55.0298 16.6268 54.9998 16.5368C54.8898 16.1568 54.6398 15.8268 54.2898 15.6268C53.9398 15.4268 53.5298 15.3768 53.1498 15.4868C47.9198 16.9468 45.6898 20.3968 45.0998 21.4968C41.3398 21.8868 39.7198 23.9668 38.1498 25.9968C36.6198 27.9668 35.0398 30.0068 31.0898 31.2568C29.9398 31.6168 29.9298 32.8768 29.9298 33.2868C29.9198 35.1468 30.8098 40.2868 34.9998 41.6668C35.7298 41.9068 36.4898 41.9968 37.2698 41.9968C38.0498 41.9968 38.8398 41.8968 39.6098 41.7668C39.3998 42.3968 39.2798 43.0568 39.2798 43.7268C39.2798 45.3168 39.8898 46.8268 40.9498 47.9568C39.8798 49.2768 39.2798 50.9268 39.2798 52.6868C39.2798 54.5568 39.9698 56.3268 41.1698 57.6968C39.9998 59.0168 39.3198 60.7168 39.2798 62.5268C39.2398 62.6268 39.1798 62.7468 39.1198 62.8968C38.4798 64.3468 36.5998 68.5868 41.3398 72.2268C40.8998 73.6268 40.4398 75.9868 41.4298 78.1768C42.1498 79.7768 43.4798 80.9568 45.3698 81.7168L46.8598 87.2568C47.2598 90.8368 47.7598 97.0068 47.4098 98.7068C47.1598 99.9168 46.1698 101.267 45.3798 102.357C44.6198 103.397 44.0298 104.217 43.8998 105.047C43.5198 107.377 44.7898 107.887 45.1798 107.987C45.2998 108.017 45.4298 108.037 45.5498 108.037H50.4798C51.0098 108.037 51.4998 107.757 51.7698 107.307C53.8598 103.787 54.1598 102.947 54.1998 102.517C54.2498 102.377 54.3298 102.197 54.4198 101.967C54.8898 100.827 55.6698 98.9168 55.6698 96.9868C55.6698 94.3568 55.8498 89.4268 56.0498 88.4068C56.1198 88.2968 56.2298 88.1368 56.3598 87.9468C56.7498 91.5768 57.1598 97.1068 56.8298 98.7068C56.5798 99.9168 55.5898 101.267 54.7998 102.357C54.0498 103.397 53.4498 104.217 53.3198 105.057C52.9598 107.387 54.2198 107.897 54.6198 107.997C54.7398 108.027 54.8598 108.037 54.9798 108.037H59.9098C60.4398 108.037 60.9298 107.757 61.1998 107.307C63.2998 103.787 63.5998 102.937 63.6398 102.517C63.6898 102.387 63.7698 102.197 63.8598 101.967C64.3298 100.827 65.1098 98.9168 65.1098 96.9868C65.1098 94.8968 65.2398 90.4968 65.4298 88.8568C66.3598 89.3568 67.4098 89.6268 68.4998 89.6268C70.6298 89.6268 72.5598 88.6168 73.7598 86.9768C74.5598 87.4068 75.4198 87.5168 76.5098 87.5168C76.7498 87.5168 76.9598 87.4968 77.1698 87.4768C78.0598 88.9668 79.2898 90.4868 81.0098 91.8068C80.9198 95.3268 80.7298 99.2168 80.5598 99.8268C80.4298 100.127 79.8598 101.087 79.3998 101.857C77.9098 104.347 77.5598 104.997 77.5598 105.657V106.197C77.5598 107.027 78.2298 107.697 79.0598 107.697H89.2098C89.6998 107.697 90.1598 107.457 90.4398 107.047C93.4498 102.677 93.2998 101.437 93.2498 101.087C93.2298 100.127 94.6498 94.2868 95.4798 91.4468C96.0498 89.5068 95.2798 87.5468 94.5998 85.8268C94.2798 85.0268 93.9798 84.2668 93.9098 83.7068C93.8898 83.5268 93.8298 83.3468 93.7398 83.1868C93.6998 83.1068 93.6498 83.0168 93.6098 82.9368C96.7698 81.9568 99.0698 79.0168 99.0698 75.5368L99.1098 75.5168ZM92.6398 90.5868C92.6098 90.6768 90.1898 99.2468 90.2898 101.277C90.1798 101.777 89.3798 103.247 88.4398 104.687H86.9298C87.7898 103.197 88.2298 102.057 88.2398 101.317C88.2998 101.197 88.3598 101.087 88.3898 100.997C88.5598 100.587 88.7098 99.5368 88.8298 97.8468C89.3198 95.7068 89.9998 93.0468 90.4698 91.4368C91.0198 89.5568 90.3198 87.6568 89.6598 85.9768C90.1598 85.4368 90.5898 84.8268 90.8998 84.1468C90.9398 84.2268 90.9798 84.3068 91.0198 84.3768C91.1698 85.1968 91.4998 86.0368 91.8398 86.9068C92.3698 88.2468 92.9098 89.6268 92.6298 90.5868H92.6398ZM81.9998 103.387C82.6998 102.207 83.1498 101.457 83.3398 101.007C83.6898 100.197 83.9298 96.8568 84.0498 91.0768C84.0598 90.5668 83.8098 90.0968 83.3998 89.8068C82.1998 88.9868 81.2698 88.0368 80.5398 87.0568C81.6798 87.8168 83.0398 88.2468 84.4698 88.2468C85.3998 88.2468 86.2898 88.0468 87.1098 87.7068C87.5098 88.7768 87.8198 89.8168 87.5898 90.5768C87.5598 90.6668 85.1498 99.2268 85.2398 101.267C85.1398 101.767 84.3298 103.237 83.3898 104.677H81.2198C81.4798 104.227 81.7698 103.747 81.9898 103.377L81.9998 103.387ZM90.3698 80.1668C89.9498 80.0768 89.5098 80.1668 89.1698 80.4268C88.8298 80.6868 88.6098 81.0768 88.5698 81.5068C88.3898 83.6068 86.5898 85.2568 84.4698 85.2568C82.9398 85.2568 81.5398 84.4168 80.8298 83.0568C80.5798 82.5768 80.0898 82.2768 79.5398 82.2568C78.9898 82.2368 78.4898 82.5168 78.2098 82.9868L77.9498 83.4368C77.5298 84.1568 77.0598 84.5168 76.5398 84.5168C75.2798 84.5168 75.1098 84.4068 74.5098 83.6668C74.1598 83.2368 73.6098 83.0268 73.0598 83.1268C72.5098 83.2268 72.0698 83.6268 71.8998 84.1568C71.4398 85.6368 70.0798 86.6368 68.5198 86.6368C67.2198 86.6368 66.0198 85.9268 65.3998 84.7768C65.1698 84.3468 64.7298 84.0568 64.2398 83.9968H64.0798C63.6498 83.9968 63.2298 84.1868 62.9398 84.5168C62.2598 85.3068 61.2798 85.7568 60.2498 85.7568C58.7898 85.7568 57.4898 84.8768 56.9498 83.5268C56.7998 83.1568 56.5098 82.8568 56.1498 82.7068C55.7798 82.5468 55.3698 82.5468 54.9998 82.6968C54.6098 82.8568 54.1598 82.9368 53.7098 82.9368C52.0798 82.9368 50.6298 81.7868 50.2698 80.2068C50.0898 79.4268 49.2798 78.9168 48.4998 79.0668C48.3698 79.0968 48.2298 79.1268 48.0998 79.1568C47.8598 79.2168 47.4898 79.2968 47.3798 79.2668C45.7298 78.8168 44.6398 78.0468 44.1498 76.9768C43.2398 74.9768 44.4798 72.3768 44.4898 72.3568C44.8298 71.6668 44.5898 70.8368 43.9398 70.4268C40.1298 68.0268 41.1198 65.7868 41.8498 64.1468C42.0798 63.6268 42.2698 63.2068 42.2698 62.7268C42.2698 61.2268 43.0098 59.8168 44.2598 58.9768C44.6698 58.6968 44.9198 58.2368 44.9198 57.7368C44.9198 57.2368 44.6798 56.7768 44.2598 56.4968C43.0098 55.6468 42.2698 54.2368 42.2698 52.7268C42.2698 51.2168 42.9398 49.9668 44.0898 49.0968C44.4998 48.7968 44.7298 48.3068 44.6898 47.7968C44.6598 47.2868 44.3698 46.8368 43.9198 46.5868C42.8998 46.0168 42.2598 44.9368 42.2598 43.7668C42.2598 42.8468 42.6498 41.9768 43.3298 41.3768C43.4298 41.2868 43.5098 41.1868 43.5798 41.0868C43.9998 41.0468 44.3798 41.0268 44.6598 41.0868C45.4598 41.2668 46.2798 41.3668 47.1098 41.3868C47.9398 41.4368 48.6198 40.7468 48.6398 39.9168C48.6598 39.0868 47.9998 38.4068 47.1698 38.3868C46.5498 38.3768 45.9298 38.2968 45.3298 38.1568C43.9798 37.8468 42.4098 38.1768 40.7398 38.5168C38.9898 38.8768 37.1898 39.2468 35.9198 38.8368C33.7598 38.1268 33.0598 35.2068 32.9298 33.8168C37.0898 32.2568 38.9698 29.8368 40.4998 27.8668C41.6298 26.4068 42.4698 25.3268 43.9598 24.8068C43.8998 25.3468 43.9198 25.8968 44.0798 26.4268C44.2698 27.0768 44.8698 27.4968 45.5198 27.4968C45.6598 27.4968 45.8098 27.4768 45.9498 27.4368C46.7398 27.1968 47.1998 26.3668 46.9598 25.5668C46.8198 25.0968 47.1798 23.9468 47.5998 23.1968L47.6598 23.0768C47.7198 22.9568 48.9198 20.4068 52.4598 18.9168C52.9598 21.5868 52.8998 24.2868 51.9898 24.5368C51.1898 24.7568 50.7198 25.5868 50.9398 26.3768C51.1598 27.1768 51.9898 27.6468 52.7798 27.4268C52.9998 27.3668 53.2198 27.2868 53.4398 27.1768C54.6998 28.3468 56.4698 30.8368 55.6198 35.2868C55.4598 36.0968 55.9998 36.8868 56.8098 37.0368C56.9798 37.0668 57.1498 37.0668 57.3098 37.0368C57.5698 37.4368 57.7998 37.9668 57.7398 38.4568C57.6798 39.0368 57.2098 39.6068 56.3498 40.1468C55.8398 40.4668 55.5698 41.0568 55.6698 41.6468C55.7598 42.2368 56.1998 42.7168 56.7798 42.8668C58.3498 43.2668 58.3498 43.7068 58.3498 44.1668C58.3498 45.0368 57.8298 45.8068 57.0198 46.1268C56.5398 46.3168 56.1998 46.7368 56.0998 47.2468C55.9998 47.7468 56.1698 48.2668 56.5498 48.6168C57.2098 49.2368 57.5698 50.0768 57.5698 50.9768C57.5698 51.4868 57.4498 51.9868 57.2298 52.4168C57.0098 52.8368 57.0098 53.3468 57.2298 53.7768C57.4398 54.2068 57.8498 54.5068 58.3198 54.5868C58.5198 54.6168 59.1098 54.9968 59.4298 55.7468C59.7298 56.4468 59.6698 57.2068 59.2498 58.0068C59.1198 58.1968 59.0098 58.3868 58.9198 58.5668C58.5698 59.2768 58.8298 60.1368 59.5098 60.5368C60.1898 60.9368 61.0698 60.7268 61.5098 60.0668C61.6098 59.9168 61.6998 59.7768 61.7798 59.6268C62.0598 59.2568 62.5798 58.7868 63.2398 58.6768C64.0198 58.5368 64.8998 58.9468 65.8498 59.8768C66.4298 60.4368 67.3498 60.4468 67.9298 59.8868L68.1198 59.6968C68.8098 59.0268 68.8298 59.0168 69.4598 59.0168C70.0328 59.0168 70.5428 59.3368 70.9898 59.9768L71.0898 60.1168C71.4198 60.5868 71.9798 60.8268 72.5398 60.7468C73.0998 60.6668 73.5698 60.2668 73.7498 59.7268C74.2998 58.0268 75.8798 56.8868 77.6698 56.8868C79.7798 56.8868 81.5798 58.5268 81.7698 60.6268C81.8198 61.1768 82.1598 61.6468 82.6598 61.8668C83.1598 62.0868 83.7398 62.0168 84.1798 61.6768C84.7898 61.2068 85.5198 60.9568 86.2998 60.9568C88.2498 60.9568 89.8398 62.5468 89.8398 64.5568C89.7598 65.1468 90.0098 65.7368 90.5198 66.0468C91.0298 66.3568 91.6298 66.3568 92.1198 66.0168C92.1998 65.9868 92.5298 65.9768 92.8898 66.1668C93.2698 66.3668 93.5298 66.6968 93.6598 67.1568C93.7698 67.5468 93.4398 68.2368 92.8798 68.7568C92.5098 69.0968 92.3398 69.6068 92.4298 70.0968C92.5098 70.5868 92.8398 71.0168 93.2898 71.2168C94.9898 71.9868 96.0898 73.6768 96.0898 75.5268C96.0898 78.1368 93.9598 80.2668 91.3498 80.2668C90.9898 80.2668 90.6598 80.2368 90.3498 80.1668H90.3698ZM61.1098 100.837C60.8898 101.377 60.7498 101.727 60.6998 102.067C60.5198 102.497 59.8098 103.797 59.0798 105.047H56.6098C56.7998 104.757 57.0498 104.417 57.2598 104.137C58.2198 102.817 59.4198 101.167 59.7998 99.3268C60.2298 97.2368 59.7798 91.6868 59.4798 88.6968C59.7398 88.7268 59.9998 88.7468 60.2598 88.7468C61.0498 88.7468 61.8098 88.5868 62.5298 88.3268C62.1398 91.0368 62.1298 96.7168 62.1298 97.0068C62.1298 98.3468 61.4898 99.9168 61.1098 100.857V100.837ZM51.6598 100.837C51.4398 101.377 51.2898 101.727 51.2398 102.067C51.0598 102.497 50.3498 103.797 49.6298 105.047H47.1598C47.3498 104.757 47.5998 104.407 47.8098 104.127C48.7698 102.807 49.9598 101.167 50.3498 99.3268C50.9098 96.5768 49.9398 87.8068 49.8298 86.8168C49.8298 86.7468 49.8098 86.6668 49.7898 86.5968L49.0898 83.9768C50.2798 85.1868 51.9198 85.9168 53.7298 85.9168C53.8898 85.9168 54.0298 85.8868 54.1898 85.8768C53.8298 86.3968 53.5398 86.8168 53.4198 87.0368C52.7198 88.2368 52.6998 96.1068 52.6998 97.0068C52.6998 98.3368 52.0598 99.9068 51.6698 100.847L51.6598 100.837Z" fill="#67787F"/>
</g>
<defs>
<clipPath id="clip0_1218_3650">
<rect width="130" height="130" fill="white"/>
</clipPath>
</defs>
</svg>
