<svg width="104" height="67" viewBox="0 0 104 67" fill="none" xmlns="http://www.w3.org/2000/svg">
<path d="M32.5596 21.4629C29.8421 21.4629 29.8421 25.6119 32.5596 25.6119C35.2772 25.6119 35.2772 21.4629 32.5596 21.4629Z" fill="#67787F"/>
<path d="M74.9846 37.7303C74.7627 37.7303 74.5409 37.7849 74.319 37.7849C73.9863 36.4747 73.4872 35.2191 72.8217 34.1273C72.1562 32.9808 71.3244 31.9436 70.3816 31.0155C66.3885 27.1395 61.4527 26.8665 56.6836 26.5934C54.9645 26.4843 53.3561 26.2113 51.8033 25.8292L51.526 25.7746C49.585 25.2286 48.6421 24.9011 48.1985 24.6827C48.1985 24.3552 48.143 24.0822 48.0876 23.7547C53.0788 22.2261 59.4011 19.442 61.3976 18.0771C63.1723 16.8761 64.3924 14.9653 64.7806 12.9455C65.1134 11.0348 64.7252 9.12402 63.616 7.54091C61.3421 4.32005 56.7391 3.55563 53.2453 5.73931C50.6388 4.04702 47.0895 4.10155 44.372 5.95768C42.6528 7.10411 38.9924 10.8164 36.1641 14.2557C34.2231 14.3648 32.282 14.9108 30.3964 15.9479C27.0134 17.8041 24.5178 21.1888 23.464 25.2286C22.5767 28.6133 22.7985 31.1245 24.1295 32.9806C25.6269 35.0006 28.2889 35.7648 30.7846 36.0925C29.8972 39.6955 30.6736 43.899 31.561 46.9562C32.2819 49.522 32.6702 52.0878 32.7811 54.5444C29.5645 55.1995 27.1797 57.9837 27.1797 61.3138C27.1797 62.0781 27.7897 62.6787 28.5662 62.6787H35.6094C39.4915 62.6787 42.6526 59.5669 42.6526 55.7456V52.6338C44.3163 53.6164 46.4237 54.5991 48.753 55.4179C48.3093 55.6908 47.8657 56.0184 47.4775 56.4005C46.1465 57.7108 45.4255 59.4577 45.4255 61.3138C45.4255 62.0781 46.0355 62.6787 46.812 62.6787H58.1811C65.7789 62.6787 70.9917 57.1648 73.1542 51.3782C73.7643 51.542 74.3743 51.5966 74.9844 51.5966C78.8665 51.5966 82.0276 48.4848 82.0276 44.6635C82.0276 40.8421 78.8664 37.7303 74.9844 37.7303L74.9846 37.7303ZM61.3424 9.12408C62.0079 10.1067 62.2852 11.2531 62.0634 12.4543C61.8415 13.7645 61.0096 14.9655 59.845 15.7844C58.2367 16.8763 52.2471 19.5513 47.4223 21.0253C47.4223 21.0253 47.4223 20.9707 47.3668 20.9707C47.145 20.4793 46.8677 19.9334 46.5904 19.4421C46.3131 19.0054 45.9804 18.5686 45.6476 18.1865C45.5922 18.0773 45.4813 18.0228 45.4258 17.9136L45.2594 17.7498C45.3149 17.6406 45.3703 17.586 45.4813 17.4768C45.6476 17.2585 45.814 17.0401 45.9804 16.8217C46.2022 16.5488 46.4241 16.2758 46.6459 16.0574C46.8123 15.8391 47.0341 15.6207 47.2005 15.4023C47.4223 15.1294 47.6441 14.8564 47.866 14.6381C48.0878 14.4197 48.2542 14.2013 48.476 13.983C48.6979 13.71 48.9197 13.4916 49.1415 13.2733C49.3634 13.0549 49.5297 12.8365 49.7516 12.6182C49.9734 12.3998 50.1398 12.1814 50.3616 11.963C50.5834 11.7447 50.8053 11.5263 50.9717 11.3079C51.138 11.1442 51.3044 10.9258 51.5262 10.762L52.1363 10.1615C52.3027 9.99774 52.469 9.88855 52.5799 9.72478L53.1345 9.17886C53.3564 9.01508 53.5227 8.85131 53.6891 8.68753C53.8 8.63294 53.911 8.52375 53.9664 8.41457C54.0773 8.30539 54.1882 8.25079 54.2992 8.14161C56.7393 6.61303 59.845 7.04977 61.3423 9.12427L61.3424 9.12408ZM45.9801 8.19601C47.4774 7.15877 49.3076 6.99499 50.8604 7.54091C50.694 7.70469 50.5277 7.86846 50.3058 8.03224C50.1949 8.08683 50.1395 8.19601 50.084 8.25061C49.6958 8.57816 49.3076 8.9603 48.9194 9.39704C48.8085 9.50622 48.753 9.61541 48.6421 9.67C48.3093 9.99755 48.032 10.3251 47.6993 10.6527C47.5884 10.8164 47.422 10.9256 47.3111 11.0894C46.9783 11.4715 46.6456 11.7991 46.3128 12.1812C46.2574 12.2904 46.1464 12.345 46.091 12.4542C45.7028 12.8909 45.2591 13.3823 44.8709 13.8191C44.76 13.9282 44.6491 14.092 44.5381 14.2012C44.2609 14.5833 43.9281 14.9109 43.6508 15.293C43.5399 15.4022 43.429 15.566 43.3181 15.6752C43.2626 15.7844 43.2071 15.839 43.0962 15.9481C43.0408 15.9481 43.0408 15.8935 42.9853 15.8935C42.4862 15.6206 42.0425 15.3476 41.488 15.1293C41.4325 15.0747 41.3216 15.0747 41.2662 15.0201C40.767 14.8017 40.2124 14.6379 39.6578 14.4742C39.6023 14.4742 39.6023 14.4742 39.5469 14.4196C42.2089 11.5808 44.8709 9.01496 45.9801 8.19601ZM26.4029 31.343C25.571 30.2512 25.5156 28.4496 26.1811 25.9385C27.0684 22.6083 29.0649 19.8788 31.7824 18.3502C33.4462 17.4222 35.1099 16.9854 36.8291 16.9854C38.8811 16.9854 40.8776 17.6951 42.4859 19.0599C43.1514 19.6058 43.706 20.2609 44.1496 20.9705C44.5933 21.6802 44.926 22.3899 45.0924 23.1542C45.2588 23.7001 45.3697 24.3006 45.3697 24.9558V25.1196V25.3925C45.3697 26.8119 44.926 28.1221 44.2051 29.3232C42.7632 31.8344 39.7684 33.5813 36.3854 33.5813H36.3299C35.2207 33.5813 33.8897 33.5268 32.725 33.4722C29.2866 33.1992 27.2901 32.5441 26.4028 31.3431L26.4029 31.343ZM58.2354 59.8943H48.4748C48.6966 59.2938 49.0293 58.8025 49.473 58.3657C50.3049 57.6014 51.3586 57.1647 52.4678 57.1647H57.459C58.0136 57.1647 58.4573 56.8372 58.6791 56.455C58.6791 56.4004 58.7346 56.4004 58.7346 56.3458C58.79 56.2912 58.79 56.1821 58.79 56.1275C58.79 56.0183 58.8455 55.9637 58.8455 55.8545V55.7999V55.6361C58.8455 55.5815 58.79 55.5815 58.79 55.5269C58.79 55.4724 58.79 55.4178 58.7346 55.3086C58.7346 55.3086 58.7346 55.254 58.6791 55.254C58.6237 55.1994 58.6237 55.1448 58.5682 55.0902C58.5127 55.0356 58.4573 54.9264 58.4018 54.8718C58.4018 54.8718 58.3464 54.8173 58.2909 54.8173C58.2354 54.7627 58.18 54.7081 58.1245 54.7081C58.0691 54.6535 58.0136 54.6535 57.9582 54.5989C57.9027 54.5989 57.8472 54.5989 57.8472 54.5443C57.7918 54.5443 57.7363 54.4897 57.6809 54.4897H57.5699H57.5145C53.0778 54.2167 49.584 50.5591 49.584 46.1917C49.584 41.606 53.3552 37.8937 58.0137 37.8937C58.7901 37.8937 59.4002 37.2932 59.4002 36.5289C59.4002 35.7645 58.7902 35.164 58.0137 35.164C51.8023 35.164 46.7557 40.1318 46.7557 46.2461C46.7557 48.7028 47.5875 50.941 48.9185 52.7972C45.8683 51.6507 43.3726 50.2314 41.9861 49.1396C41.5424 48.812 40.9879 48.7574 40.4888 48.9758C39.9897 49.1942 39.7124 49.6855 39.7124 50.2313V55.9636C39.7124 58.2564 37.8268 60.1125 35.4975 60.1125H30.118C30.6726 58.4748 32.2808 57.3284 34.111 57.3284C34.8874 57.3284 35.4975 56.7279 35.4975 55.9636V55.5268C35.4975 52.5789 35.0539 49.5217 34.1665 46.3554C33.6119 43.7896 32.6692 39.586 33.6119 36.2558H34.222H34.7211C35.2757 36.2558 35.8303 36.2558 36.3295 36.3104H36.3849C36.7731 36.3104 37.1613 36.3104 37.4941 36.2558C37.605 36.2558 37.7159 36.2012 37.8268 36.2012C38.1041 36.1466 38.326 36.1466 38.5478 36.092C38.7142 36.092 38.8251 36.0374 38.9915 35.9828L39.657 35.8191C39.8234 35.7645 39.9343 35.7099 40.1006 35.7099C40.3225 35.6553 40.4889 35.6007 40.6552 35.4915C40.8216 35.4369 40.9325 35.3823 41.0989 35.3277C41.2653 35.2731 41.4316 35.164 41.598 35.1094C41.7644 35.0548 41.9308 34.9456 42.0417 34.891C42.2081 34.8364 42.319 34.7272 42.4854 34.6726C42.6517 34.5634 42.8181 34.5088 42.9845 34.3997C43.0954 34.3451 43.1509 34.2905 43.2618 34.2359C44.26 33.5808 45.1474 32.762 45.8683 31.8338C46.0346 31.6155 46.2565 31.3425 46.4229 31.0696C47.1438 30.0323 47.6429 28.8312 47.9202 27.5757C48.6411 27.8486 49.5285 28.1216 50.6931 28.4491L50.9704 28.5037C52.7451 28.9951 54.5753 29.268 56.5162 29.3772C61.1192 29.6502 65.1122 29.8685 68.3844 33.0348C69.1608 33.7991 69.8263 34.618 70.3809 35.546C71.1018 36.7471 71.6009 38.1118 71.8228 39.5858C72.3219 42.8067 71.6009 46.3552 70.9909 48.8119C70.9909 48.9211 70.9354 48.9757 70.88 49.1395C69.4381 54.4895 64.946 59.8942 58.2354 59.8942V59.8943ZM74.9833 48.8122C74.6505 48.8122 74.2623 48.7576 73.9296 48.703C74.4287 46.4647 74.9833 43.5168 74.7614 40.5142H74.9833C77.3125 40.5142 79.1981 42.3703 79.1981 44.6632C79.1981 46.9561 77.3125 48.8122 74.9833 48.8122Z" fill="#67787F"/>
</svg>
