<svg width="130" height="130" viewBox="0 0 130 130" fill="none" xmlns="http://www.w3.org/2000/svg">
<g clip-path="url(#clip0_1218_3667)">
<path d="M24.6847 64.196C24.8747 64.196 25.0947 64.1761 25.3347 64.1461C24.8047 68.5361 27.4447 73.276 27.5847 73.516C27.9247 74.106 28.6147 74.406 29.2747 74.226C29.6247 74.136 29.9247 73.916 30.1247 73.6361C30.3747 73.9261 30.6547 74.1861 30.9547 74.416C31.9447 75.1361 34.5447 78.386 35.9547 80.266C36.2447 80.656 36.6947 80.866 37.1547 80.866C37.4147 80.866 37.6747 80.796 37.9147 80.656C38.3547 80.396 38.7047 80.016 38.9847 79.556C39.1347 79.836 39.2947 80.0961 39.4547 80.3561C39.4947 82.1861 39.7647 84.266 40.4247 86.596C42.6247 94.316 42.0547 100.676 41.5047 102.266C41.3747 102.266 41.2247 102.276 41.1047 102.286C39.7747 102.346 37.5447 102.436 36.0447 104.126C34.9847 105.316 34.5347 107.046 34.6847 109.266C34.7347 109.976 35.2847 110.556 35.9947 110.646C36.5747 110.716 40.5647 111.206 43.7447 111.206C44.8347 111.206 45.8347 111.146 46.5647 110.996C47.7047 110.756 48.6447 109.756 49.4047 108.416H52.7047C53.3247 108.416 53.8847 108.026 54.1047 107.446C55.0747 104.886 56.3347 101.806 56.6847 101.306C57.4947 100.266 57.2347 98.496 56.6647 95.196C56.4847 94.176 56.3047 93.116 56.2147 92.276C56.0947 91.136 56.4047 87.446 56.8247 83.556C59.3947 82.916 61.4747 82.2061 62.3047 81.916C64.7747 81.036 67.8547 80.3461 71.0247 80.016C70.9847 82.196 71.4947 84.646 73.2847 86.866C74.3147 88.136 75.3147 89.2961 76.1947 90.316C77.7647 92.136 79.7247 94.396 79.7047 95.056C79.0747 96.566 76.2847 100.716 75.2547 101.606C74.1547 101.586 71.8347 101.606 70.2847 103.236C69.2947 104.266 68.8447 105.706 68.9547 107.486C69.0047 108.276 69.6547 108.896 70.4547 108.896H80.2547C80.7347 108.896 81.1947 108.666 81.4747 108.276C84.7247 103.756 88.4947 98.7261 89.1847 98.146C90.5947 97.096 91.5047 94.326 90.7647 91.316C92.4247 91.676 94.2347 91.976 96.0147 92.276C98.5847 92.706 101.775 93.246 102.505 93.726C103.945 94.666 106.455 99.746 106.285 100.866C105.875 102.096 104.965 102.806 104.775 102.886C103.945 103.126 101.365 104.296 100.435 106.476C100.065 107.356 99.8047 108.746 100.685 110.436C100.945 110.926 101.455 111.236 102.015 111.236H111.075C111.735 111.236 112.315 110.806 112.515 110.176C113.225 107.856 114.275 105.016 114.715 104.496C115.675 103.446 115.415 101.416 113.895 93.916C113.455 91.736 112.955 89.266 112.955 88.546C112.955 84.966 110.355 84.296 107.065 83.456C104.085 82.696 98.0347 75.0361 97.0547 70.8161C96.8547 69.7761 96.4547 68.616 95.7847 67.436C96.7647 66.486 98.4147 64.4461 98.2647 61.6361C98.0847 58.2761 95.4247 55.086 90.3547 52.126C87.8947 50.696 87.4947 49.126 87.5947 48.056C88.5747 48.396 89.9247 48.746 91.3947 48.746C92.5147 48.746 93.6847 48.546 94.7947 47.976C97.1547 46.766 98.6047 44.276 99.1047 40.576C99.1947 39.946 98.8647 39.326 98.2947 39.036C94.9547 37.356 92.0847 37.146 89.7547 38.406C86.6747 40.076 85.6747 43.796 85.3947 45.286C85.2447 45.536 84.1747 47.476 84.8047 49.926C85.2947 51.826 86.6547 53.446 88.8547 54.716C92.9247 57.086 95.1447 59.526 95.2747 61.766C95.3547 63.186 94.5747 64.326 93.9847 64.986C91.5547 62.3661 87.5347 60.076 81.1747 59.416C74.5747 58.7261 67.4847 55.216 62.6247 52.336C62.0147 50.486 61.5547 48.026 61.2647 46.056C61.6747 46.146 62.1247 46.216 62.6447 46.286C63.2247 46.366 63.8147 46.076 64.1247 45.576C64.4347 45.066 64.4047 44.416 64.0647 43.926C63.7447 43.466 62.9447 41.296 62.2047 39.016H63.5147C64.2747 39.016 64.9147 38.456 65.0047 37.696C65.0947 36.996 64.6747 36.336 64.0247 36.096C63.5547 35.636 62.8447 33.5961 62.4147 32.366L62.1347 31.546C61.2747 29.096 58.9347 24.546 58.8447 24.376C56.9147 20.526 54.2547 19.756 50.0847 18.956C44.6147 17.896 43.2647 18.156 40.3047 18.736C39.9547 18.806 39.5747 18.876 39.1647 18.956C35.3447 19.666 34.1547 23.516 33.8047 25.226C32.0447 26.306 31.8047 27.036 31.7447 27.496C28.6647 28.206 24.9547 29.356 24.1047 30.926C23.8147 31.456 23.7747 32.046 23.9747 32.586C24.3747 33.646 24.5547 34.536 24.6147 34.846C24.5547 37.006 24.9747 37.956 25.3147 38.406C25.3447 38.686 25.3547 39.176 25.3647 39.526C25.4047 41.236 25.4547 43.176 27.0047 43.746C27.9947 44.106 29.2047 43.766 30.4947 43.416C31.0547 43.266 32.0047 42.996 32.2947 43.036C32.4647 43.066 32.7047 43.106 32.9647 43.146L31.9147 45.946C30.9947 47.346 27.4847 52.766 26.9147 54.766C26.4947 56.236 24.2347 60.5061 23.4047 62.016C23.1447 62.476 23.1547 63.0461 23.4247 63.5061C23.6947 63.966 24.1847 64.2461 24.7147 64.2461L24.6847 64.196ZM91.1647 41.006C92.3747 40.356 93.9747 40.4261 95.9247 41.226C95.4847 43.286 94.6447 44.646 93.4147 45.276C91.7747 46.126 89.6747 45.606 88.4647 45.166C88.7847 43.906 89.5447 41.886 91.1747 41.016L91.1647 41.006ZM34.4747 47.426C34.5347 47.336 34.5847 47.236 34.6247 47.126L35.9547 43.596C36.8447 43.736 37.5447 43.846 37.6147 43.856C37.6847 43.866 37.7647 43.876 37.8447 43.876C37.9547 43.876 38.0647 43.866 38.1747 43.836C38.7947 43.696 44.2747 42.456 44.6647 42.356C46.9247 41.776 48.3847 39.456 48.4847 36.316C48.5347 34.656 48.1647 32.776 47.2947 31.306C47.3247 31.286 47.3647 31.266 47.3947 31.246C48.1147 30.766 49.0347 29.806 49.3347 27.966C49.6547 25.986 48.6847 24.256 46.8047 23.476C45.1647 22.786 42.8647 22.916 41.2447 24.116L39.6147 23.186C39.2247 22.966 38.7547 22.926 38.3347 23.086C38.0947 23.176 37.8747 23.266 37.6447 23.356C38.1047 22.656 38.7447 22.066 39.6547 21.896C40.0747 21.816 40.4647 21.746 40.8247 21.676C43.5447 21.146 44.5647 20.946 49.4647 21.896C53.5947 22.696 54.8847 23.256 56.1247 25.736C56.1447 25.786 58.4647 30.2961 59.2647 32.5461L59.5447 33.346C59.8747 34.296 60.1847 35.206 60.5347 36.016H60.1247C59.6447 36.016 59.2047 36.246 58.9147 36.626C58.6347 37.006 58.5447 37.506 58.6847 37.956C58.9347 38.776 59.5147 40.646 60.1347 42.366C59.8147 42.196 59.4347 42.136 59.0647 42.226C58.3347 42.406 57.8547 43.086 57.9247 43.826C57.9847 44.466 58.4247 48.676 59.4147 52.216C58.1947 51.606 57.2247 51.046 56.9747 50.766C56.5447 50.186 55.8247 49.916 55.0547 50.056C52.9747 50.416 48.9547 54.7761 47.0747 58.9561C46.1547 58.466 45.3747 57.9561 45.1547 57.666C44.9847 57.126 44.5247 56.716 43.9547 56.626C43.3347 56.5261 42.7347 56.816 42.4247 57.356C41.9947 58.086 38.9847 63.3861 38.5347 67.7061C38.0347 67.4361 37.4147 67.486 36.9447 67.826C36.4847 68.166 36.2547 68.746 36.3547 69.306C36.8547 71.986 37.0147 74.836 36.8347 76.556C35.5347 74.916 33.7547 72.786 32.6947 72.016C31.8747 71.426 31.2247 69.6061 31.0247 68.8161C30.8647 68.166 30.3047 67.696 29.6347 67.666H29.5647C29.2047 67.666 28.8547 67.7961 28.5947 68.0261C28.1547 66.2561 28.0147 64.3161 28.7947 62.8661C29.0747 62.3361 29.0147 61.6861 28.6347 61.216C28.3447 60.856 27.9147 60.656 27.4647 60.656C28.3747 58.886 29.4247 56.7261 29.7547 55.5661C30.1147 54.2961 32.8347 49.906 34.4647 47.436L34.4747 47.426ZM28.3947 40.816C28.3547 40.386 28.3347 39.806 28.3247 39.436C28.2947 38.166 28.2747 37.226 27.6947 36.586C27.6047 36.256 27.5447 35.456 27.5747 34.776C27.5747 34.686 27.5747 34.586 27.5547 34.496C27.5547 34.446 27.3947 33.486 26.9747 32.186C27.9047 31.656 30.2647 30.876 32.5747 30.356C33.3547 30.256 34.3647 29.646 34.6247 28.236C35.1647 27.776 36.9247 26.886 38.7547 26.136L40.7447 27.276C41.4047 27.656 42.2447 27.476 42.7047 26.856C43.3147 26.016 44.7547 25.856 45.6547 26.236C46.4247 26.556 46.4447 27.066 46.3847 27.486C46.2847 28.106 46.0747 28.526 45.7547 28.746C45.3147 29.046 44.6447 28.996 44.4347 28.946C43.6547 28.756 42.8647 29.216 42.6447 29.996C42.4247 30.766 42.8547 31.576 43.6147 31.836C44.7347 32.206 45.5647 34.136 45.4947 36.236C45.4447 37.656 44.9447 39.206 43.9147 39.476C43.6447 39.546 40.2047 40.326 37.7947 40.866C36.8547 40.726 33.7947 40.246 32.7947 40.076C32.6147 40.046 32.4247 40.026 32.2347 40.026C31.4547 40.026 30.5847 40.266 29.6747 40.516C29.3147 40.616 28.8047 40.756 28.4047 40.836L28.3947 40.816ZM94.0747 71.3461V71.3961C94.0747 71.4161 94.0947 71.4461 94.0947 71.4661V71.476C95.2547 76.436 101.945 85.226 106.275 86.336C109.915 87.266 109.915 87.486 109.915 88.526C109.915 89.496 110.295 91.426 110.915 94.496C111.455 97.1561 112.335 101.536 112.235 102.726C111.415 103.866 110.505 106.456 109.935 108.216H103.055C103.035 107.966 103.095 107.786 103.155 107.646C103.585 106.626 105.165 105.876 105.565 105.746C106.755 105.406 108.395 103.906 109.095 101.786C109.965 99.1861 106.305 92.616 104.105 91.186C102.915 90.416 100.435 89.966 96.4847 89.296C93.7747 88.836 90.7147 88.316 88.6147 87.656C85.7847 86.746 82.8547 79.4461 81.6647 75.0661C81.4447 74.2661 80.6247 73.796 79.8247 74.006C79.0247 74.226 78.5547 75.0461 78.7647 75.8461C78.8147 76.036 78.9347 76.446 79.1047 77.016C72.9947 76.276 65.9947 77.406 61.2747 79.086C58.1247 80.206 55.0347 80.996 52.3047 81.436C52.3347 81.346 52.3647 81.256 52.3947 81.156C53.0747 78.956 53.8447 76.466 53.2647 74.626C53.0147 73.836 52.1747 73.3961 51.3847 73.6461C50.5947 73.8961 50.1547 74.736 50.4147 75.5261C50.7147 76.466 50.0047 78.746 49.5347 80.256C49.2247 81.246 48.9347 82.186 48.8147 82.956C48.5647 84.486 48.8347 89.636 49.1647 95.236C49.2447 96.546 49.3147 97.786 49.3147 98.046C49.2747 99.736 47.3447 107.466 45.9347 108.066C44.2647 108.416 40.1447 108.086 37.6647 107.826C37.7347 107.066 37.9347 106.496 38.2647 106.126C38.9247 105.386 40.1947 105.336 41.2147 105.286C41.8347 105.256 42.3747 105.236 42.8547 105.056C45.7247 103.956 45.4947 93.536 43.2947 85.786C41.0247 77.806 43.8947 73.326 44.0247 73.126C44.4847 72.446 44.3147 71.516 43.6347 71.046C42.9547 70.576 42.0147 70.756 41.5547 71.436C41.4847 71.546 40.6847 72.756 40.0847 74.936C40.0347 74.816 39.9847 74.696 39.9347 74.576C39.9347 73.606 39.8547 72.6161 39.7547 71.7061C40.2547 71.8661 40.8047 71.756 41.2047 71.406C41.6747 70.996 41.8347 70.336 41.6247 69.756C40.9647 67.966 42.4447 63.8361 44.0547 60.6361C45.0247 61.326 46.2347 61.926 47.3147 62.376C47.7047 62.536 48.1447 62.536 48.5347 62.356C48.9147 62.176 49.2047 61.8461 49.3347 61.4361C50.4147 57.8861 53.7747 54.1161 55.2247 53.1861C56.7047 54.356 59.7547 55.736 61.6347 56.536C62.2047 56.7761 62.8547 56.636 63.2847 56.196C68.2147 58.906 74.6347 61.746 80.8347 62.396C90.1647 63.376 93.4647 68.2861 94.0847 71.3561L94.0747 71.3461ZM79.4647 105.896H72.0747C72.1547 105.656 72.2747 105.466 72.4247 105.306C73.1447 104.556 74.6747 104.586 75.3147 104.596H75.5547C78.1347 104.596 82.4147 96.2961 82.4447 96.216C83.3647 94.036 81.4047 91.776 78.4447 88.346C77.5747 87.346 76.5947 86.206 75.6047 84.976C74.2947 83.356 73.9647 81.476 74.0347 79.806C76.1747 79.746 78.2847 79.8561 80.2047 80.2061C81.6147 83.926 83.9847 88.816 87.1347 90.286C88.6147 92.9061 87.8347 95.326 87.3647 95.736C86.2647 96.566 81.7747 102.686 79.4647 105.896ZM53.2147 92.596C53.3147 93.536 53.5047 94.646 53.6947 95.716C53.9147 96.956 54.2647 99.006 54.1847 99.656C53.5447 100.656 52.3847 103.536 51.6547 105.436H50.6947C51.8647 101.956 52.3247 98.136 52.3247 98.066C52.3247 97.7261 52.2747 96.806 52.1747 95.076C52.0147 92.296 51.7047 87.026 51.7247 84.566C52.3947 84.4761 53.0647 84.3661 53.7247 84.246C53.3647 87.706 53.0747 91.246 53.2147 92.596Z" fill="#67787F"/>
</g>
<defs>
<clipPath id="clip0_1218_3667">
<rect width="130" height="130" fill="white"/>
</clipPath>
</defs>
</svg>
