<svg width="130" height="130" viewBox="0 0 130 130" fill="none" xmlns="http://www.w3.org/2000/svg">
<g clip-path="url(#clip0_1218_3626)">
<path d="M109.458 102.852L104.922 84.0671C104.866 83.8371 104.757 83.6231 104.603 83.4431C104.537 83.3651 103.038 81.6231 100.847 79.6321C100.82 77.7291 100.728 75.9281 100.572 74.2211C102.468 75.6371 104.987 77.5831 107.004 79.3751C107.288 79.6281 107.644 79.7541 108 79.7541C108.358 79.7541 108.717 79.6261 109.002 79.3701C109.57 78.8601 109.664 78.0051 109.222 77.3841C107.892 75.5161 108.107 72.4881 108.334 69.2831C108.59 65.6731 108.881 61.5801 106.864 58.3301C102.988 52.0801 97.5323 52.7061 90.6453 53.6581C86.5743 51.0041 81.2083 49.7541 74.4093 49.7541C61.0463 49.7541 54.7653 47.4061 50.6093 45.8531C50.4253 45.7841 50.2463 45.7171 50.0723 45.6521C51.8963 42.8481 54.3853 38.9231 54.4163 38.8761C54.7113 38.4111 54.7283 37.8221 54.4593 37.3411C54.1903 36.8611 53.6583 36.5791 53.1293 36.5731L47.0353 36.6561L49.3603 33.9551C49.7523 33.5011 49.8353 32.8571 49.5713 32.3181C49.3083 31.7801 48.7713 31.4411 48.1513 31.4781L36.7053 32.0331L35.9363 31.4741C35.7113 31.3101 35.4463 31.2131 35.1683 31.1921L28.1583 30.6571L16.6803 25.4301C16.2203 25.2211 15.6833 25.2581 15.2553 25.5281C14.8263 25.7991 14.5653 26.2681 14.5583 26.7751C14.5443 27.8131 14.4253 36.9611 14.5663 38.3651C14.7713 40.4271 19.8843 44.7731 22.1163 46.3001C24.1063 64.2991 39.4453 73.6321 47.0013 77.1721C46.5883 80.9831 44.3153 91.9131 43.2343 96.9151C41.7513 97.7811 38.4313 100.068 38.4313 103.205C38.4313 104.034 39.1033 104.705 39.9313 104.705H57.9663C58.7123 104.705 59.3453 104.157 59.4503 103.418L62.9803 78.8231C67.7463 78.9751 72.8323 79.0171 77.5193 79.0271C79.7853 82.6851 84.4353 87.8951 87.5813 89.8171C88.2843 91.2801 90.0983 95.4011 91.1583 97.8271C90.1983 98.7881 88.8683 100.566 88.7373 103.129C88.7163 103.54 88.8653 103.942 89.1493 104.24C89.4323 104.537 89.8253 104.705 90.2353 104.705H90.2393C92.1283 104.699 97.9323 104.705 97.9333 104.705H107.996C108.456 104.705 108.891 104.494 109.175 104.133C109.459 103.772 109.563 103.3 109.454 102.853L109.458 102.852ZM104.315 59.9111C105.819 62.3361 105.576 65.7601 105.341 69.0711C105.224 70.7181 105.106 72.3901 105.199 73.9841C103.008 72.2601 100.961 70.7731 100.033 70.1081C98.9993 64.1201 96.9633 59.5551 93.8093 56.2821C99.1243 55.6901 101.939 56.0851 104.314 59.9121L104.315 59.9111ZM44.8083 34.6431L43.0723 36.6591L40.5793 34.8471L44.8083 34.6421V34.6431ZM45.2263 99.2431C45.6323 99.0401 45.9243 98.6641 46.0213 98.2211C46.3833 96.5591 49.2093 83.5261 49.9103 78.0621C50.2273 78.0911 50.5363 78.1051 50.8693 78.1141C51.0423 78.1181 51.2303 78.1241 51.4283 78.1321L50.7663 95.9641C47.5153 97.3351 46.2863 100.047 45.8283 101.705H42.0803C42.9223 100.64 44.3823 99.6701 45.2263 99.2441V99.2431ZM96.6513 101.703C95.4353 101.703 93.5813 101.701 92.0883 101.701C92.6683 100.285 93.7523 99.5231 93.8063 99.4871C94.4103 99.0851 94.6403 98.3061 94.3513 97.6401C94.2053 97.3051 90.7773 89.4241 90.0503 88.0431C89.9103 87.7781 89.6953 87.5611 89.4313 87.4191C87.2273 86.2401 83.4933 82.2601 81.1463 79.0281C81.7273 79.0281 82.3133 79.0281 82.8713 79.0281H84.1853C88.1173 85.4081 93.5563 88.8651 95.3013 89.8571C95.8453 91.3661 97.3923 95.6321 98.3703 98.0841C97.3753 99.1111 96.8883 100.606 96.6523 101.704L96.6513 101.703ZM99.7423 101.703C99.9853 100.89 100.351 100.16 100.794 99.9711C101.161 99.8131 101.451 99.5161 101.598 99.1441C101.745 98.7721 101.738 98.3571 101.577 97.9911C100.617 95.7961 97.9573 88.3811 97.9313 88.3061C97.8023 87.9471 97.5393 87.6491 97.2003 87.4751C96.8103 87.2761 90.5933 84.0091 86.4723 77.0011C86.4153 76.8501 86.3353 76.7131 86.2353 76.5901C84.2823 73.1291 82.8533 68.7941 82.8533 63.4961C82.8533 62.6671 82.1813 61.9961 81.3533 61.9961C80.5253 61.9961 79.8533 62.6671 79.8533 63.4961C79.8533 68.3971 80.9533 72.5531 82.5703 76.0271C76.8143 76.0311 69.8233 76.0301 63.4103 75.8331L63.7753 73.2931C63.8933 72.4731 63.3243 71.7131 62.5043 71.5951C61.6863 71.4811 60.9233 72.0461 60.8073 72.8671L56.6683 101.703H48.9953C49.4873 100.552 50.5153 99.1001 52.6503 98.4721C53.2693 98.2901 53.7023 97.7331 53.7263 97.0891L54.7183 70.3721C54.7483 69.5441 54.1033 68.8481 53.2753 68.8171C52.4663 68.7971 51.7523 69.4331 51.7203 70.2601L51.5393 75.1321C51.3243 75.1241 51.1233 75.1181 50.9453 75.1131C50.1703 75.0931 49.8333 75.0811 49.1043 74.8331C42.3283 71.8091 26.5973 62.9361 25.0313 45.2871C24.9853 44.7691 24.6743 44.3111 24.2083 44.0791C22.8073 43.3771 18.1433 39.1951 17.5443 37.9571C17.4783 36.9481 17.4963 32.6791 17.5323 29.1131L27.1573 33.4971C27.3173 33.5701 27.4893 33.6141 27.6653 33.6271L34.5173 34.1491L41.7803 39.4271C42.0433 39.6171 42.3373 39.7111 42.6823 39.7141L50.3923 39.6101C49.1753 41.5161 47.5003 44.1251 46.5163 45.6031C46.2533 45.9971 46.1923 46.4911 46.3503 46.9361C46.5083 47.3821 46.8683 47.7271 47.3203 47.8671C47.9813 48.0721 48.7133 48.3461 49.5593 48.6621C53.9173 50.2911 60.5043 52.7531 74.4103 52.7531C90.9343 52.7531 97.7263 60.7391 97.8543 80.3181C97.8573 80.7451 98.0423 81.1511 98.3623 81.4331C100.159 83.0181 101.561 84.5371 102.093 85.1321L106.095 101.703H99.7423Z" fill="#67787F"/>
<path d="M47.9864 51.499C47.1884 51.167 44.9814 48.796 43.4204 46.79C42.9134 46.135 41.9684 46.018 41.3164 46.527C40.6624 47.036 40.5454 47.978 41.0524 48.632C41.4264 49.112 42.1904 50.07 43.0924 51.071C41.5314 51.155 40.2574 51.362 40.0024 51.404C39.2164 51.537 38.6714 52.262 38.7624 53.054C38.8554 53.866 38.9624 54.561 39.0784 55.158C36.5664 54.411 34.9484 53.699 33.5954 52.12C33.0564 51.492 32.1114 51.417 31.4804 51.957C30.8514 52.496 30.7794 53.443 31.3184 54.072C33.6594 56.802 36.4554 57.567 40.6864 58.724L41.0404 58.821C41.1084 58.842 41.1734 58.859 41.2334 58.874C41.3554 58.905 41.4774 58.919 41.5984 58.919C42.2644 58.919 42.8714 58.472 43.0484 57.799C43.2104 57.181 42.9624 56.552 42.4734 56.2C42.3144 55.849 42.1194 55.068 41.9584 54.172C43.5104 54.014 45.6704 53.919 46.9704 54.318C47.7414 54.551 48.5494 54.143 48.8204 53.391C49.0914 52.639 48.7244 51.807 47.9864 51.499Z" fill="#67787F"/>
</g>
<defs>
<clipPath id="clip0_1218_3626">
<rect width="130" height="130" fill="white"/>
</clipPath>
</defs>
</svg>
