<svg width="84" height="67" viewBox="0 0 84 67" fill="none" xmlns="http://www.w3.org/2000/svg">
<path d="M72.1857 26.1659C74.3063 25.9864 76.414 26.6193 78.0229 27.9191C80.2436 30.0209 80.1757 33.9827 80.1146 37.4781C80.0935 38.7238 80.073 39.9062 80.1451 40.9844L78.7048 39.8866C78.4353 39.6814 78.089 39.5843 77.7427 39.6165C77.3964 39.6487 77.0783 39.8075 76.8574 40.0584C76.3986 40.5812 76.4812 41.3511 77.0419 41.7782L81.8542 45.4449C82.3957 45.8568 83.189 45.8012 83.6577 45.3188C84.127 44.836 84.1077 44.0955 83.6138 43.635C82.6493 42.7363 82.695 40.0834 82.7395 37.5173C82.8081 33.5418 82.886 29.0365 79.8936 26.2047H79.893C77.7948 24.433 75.0109 23.5365 72.1855 23.721C71.4607 23.721 70.873 24.2683 70.873 24.9432C70.873 25.6187 71.4607 26.1655 72.1855 26.1655L72.1857 26.1659Z" fill="#67787F"/>
<path d="M42.1944 39.6244C41.8505 39.5753 41.4995 39.6566 41.2194 39.8492C40.9394 40.0418 40.753 40.3305 40.7021 40.6513L36.9321 64.0551H30.6515C31.4337 63.0151 32.4128 62.117 33.542 61.4049C33.8841 61.191 34.0992 60.8396 34.1232 60.4566L35.4357 38.4566V38.4561C35.4562 38.1319 35.3373 37.8133 35.1047 37.571C34.8726 37.3288 34.5463 37.182 34.1982 37.164C33.8502 37.146 33.508 37.2578 33.2484 37.4745C32.9888 37.6916 32.833 37.9961 32.8142 38.3202L31.5369 59.7349C30.3029 60.6019 27.5625 62.8025 27.5625 65.2769C27.5625 65.9519 28.1502 66.4992 28.875 66.4992H38.0625C38.7123 66.4992 39.2643 66.0566 39.3604 65.4581L43.2979 41.0137C43.3494 40.6934 43.2627 40.3666 43.0553 40.1063C42.8484 39.8455 42.5391 39.672 42.1945 39.6239L42.1944 39.6244Z" fill="#67787F"/>
<path d="M70.1484 62.705C70.7701 62.4153 71.0414 61.7245 70.7672 61.1298L66.8297 52.5742C66.7078 52.3096 66.4892 52.0935 66.2127 51.9637C63.4189 50.4927 60.9592 48.5289 58.9705 46.1832C58.5188 45.6556 57.6926 45.5683 57.126 45.989C56.5588 46.4091 56.465 47.1784 56.9168 47.7066C59.0438 50.2029 61.647 52.3124 64.5972 53.9279L67.9142 61.1353C66.5378 62.1387 65.7011 63.6523 65.6237 65.2783C65.6237 65.9532 66.2114 66.5005 66.9362 66.5005H69.5612C70.286 66.5005 70.8737 65.9532 70.8737 65.2783C70.8737 64.6033 70.286 64.056 69.5612 64.056H68.6331C68.9717 63.4678 69.5026 62.9947 70.1484 62.705Z" fill="#67787F"/>
<path d="M59.0546 43.8543C59.023 43.5319 58.8542 43.234 58.5865 43.0266C58.3187 42.8198 57.9736 42.72 57.6267 42.7505C53.572 43.1008 49.1968 43.2781 44.623 43.2781C43.8982 43.2781 43.3105 43.8254 43.3105 44.5004C43.3105 45.1753 43.8982 45.7226 44.623 45.7226C49.2777 45.7226 53.7344 45.5414 57.8694 45.184C58.2157 45.1546 58.5356 44.9974 58.7577 44.7481C58.9803 44.4987 59.0868 44.1774 59.0546 43.8543Z" fill="#67787F"/>
<path d="M80.4964 51.0061C80.1231 49.4859 79.137 48.1578 77.7419 47.2953L76.1236 46.2902L76.1241 40.8334C76.1241 40.6375 75.8693 21.2779 53.8116 21.2779C38.5386 21.2779 32.5986 18.6419 30.6936 17.4509L35.1497 12.2635V12.2629C35.4649 11.8963 35.5264 11.3937 35.3079 10.9703C35.0893 10.5469 34.6294 10.2774 34.1249 10.2774H28.4553L29.8997 8.59629C30.2149 8.22963 30.2764 7.72709 30.0579 7.30369C29.8393 6.88028 29.3794 6.61074 28.8749 6.61074H20.3037C18.8863 5.81847 17.2656 5.3967 15.6128 5.38852H12.1218L1.89962 0.628981C1.4924 0.439641 1.00958 0.45984 0.622278 0.682453C0.235563 0.905078 1.80797e-05 1.29848 1.80797e-05 1.72188V10.3724C-0.00466942 12.2303 0.902358 13.9878 2.46272 15.1445L6.64337 18.2585C7.1549 21.4505 10.698 37.9509 29.7824 43.7114C30.4703 43.9149 31.205 43.563 31.4277 42.9235C31.6504 42.2845 31.2771 41.5976 30.5922 41.3864C11.2107 35.5344 9.25467 18.2313 9.18117 17.4979C9.14836 17.1673 8.97259 16.8634 8.69426 16.656L4.10231 13.2349C3.16598 12.5409 2.62164 11.4861 2.62457 10.3714V3.69882L11.225 7.70324C11.4072 7.78836 11.6082 7.83201 11.8121 7.83201H15.6125C17.1025 7.83419 18.5474 8.30616 19.7123 9.17153L24.1173 12.4535V12.453C24.35 12.6265 24.6388 12.7214 24.9371 12.7209H31.3941L27.8498 16.847C27.4753 17.2818 27.4654 17.8978 27.8246 18.3436C28.2675 18.8936 32.7629 23.7214 53.8121 23.7214C73.2176 23.7214 73.4966 40.1355 73.4996 40.8325V46.9436H73.5002C73.5002 47.3523 73.7193 47.7337 74.0843 47.9601L76.2869 49.328H76.2875C77.1242 49.8458 77.716 50.643 77.9393 51.5547L81.0371 64.0546H75.197C75.5357 63.4664 76.066 62.9933 76.7123 62.7036C77.334 62.4139 77.6053 61.7231 77.3311 61.1284L73.3936 52.5729C73.2717 52.3071 73.052 52.0905 72.7748 51.9612C69.0301 49.9871 65.9117 47.1269 63.7343 43.6708C61.5569 40.2142 60.398 36.284 60.3751 32.2769C60.3751 31.6019 59.7874 31.0547 59.0626 31.0547C58.3378 31.0547 57.7501 31.6019 57.7501 32.2769C57.736 36.6665 58.9694 40.9819 61.3249 44.7845C63.6803 48.587 67.0741 51.7419 71.1616 53.9288L74.4779 61.1339C73.1015 62.1373 72.2648 63.6509 72.1874 65.2768C72.1874 65.9518 72.7751 66.4991 73.4999 66.4991H82.6874C83.0876 66.4991 83.4655 66.3294 83.7146 66.0375C83.9636 65.7461 84.0562 65.3647 83.9665 65.0018L80.4964 51.0061ZM23.7559 9.05529H26.1436L25.2119 10.14L23.7559 9.05529Z" fill="#67787F"/>
<path d="M28.29 61.4055C28.6322 61.1917 28.8472 60.8403 28.8713 60.4572L29.7461 45.7906V45.79C29.7666 45.4659 29.6476 45.1473 29.415 44.905C29.183 44.6628 28.8566 44.516 28.5086 44.498C28.1605 44.48 27.8183 44.5918 27.5588 44.809C27.2992 45.0256 27.1428 45.3301 27.1246 45.6542L26.2849 59.7356C25.051 60.6026 22.3105 62.8031 22.3105 65.2776C22.3105 65.9525 22.8982 66.4998 23.623 66.4998H24.9355C25.5777 66.4998 26.1262 66.0666 26.2305 65.4762C26.3353 64.8864 25.9656 64.3118 25.3574 64.1198C26.1426 63.0514 27.1375 62.1304 28.2901 61.4052L28.29 61.4055Z" fill="#67787F"/>
<path d="M30.0865 24.1896C30.2898 23.733 30.1773 23.2069 29.8023 22.8577L25.8648 19.1911C25.3521 18.7136 24.5213 18.7136 24.0086 19.1911C23.4959 19.6685 23.4959 20.4422 24.0086 20.9191L25.7054 22.4992L22.3116 22.4997C21.8898 22.4997 21.4937 22.6885 21.247 23.0077C21.0003 23.3264 20.9335 23.7356 21.0665 24.1082L21.7351 25.9754V25.9759C19.781 25.5678 18.0454 24.5267 16.8379 23.0388C16.4324 22.4834 15.6215 22.3361 15.0215 22.7104C14.4221 23.0847 14.2592 23.8393 14.6571 24.3997C16.7571 27.0514 20.0863 28.6147 23.6242 28.6108C24.0461 28.6103 24.4422 28.4215 24.6889 28.1028C24.9355 27.7842 25.0023 27.3744 24.8693 27.0017L24.1322 24.9442H28.8742C29.405 24.9437 29.8832 24.6463 30.0865 24.1896Z" fill="#67787F"/>
<path d="M14.4355 10.2773H17.0605V12.7218H14.4355V10.2773Z" fill="#67787F"/>
</svg>
