<svg width="130" height="130" viewBox="0 0 130 130" fill="none" xmlns="http://www.w3.org/2000/svg">
<g clip-path="url(#clip0_1218_3672)">
<path d="M52.1745 109.137C52.1445 109.557 52.2845 109.967 52.5745 110.267C52.8545 110.577 53.2545 110.747 53.6745 110.747H91.6745C91.7345 110.747 91.8045 110.747 91.8645 110.737C103.884 109.207 105.914 92.987 106.694 86.817C106.744 86.347 106.794 85.867 106.814 85.367C106.824 85.057 106.744 84.747 106.564 84.477C105.164 82.357 103.664 81.407 102.094 81.647C99.6345 82.017 98.4545 85.207 98.0645 86.557C98.0145 86.717 97.9845 86.877 97.9845 87.037V87.057C97.3845 94.387 95.0345 97.797 93.2545 99.347C93.4545 96.997 93.6945 93.457 93.7045 89.617C93.7245 85.397 93.4745 81.787 92.9445 78.877C92.8545 78.407 92.7345 77.947 92.5945 77.537C91.1145 72.887 86.2145 67.997 81.1345 63.397C79.9145 62.297 78.6745 61.197 77.4445 60.107C73.8645 56.947 70.4645 53.937 68.1745 51.227C68.5645 50.917 68.7845 50.447 68.7445 49.947C68.7045 49.407 68.3745 48.927 67.8745 48.697C65.8445 47.767 64.9145 45.527 64.4845 43.617C64.3645 42.877 64.2945 42.177 64.2345 41.507C64.1945 41.037 64.1445 40.577 64.0845 40.127V40.107C63.9945 39.457 63.8745 38.817 63.6545 38.217C62.6545 35.517 59.0745 30.967 55.1045 28.787C54.7945 26.167 53.5445 24.017 51.3845 22.497L51.3345 20.037C51.3245 19.267 50.7345 18.637 49.9645 18.567C49.6745 18.547 49.3745 18.517 48.2145 19.107L47.0745 18.127C46.6945 17.797 46.1645 17.677 45.6745 17.827C45.1845 17.967 44.8045 18.347 44.6545 18.837L44.2245 20.267L43.0045 20.627C42.3645 20.817 41.9345 21.397 41.9245 22.057C41.9245 22.797 42.3345 23.237 43.2445 24.217C43.4445 24.427 43.7345 24.747 43.9245 24.967C43.9245 25.567 43.9445 26.207 43.9645 26.867C43.9845 27.397 44.0045 28.107 43.9945 28.817C41.3545 29.757 38.9445 31.107 37.4945 32.417C34.7045 34.917 34.4345 38.027 34.2645 40.077C34.2145 40.607 34.1745 41.117 34.0945 41.507C33.7345 43.347 32.6845 45.357 32.6745 45.377C32.4745 45.757 32.4445 46.197 32.5945 46.597C32.6745 46.807 34.5645 51.637 40.1145 52.907C40.7545 53.107 41.4545 53.207 42.1245 53.237C41.2845 54.547 39.9945 56.237 38.1845 57.817C33.8145 61.637 33.3845 69.847 33.3745 70.187C33.3445 70.927 33.8545 71.587 34.5845 71.727C35.3145 71.877 36.0345 71.457 36.2845 70.757C36.3145 70.667 36.3445 70.607 36.3745 70.567C36.3745 75.417 38.5745 76.997 38.8545 77.177C39.1045 77.337 39.3845 77.417 39.6745 77.417C39.8145 77.417 39.9445 77.397 40.0845 77.357C40.2945 77.297 40.4745 77.227 40.6845 77.157C41.0345 78.647 41.4645 80.207 41.9745 81.867C42.3545 83.077 42.6745 84.207 42.9445 85.227C45.8345 96.297 44.2445 101.417 43.5445 102.947C42.1445 103.077 39.5445 103.577 38.3245 105.427C37.7645 106.277 37.2845 107.747 38.1945 109.867C38.4345 110.417 38.9745 110.777 39.5745 110.777H47.6545C48.2845 110.777 48.8445 110.387 49.0645 109.797C51.2945 103.687 53.9145 96.887 54.4145 96.107C54.4645 96.047 54.5345 95.957 54.6245 95.867C55.6945 98.747 57.2145 100.847 58.6845 102.327C57.3945 102.507 56.0745 102.907 54.9545 103.717C53.2645 104.927 52.3245 106.757 52.1445 109.167L52.1745 109.137ZM56.7245 106.137C58.6945 104.717 62.2545 105.217 63.4545 105.527C64.2245 105.727 65.0145 105.287 65.2545 104.537C65.4945 103.777 65.1045 102.957 64.3645 102.677C64.1345 102.587 58.6645 100.407 56.8245 92.717C55.9645 89.127 56.3245 86.097 57.8745 83.727C60.5245 79.697 65.8445 78.717 65.8945 78.707C66.7045 78.567 67.2545 77.787 67.1145 76.977C66.9745 76.157 66.1945 75.617 65.3845 75.747C65.1145 75.797 58.7545 76.937 55.3845 82.057C53.4845 84.937 52.9345 88.447 53.7245 92.497C52.9645 93.247 52.3245 93.917 52.0445 94.297C51.2445 95.377 48.2345 103.427 46.6445 107.757H40.7345C40.7045 107.467 40.7545 107.237 40.8645 107.057C41.3845 106.267 43.3345 105.887 44.4845 105.877C44.9445 105.877 45.3745 105.667 45.6545 105.317C46.0945 104.767 49.8245 99.517 45.8845 84.447C45.6045 83.387 45.2745 82.207 44.8745 80.947C44.3245 79.177 43.8845 77.537 43.5245 75.977C46.2545 74.557 48.0945 72.697 49.2045 71.247C50.7345 72.957 52.7445 73.387 52.8545 73.417C53.3445 73.517 53.8545 73.367 54.2145 73.007C54.5745 72.657 54.7245 72.137 54.6245 71.647C54.0145 68.617 55.4745 65.267 56.5445 63.347C57.8345 64.207 59.4845 64.637 60.1645 64.797C60.6845 64.917 61.2245 64.747 61.5845 64.367C61.9445 63.987 62.0845 63.437 61.9345 62.927C60.8245 58.997 62.7045 54.827 63.5245 53.287C64.1845 53.177 64.8645 52.947 65.4945 52.677C67.9245 55.667 71.5845 58.917 75.4545 62.347C76.6745 63.427 77.9045 64.517 79.1145 65.607C83.6545 69.717 88.4545 74.457 89.7345 78.467C89.8345 78.767 89.9245 79.087 89.9845 79.407C90.4745 82.137 90.7145 85.557 90.6945 89.597C90.6745 96.047 89.9745 101.807 89.9745 101.867C89.9145 102.347 90.0945 102.827 90.4545 103.157C90.8145 103.487 91.3045 103.617 91.7845 103.517C92.1145 103.447 99.8045 101.637 100.974 87.287C101.444 85.727 102.214 84.667 102.544 84.617C102.644 84.617 103.084 84.787 103.784 85.737C103.764 85.997 103.734 86.247 103.704 86.507C102.534 95.797 100.104 106.597 91.5745 107.757H86.1245C86.0745 106.317 85.7345 104.287 84.4245 102.957L84.3845 102.917C86.1245 101.377 87.6245 98.717 87.4745 94.447C87.4445 93.617 86.7345 92.947 85.9245 92.997C85.0945 93.027 84.4545 93.717 84.4745 94.547C84.6945 100.727 80.8545 101.597 80.4345 101.677C79.6345 101.797 79.0745 102.547 79.1745 103.347C79.2745 104.147 80.0045 104.747 80.8145 104.647C81.6845 104.567 82.0645 104.837 82.2745 105.047C82.8645 105.647 83.0645 106.797 83.1145 107.747H55.4945C55.7545 107.067 56.1645 106.537 56.7145 106.137H56.7245ZM39.4945 69.217C39.5545 68.557 39.1745 67.937 38.5645 67.687C38.4445 67.637 37.7245 67.367 36.8145 67.367C37.2645 64.997 38.2245 61.787 40.2245 60.037C44.3745 56.407 46.1345 52.257 46.2045 52.087C46.4145 51.577 46.3345 50.987 45.9845 50.557C45.6345 50.127 45.0745 49.927 44.5345 50.037C44.2445 50.097 43.6845 50.177 43.0545 50.197H43.0745C42.5645 50.197 42.0345 50.167 41.4845 50.077C37.9945 49.547 36.3145 47.137 35.7245 46.037C36.1245 45.167 36.7845 43.597 37.0945 42.037C37.2045 41.487 37.2545 40.907 37.3045 40.287C37.4745 38.337 37.6445 36.317 39.5545 34.607C40.4545 33.807 41.8145 32.977 43.3545 32.287C43.3345 32.717 43.4845 33.157 43.8345 33.467C44.1245 33.717 44.4745 33.847 44.8345 33.847C45.2445 33.847 45.6645 33.677 45.9545 33.347C47.1745 31.967 47.1045 29.427 47.0145 26.747C46.9945 25.987 46.9645 25.237 46.9845 24.567C46.9945 23.957 46.6945 23.477 46.1145 22.817C46.4945 22.637 46.7945 22.307 46.9145 21.897L47.0845 22.047C47.4545 22.367 47.9545 22.477 48.4245 22.367L48.4445 23.337C48.4445 23.857 48.7345 24.337 49.1745 24.597C51.4245 25.927 52.4145 27.957 52.2045 30.787C52.1445 31.617 52.7645 32.327 53.5945 32.387C54.0245 32.417 54.4145 32.277 54.7045 32.007C57.7345 34.057 60.2545 37.577 60.8645 39.237C60.9945 39.587 61.0745 40.007 61.1345 40.467C61.1345 41.377 61.2645 46.727 64.4345 49.877C63.7645 50.167 63.1045 50.377 62.7045 50.357C62.1645 50.317 61.6645 50.597 61.3745 51.047C61.2345 51.267 58.3445 55.867 58.6345 61.097C58.1945 60.887 57.8845 60.677 57.7945 60.537C57.6645 59.967 57.2145 59.527 56.6345 59.407C56.0545 59.287 55.4645 59.517 55.1245 59.987C54.9645 60.197 51.8745 64.497 51.5345 69.327C51.1945 68.967 50.8945 68.507 50.7045 67.927C50.5145 67.337 49.9845 66.927 49.3745 66.887C48.7545 66.857 48.1745 67.187 47.9145 67.747C47.8245 67.937 45.7545 72.237 40.2045 74.157C39.7945 73.467 39.2445 71.997 39.4945 69.207V69.217Z" fill="#67787F"/>
</g>
<defs>
<clipPath id="clip0_1218_3672">
<rect width="130" height="130" fill="white"/>
</clipPath>
</defs>
</svg>
