<svg width="104" height="69" viewBox="0 0 104 69" fill="none" xmlns="http://www.w3.org/2000/svg">
<path d="M65.0946 5.45043C65.0946 5.96871 64.6772 6.38882 64.1622 6.38882C63.6479 6.38882 63.2305 5.96871 63.2305 5.45043C63.2305 4.93282 63.6479 4.5127 64.1622 4.5127C64.6772 4.5127 65.0946 4.93281 65.0946 5.45043Z" fill="#67787F"/>
<path d="M66.8431 38.5576C62.4745 39.2133 58.7697 36.5944 57.0214 33.7152C56.7528 33.2729 56.1794 33.1328 55.7399 33.4037C55.301 33.674 55.1625 34.2518 55.431 34.6935C57.5006 38.1016 61.9153 41.1816 67.1161 40.414C67.9906 40.2832 68.782 40.2635 69.4965 40.3093L69.3574 40.3558C70.3092 44.5335 71.2091 48.4799 70.6707 52.6621C70.2637 55.8346 68.6908 63.3677 62.8906 64.7779C58.5051 65.8433 54.5604 65.7634 49.9746 65.6705C47.5858 65.6267 45.1698 66.0101 42.8369 66.3851C41.3856 66.6187 39.8858 66.8608 38.4423 66.9845C36.4027 67.1546 34.2498 66.4211 32.3663 64.8871C30.0302 62.9854 29.7897 62.1728 29.7955 61.9103C29.7962 61.8762 29.7968 61.835 29.9113 61.7493C30.226 61.515 31.0562 61.7715 32.4255 62.5398L32.5106 62.5875C36.9059 65.0592 42.3778 68.134 48.4929 63.5168C48.9045 63.2059 48.9884 62.6183 48.6789 62.2028C48.3713 61.7885 47.7862 61.7054 47.374 62.0156C42.2284 65.9006 37.75 63.3833 33.4197 60.949L33.2877 60.875C32.2981 60.3208 30.239 59.1613 28.7981 60.2449C28.2441 60.6597 27.9444 61.2225 27.9321 61.873C27.9008 63.4579 29.6589 65.0957 31.2174 66.3646C33.2329 68.0051 35.5607 68.8846 37.8487 68.8846C38.0996 68.8846 38.3513 68.8748 38.6009 68.8525C40.1113 68.7236 41.6464 68.4762 43.1308 68.238C45.383 67.8755 47.7133 67.5025 49.9551 67.5464C54.4557 67.638 58.7093 67.725 63.3275 66.6008C63.4816 66.5635 63.6188 66.5053 63.7671 66.4614C63.8633 66.5026 63.9634 66.5367 64.074 66.5432C64.0974 66.5452 66.4141 66.6898 69.5128 67.4953C69.5908 67.5163 69.6695 67.5254 69.7469 67.5254C70.161 67.5254 70.5394 67.2453 70.648 66.822C70.7774 66.3207 70.4777 65.809 69.979 65.6794C68.7527 65.3608 67.6507 65.1396 66.7431 64.9884C67.1254 64.7018 67.4765 64.3838 67.812 64.0513C68.4245 64.1083 69.8711 64.2503 70.8315 64.4171L71.6469 66.5517C71.7899 66.9247 72.1429 67.1524 72.5168 67.1524C72.628 67.1524 72.7418 67.1321 72.8517 67.0902C73.3321 66.9044 73.5714 66.3612 73.3867 65.877L72.3861 63.2608C72.2749 62.9716 72.0292 62.7563 71.7301 62.6843C71.1176 62.5397 70.1144 62.4075 69.258 62.3126C71.4406 59.1331 72.2391 55.0916 72.5207 52.9019C73.0649 48.6641 72.234 44.62 71.3309 40.6276C71.9771 40.8344 72.4706 41.1138 72.7775 41.4221C72.9596 41.6046 73.1969 41.6949 73.4349 41.6949C73.6741 41.6949 73.9134 41.6027 74.0955 41.4181C74.4589 41.051 74.457 40.4568 74.0916 40.0917C72.6891 38.6867 69.9082 38.0979 66.8433 38.5572L66.8431 38.5576Z" fill="#67787F"/>
<path d="M76.8736 40.8498C76.8443 40.1627 76.8105 39.3833 76.4275 38.6603C76.0108 37.8724 75.3495 37.3135 74.767 36.8209L74.4887 36.5833C73.8248 36.0062 72.8495 35.5069 71.9061 35.0239C71.3118 34.7196 70.75 34.4324 70.3541 34.168C70.2318 34.0862 70.1103 34.0162 69.9874 33.935C69.882 33.1877 69.8001 32.4745 69.7507 31.7888C69.5375 28.7885 68.9952 25.6022 68.044 21.7618C67.8235 20.8751 67.5622 20.0892 67.3106 19.3288C66.821 17.8558 66.3951 16.5582 66.3372 14.8326C72.4958 12.2256 73.339 6.76139 73.1694 5.37616C72.9919 3.91557 70.6707 2.95564 65.86 1.4786C65.2723 1.298 64.7813 1.14813 64.4712 1.0369C62.0264 0.162639 58.6838 0.517315 56.3108 0.968189C52.8843 1.6206 51.9845 4.28528 51.1899 6.63644C50.3895 9.00469 49.7523 11.4468 49.1366 13.8097C48.974 14.4347 48.8115 15.0583 48.6457 15.6813L48.3888 16.636C47.6645 19.3202 46.9149 22.0962 46.9006 24.9957C46.8908 26.9339 46.8512 28.8761 46.8108 30.8184C46.7614 33.2121 46.7107 35.6875 46.7198 38.1238L46.7218 39.9587C46.7224 43.6833 46.7231 47.5352 47.2094 51.3181C47.7003 55.1403 47.1919 59.1281 47.1873 59.1673C47.1197 59.681 47.4792 60.1522 47.9896 60.2202C48.0312 60.2255 48.0722 60.2288 48.1125 60.2288C48.5728 60.2288 48.9734 59.8852 49.0351 59.4134C49.0579 59.2413 49.5819 55.1495 49.0585 51.0785C48.5878 47.4147 48.5872 43.6252 48.5865 39.9593L48.5846 38.1172C48.5761 35.7053 48.6262 33.2409 48.6749 30.8575C48.7152 28.9056 48.7556 26.9541 48.7653 25.0053C48.7783 22.3511 49.4955 19.6964 50.1886 17.1285L50.4467 16.1672C50.6132 15.5403 50.777 14.914 50.9408 14.2864C51.5488 11.9555 52.1775 9.5454 52.9564 7.24131C53.7899 4.77305 54.4147 3.23839 56.6585 2.81188C58.806 2.40485 61.7962 2.07177 63.8489 2.80533C64.1772 2.92247 64.696 3.08278 65.3183 3.27322C66.6674 3.68745 70.7227 4.93207 71.3305 5.69122C71.4268 7.06346 70.3676 12.1937 63.3514 13.8455L63.0958 13.9057C59.2682 14.8061 58.4718 14.9939 55.6084 14.369C55.1084 14.261 54.609 14.5817 54.5005 15.0875C54.3919 15.594 54.7111 16.0933 55.2144 16.2032C58.4861 16.9172 59.5523 16.6659 63.5198 15.7321L63.7753 15.6719C64.0321 15.611 64.2636 15.5332 64.5087 15.4638C64.6452 17.198 65.0965 18.5812 65.5418 19.9234C65.7831 20.6497 66.0327 21.401 66.2343 22.2164C67.1602 25.949 67.6862 29.033 67.8916 31.9228C67.9092 32.1695 67.9371 32.4227 67.9605 32.674C67.4072 32.3468 66.8539 32.0255 66.309 31.733C65.8533 31.4902 65.2896 31.6636 65.0477 32.1197C64.8058 32.5778 64.9775 33.1458 65.432 33.3892C66.707 34.0724 68.0164 34.8603 69.324 35.7325C69.8084 36.0551 70.4163 36.3666 71.0607 36.6964C71.9047 37.1277 72.7771 37.5753 73.2706 38.0039L73.5665 38.2565C74.0645 38.6772 74.5339 39.0744 74.7817 39.543C74.9657 39.8891 74.9871 40.395 75.0099 40.9309C75.019 41.1462 75.0287 41.3596 75.0469 41.5657C75.0905 42.0532 75.4975 42.4197 75.9748 42.4197C76.0027 42.4197 76.0313 42.419 76.0593 42.4157C76.5716 42.3693 76.9507 41.9125 76.9039 41.3969C76.8889 41.2202 76.8818 41.0357 76.8733 40.8498L76.8736 40.8498Z" fill="#67787F"/>
<path d="M57.5154 5.99181C58.0095 5.84327 58.2911 5.32107 58.1441 4.82571C57.9978 4.32641 57.4777 4.04437 56.9855 4.19293C56.4419 4.35391 56.0212 4.69223 55.769 5.16861C55.308 6.03894 55.5804 7.04016 55.6402 7.23247C55.7215 7.49619 55.9094 7.69773 56.1409 7.80506C56.3431 7.89864 56.5785 7.91958 56.8073 7.84825C57.2989 7.69447 57.5726 7.1677 57.4198 6.67364C57.3827 6.55455 57.3359 6.19791 57.4133 6.05133C57.4211 6.03955 57.4328 6.01602 57.5154 5.99181Z" fill="#67787F"/>
</svg>
