<svg width="130" height="130" viewBox="0 0 130 130" fill="none" xmlns="http://www.w3.org/2000/svg">
<g clip-path="url(#clip0_1218_3677)">
<path d="M52.7895 107.556C52.0595 107.776 51.6095 108.506 51.7495 109.256C51.8795 109.976 52.5095 110.486 53.2295 110.486H53.3295C59.9895 110.036 63.2895 109.266 64.9595 108.526C75.5995 107.616 76.2095 105.806 76.4395 105.096C76.8695 103.806 77.1295 98.956 77.2695 95.186C81.2395 95.816 87.4895 95.996 94.1895 93.016C96.1295 94.106 101.57 96.586 107.47 94.376C108.18 94.106 108.58 93.346 108.4 92.606C108.36 92.456 107.46 89.016 102.72 86.286C101.59 84.986 99.3795 82.486 98.0895 81.416C97.1595 78.756 92.1295 66.306 77.1095 59.566C77.0295 59.536 76.9495 59.506 76.8695 59.486C70.0595 57.716 58.9395 53.136 58.0895 48.396C57.5295 45.296 57.2895 43.056 56.9995 40.466C56.7495 38.156 56.4595 35.546 55.8995 31.856C55.0995 26.576 50.7995 19.756 45.2495 17.936C42.1195 16.906 39.0295 17.696 36.5395 20.146C36.2195 20.416 34.9995 21.526 34.1795 23.156C31.1695 24.876 26.6495 27.926 26.8795 30.566C26.9695 31.596 27.4795 32.146 27.8895 32.426C28.3395 32.736 28.8295 32.846 29.3595 32.846C30.1295 32.846 30.9895 32.596 31.9295 32.326C32.9995 32.016 34.2195 31.666 35.3395 31.676C36.0695 31.676 36.6395 31.536 37.0995 31.326C37.1995 31.366 37.2895 31.406 37.3895 31.436C39.4195 32.096 41.7995 31.886 43.5195 31.266C44.2795 32.816 45.3895 36.806 43.1495 45.106C39.9195 57.066 39.4895 80.306 58.1995 91.916C58.5395 92.426 59.2195 93.286 60.3195 94.086L60.2895 99.346H60.2695C59.2995 98.866 58.2495 98.426 57.5095 98.366C57.0195 98.336 56.5395 98.536 56.2195 98.916C55.9095 99.296 55.8095 99.816 55.9495 100.286C56.0095 100.476 56.0495 100.696 56.0795 100.896H55.8095C51.3695 100.926 48.7395 101.146 47.5595 102.166C47.1495 102.526 46.9695 103.086 47.0795 103.616C47.1995 104.146 47.5995 104.576 48.1195 104.736C50.3595 105.386 52.6295 106.366 53.3895 106.966C53.1795 107.376 52.8395 107.516 52.7795 107.536L52.7895 107.556ZM55.8295 103.916C56.3995 103.916 56.8395 103.916 57.0795 103.896C57.7295 103.856 58.2995 103.536 58.6695 103.006C58.8595 102.736 58.9795 102.426 59.0395 102.106C59.6495 102.416 60.3395 102.806 60.9795 103.196C61.4395 103.486 62.0195 103.496 62.4995 103.236C62.9795 102.976 63.2695 102.476 63.2695 101.936L63.3095 95.546C63.7195 95.666 64.1595 95.766 64.6295 95.836C64.4795 100.236 64.2295 104.496 63.9695 105.736C63.0495 106.266 59.8695 106.826 56.4795 107.206C56.5995 106.656 56.7595 105.426 54.1995 103.956C54.6995 103.946 55.2495 103.936 55.8295 103.926V103.916ZM46.0395 45.896C49.5995 32.716 45.4895 28.656 45.0095 28.236C44.7295 27.986 44.3795 27.866 44.0195 27.866C43.7295 27.866 43.4295 27.946 43.1795 28.126C42.4195 28.636 40.5495 29.056 38.9095 28.746C39.0695 27.156 38.2995 25.336 37.1695 23.986C37.7495 23.076 38.4695 22.456 38.4995 22.436C38.5395 22.406 38.5795 22.366 38.6095 22.336C40.3095 20.636 42.2295 20.126 44.3095 20.806C48.1595 22.066 52.1895 27.456 52.9295 32.326C53.4795 35.956 53.7595 38.536 54.0095 40.816C54.2995 43.466 54.5495 45.756 55.1295 48.956C56.5695 56.976 73.4795 61.726 75.9795 62.386C91.1095 69.236 95.3195 82.656 95.3595 82.796C95.4695 83.146 95.7195 83.466 96.0295 83.656C96.5995 84.016 98.8395 86.436 100.59 88.466C100.71 88.596 100.84 88.716 101 88.796C103.03 89.926 104.17 91.156 104.78 92.056C99.6595 93.096 95.1395 90.136 95.0995 90.106C94.6595 89.806 94.0895 89.766 93.6095 89.996C83.4695 94.826 74.0595 91.376 73.9595 91.336C73.5895 91.196 73.1795 91.206 72.8195 91.366C63.4895 95.486 60.6995 90.386 60.5895 90.176C60.4595 89.916 60.2695 89.706 60.0195 89.556C42.5195 78.936 42.9795 57.116 45.9995 45.906L46.0395 45.896ZM31.0995 29.456C30.8795 29.516 30.6295 29.596 30.3795 29.656C31.2395 28.726 33.0695 27.336 35.0695 26.126C35.8395 27.166 36.0795 28.336 35.8995 28.596C35.8695 28.616 35.6995 28.686 35.3795 28.686C33.8295 28.696 32.3195 29.106 31.0995 29.456ZM67.6195 95.896C68.3595 95.826 69.1395 95.706 69.9695 95.506V97.566C69.1495 97.156 68.2895 96.796 67.5895 96.646C67.5895 96.386 67.6095 96.136 67.6195 95.896ZM67.0495 105.286C67.1595 104.376 67.2595 103.216 67.3395 101.966C67.7395 101.826 68.0895 101.566 68.3495 101.206C68.5395 100.936 68.6595 100.626 68.7195 100.306C69.3295 100.616 70.0195 101.006 70.6595 101.396C71.1195 101.686 71.6995 101.696 72.1795 101.436C72.6495 101.176 72.9495 100.676 72.9495 100.136L72.9795 94.556C73.1595 94.486 73.3295 94.426 73.5195 94.346C73.7195 94.406 73.9895 94.486 74.2895 94.576C74.1395 98.776 73.8995 102.746 73.6495 103.936C72.8095 104.416 70.0895 104.926 67.0495 105.296V105.286Z" fill="#67787F"/>
<path d="M63.6397 84.4361C67.3897 86.3861 70.9297 87.0861 74.0697 87.0861C81.4397 87.0861 86.5897 83.2661 86.8897 83.0361C87.3597 82.6761 87.5797 82.0761 87.4397 81.4961C87.2997 80.9161 86.8397 80.4761 86.2497 80.3661C80.3897 79.2861 78.6897 75.1261 78.6197 74.9561C78.5797 74.8561 78.5397 74.7661 78.4797 74.6761C73.4497 66.8561 67.6497 63.8461 63.6797 62.6961C60.6497 61.8161 57.3997 62.6761 55.1997 64.9261C53.0497 67.1361 52.3197 70.1861 53.2497 73.1061C54.6797 77.6061 58.4697 81.7361 63.6397 84.4361ZM61.2997 65.3561C61.8197 65.3561 62.3397 65.4261 62.8497 65.5761C67.8897 67.0361 72.2697 70.6061 75.8897 76.1861C76.2397 76.9961 77.9097 80.3261 82.2197 82.2461C78.6897 83.8361 72.2597 85.5461 65.0297 81.7761C60.5497 79.4461 57.2997 75.9461 56.1097 72.1961C55.5297 70.3561 55.9897 68.4161 57.3497 67.0261C58.4097 65.9461 59.8297 65.3561 61.2997 65.3561Z" fill="#67787F"/>
</g>
<defs>
<clipPath id="clip0_1218_3677">
<rect width="130" height="130" fill="white"/>
</clipPath>
</defs>
</svg>
