<svg width="104" height="67" viewBox="0 0 104 67" fill="none" xmlns="http://www.w3.org/2000/svg">
<path d="M81.5725 15.3602C81.5725 15.3602 80.9325 12.4502 83.2925 12.4502C83.5922 12.4229 83.8942 12.4567 84.1804 12.5497C84.4666 12.6427 84.7309 12.7929 84.9572 12.9912C85.1836 13.1895 85.3672 13.4317 85.4971 13.7031C85.6269 13.9746 85.7002 14.2696 85.7125 14.5702C90.4425 17.3802 91.4225 19.5702 91.4225 20.1402C91.5622 20.8493 91.8808 21.5109 92.3481 22.0622C92.8154 22.6135 93.4159 23.0363 94.0925 23.2902C96.0125 24.0302 96.5525 24.5302 96.5525 25.3602C96.5525 26.1902 95.6125 27.0402 94.0925 28.1702C92.5725 29.3002 90.2425 29.6502 86.9925 29.1702C85.248 28.8397 83.457 28.8397 81.7125 29.1702L77.2225 30.2602C77.2225 30.2602 78.2225 33.9202 74.2225 36.2602V42.6602C74.2225 42.6602 74.7225 46.6602 79.6625 52.1602C80.4027 53.1521 81.4622 53.8585 82.6625 54.1602C84.6625 54.6502 85.5225 56.1602 85.2625 56.8302C84.8925 57.7402 84.5725 58.0102 81.2025 58.0102H79.7725C77.69 57.5875 75.6726 56.8915 73.7725 55.9402C71.2825 54.5302 56.8325 45.6302 56.7425 33.5602M34.5825 40.1602C44.0825 44.5102 57.4325 40.6602 57.4325 40.6602M45.6825 43.2602C45.6825 43.2602 44.9425 55.2602 52.4825 57.4002H57.0325C57.4494 57.404 57.8551 57.2653 58.1824 57.007C58.5098 56.7488 58.7391 56.3866 58.8325 55.9802C58.8325 55.8802 58.8325 55.7802 58.8325 55.6802C58.8325 55.0202 57.9025 54.6802 57.0325 54.4502C56.4424 54.3107 55.9116 53.9878 55.5164 53.5278C55.1211 53.0679 54.8817 52.4946 54.8325 51.8902C54.8163 51.6071 54.8163 51.3233 54.8325 51.0402C54.8325 48.2302 57.3925 46.3602 57.4625 44.5402C57.5202 43.5155 57.4497 42.4875 57.2525 41.4802M21.2525 40.4802C21.2525 40.4802 19.8325 51.8302 24.8825 56.9102C25.197 57.2462 25.5808 57.5097 26.0073 57.6824C26.4339 57.8551 26.8929 57.9328 27.3525 57.9102H33.2125C33.2125 57.9102 35.1425 57.9102 35.1425 56.8302C35.1425 55.7502 33.3125 53.7702 31.3425 53.7702C31.1757 52.5053 31.2435 51.2205 31.5425 49.9802C32.0325 48.0602 35.0925 44.8802 35.1425 41.2002M80.9725 13.2902C80.9725 13.2902 78.9025 13.1602 73.8325 12.9902C68.7625 12.8202 70.4825 9.99023 64.9625 9.99023C59.4425 9.99023 57.9125 13.2902 52.9625 13.2902C48.0125 13.2902 46.1625 9.99023 38.1725 9.99023C31.2925 9.99023 23.7325 11.3302 19.0025 17.7202L16.9125 18.9302C16.7925 19.1002 13.6725 20.7702 13.1325 23.8702C12.7725 25.9402 14.3825 26.2002 15.0425 25.8702C15.3451 25.6813 15.6124 25.441 15.8325 25.1602C15.2511 28.5566 14.8505 31.9814 14.6325 35.4202C13.9925 44.4202 9.3125 45.0802 9.3125 50.9402C9.3125 56.8002 13.6325 57.9402 15.3125 57.9402C16.9925 57.9402 21.0125 58.2502 21.4225 56.9402C21.8325 55.6302 19.9725 54.3802 17.4225 54.1802C17.4225 54.1802 16.3725 53.7902 17.1525 53.1002C17.4525 52.8402 17.9725 52.4402 18.5325 51.9802C19.4914 51.1894 20.4929 50.4516 21.5325 49.7702" stroke="#67787F" stroke-width="2.5" stroke-linecap="round" stroke-linejoin="round"/>
</svg>
