<svg width="130" height="130" viewBox="0 0 130 130" fill="none" xmlns="http://www.w3.org/2000/svg">
<g clip-path="url(#clip0_1218_3684)">
<path d="M111.665 59.8442C110.645 58.7242 109.295 57.7342 108.525 57.2042C108.175 54.4442 107.835 53.8942 107.735 53.7142C107.585 53.4542 105.455 50.7942 102.975 48.5242C102.955 48.2042 102.955 47.8942 102.915 47.5842C102.725 45.8642 101.515 44.4742 99.8251 44.0342C98.4051 43.6742 96.9751 44.0742 95.9651 45.0442C93.8051 44.7742 91.4751 44.6442 90.5151 44.6042C88.3651 43.1742 77.9551 36.9342 67.6851 42.8642C63.8751 41.4042 46.2451 35.2642 36.4851 42.5842C26.1851 50.3142 22.5051 56.9542 25.5351 62.3342C25.5251 63.7642 25.6851 67.7542 27.6251 70.4842C27.2651 70.8942 26.8051 71.3942 26.3851 71.8642C20.9951 77.8042 19.8551 79.5142 20.3151 81.0042C20.6651 82.1242 22.2151 88.3542 22.9951 91.4942C23.1651 92.1642 23.7651 92.6342 24.4551 92.6342H34.5751C34.9851 92.6342 35.3751 92.4642 35.6551 92.1742C35.9351 91.8742 36.0851 91.4842 36.0751 91.0742C35.9651 88.5042 33.4651 86.7642 31.9951 85.9642C32.1651 84.9742 32.5551 84.1042 32.8351 83.5942C33.3751 83.4842 33.8851 83.3542 34.3851 83.2242C34.8151 85.0742 35.4251 87.7042 36.3051 91.4742C36.4651 92.1542 37.0651 92.6342 37.7651 92.6342H48.1151C48.9351 92.6342 49.6051 91.9742 49.6151 91.1542C49.6251 89.7942 48.8951 87.2342 46.0651 86.2342C46.0151 86.2142 45.9651 86.1942 45.9151 86.1742L45.9551 85.6842C47.1851 84.6142 50.1851 81.6842 51.8451 77.1742C54.8051 77.0142 57.7351 76.4442 60.4351 75.3042C60.6551 77.0242 60.7951 79.0842 60.9251 80.8542C61.1051 83.4142 61.2151 84.9042 61.4351 85.7142C61.8851 87.3642 63.0951 91.3942 63.1451 91.5642C63.3351 92.1942 63.9151 92.6342 64.5851 92.6342H74.2851C74.7351 92.6342 75.1651 92.4342 75.4451 92.0842C75.7251 91.7342 75.8451 91.2742 75.7551 90.8342C75.4551 89.3742 74.1251 86.7242 71.1751 86.0242C70.9551 84.4742 70.8551 83.0042 70.9451 82.5542C71.1151 82.3042 71.6551 81.6542 72.1251 81.0842C73.3851 79.5542 75.1751 77.3642 76.8351 74.8942C77.7151 77.6042 78.6551 79.9642 78.9951 80.8042C79.4851 84.5642 88.3151 90.1442 92.1951 92.4342C92.4251 92.5742 92.6851 92.6442 92.9551 92.6442H102.855C103.315 92.6442 103.755 92.4242 104.045 92.0642C104.335 91.7042 104.425 91.2142 104.305 90.7642C103.195 86.5242 99.8051 85.0042 98.0951 84.4942C96.9451 81.1542 93.2951 76.0742 92.1151 74.4742C92.1151 72.8942 91.8051 70.2742 91.4451 67.8342C92.2751 67.3642 93.1151 66.8242 93.9351 66.1842C95.1251 66.5442 97.3751 67.0542 99.5451 66.6642C100.875 67.4442 104.195 68.9842 107.785 67.6642C108.275 67.6242 109.235 67.4742 110.275 66.9542C110.295 66.9442 110.325 66.9442 110.345 66.9242C111.345 66.4142 112.155 65.6842 112.775 64.7442C113.415 63.7642 113.735 62.1142 111.675 59.8542L111.665 59.8442ZM107.375 64.6642C107.215 64.6642 107.045 64.7042 106.895 64.7742C103.805 66.0142 100.715 63.8542 100.685 63.8342C100.315 63.5642 99.8351 63.4742 99.3951 63.6042C97.1251 64.2442 94.1951 63.1042 94.1651 63.0942C94.1451 63.0942 94.1251 63.0942 94.1051 63.0742C94.0551 63.0542 94.0051 63.0342 93.9551 63.0242C92.6851 62.7342 91.8151 62.1942 91.3651 61.4242C90.6851 60.2642 91.0951 58.8142 91.1051 58.7642C91.3451 57.9742 90.9051 57.1442 90.1251 56.8942C89.3351 56.6442 88.4951 57.0842 88.2451 57.8742C88.1551 58.1442 87.4451 60.6042 88.7451 62.9042C89.1851 63.6842 89.8051 64.3242 90.5751 64.8442C86.9451 67.1142 83.2451 67.5742 80.5651 67.4942C81.0451 65.9142 81.2651 64.3542 81.0851 62.8842C80.9851 62.0642 80.2351 61.4842 79.4151 61.5842C78.5951 61.6842 78.0051 62.4342 78.1151 63.2542C78.7451 68.3042 72.4751 75.9342 69.8051 79.1842C68.6951 80.5242 68.3451 80.9742 68.1651 81.4042C67.6351 82.7242 68.0751 85.8642 68.3751 87.6142C68.4951 88.3042 69.0851 88.8242 69.7951 88.8542C70.6851 88.8942 71.3151 89.2242 71.7751 89.6442H65.7051C65.3051 88.3042 64.6351 86.0342 64.3351 84.9342C64.1851 84.3642 64.0451 82.4742 63.9251 80.6542C63.7251 77.7842 63.4951 74.5342 63.0051 72.4442C62.5151 70.3642 64.8351 65.5142 66.4251 62.9442C66.8551 62.2342 66.6451 61.3142 65.9351 60.8842C65.2251 60.4542 64.3051 60.6642 63.8751 61.3742C63.4251 62.1042 59.7451 68.2142 59.9751 72.2542C55.9951 74.1442 51.3151 74.5142 46.8851 74.1342C49.3551 69.4142 48.8051 64.8242 48.7951 64.7442C48.6851 63.9242 47.9351 63.3542 47.1151 63.4642C46.2951 63.5742 45.7151 64.3242 45.8251 65.1442C45.8951 65.6642 47.2751 77.8442 31.6251 80.7942C31.2351 80.8642 30.8851 81.0942 30.6651 81.4242C30.5951 81.5242 28.9451 83.9742 28.9451 86.8842C28.9451 87.4842 29.3051 88.0342 29.8651 88.2642C30.5551 88.5542 31.4251 89.0742 32.0951 89.6542H25.6551C25.0751 87.3142 23.7651 82.0742 23.3051 80.4342C23.8251 79.1942 27.1751 75.5142 28.6451 73.9042C29.9751 72.4442 30.6251 71.7142 30.8951 71.2742C31.8851 69.6842 31.9451 67.0342 31.8251 65.7142C31.7451 64.8842 31.0151 64.2742 30.1951 64.3542C29.5251 64.4142 28.9951 64.9142 28.8651 65.5542C28.5951 64.1842 28.5451 62.8642 28.5651 62.0942C28.5951 61.9242 28.9251 60.4642 30.9951 58.5142C31.5951 57.9442 31.6351 56.9942 31.0651 56.3942C30.4951 55.7942 29.5451 55.7542 28.9451 56.3242C28.4151 56.8142 27.9751 57.2942 27.6051 57.7542C28.0451 54.3042 31.6151 50.0342 38.3051 45.0142C41.1951 42.8442 45.0351 42.0942 48.9651 42.0942C57.8051 42.0942 67.1351 45.8942 67.2651 45.9442C67.7151 46.1342 68.2251 46.0842 68.6351 45.8242C78.3851 39.6842 88.7151 47.0042 89.1451 47.3142C89.3851 47.4942 89.6751 47.5942 89.9751 47.6042C90.0051 47.6042 92.0351 47.6842 94.2051 47.8942C93.6151 49.1842 93.3851 50.1642 93.3751 50.2342C93.1951 51.0442 93.7051 51.8342 94.5051 52.0242C95.3151 52.2042 96.1151 51.7042 96.2951 50.8942C96.2951 50.8742 96.7151 49.1142 97.9151 47.3842C98.2951 46.8342 98.8651 46.9142 99.0851 46.9642C99.2651 47.0142 99.8651 47.2142 99.9351 47.9242C100.105 49.4842 99.9851 51.1042 99.5851 52.7542C99.3951 53.5642 99.8851 54.3742 100.695 54.5642C100.815 54.5942 100.935 54.6042 101.045 54.6042C101.725 54.6042 102.335 54.1442 102.505 53.4542C102.585 53.1242 102.635 52.8042 102.695 52.4742C103.855 53.6742 104.805 54.7742 105.125 55.2242C105.255 55.6142 105.485 56.9942 105.625 58.2542C105.675 58.7142 105.935 59.1242 106.325 59.3642C106.335 59.3642 107.145 59.8742 108.035 60.5942C107.705 60.9242 107.415 61.3342 107.225 61.8442C106.905 62.7142 106.955 63.6642 107.365 64.6842L107.375 64.6642ZM89.0851 74.8142C89.0551 75.1842 89.1651 75.5442 89.3851 75.8442C90.8951 77.8342 94.9051 83.5442 95.4051 86.0242C95.5251 86.6442 96.0351 87.1142 96.6551 87.2142C96.7751 87.2342 99.0951 87.6242 100.525 89.6342H93.3551C87.3851 86.0742 82.0951 81.8342 81.9551 80.5042C81.9551 80.2942 81.9251 80.0742 81.8451 79.8842C81.1551 78.2042 79.8151 74.6542 78.9151 71.4242C79.0851 71.0942 79.2651 70.7642 79.4251 70.4242C81.8051 70.6042 85.0951 70.4642 88.5951 69.1542C88.9251 71.5342 89.1751 73.7942 89.0951 74.8242L89.0851 74.8142ZM38.9451 89.6242C38.4051 87.2942 37.7551 84.4942 37.2451 82.2842C40.8051 80.9042 43.2751 78.9842 44.9951 76.9142C46.1651 77.0542 47.3551 77.1542 48.5551 77.1942C46.6851 81.3242 43.6451 83.6842 43.6051 83.7242C43.2651 83.9842 43.0451 84.3742 43.0151 84.7942L42.8351 86.8442C42.7951 87.2842 42.9551 87.7242 43.2751 88.0342C43.4151 88.1742 43.9751 88.6742 45.0651 89.0542C45.4651 89.1942 45.7551 89.3942 45.9751 89.6242H38.9451ZM110.085 63.3042C110.085 63.3042 110.055 63.2142 110.045 63.1742C110.045 63.1442 110.025 63.1042 110.025 63.0742C110.025 62.9842 110.025 62.9042 110.035 62.8442C110.045 62.8142 110.075 62.7842 110.105 62.7542C110.225 62.9742 110.235 63.0842 110.235 63.0842C110.185 63.1642 110.135 63.2342 110.075 63.3042H110.085Z" fill="#67787F"/>
</g>
<defs>
<clipPath id="clip0_1218_3684">
<rect width="130" height="130" fill="white"/>
</clipPath>
</defs>
</svg>
