<svg width="130" height="130" viewBox="0 0 130 130" fill="none" xmlns="http://www.w3.org/2000/svg">
<g clip-path="url(#clip0_1218_3689)">
<path d="M112.292 117.406C111.802 114.806 108.792 107.206 106.982 103.636C106.682 103.046 105.922 101.926 104.842 100.456C104.822 100.426 104.802 100.396 104.782 100.376C100.502 94.526 91.4221 83.266 86.7221 77.496C87.7321 77.776 88.7421 78.056 89.7521 78.336C93.3421 79.316 96.1721 80.096 97.0921 80.496C97.2821 80.576 97.4921 80.626 97.6921 80.626C98.1221 80.626 98.5421 80.446 98.8321 80.106C99.2621 79.606 99.3121 78.886 98.9621 78.326C98.2821 77.246 82.0121 51.776 63.8621 45.336C61.8821 44.636 59.8021 44.436 57.8021 44.686C53.3021 42.516 49.3321 41.456 46.6721 40.956C43.5221 40.356 42.0921 39.276 40.5721 38.126C38.3921 36.476 36.1221 34.776 29.7321 35.046C25.8321 35.216 23.0721 36.266 21.5221 38.156C20.2321 39.726 20.0821 41.516 20.1521 42.776C18.9821 46.286 18.0021 54.096 24.8121 57.376C25.0221 57.476 25.2421 57.526 25.4621 57.526C25.7421 57.526 26.0321 57.446 26.2821 57.286C26.3121 57.266 26.3321 57.236 26.3621 57.216C26.3921 57.306 26.4221 57.406 26.4721 57.486C26.7421 57.966 27.2421 58.256 27.8021 58.256C29.1021 58.256 30.2921 58.096 31.3521 57.786C32.0221 58.276 32.7121 58.736 33.3721 59.176C34.7221 60.086 36.1221 61.016 36.6821 61.746C41.0921 67.366 44.3421 70.216 46.7021 71.686C46.6721 71.706 46.6421 71.716 46.6121 71.736L43.2221 74.216C42.8121 74.516 42.5821 75.006 42.6121 75.516L42.8021 78.576C42.8321 79.016 43.0521 79.416 43.4021 79.686L47.6021 82.836C47.8621 83.036 48.1821 83.136 48.5021 83.136C48.7021 83.136 48.9121 83.096 49.1021 83.006L53.7221 80.986C54.3021 80.736 54.6621 80.136 54.6221 79.506C54.5821 78.876 54.1421 78.336 53.5321 78.166L50.9621 77.446L50.9421 77.386L55.0421 75.426C55.1121 75.386 55.1921 75.346 55.2521 75.296L56.4721 74.436C60.9021 75.606 66.3821 77.316 68.2621 77.906C69.4921 80.266 73.9821 85.156 85.5221 96.926C88.4621 99.926 91.2421 102.756 91.7521 103.426C92.7721 104.756 97.2621 109.016 101.022 112.366C107.742 118.356 109.682 119.476 110.662 119.476C110.942 119.476 111.142 119.386 111.352 119.296C111.942 119.036 112.462 118.346 112.282 117.416L112.292 117.406ZM94.1421 101.596C93.5521 100.826 91.4121 98.636 87.6721 94.826C82.4821 89.536 71.7321 78.576 70.8821 76.486C70.8021 75.916 70.4121 75.436 69.8521 75.256C69.4821 75.136 63.7821 73.316 58.6121 71.906C58.6121 71.846 58.6121 71.786 58.5921 71.726C58.0721 69.886 56.3821 68.816 53.5621 68.526C53.3621 68.506 53.1521 68.526 52.9621 68.586C52.8621 68.616 52.6921 68.676 50.0821 69.966C47.2221 68.936 43.5221 65.556 39.0521 59.866C38.1921 58.766 36.6621 57.746 35.0521 56.656C34.8221 56.506 34.5921 56.346 34.3621 56.196C35.8221 54.976 36.7521 53.246 37.0321 51.066C37.3821 48.356 37.6621 43.426 35.5621 40.766C34.7421 39.736 33.6221 39.116 32.3121 38.986C29.1621 38.666 26.9821 39.766 25.8221 40.576C25.2421 40.296 24.5921 40.056 23.9221 39.966C24.9121 38.826 26.9621 38.146 29.8721 38.026C35.1921 37.796 36.7721 38.986 38.7721 40.496C40.4221 41.736 42.2821 43.146 46.1221 43.876C47.9921 44.236 50.5521 44.876 53.4921 46.036C52.8821 46.366 52.2921 46.726 51.7521 47.156C48.9921 49.356 47.5921 52.486 47.6321 56.246V56.296C47.6321 56.736 47.6521 57.186 47.7021 57.646C48.0521 61.116 51.6621 64.246 57.1421 67.096C57.1821 67.126 57.2321 67.146 57.2721 67.166C60.9721 69.076 65.5121 70.866 70.4721 72.556C72.1021 74.876 80.5221 86.696 85.3321 89.586C85.5721 89.726 85.8321 89.796 86.1021 89.796C86.3121 89.796 86.5321 89.746 86.7321 89.656C86.7621 89.646 86.7821 89.626 86.8121 89.606C89.6521 92.926 95.8421 99.466 102.612 102.446C103.482 103.646 104.082 104.526 104.312 104.966C105.552 107.406 107.262 111.566 108.352 114.636C103.822 111.016 95.3821 103.176 94.1521 101.576L94.1421 101.596ZM48.3621 75.296C47.6421 75.646 47.3121 76.496 47.6321 77.236L48.4921 79.276C48.5821 79.486 48.7221 79.676 48.8921 79.826L48.7221 79.906L45.7721 77.696L45.6721 76.146L48.3021 74.226C50.4421 73.156 52.8021 71.986 53.6621 71.576C54.0721 71.636 54.5421 71.726 54.9321 71.886L53.6521 72.776L48.3721 75.306L48.3621 75.296ZM30.0321 55.026C30.2721 53.816 30.2221 52.466 29.4921 51.306C30.3121 49.656 30.5221 46.926 28.2721 42.606C29.0921 42.196 30.3321 41.826 32.0021 41.986C32.5121 42.036 32.8821 42.236 33.2021 42.646C34.2121 43.916 34.5321 46.996 34.0521 50.696C33.7421 53.056 32.3921 54.506 30.0321 55.026ZM23.2421 43.076C23.2821 42.986 23.3121 42.956 23.3121 42.946C23.6221 42.846 24.6921 43.286 25.6121 43.956C27.7321 48.006 27.2421 50.146 26.0521 50.806C25.0921 51.346 24.5721 52.366 24.2921 53.376C20.6421 49.756 23.2221 43.146 23.2521 43.076H23.2421ZM77.3421 57.386C65.3721 58.776 54.1221 56.036 50.6721 55.066C50.9021 52.776 51.8821 50.916 53.6221 49.526C55.2421 48.236 57.3021 47.566 59.4221 47.566C60.5721 47.566 61.7321 47.766 62.8621 48.166C67.8921 49.956 72.8521 53.406 77.3421 57.396V57.386ZM90.5421 75.446C84.5421 73.806 74.4121 71.026 65.8621 67.716C71.7021 67.686 79.3121 66.976 83.9321 63.896C88.3021 68.646 91.8421 73.336 94.0321 76.406C93.0221 76.126 91.8621 75.806 90.5521 75.446H90.5421ZM81.8321 61.686C74.9321 65.886 60.0821 64.556 58.2621 64.366C54.4521 62.396 51.6921 60.326 50.8921 58.246C54.4221 59.176 61.7321 60.786 70.3121 60.786C73.4621 60.786 76.7821 60.556 80.1421 60.006C80.7121 60.566 81.2721 61.126 81.8221 61.686H81.8321ZM87.9421 86.326L88.2921 84.226C91.5121 88.226 94.8021 92.356 97.5721 95.886C92.9021 92.256 89.1421 87.796 87.9421 86.326ZM85.8821 80.446L85.0221 85.616C81.8021 82.706 77.4221 77.076 74.5921 73.196L77.2521 74.756C78.7121 75.196 80.1921 75.636 81.6721 76.066C82.3121 76.856 82.9921 77.676 83.6821 78.526L86.0721 79.926C85.9821 80.076 85.9121 80.246 85.8821 80.436V80.446Z" fill="#67787F"/>
</g>
<defs>
<clipPath id="clip0_1218_3689">
<rect width="130" height="130" fill="white"/>
</clipPath>
</defs>
</svg>
