<svg width="130" height="130" viewBox="0 0 130 130" fill="none" xmlns="http://www.w3.org/2000/svg">
<g clip-path="url(#clip0_1218_3694)">
<path d="M47.3555 58.5793C47.1355 59.0593 42.0955 70.4093 50.5655 79.1993C55.3855 84.1993 60.8655 85.0593 64.0955 85.0593C65.3155 85.0593 66.2055 84.9393 66.6255 84.8593C67.6155 84.9493 70.9655 85.0993 73.2155 83.5093C75.1355 83.5493 80.8255 83.4193 83.1955 80.9593C84.0255 80.0893 84.4155 79.0093 84.3155 77.8293C84.2755 77.3593 84.0155 76.9393 83.6255 76.6893C81.7555 75.4993 79.9255 73.9293 79.7155 73.3193L79.6855 73.2193C78.2755 69.1793 72.5155 56.2293 57.2855 57.6393C55.0555 56.1393 50.7855 54.6893 47.6155 58.1793C47.5155 58.2893 47.4255 58.4293 47.3655 58.5693L47.3555 58.5793ZM55.9355 60.3793C56.2455 60.6293 56.6455 60.7393 57.0355 60.6893C70.1255 59.1993 75.2555 69.6493 76.8455 74.2193L76.8855 74.3293C77.4455 75.9193 79.7755 77.7193 81.1955 78.6893C81.1555 78.7593 81.0955 78.8293 81.0355 78.8893C79.7755 80.1993 75.4555 80.6293 72.7855 80.5093C72.3755 80.4893 72.0055 80.6293 71.7155 80.8993C70.4855 82.0093 67.6355 81.9693 66.7355 81.8693C66.5755 81.8493 66.4055 81.8593 66.2455 81.8893C65.9355 81.9493 58.7555 83.3693 52.7255 77.1193C46.1855 70.3393 49.3655 61.5793 49.9855 60.0493C52.3455 57.7193 55.5655 60.0993 55.9255 60.3893L55.9355 60.3793Z" fill="#67787F"/>
<path d="M32.1459 38.0692C31.9159 38.5492 31.9459 39.1092 32.2459 39.5592C32.5359 39.9992 33.0559 40.2692 33.5759 40.2292C36.6059 40.0792 39.8359 40.0592 43.1359 40.8392C43.3459 41.8692 43.1359 44.1992 42.7659 44.7592C42.6959 44.8192 42.6259 44.8992 42.5659 44.9792C42.1259 45.5592 31.8459 59.3092 34.6659 71.1492C36.8659 80.3492 44.2959 88.7392 55.3559 91.8392C57.1559 95.1892 59.7359 99.3092 62.1659 100.679C62.2759 100.739 62.3759 100.779 62.4859 100.839L62.8059 103.179L60.7159 108.909L57.7059 110.249C57.0559 110.539 56.7059 111.239 56.8459 111.929C56.9959 112.619 57.6059 113.119 58.3159 113.119H65.0459C65.6059 113.119 66.1259 112.799 66.3859 112.299L70.2959 104.599C70.4259 104.349 70.4759 104.079 70.4559 103.799L70.1359 99.7192C70.5459 99.3792 70.8959 99.0392 71.1859 98.7592L71.5259 98.4392C72.6659 97.3792 73.5759 94.4492 74.1759 92.0192C74.2559 91.9992 74.3459 91.9892 74.4259 91.9692C89.1059 88.5792 90.6259 80.9592 91.7459 75.3892C92.1559 73.3592 92.5059 71.5992 93.3959 70.3892C94.4459 68.9592 95.4159 67.6992 96.2459 66.6192C98.8259 63.2792 99.7859 62.0292 99.3859 60.6992C99.2459 60.2392 98.9359 59.8592 98.5159 59.6292C101.356 55.8392 101.176 54.8392 101.086 54.3892C100.996 53.8792 100.686 53.4392 100.246 53.1892C99.5859 52.8192 98.5159 52.5192 97.4059 52.3892C98.4459 51.0192 99.8959 49.3492 100.496 48.9092C101.166 48.4292 101.506 47.7192 101.416 46.9692C101.316 46.0892 100.676 45.3592 99.5959 44.8992C99.0159 44.6492 98.3059 44.4892 97.5659 44.4692C98.3859 43.3392 99.2959 42.2392 99.7359 42.0092C100.626 41.5992 100.846 40.7992 100.766 40.2492C100.676 39.6392 100.246 38.8692 98.6959 38.6492C95.8659 38.2392 87.4359 39.5292 82.4859 50.2892C80.7259 54.1092 77.3959 55.1492 74.9159 55.3492C69.9159 55.7592 64.0059 53.1192 61.4559 49.3492C60.1059 47.3592 59.6759 44.4092 59.2159 41.2992C58.5859 36.9992 57.8659 32.1292 54.4459 28.6592C52.9459 27.1392 51.3959 26.0992 49.8059 25.5092C49.5459 23.7292 48.8859 22.1292 47.4259 21.5192C46.9459 21.0892 45.9559 20.3792 44.5459 20.1792C42.3959 19.8692 40.7559 21.0492 39.8159 22.1692C39.7259 22.1792 39.6359 22.1992 39.5459 22.2192C38.4159 22.4892 37.4059 23.4492 36.4659 25.1792C34.8459 28.1492 36.6059 31.7192 37.5359 33.2392C35.9759 33.9792 33.3759 35.5292 32.1459 38.0592V38.0692ZM39.1059 26.6192C39.6159 25.6792 39.9859 25.3292 40.1559 25.1992C40.3859 25.2592 40.6259 25.2592 40.8559 25.2092C41.2659 25.1192 41.6159 24.8592 41.8259 24.4992C41.8659 24.4392 42.7559 22.9592 44.1059 23.1492C44.9359 23.2692 45.4659 23.8092 45.4959 23.8392C45.6959 24.0592 45.9459 24.2092 46.2359 24.2892C46.3859 24.3292 46.5159 24.5792 46.6259 24.9792H46.3259C42.2959 25.2192 39.6459 28.3492 39.3159 28.7592C39.2559 28.8292 39.1359 28.9792 39.0059 29.1692C38.7659 28.2592 38.7059 27.3292 39.0959 26.6192H39.1059ZM52.3059 30.7692C55.0359 33.5392 55.6459 37.6992 56.2459 41.7292C56.7559 45.1892 57.2359 48.4592 58.9659 51.0192C62.1159 55.6792 69.0759 58.8192 75.1559 58.3292C79.7959 57.9492 83.3659 55.5392 85.2059 51.5292C88.4259 44.5392 93.0059 42.3292 95.8859 41.7392C94.4359 43.5392 93.0659 45.7992 93.0459 46.7592C93.0359 47.3992 93.3659 47.9792 93.9259 48.2492C94.8859 48.7292 95.7559 48.0692 96.0459 47.8492C96.5459 47.4692 97.1859 47.4092 97.7159 47.4692C95.9659 49.2592 92.6459 52.9592 93.4459 54.5992C93.8059 55.3192 94.6159 55.6492 95.4359 55.4092C95.9759 55.2492 96.9359 55.3092 97.7059 55.4592C97.0759 56.5192 95.8459 58.1992 94.7359 59.5592C94.3759 59.9992 94.3159 60.6092 94.5459 61.1292C94.7759 61.6492 95.3059 61.9892 95.8759 62.0092H95.9359C95.4159 62.7692 94.6059 63.8092 93.8659 64.7692C93.0159 65.8692 92.0359 67.1492 90.9759 68.5992C89.6959 70.3492 89.2659 72.4992 88.8059 74.7792C87.7759 79.9292 86.6059 85.7392 74.7659 88.7692C74.6559 88.1792 74.2059 87.6892 73.5759 87.5692C72.7659 87.4092 71.9759 87.9392 71.8159 88.7592C71.2659 91.5792 70.4259 94.4492 69.8159 95.6792L69.6859 93.9592C69.6259 93.1292 68.9159 92.5292 68.0759 92.5792C67.2459 92.6392 66.6359 93.3692 66.6959 94.1892L67.4359 103.579L64.1359 110.079H63.4759L65.7659 103.819C65.8459 103.589 65.8759 103.339 65.8459 103.099L64.7559 95.1492C64.6459 94.3292 63.8759 93.7592 63.0659 93.8692C62.2459 93.9792 61.6659 94.7392 61.7859 95.5592L61.9059 96.4092C59.7159 93.7992 57.1859 89.0092 55.8259 85.9392C55.4959 85.1792 54.6059 84.8392 53.8459 85.1692C53.0859 85.4992 52.7459 86.3892 53.0759 87.1492C53.1359 87.2892 53.2659 87.5892 53.4559 87.9792C45.0059 84.6792 39.3659 77.8392 37.5959 70.4092C35.2159 60.4292 44.0059 48.0592 44.8959 46.8392C46.1059 45.6192 46.3459 42.6792 46.1659 40.8392C46.1659 40.8392 46.1859 40.8292 46.1859 40.8192C46.5859 40.4192 46.7159 39.8192 46.5259 39.2892L44.9859 34.7992C44.8259 34.3292 44.4459 33.9692 43.9659 33.8392L40.7359 32.9492C40.8459 31.5792 41.5659 30.7292 41.5859 30.6892C41.6159 30.6592 41.6459 30.6292 41.6659 30.5892C41.6859 30.5692 43.6759 28.0992 46.5159 27.9292C48.4259 27.8192 50.3659 28.7592 52.3059 30.7192V30.7692ZM39.3459 35.7192L42.3959 36.5592L42.7759 37.6792C40.7359 37.2792 38.7459 37.1392 36.8259 37.1292C37.7859 36.4092 38.7959 35.9392 39.3459 35.7092V35.7192Z" fill="#67787F"/>
</g>
<defs>
<clipPath id="clip0_1218_3694">
<rect width="130" height="130" fill="white"/>
</clipPath>
</defs>
</svg>
