<svg width="104" height="67" viewBox="0 0 104 67" fill="none" xmlns="http://www.w3.org/2000/svg">
<path d="M102.41 27.7316L102.06 27.4675C101.215 26.8245 99.453 25.4875 98.4004 24.8169C97.384 24.1699 96.909 23.1149 96.6387 22.3768C96.1774 21.1145 94.3555 18.7329 92.6097 17.4349C91.0597 16.2839 88.5438 15.9352 87.5787 15.8409C87.5202 15.7954 87.4616 15.7499 87.4006 15.7036L87.0284 15.4158C86.8086 15.2419 86.5302 14.9972 86.2229 14.7274C84.4828 13.2001 83.3531 12.2897 82.2572 12.5417C80.4265 12.9635 80.2018 15.7482 80.1769 16.592C80.1617 17.0764 80.2636 17.5519 80.4136 18.0128C79.491 18.3452 78.1856 18.7793 77.2832 18.9378C76.878 19.0101 76.3197 19.1304 75.6578 19.2718C73.6634 19.7018 70.65 20.3513 68.3019 20.3773L67.0504 20.3903C64.0315 20.4195 60.2737 20.4553 54.279 20.743C48.5091 21.0202 44.8387 21.3721 41.8897 21.6542L40.3197 21.8021C37.4717 22.0647 34.4807 22.9474 31.8414 23.7261L30.6909 24.0642C29.9777 24.2706 29.2934 24.4023 28.5689 24.5405C26.5873 24.9201 24.341 25.3501 20.762 27.4536C17.3139 29.48 15.6051 30.2652 13.7943 31.0975C13.1637 31.3877 12.53 31.6787 11.8207 32.0225L11.5977 32.1306C8.80989 33.4815 3.00708 36.2906 1.95369 41.6707C1.91117 41.8877 1.93042 42.1096 2.00905 42.3161C2.04675 42.4177 2.987 44.8041 6.17846 45.512C7.02485 45.6998 8.00924 45.7827 9.04823 45.7827C11.5954 45.7827 14.4627 45.282 16.3986 44.6C17.687 44.1465 19.4152 43.2223 21.1673 42.2535C20.5014 43.6101 19.9021 44.9918 19.4561 46.0208C19.2659 46.4581 19.1135 46.8133 19.0052 47.045C18.2896 48.5852 18.0665 50.7457 19.0228 51.8974C19.6887 52.698 21.4233 53.1255 22.71 53.1255C23.1906 53.1255 23.611 53.0662 23.887 52.9427C24.5504 52.6492 25.3166 52.0266 25.4763 51.1658C25.5797 50.6074 25.404 50.0482 24.9933 49.6321C24.836 49.4728 24.5849 49.2712 24.3057 49.0533C24.1413 48.9249 23.8861 48.7274 23.6952 48.5559C23.8195 48.3243 23.9704 48.0219 24.1733 47.6155C24.6611 46.6393 26.1421 43.6676 26.8441 43.3434C27.4755 43.1288 30.0491 43.1524 31.9264 43.1711C34.0379 43.1906 35.8632 43.2068 36.7777 43.015C38.1111 42.7346 39.337 42.4046 40.5676 41.4804C40.8757 41.7039 41.1308 41.9014 41.2776 42.0445C41.3891 42.1542 41.8857 42.8394 40.7312 45.5948L40.4921 46.1483C39.9306 47.4301 39.3497 48.7558 40.2266 49.7173C40.8283 50.3765 43.9049 52.4011 45.1027 53.0768C45.3924 53.241 45.617 53.3775 45.8063 53.4937C46.6182 53.9912 47.037 54.2188 48.4539 54.3813C49.2096 54.4691 49.9204 54.5 50.5646 54.5C51.4511 54.5 52.2116 54.4407 52.7909 54.3838C54.4243 54.2245 55.0782 53.4734 54.9786 51.8762C54.9465 51.369 54.7155 50.9122 54.3103 50.5545C53.1005 49.4857 50.717 49.6507 50.6198 49.6588C50.2371 49.6848 50.0623 49.6084 49.0097 49.046C48.6543 48.8558 48.2275 48.6274 47.6964 48.3583C47.0032 48.0072 46.8323 47.8015 46.8131 47.8015H46.8123C46.8179 47.6804 46.9559 47.3415 47.0586 47.0928C47.1204 46.9416 47.1853 46.7831 47.2495 46.614C47.576 45.7549 48.3574 44.838 49.1838 43.8676C49.5095 43.4855 49.8416 43.0954 50.1625 42.6914C50.619 42.1184 51.325 41.1081 51.9259 40.0417C53.4847 40.4262 56.7957 41.1594 59.6942 41.2431C60.0311 41.252 60.3793 41.2569 60.7347 41.2569C61.8788 41.2569 63.0974 41.2105 64.2367 41.1463C64.5335 44.8056 65.1914 47.7277 65.7465 49.316C66.2736 50.8181 67.4008 52.9272 68.1791 53.5531C68.6813 53.9571 69.4956 54.0742 71.3914 54.0742C71.7966 54.0742 72.2514 54.0693 72.7625 54.0603C73.0882 54.0546 73.3802 54.0498 73.6113 54.0498C73.9065 54.0498 74.8051 54.0498 75.3987 53.3987C75.9788 52.7623 75.9154 51.9446 75.86 51.2382C75.706 49.2622 73.0087 49.2655 71.8808 49.2769C71.8696 49.272 71.592 49.146 71.0721 48.1934C70.7488 47.6017 70.7584 47.3034 70.7801 46.5816L70.7833 46.4442C70.7937 46.1004 70.7761 45.2356 70.7512 44.2943C71.0512 44.4374 71.3978 44.5869 71.8391 44.7731L72.1511 44.9039C74.6687 45.963 78.7032 46.2394 80.6528 46.1581C81.8258 46.1126 82.4908 46.5613 83.3261 47.1286C83.4961 47.244 83.6654 47.3595 83.8387 47.47C84.2254 47.7179 84.8103 48.1828 85.4304 48.6762C86.4573 49.4931 87.5187 50.3368 88.3378 50.7383C88.686 50.9098 89.0742 50.9944 89.4898 50.9944C90.0899 50.9944 90.755 50.8172 91.4562 50.4628C92.9701 49.702 93.0896 49.0957 93.1281 48.8981C93.3792 47.6301 90.6508 45.5876 90.3394 45.3583L89.1994 44.5121C86.9187 42.8133 84.8224 41.2609 84.2333 40.9194C83.4271 40.4537 81.8433 40.0416 79.6515 39.4734L78.8829 39.2767C78.2869 39.1215 77.9202 38.963 77.6972 38.8394C78.6222 38.2022 80.6769 36.9496 82.5325 35.8181C83.3781 35.3028 84.2758 34.7557 85.1952 34.19C88.7043 32.0329 89.8748 31.9702 91.0069 31.9084L91.481 31.8792C92.1236 31.8288 93.6855 32.1555 94.9396 32.4172C96.09 32.657 97.0833 32.8651 97.7668 32.9009C99.0064 32.9732 99.8833 32.4522 100.395 31.9515C101.72 31.5995 102.594 30.1381 102.833 29.3821C103.144 28.3929 102.641 27.8987 102.41 27.7313L102.41 27.7316ZM71.868 51.5964C72.777 51.624 73.2295 51.6557 73.4918 51.7175C73.272 51.7183 73.0097 51.7232 72.7232 51.7281C71.9298 51.7419 70.1344 51.7744 69.5423 51.65C69.1845 51.2249 68.3646 49.8147 67.9145 48.5353C67.4083 47.0901 66.809 44.403 66.5306 40.9882C67.1756 40.937 67.738 40.8866 68.16 40.846C68.2218 40.9931 68.2852 41.1394 68.3542 41.2898C68.4015 42.6528 68.5018 45.74 68.4833 46.3748L68.4801 46.5073C68.4544 47.36 68.4296 48.1655 69.0585 49.3181C69.3987 49.9431 70.3012 51.5964 71.868 51.5964ZM99.8018 29.7001C99.403 29.7001 99.0324 29.9098 98.8222 30.2544C98.8198 30.2577 98.5671 30.6112 97.8836 30.5747C97.3749 30.5479 96.3721 30.3382 95.403 30.1366C93.7928 29.8001 92.2726 29.4839 91.3026 29.5579L90.8838 29.5839C89.5336 29.657 88.0037 29.7391 84.0011 32.1994C83.0841 32.7619 82.1888 33.3089 81.3455 33.8226C76.402 36.8356 75.6766 37.325 75.3727 37.8517C75.0782 38.3621 75.0413 38.9758 75.2724 39.5342C75.647 40.4446 76.6403 41.0981 78.3073 41.5329L79.0799 41.7337C80.8657 42.1978 82.5545 42.6343 83.0903 42.9456C83.6134 43.2488 86.3604 45.2938 87.8356 46.3927L88.9877 47.2478C89.4385 47.5786 89.9368 48.0386 90.3242 48.4304C89.9263 48.6125 89.5108 48.7287 89.3375 48.6409C88.7414 48.3483 87.692 47.5127 86.8472 46.8422C86.1805 46.3122 85.5508 45.8123 85.067 45.501C84.9114 45.4019 84.7589 45.297 84.6073 45.1938C83.6638 44.5508 82.4925 43.7535 80.5615 43.8282C78.673 43.9014 75.0925 43.6177 73.0331 42.7513L72.7178 42.6188C71.2304 41.9953 71.2304 41.9953 70.7418 40.9761L70.6046 40.6932C69.8256 39.0838 69.4638 37.7768 69.4638 36.5811C69.4638 35.9382 68.9488 35.4155 68.3134 35.4155C67.6788 35.4155 67.1629 35.9374 67.1629 36.5811C67.1629 37.2265 67.2576 37.8906 67.41 38.575C66.8163 38.6286 66.063 38.6904 65.2342 38.7473H65.231C65.2302 38.7473 65.2286 38.7481 65.2278 38.7481C63.5069 38.8667 61.4556 38.9635 59.7563 38.9123C57.3246 38.8416 54.4837 38.2531 52.8888 37.8751C52.9738 37.5841 53.038 37.3053 53.05 37.0615C53.1142 35.6984 51.5217 34.0158 50.567 33.1331C50.0976 32.6999 49.3708 32.7348 48.9432 33.2087C48.5156 33.6842 48.5485 34.4214 49.0178 34.8555C49.8554 35.6293 50.6833 36.6607 50.7523 36.9492C50.7266 37.4848 49.6933 39.5639 48.3703 41.2255C48.0654 41.6091 47.7494 41.9797 47.4397 42.3415C46.4794 43.4705 45.5704 44.5353 45.1002 45.774L44.9309 46.1966C44.3308 47.6646 44.0123 49.0935 46.6654 50.4379C47.1781 50.698 47.5912 50.9183 47.9338 51.1012C49.0875 51.7189 49.7221 52.0627 50.7876 51.9774C51.2657 51.9424 51.8185 51.9985 52.2276 52.0904C51.3395 52.166 50.1048 52.2196 48.7113 52.0611C47.735 51.9489 47.6218 51.879 46.9953 51.4946C46.7859 51.3661 46.5396 51.2149 46.2203 51.0353C45.0241 50.3607 42.8387 48.8829 42.1143 48.3026C42.201 47.988 42.4304 47.4613 42.5949 47.0883L42.8476 46.4998C43.3009 45.4196 44.676 42.1309 42.8765 40.3647C42.4601 39.9567 41.7918 39.491 40.9446 38.9025C39.3818 37.8141 37.0184 36.1698 36.5417 34.8636C36.3219 34.2589 35.6592 33.9501 35.0647 34.1736C34.4687 34.3963 34.1638 35.066 34.3836 35.67C34.9829 37.3127 36.7816 38.7814 38.5241 40.034C37.863 40.3762 37.161 40.5477 36.3066 40.7282C35.6351 40.8704 33.6759 40.8517 31.9455 40.8355C28.941 40.8078 27.0446 40.8135 26.1146 41.1264C24.6842 41.6101 23.459 43.8721 22.1194 46.5578C21.9027 46.9926 21.6332 47.5331 21.5618 47.6404C21.3019 47.9631 21.1855 48.3687 21.2337 48.7808C21.3299 49.627 22.0816 50.2528 22.7828 50.8015C22.1884 50.8007 21.0419 50.6007 20.786 50.3975C20.6239 50.1561 20.6143 49.049 21.086 48.0331C21.1999 47.7892 21.362 47.4145 21.5626 46.9537C22.3416 45.1565 23.7914 41.8101 25.0259 40.1552C25.0259 40.1544 25.0267 40.1528 25.0267 40.152C25.4439 39.9415 25.8354 39.7521 26.1491 39.6261C26.5077 39.4814 26.9032 39.3595 27.3244 39.2286C29.5466 38.5353 32.9033 37.4892 35.051 32.3326C35.2981 31.7393 35.0237 31.0565 34.438 30.8062C33.8524 30.5567 33.1785 30.8338 32.9314 31.4272C31.2001 35.5815 28.7821 36.3366 26.6472 37.0015C26.165 37.1518 25.7109 37.2949 25.3002 37.4607C24.2179 37.8964 22.6559 38.7661 21.0024 39.6861C19.1163 40.7363 16.979 41.9255 15.6424 42.3953C13.2612 43.2333 9.09036 43.7714 6.66914 43.2317C5.24752 42.9155 4.56564 42.1376 4.29762 41.7312C5.35259 37.7346 10.2136 35.3806 12.5874 34.2289L12.8136 34.1192C13.5084 33.781 14.1269 33.4966 14.7423 33.2137C16.5241 32.3944 18.3676 31.5482 21.9145 29.4626C25.1534 27.5598 27.1059 27.1843 28.9946 26.8233C29.7375 26.6803 30.5069 26.5332 31.3211 26.2974L32.4828 25.9569C35.0219 25.2066 37.8997 24.3581 40.5255 24.1158L42.1043 23.9663C45.0294 23.6867 48.6693 23.3372 54.3854 23.0633C60.3359 22.778 64.0695 22.7414 67.0701 22.7121L68.3249 22.6991C70.9026 22.6698 74.0498 21.992 76.134 21.5417C76.7606 21.4067 77.2901 21.2921 77.6744 21.2247C78.7823 21.0304 80.309 20.5151 81.3135 20.1526C81.3721 20.303 81.4322 20.4541 81.4547 20.5671C81.6889 21.714 82.1783 22.9397 82.1992 22.9908C82.3813 23.4428 82.8113 23.7183 83.2654 23.7183C83.409 23.7183 83.555 23.6907 83.6978 23.6322C84.2867 23.3899 84.5699 22.7104 84.33 22.1138C84.3268 22.1032 83.9 21.036 83.7075 20.0956C83.5927 19.5339 83.3256 18.9568 83.0665 18.4017C82.7809 17.7872 82.4591 17.0906 82.472 16.6541C82.496 15.8617 82.6581 15.2569 82.7953 14.9432C83.328 15.2634 84.2337 16.0608 84.7127 16.4802C85.0553 16.7809 85.3673 17.0532 85.6136 17.2467L86.0116 17.5539C86.7168 18.0936 87.0401 18.3391 87.3826 19.1527C87.6321 19.7436 88.3084 20.02 88.8925 19.7648C89.3699 19.5575 89.6194 19.0633 89.564 18.5667C90.1986 18.7463 90.8139 18.9861 91.2439 19.3064C92.7667 20.4378 94.222 22.4838 94.4754 23.1771C95.0803 24.8328 95.9628 26.0122 97.1702 26.781C98.0398 27.3346 99.5472 28.4684 100.4 29.1138C100.212 29.4048 99.9533 29.6763 99.8009 29.6999L99.8018 29.7001Z" fill="#67787F"/>
</svg>
