<svg width="130" height="130" viewBox="0 0 130 130" fill="none" xmlns="http://www.w3.org/2000/svg">
<g clip-path="url(#clip0_1218_3701)">
<path d="M82.3673 53.2218C82.8973 52.8018 84.5273 51.5118 84.1473 49.8718C83.9173 48.8718 83.0473 48.3218 82.3273 48.1318C77.2473 46.4418 71.7173 48.9718 68.5173 50.7218C59.1073 38.8518 41.6273 31.2618 39.3973 30.6118L38.5573 30.3718C36.1573 29.6718 31.1573 28.2218 29.2473 27.7618C28.2573 27.5218 27.3873 27.6218 26.6873 28.0518C25.5873 28.7218 25.2973 29.9518 25.1173 30.6918C25.0873 30.8318 25.0573 30.9718 25.0173 31.0818C25.0073 31.1218 24.9973 31.1718 24.9873 31.2118C24.9773 31.2618 24.9573 31.3118 24.9573 31.3618C24.7273 32.8918 25.6573 37.0418 28.5073 40.4718C28.2373 40.4618 27.9673 40.5318 27.7173 40.6618C27.1773 40.9618 26.8873 41.5618 26.9673 42.1718C27.7473 47.8218 29.8573 51.0918 32.3173 54.0018C30.4473 54.5818 28.5773 55.3618 27.6473 56.3618C26.9673 57.1018 26.8373 58.0818 27.3173 58.9218C28.5573 61.1318 34.7073 62.3018 38.0473 62.3018C38.4373 62.3018 38.7673 62.2818 39.0673 62.2518C42.1473 66.6518 46.0573 72.1218 52.1273 75.9418C52.4573 82.4518 53.7573 90.4918 57.7673 95.5918C58.0573 95.9618 58.4973 96.1618 58.9473 96.1618C59.1473 96.1618 59.3473 96.1218 59.5373 96.0418C60.1573 95.7718 60.5273 95.1218 60.4373 94.4518C60.0073 91.4318 59.3673 84.9618 59.5473 79.2618C59.9873 79.3918 60.4273 79.5218 60.8773 79.6318C66.7273 81.0418 73.9173 83.9218 79.2073 86.9718C81.8673 88.5018 83.3773 89.6118 84.0873 90.1818C82.8773 107.192 88.3073 111.722 88.9373 112.182C89.1973 112.372 89.5173 112.472 89.8273 112.472C90.0673 112.472 90.3073 112.412 90.5373 112.292C91.0473 112.022 91.3573 111.482 91.3273 110.902C91.0973 105.772 94.5873 99.6118 97.0973 97.6218C98.9873 96.1218 110.077 93.8618 116.627 92.7818C117.267 92.6718 117.767 92.1718 117.867 91.5318C117.967 90.8918 117.647 90.2618 117.067 89.9618C105.757 84.2118 98.5973 84.7018 94.3273 85.0018C92.7773 85.1118 91.5473 85.1918 90.7273 84.9518C88.7473 84.3718 83.3173 75.0218 78.9473 67.5118C78.0073 65.8918 77.0473 64.2518 76.0873 62.6218C77.1473 59.0918 80.3573 54.7918 82.3773 53.2018L82.3673 53.2218ZM111.387 90.6818C105.787 91.7318 97.4273 93.5418 95.2273 95.2918C92.5973 97.3818 89.8473 101.982 88.7773 106.632C87.5873 103.742 86.4173 98.5318 87.1273 89.6718V89.4018C87.1273 89.3618 87.1173 89.3218 87.1073 89.2818C87.0973 89.2218 87.0773 89.1618 87.0573 89.1018C87.0473 89.0618 87.0273 89.0218 87.0173 88.9818C86.9973 88.9218 86.9673 88.8718 86.9373 88.8218C86.9173 88.7818 86.8973 88.7418 86.8673 88.7018C86.8573 88.6918 86.8473 88.6718 86.8373 88.6618C86.3973 88.0818 76.0873 74.4318 67.4073 72.1418C65.1473 71.5518 63.0373 70.7618 61.1173 69.9118C61.0873 69.7118 61.0373 69.5118 60.9273 69.3318C60.3673 68.4018 58.9873 66.2818 57.2573 64.9618C57.3473 64.7218 57.4073 64.4718 57.4273 64.2218C57.4973 63.5118 57.3573 62.1518 55.6473 60.9818C53.2773 59.3518 48.3273 51.6918 45.0573 46.6218C44.0773 45.1118 43.2073 43.7518 42.5173 42.7318C39.7073 38.5718 31.0473 32.7818 28.1573 30.9118C28.1873 30.8118 28.2173 30.7118 28.2573 30.6518C28.3073 30.6518 28.4073 30.6518 28.5373 30.6918C30.3873 31.1418 35.3373 32.5718 37.7173 33.2718L38.5573 33.5218C40.5073 34.0818 59.9473 42.5718 68.0273 55.2118C70.8373 59.6018 73.6273 64.4118 76.3373 69.0618C82.9773 80.4918 86.8873 87.0018 89.8673 87.8718C91.2073 88.2618 92.6673 88.1618 94.5173 88.0418C98.1273 87.7918 103.327 87.4418 111.377 90.7118L111.387 90.6818ZM56.6373 86.2218C54.7073 79.0418 54.9873 70.5518 55.2073 67.1618C55.9373 67.6818 57.0073 68.8018 57.9573 70.2318C56.4073 74.2618 56.3473 80.8618 56.6473 86.2318L56.6373 86.2218ZM34.5273 56.5218C35.3173 57.4018 36.1173 58.3118 36.9173 59.3118C34.7973 59.1318 32.0173 58.4918 30.6473 57.8818C31.5473 57.4118 32.9773 56.9318 34.5273 56.5318V56.5218ZM41.3873 60.3518C41.0473 59.8718 40.7173 59.4018 40.3973 58.9418C39.0573 57.0618 37.6973 55.5518 36.3773 54.0918C33.9773 51.4318 31.8373 49.0518 30.6373 45.0818C30.9573 45.2118 31.2573 45.3318 31.5673 45.4418C32.6873 45.8518 33.8473 46.2818 36.1273 47.9018C36.7273 48.3218 37.5373 48.2518 38.0573 47.7418C38.5773 47.2218 38.6473 46.4118 38.2173 45.8118C38.1173 45.6718 35.7773 42.3818 33.3773 40.8618C30.8473 39.2518 29.3773 36.7718 28.5973 34.8118C32.1973 37.2418 38.0173 41.4418 40.0273 44.4118C40.7073 45.4218 41.5673 46.7618 42.5373 48.2518C47.2173 55.4918 51.3073 61.6418 53.9473 63.4618C54.2073 63.6418 54.3373 63.7818 54.3973 63.8718C54.0073 63.8818 53.6073 63.9618 53.2073 64.1418C52.9773 64.2418 52.7873 64.4018 52.6473 64.5918C52.1673 64.5618 51.5973 64.4118 51.0173 63.9618C50.3673 63.4618 49.4373 63.5818 48.9273 64.2218C48.4173 64.8618 48.5173 65.7918 49.1473 66.3118C49.2573 66.4018 50.3173 67.2618 52.1073 68.4418C52.0573 69.5218 52.0173 70.8318 52.0173 72.3018C47.3373 68.8618 44.1373 64.3118 41.3673 60.3618L41.3873 60.3518ZM60.2873 72.8318C62.2273 73.6718 64.3573 74.4418 66.6373 75.0418C70.2473 75.9918 74.3773 79.4318 77.7473 82.8118C72.6873 80.2418 66.6473 77.9518 61.5773 76.7318C60.9473 76.5818 60.3373 76.4018 59.7373 76.2218C59.8573 74.9818 60.0373 73.8418 60.2873 72.8318ZM70.5673 53.5918C70.4773 53.4518 70.3873 53.3218 70.2973 53.1918C72.9473 51.7818 77.0173 50.0018 80.6173 50.7918C80.5773 50.8218 80.5373 50.8518 80.4973 50.8818C78.6673 52.3318 75.8473 55.7818 74.1473 59.4018C72.9573 57.4218 71.7673 55.4718 70.5673 53.5818V53.5918Z" fill="#67787F"/>
<path d="M56.3167 47.4319C56.8267 46.7819 56.7167 45.8419 56.0667 45.3219C55.4167 44.8119 54.4767 44.9219 53.9567 45.5719C53.3367 46.3619 51.7467 47.8019 50.8167 47.7119C49.9867 47.6319 49.2567 48.2419 49.1867 49.0719C49.1067 49.8919 49.7167 50.6219 50.5467 50.7019C50.6667 50.7019 50.7767 50.7219 50.8867 50.7219C53.6367 50.7219 56.0367 47.7819 56.3167 47.4319Z" fill="#67787F"/>
<path d="M53.1477 52.8516C53.0677 53.6816 53.6777 54.4015 54.5077 54.4815C54.6277 54.4815 54.7377 54.5016 54.8577 54.5016C57.6077 54.5016 60.0077 51.5616 60.2777 51.2116C60.7877 50.5616 60.6777 49.6216 60.0277 49.1116C59.3777 48.5916 58.4377 48.7116 57.9177 49.3516C57.1877 50.2616 55.6777 51.5816 54.7777 51.4916C53.9477 51.4116 53.2177 52.0216 53.1477 52.8516Z" fill="#67787F"/>
<path d="M57.0071 57.3717C56.9271 58.1917 57.5371 58.9217 58.3671 59.0017C58.4871 59.0017 58.5971 59.0217 58.7071 59.0217C61.4571 59.0217 63.8571 56.0817 64.1371 55.7317C64.6471 55.0817 64.5371 54.1417 63.8871 53.6217C63.2371 53.1117 62.2971 53.2217 61.7771 53.8717C61.1571 54.6617 59.5871 56.1117 58.6371 56.0117C57.8171 55.9417 57.0771 56.5417 57.0071 57.3717Z" fill="#67787F"/>
</g>
<defs>
<clipPath id="clip0_1218_3701">
<rect width="130" height="130" fill="white"/>
</clipPath>
</defs>
</svg>
