<svg width="104" height="67" viewBox="0 0 104 67" fill="none" xmlns="http://www.w3.org/2000/svg">
<path d="M91.3548 16.4997C89.3259 12.8788 84.0369 6.64914 71.4043 5.61427C61.1514 4.77804 51.164 8.75562 47.4064 10.2543C47.0312 10.4047 46.7198 10.5289 46.4777 10.6193C44.7396 11.2754 38.6084 14.6542 34.4031 17.0104C33.9799 16.2301 33.1225 14.7694 32.3734 14.2672C32.1169 14.094 31.3459 13.5793 25.5528 14.4707C24.6591 14.0085 23.1864 13.6566 22.7002 13.5476C22.1741 13.4324 21.6446 13.7642 21.5266 14.2989C21.4093 14.8323 21.7433 15.3608 22.2735 15.4788C23.2221 15.6906 24.4781 16.0776 24.7653 16.2943C24.9773 16.4544 25.2455 16.522 25.5075 16.4799C27.8211 16.1149 30.647 15.8265 31.3418 15.9611C31.6244 16.2156 32.1978 17.0781 32.6855 17.9764C31.7026 18.5311 30.9378 18.9644 30.5496 19.1859C19.2783 18.1213 14.5161 23.0179 14.3528 23.1925C14.1999 23.3381 10.6366 26.799 12.4398 30.2252C14.2348 33.6357 19.7742 34.4835 22.9169 34.6858C27.3909 34.9742 31.9461 33.6377 35.0661 31.1098C35.4893 30.7669 35.5559 30.1445 35.215 29.7188C34.8748 29.2938 34.2568 29.2241 33.8329 29.5691C31.127 31.7611 26.9965 32.9671 23.0416 32.7111C21.3255 32.6007 15.6133 32.0288 14.1779 29.3001C13.0736 27.2005 15.6814 24.6512 15.7431 24.5912C15.752 24.5815 15.9701 24.3649 16.3899 24.0502C16.6588 24.4138 17.0854 24.6519 17.5703 24.6519C18.3852 24.6519 19.045 23.9874 19.045 23.1685C19.045 22.9704 19.0045 22.7828 18.9353 22.6096C21.3256 21.5678 25.1338 20.6135 30.662 21.1848C30.863 21.2035 31.0701 21.1634 31.2478 21.062C35.8735 18.4235 45.1524 13.2338 47.1689 12.4727C47.4186 12.3782 47.7409 12.2499 48.1312 12.0939C51.7726 10.6409 61.4458 6.78201 71.2441 7.58638C82.9709 8.54818 87.8043 14.1927 89.6424 17.4721C91.9614 21.6119 93.6555 33.3502 83.5839 41.2658C77.0906 46.3688 71.0374 51.818 67.0503 55.5065C68.0346 54.0707 69.2513 52.539 70.6898 51.1715C74.6075 47.445 83.8501 38.3355 85.0504 34.2476C85.2191 33.6729 85.3899 33.0402 85.549 32.3695C85.6012 32.3778 85.6492 32.4006 85.7047 32.4006C86.248 32.4006 86.6883 31.9576 86.6883 31.4112C86.6883 30.9489 86.366 30.5777 85.94 30.4694C86.6993 26.1247 86.606 20.9376 82.7265 18.6091C79.7016 16.7946 77.4836 16.858 76.1488 17.2333C75.7743 16.6903 75.2928 16.0715 75.1062 15.8348C74.7694 15.4077 74.1487 15.3353 73.7241 15.6754C73.2988 16.0156 73.2275 16.6372 73.5657 17.0657C73.8338 17.4044 74.1288 17.7956 74.3695 18.1296C73.7989 18.567 73.3222 19.1107 72.9936 19.742C72.7748 20.1629 72.4086 20.6459 72.0217 21.1564C70.9702 22.5467 69.6746 24.2578 69.5346 26.7582C68.4043 27.798 65.4179 30.6108 64.7196 31.9377C64.4652 32.42 64.6483 33.0188 65.1284 33.2748C65.6092 33.5315 66.2039 33.3452 66.4577 32.8636C66.9351 31.9563 69.5978 29.3635 71.1637 27.9429C71.3701 27.7552 71.4881 27.4882 71.4881 27.2081C71.4881 25.1279 72.6027 23.6555 73.5862 22.3555C74.0252 21.776 74.4388 21.2288 74.7344 20.661C74.9128 20.3188 75.4587 19.4853 76.6673 19.141C78.0494 18.7505 79.793 19.1541 81.7176 20.3091C85.8412 22.7833 84.1032 30.4888 83.1635 33.6866C82.2938 36.6492 75.4506 43.9188 69.3379 49.733C64.7308 54.1143 62.3212 59.8857 62.2218 60.1285C62.0483 60.5515 62.1841 61.0393 62.5531 61.3077C62.7259 61.4339 62.9282 61.496 63.1299 61.496C63.3583 61.496 63.5867 61.416 63.7705 61.258C63.9921 61.0662 64.5175 60.5729 65.2967 59.8422C68.5979 56.7408 76.3279 49.4769 84.7942 42.8231C95.8639 34.1256 93.9345 21.1048 91.3554 16.5001L91.3548 16.4997Z" fill="#67787F"/>
<path d="M64.4304 30.6834C64.3481 30.1432 63.8495 29.7761 63.309 29.8568C62.0867 30.0459 60.1649 31.3278 59.7918 31.5824C59.3432 31.8894 59.2259 32.5049 59.5318 32.9561C59.7211 33.2383 60.0304 33.3901 60.3453 33.3901C60.5352 33.3901 60.7273 33.3349 60.8974 33.219C61.6711 32.6891 63.025 31.9025 63.6082 31.8122C64.1452 31.7287 64.5127 31.2236 64.4304 30.6834Z" fill="#67787F"/>
<path d="M60.3248 29.8158C61.7241 29.3494 64.2565 28.6091 65.0967 28.6091C65.3628 28.6091 65.6159 28.5007 65.8018 28.3089C65.987 28.1178 66.0871 27.8591 66.0802 27.5914C66.0205 25.4911 66.2503 21.7206 67.1173 20.5414C68.4685 18.702 70.8101 16.0181 70.8335 15.9911C71.1915 15.5806 71.1524 14.9555 70.7443 14.5953C70.3355 14.2345 69.7141 14.2738 69.3567 14.685C69.2587 14.7975 66.9362 17.4586 65.5356 19.3657C64.6782 20.531 64.3339 22.7375 64.196 24.5921L61.8866 24.6736C61.3441 24.6929 60.9195 25.151 60.9387 25.6968C60.9573 26.2315 61.3928 26.6517 61.9202 26.6517C61.9319 26.6517 61.9443 26.6517 61.9559 26.651L64.109 26.5751C64.1083 26.6261 64.1063 26.691 64.1063 26.7393C62.4471 27.0332 60.0327 27.8294 59.7076 27.9377C59.1918 28.1095 58.9126 28.6698 59.0834 29.1879C59.2206 29.6026 59.604 29.8662 60.0169 29.8662C60.1184 29.8662 60.2219 29.8496 60.3248 29.8158Z" fill="#67787F"/>
<path d="M63.377 21.3341C63.818 21.0153 63.9188 20.3971 63.6006 19.9535C63.2837 19.5098 62.6698 19.4077 62.2281 19.7272C60.1614 21.2216 46.6041 26.633 41.5541 28.5918C41.2606 28.7057 41.0383 28.9547 40.9567 29.2611C40.8758 29.5667 40.9464 29.8938 41.1446 30.1394C42.8566 32.2568 44.7579 34.9768 44.8568 35.6108C44.8273 36.3043 43.2868 39.2249 42.6289 40.4722C42.168 41.3457 41.9231 41.8142 41.8134 42.0874C41.467 42.9595 41.0555 44.5284 41.0383 44.5946C40.8998 45.1231 41.2139 45.6634 41.7393 45.8027C41.823 45.8248 41.9073 45.8352 41.9897 45.8352C42.4259 45.8352 42.8244 45.5412 42.9396 45.0976C42.9437 45.0824 43.3375 43.5804 43.6399 42.8221C43.7147 42.6344 44.046 42.0059 44.3656 41.398C45.9953 38.3084 46.8232 36.5656 46.8232 35.6134C46.8232 34.4605 45.0104 31.885 43.5096 29.9489C47.7224 28.2993 61.0658 23.0053 63.3776 21.3342L63.377 21.3341Z" fill="#67787F"/>
<path d="M40.5091 41.4323C40.0386 41.1612 39.4364 41.3261 39.1675 41.8001C38.6641 42.6866 36.6399 45.2139 35.9026 46.113C35.5569 46.5339 35.6166 47.1576 36.035 47.5053C36.2188 47.6578 36.4403 47.7316 36.6605 47.7316C36.9445 47.7316 37.225 47.6088 37.4198 47.3714C37.7024 47.0279 40.1969 43.9749 40.8747 42.7826C41.145 42.3086 40.9803 41.7042 40.5091 41.4323Z" fill="#67787F"/>
<path d="M37.613 41.4367C37.279 41.0103 36.6596 40.9386 36.2323 41.2718C36.0334 41.4277 35.0697 41.9059 34.2932 42.2543C33.798 42.4772 33.5751 43.0622 33.7966 43.5611C33.9599 43.9288 34.3193 44.1469 34.6952 44.1469C34.8289 44.1469 34.9647 44.1186 35.0957 44.0606C35.6534 43.8095 37.0012 43.1857 37.46 42.8173C37.8819 42.4778 37.947 41.8631 37.613 41.4367Z" fill="#67787F"/>
<path d="M36.1711 40.2296H38.6294C38.9675 40.2296 39.2824 40.055 39.4621 39.7666C40.4806 38.1348 41.8174 36.192 42.1837 35.9C42.4245 35.7117 42.5651 35.4212 42.563 35.1135C42.561 34.8064 42.4183 34.5173 42.1741 34.3317C40.3283 32.9215 38.1842 31.0434 37.9607 30.5881C37.8701 30.0492 37.3646 29.6856 36.8283 29.7753C36.2933 29.865 35.9311 30.3749 36.021 30.9137C36.1581 31.7417 37.545 33.2002 40.1452 35.2549C39.4394 36.1636 38.5944 37.4566 38.0896 38.2514H36.1711C35.6278 38.2514 35.1875 38.6944 35.1875 39.2408C35.1882 39.7866 35.6279 40.2296 36.1711 40.2296Z" fill="#67787F"/>
<path d="M19.7813 18.7997C19.8149 18.7997 19.8486 18.7983 19.8828 18.7941C21.256 18.6527 22.9673 18.5423 23.2814 18.5968C23.8068 18.7479 24.348 18.4436 24.4982 17.9179C24.647 17.3928 24.3445 16.845 23.8232 16.6953C23.1943 16.5138 21.2257 16.6677 19.6818 16.8271C19.142 16.8823 18.7496 17.3687 18.8038 17.9117C18.856 18.4209 19.2834 18.7997 19.7813 18.7997Z" fill="#67787F"/>
<path d="M24.2723 29.4922C24.2723 30.3119 23.6118 30.9756 22.7969 30.9756C21.9828 30.9756 21.3223 30.3119 21.3223 29.4922C21.3223 28.6725 21.9828 28.0088 22.7969 28.0088C23.6118 28.0088 24.2723 28.6725 24.2723 29.4922Z" fill="#67787F"/>
<path d="M33.1227 25.1652C33.1227 25.7116 32.6824 26.1546 32.1398 26.1546C31.5966 26.1546 31.1562 25.7116 31.1562 25.1652C31.1562 24.6187 31.5966 24.1758 32.1398 24.1758C32.6824 24.1758 33.1227 24.6187 33.1227 25.1652Z" fill="#67787F"/>
<path d="M39.6364 24.3C39.6364 24.8457 39.1961 25.2887 38.6528 25.2887C38.1103 25.2887 37.6699 24.8457 37.6699 24.3C37.6699 23.7535 38.1103 23.3105 38.6528 23.3105C39.1961 23.3105 39.6364 23.7535 39.6364 24.3Z" fill="#67787F"/>
<path d="M37.4001 21.8908C37.4001 22.4372 36.9604 22.8802 36.4172 22.8802C35.8739 22.8802 35.4336 22.4372 35.4336 21.8908C35.4336 21.3443 35.8739 20.9014 36.4172 20.9014C36.9604 20.9014 37.4001 21.3443 37.4001 21.8908Z" fill="#67787F"/>
<path d="M28.3031 23.3745C28.3031 23.9209 27.8628 24.3639 27.3195 24.3639C26.7763 24.3639 26.3359 23.9209 26.3359 23.3745C26.3359 22.8287 26.7763 22.3857 27.3195 22.3857C27.8628 22.3857 28.3031 22.8287 28.3031 23.3745Z" fill="#67787F"/>
<path d="M42.07 19.6645C42.07 20.2109 41.6297 20.6539 41.0864 20.6539C40.5439 20.6539 40.1035 20.2109 40.1035 19.6645C40.1035 19.1187 40.5439 18.6758 41.0864 18.6758C41.6297 18.6758 42.07 19.1187 42.07 19.6645Z" fill="#67787F"/>
<path d="M45.7575 17.5626C45.7575 18.1091 45.3172 18.552 44.7739 18.552C44.2314 18.552 43.791 18.1091 43.791 17.5626C43.791 17.0162 44.2314 16.5732 44.7739 16.5732C45.3172 16.5732 45.7575 17.0162 45.7575 17.5626Z" fill="#67787F"/>
<path d="M50.5505 18.9233C50.5505 19.4697 50.1101 19.9127 49.5669 19.9127C49.0236 19.9127 48.584 19.4697 48.584 18.9233C48.584 18.3768 49.0236 17.9346 49.5669 17.9346C50.1101 17.9346 50.5505 18.3768 50.5505 18.9233Z" fill="#67787F"/>
<path d="M52.6403 15.3373C52.6403 15.8838 52.2 16.3268 51.6574 16.3268C51.1142 16.3268 50.6738 15.8838 50.6738 15.3373C50.6738 14.7916 51.1142 14.3486 51.6574 14.3486C52.1999 14.3486 52.6403 14.7916 52.6403 15.3373Z" fill="#67787F"/>
<path d="M57.8845 18.3878C57.8845 18.9336 57.4441 19.3766 56.9009 19.3766C56.3583 19.3766 55.918 18.9336 55.918 18.3878C55.918 17.8414 56.3583 17.3984 56.9009 17.3984C57.4441 17.3984 57.8845 17.8414 57.8845 18.3878Z" fill="#67787F"/>
<path d="M57.3942 13.7709C57.3942 14.3174 56.9539 14.7603 56.4113 14.7603C55.8681 14.7603 55.4277 14.3174 55.4277 13.7709C55.4277 13.2252 55.8681 12.7822 56.4113 12.7822C56.9539 12.7822 57.3942 13.2252 57.3942 13.7709Z" fill="#67787F"/>
<path d="M61.8591 11.381C61.8591 11.9275 61.4187 12.3704 60.8762 12.3704C60.3329 12.3704 59.8926 11.9275 59.8926 11.381C59.8926 10.8346 60.3329 10.3916 60.8762 10.3916C61.4187 10.3916 61.8591 10.8346 61.8591 11.381Z" fill="#67787F"/>
<path d="M64.154 14.8429C64.154 15.3887 63.7136 15.8316 63.1711 15.8316C62.6278 15.8316 62.1875 15.3887 62.1875 14.8429C62.1875 14.2965 62.6278 13.8535 63.1711 13.8535C63.7136 13.8535 64.154 14.2965 64.154 14.8429Z" fill="#67787F"/>
<path d="M67.6371 11.7521C67.6371 12.2978 67.1968 12.7408 66.6535 12.7408C66.1103 12.7408 65.6699 12.2979 65.6699 11.7521C65.6699 11.2056 66.1103 10.7627 66.6535 10.7627C67.1968 10.7627 67.6371 11.2056 67.6371 11.7521Z" fill="#67787F"/>
<path d="M74.027 10.268C74.027 10.8145 73.5867 11.2574 73.0434 11.2574C72.5009 11.2574 72.0605 10.8145 72.0605 10.268C72.0605 9.72156 72.5009 9.2793 73.0434 9.2793C73.5867 9.2793 74.027 9.72156 74.027 10.268Z" fill="#67787F"/>
<path d="M78.3298 12.4933C78.3298 13.0398 77.8894 13.482 77.3462 13.482C76.8036 13.482 76.3633 13.0398 76.3633 12.4933C76.3633 11.9469 76.8036 11.5039 77.3462 11.5039C77.8894 11.5039 78.3298 11.9469 78.3298 12.4933Z" fill="#67787F"/>
<path d="M83.6156 13.4829C83.6156 14.0293 83.1753 14.4723 82.632 14.4723C82.0888 14.4723 81.6484 14.0293 81.6484 13.4829C81.6484 12.9371 82.0888 12.4941 82.632 12.4941C83.1753 12.4941 83.6156 12.9371 83.6156 13.4829Z" fill="#67787F"/>
<path d="M86.9333 17.4396C86.9333 17.9861 86.4929 18.4283 85.9497 18.4283C85.4072 18.4283 84.9668 17.9861 84.9668 17.4396C84.9668 16.8931 85.4071 16.4502 85.9497 16.4502C86.4929 16.4502 86.9333 16.8931 86.9333 17.4396Z" fill="#67787F"/>
<path d="M89.5153 23.0031C89.5153 23.5495 89.075 23.9918 88.5324 23.9918C87.9892 23.9918 87.5488 23.5495 87.5488 23.0031C87.5488 22.4566 87.9892 22.0137 88.5324 22.0137C89.075 22.0137 89.5153 22.4566 89.5153 23.0031Z" fill="#67787F"/>
<path d="M90.6208 28.5675C90.6208 29.114 90.1804 29.5562 89.6372 29.5562C89.0947 29.5562 88.6543 29.114 88.6543 28.5675C88.6543 28.0211 89.0946 27.5781 89.6372 27.5781C90.1804 27.5781 90.6208 28.0211 90.6208 28.5675Z" fill="#67787F"/>
</svg>
