<svg width="130" height="130" viewBox="0 0 130 130" fill="none" xmlns="http://www.w3.org/2000/svg">
<g clip-path="url(#clip0_1218_3710)">
<path d="M103.171 57.021C101.111 55.481 99.6806 55.451 96.8206 55.391C96.0906 55.371 95.2506 55.361 94.2406 55.311C91.9106 55.211 89.9807 55.711 88.5107 56.321C87.0907 54.791 84.3906 52.011 81.4706 51.691C79.6607 51.491 72.5806 46.181 70.5606 43.761C68.4906 41.271 62.3806 36.541 57.3006 33.931C52.3406 31.381 46.6606 35.081 42.9007 37.531C42.2707 37.941 41.6906 38.321 41.1706 38.631C38.0706 40.491 36.5106 44.361 35.2606 47.471C34.9006 48.361 34.5706 49.191 34.2506 49.831C33.8406 50.651 33.5006 51.541 33.2006 52.411C32.0506 52.611 31.0106 52.911 30.3106 53.361C28.9606 53.941 25.1906 55.291 22.5906 55.201C21.1706 55.161 20.0106 54.101 19.7206 53.111C19.5706 52.591 19.6306 52.111 19.9106 51.671C20.2806 51.281 20.6106 50.971 20.8506 50.771C21.4706 50.261 21.5806 49.351 21.0906 48.711C20.6106 48.071 19.7106 47.921 19.0406 48.381C18.4606 48.781 17.9806 49.231 17.6106 49.731C16.2806 51.161 14.4606 53.621 14.5006 56.371C14.5206 57.701 15.0006 59.651 17.2106 61.381C19.4206 63.111 21.9506 63.681 24.3206 63.681C26.2606 63.681 28.1006 63.301 29.5806 62.861C29.7006 63.611 29.9206 64.241 30.1306 64.821C30.3106 65.311 30.4806 65.771 30.5806 66.301C30.8206 67.601 31.2706 68.741 31.6706 69.751C31.8306 70.171 31.9906 70.571 32.1206 70.941C32.2206 71.271 32.2106 72.501 32.2006 73.311C32.1906 75.771 32.2306 77.461 32.9007 78.551C33.8606 80.111 35.0306 81.661 37.1406 82.451C37.6606 82.651 38.2306 82.741 38.8106 82.741C39.5306 82.741 40.2806 82.591 40.9806 82.291C41.2506 82.171 41.5007 82.031 41.7407 81.881C42.0606 84.901 44.5006 88.351 44.7906 88.761C45.0707 89.151 45.5306 89.381 46.0106 89.381C46.0806 89.381 46.1606 89.381 46.2306 89.361C49.6906 88.841 50.6507 87.801 50.9506 87.111C51.5206 86.831 52.9106 86.441 53.6206 86.241C55.3606 85.751 56.0107 85.571 56.4007 84.871C56.6007 84.521 56.6507 84.071 56.5406 83.681C56.5307 83.641 54.6706 79.141 53.3006 78.451C52.8806 78.241 52.4206 78.211 52.0006 78.371C51.8006 78.451 51.0506 78.741 50.2806 79.041C50.2606 78.961 50.2407 78.881 50.2206 78.811C50.2107 78.531 50.2206 78.011 50.2206 77.431C51.2107 77.261 52.7006 76.891 54.9506 76.181C55.8606 76.641 56.7806 77.141 57.6806 77.651C58.2306 79.241 58.6906 80.881 58.6906 82.141C58.6906 85.821 61.0107 90.411 61.1106 90.601C61.3706 91.121 61.9007 91.421 62.4506 91.421C62.6406 91.421 62.8406 91.381 63.0306 91.301C66.8906 89.681 67.9806 88.411 68.3106 87.661C68.3706 87.851 68.4206 88.041 68.4606 88.221C69.2206 91.681 73.5307 97.331 75.9706 97.331C76.9207 97.331 77.9206 96.891 78.8906 96.471C79.0507 96.401 79.2406 96.321 79.4306 96.241C79.8606 97.441 80.4506 99.831 80.6106 101.191C80.7006 101.981 81.1806 102.681 82.0206 103.261C83.9506 104.601 88.3106 105.431 89.5606 105.121C90.0506 105.001 90.4507 104.661 90.6607 104.201C90.9207 103.651 91.3506 102.721 88.2106 96.341C88.0906 96.091 87.9007 95.891 87.6706 95.741C87.1406 95.401 86.7106 95.191 86.3606 95.061C86.2106 94.651 86.0306 94.061 85.9706 93.821C85.1406 89.901 83.8107 87.711 81.9107 87.151C81.5907 87.061 81.2906 87.021 81.0006 87.011C80.9206 86.671 80.8106 86.291 80.6706 85.871C82.3606 85.371 84.1907 84.471 85.2906 83.891C86.0207 84.411 87.1306 85.241 87.8506 85.961C88.7607 86.881 91.8107 94.191 92.0807 96.121C92.2607 97.361 92.9706 98.091 93.4407 98.571C93.9907 99.131 94.1806 99.321 93.8206 100.571C93.1106 103.021 94.1506 104.491 94.8406 105.151C95.8206 106.081 97.1606 106.471 98.3806 106.471C98.9606 106.471 99.5107 106.381 99.9807 106.221C102.481 105.361 102.981 102.481 102.181 100.101C101.761 98.841 100.851 94.951 100.851 93.801C100.851 92.151 99.5206 85.771 98.8106 83.361C98.0406 80.731 97.5807 76.971 97.4606 72.181C97.4606 71.951 97.4206 71.711 97.3906 71.481C97.4206 71.601 97.4407 71.721 97.4807 71.821C98.1106 73.941 100.191 74.901 100.431 75.011C100.621 75.091 100.831 75.141 101.031 75.141C101.361 75.141 101.691 75.031 101.961 74.821C102.391 74.481 102.611 73.931 102.511 73.381C102.411 72.831 102.401 72.741 103.611 71.991C105.161 71.031 107.501 69.571 107.501 65.071C107.501 62.031 105.921 59.091 103.171 57.031V57.021ZM102.021 69.431C101.491 69.761 100.831 70.171 100.321 70.771C100.271 70.341 100.431 69.821 100.821 69.231C102.171 67.161 102.671 65.321 102.281 63.781C101.991 62.631 101.241 61.701 100.101 61.071C99.3506 60.661 97.9107 60.141 96.3307 60.141C95.7206 60.141 95.0907 60.221 94.4706 60.411C93.8007 60.621 93.1907 60.941 92.6507 61.361C91.9407 60.381 91.2506 59.501 90.6306 58.751C91.6106 58.461 92.7707 58.261 94.1106 58.311C95.1507 58.351 96.0207 58.371 96.7607 58.391C99.4507 58.451 100.091 58.461 101.381 59.421C103.371 60.911 104.511 62.971 104.511 65.061C104.511 67.891 103.361 68.601 102.031 69.431H102.021ZM99.0006 103.391C98.4306 103.591 97.4207 103.471 96.9107 102.981C96.7807 102.861 96.3906 102.481 96.7006 101.421C97.4906 98.711 96.5807 97.491 95.5807 96.481C95.1907 96.081 95.0807 95.951 95.0507 95.711C94.7607 93.701 91.5907 85.481 89.9706 83.861C88.6106 82.501 86.3106 80.961 86.2206 80.901C85.9706 80.731 85.6806 80.651 85.3906 80.651C85.1306 80.651 84.8807 80.721 84.6507 80.851C82.9007 81.851 79.8807 83.251 78.6207 83.251C78.1107 83.251 77.6406 83.511 77.3606 83.931C77.0807 84.361 77.0406 84.891 77.2506 85.361C77.7506 86.481 78.1706 87.831 78.2006 88.391C77.8506 88.941 77.8907 89.671 78.3307 90.181C78.8506 90.771 79.7307 90.871 80.3606 90.401C80.4306 90.351 80.5107 90.291 80.6006 90.201C80.7206 90.121 80.9206 90.011 81.0706 90.051C81.1207 90.061 82.1907 90.451 83.0406 94.461C83.2106 95.261 83.7106 97.191 84.6507 97.731C84.8707 97.861 85.1407 97.931 85.4107 97.941C85.4907 97.971 85.6006 98.031 85.7106 98.091C86.3606 99.451 87.0306 100.971 87.4407 102.061C85.9907 101.791 84.0706 101.231 83.5706 100.711C83.4206 99.681 82.5406 94.091 80.8707 93.251C79.9207 92.771 78.8906 93.231 77.6907 93.751C77.2206 93.951 76.4806 94.281 76.1006 94.351C75.0406 93.811 71.9807 90.251 71.4007 87.611C71.3106 87.191 71.1806 86.761 71.0306 86.331C71.1606 86.281 71.2706 86.241 71.3806 86.201C73.3506 85.461 74.7806 84.931 74.3406 83.391C74.0006 82.211 70.0707 78.901 69.0507 78.391C68.8407 78.291 68.2206 77.971 67.5006 78.241C67.3506 78.301 67.0406 78.411 66.1507 79.151C66.0107 79.051 65.8706 78.971 65.7406 78.911C65.7906 78.401 65.8706 77.701 65.9606 76.971C67.4206 76.801 69.9706 76.261 74.6406 74.951C75.2506 74.781 75.6907 74.241 75.7307 73.611C75.7307 73.591 75.8706 71.621 76.3606 67.991C76.9306 63.661 72.0006 58.441 71.4306 57.861C70.8506 57.271 69.9106 57.251 69.3106 57.831C68.7206 58.411 68.7006 59.361 69.2806 59.951C71.0206 61.741 73.6706 65.411 73.3806 67.601C73.0906 69.801 72.9207 71.391 72.8307 72.341C69.5807 73.221 66.0107 74.051 65.0807 74.051C64.7307 73.941 64.3507 73.961 64.0107 74.121C63.5507 74.331 63.2206 74.771 63.1507 75.271C62.6106 79.121 62.4906 80.211 63.0306 80.801C63.1706 81.181 63.4306 81.951 63.6206 82.581C63.7706 83.081 64.1706 83.471 64.6706 83.601C65.1806 83.731 65.7106 83.601 66.0906 83.231C66.7706 82.571 67.6106 81.821 68.1507 81.361C68.7607 81.811 69.6907 82.621 70.4407 83.331C70.4007 83.351 70.3506 83.361 70.3106 83.381C67.6006 84.391 65.8806 85.101 65.5406 86.471C65.2407 86.801 64.2806 87.391 63.1806 87.941C62.5606 86.481 61.6806 84.071 61.6806 82.151C61.6806 79.621 60.4706 76.511 59.5106 74.011C59.1106 72.981 58.7306 72.001 58.6206 71.481C58.5606 71.211 58.5006 70.951 58.4406 70.721C58.3506 70.361 58.2306 69.881 58.2206 69.801C58.2206 69.801 58.3306 69.651 58.8206 69.411C60.1006 68.771 63.8006 68.081 65.8406 67.791C66.6606 67.671 67.2307 66.921 67.1207 66.101C67.0107 65.281 66.2506 64.711 65.4306 64.821C64.8406 64.901 59.6207 65.661 57.4907 66.731C54.7107 68.121 55.1707 69.971 55.5406 71.451C55.5906 71.661 55.6506 71.891 55.7106 72.131C55.7906 72.491 55.9306 72.921 56.1006 73.401C54.1206 72.421 52.1707 71.641 50.5906 71.411C49.6406 71.271 48.6906 71.231 47.7806 71.251C49.1506 69.401 51.9706 65.171 51.8706 61.851C51.8406 60.661 51.5706 59.681 51.2206 58.861C53.9907 58.361 58.1906 56.841 60.0206 52.301C61.1806 49.431 61.0807 47.141 59.7407 45.501C57.1106 42.291 50.8206 43.361 50.1106 43.491C49.3507 43.631 48.8206 44.331 48.8906 45.101C48.9606 45.871 49.6106 46.461 50.3806 46.461C51.0506 46.461 52.4506 47.001 52.6806 47.551C52.7806 47.801 52.5006 48.321 51.9506 48.891C51.3406 49.521 48.5107 50.411 45.9506 50.941C45.2606 50.591 43.7006 50.501 38.8406 52.021C38.2906 52.021 37.4706 52.021 36.5506 52.061C36.6806 51.751 36.8106 51.441 36.9506 51.161C37.3207 50.421 37.6807 49.531 38.0606 48.581C39.1406 45.891 40.4906 42.541 42.7306 41.191C43.2806 40.861 43.8906 40.461 44.5506 40.031C47.9206 37.831 52.5206 34.831 55.9406 36.581C60.5506 38.951 66.4506 43.491 68.2607 45.661C69.9607 47.701 77.8806 54.291 81.1406 54.651C83.0906 54.871 85.5706 57.551 86.5507 58.601C89.4407 61.721 94.3707 68.111 94.4706 72.241C94.6006 77.291 95.0907 81.321 95.9407 84.191C96.6607 86.621 97.8506 92.631 97.8506 93.781C97.8506 95.451 98.9106 99.741 99.3406 101.031C99.4706 101.431 99.8307 103.091 99.0006 103.371V103.391ZM49.1706 74.561C48.8206 74.461 48.4306 74.501 48.0906 74.681C47.6206 74.931 47.3106 75.411 47.2806 75.941C47.1806 78.051 47.1507 79.121 47.3406 79.761C47.3406 80.051 47.3206 80.621 47.2806 81.131C47.2406 81.641 47.4706 82.141 47.8806 82.451C48.2906 82.761 48.8406 82.831 49.3206 82.641C49.3206 82.641 50.9907 81.981 52.1106 81.551C52.4007 82.031 52.7606 82.701 53.0706 83.291C52.9806 83.321 52.8907 83.341 52.8106 83.361C50.4706 84.011 48.7106 84.511 48.2306 85.741C47.9406 85.891 47.3506 86.081 46.7106 86.231C45.9006 84.941 44.7106 82.731 44.7106 81.251C44.7106 80.161 44.5506 78.951 44.3206 77.751C44.4306 77.351 44.5106 77.001 44.5706 76.761C45.0306 76.231 45.7206 75.341 46.3206 74.361C47.5306 74.231 48.8506 74.201 50.1606 74.391H50.1906C49.7506 74.491 49.3906 74.551 49.1806 74.571L49.1706 74.561ZM39.8106 79.531C39.2507 79.771 38.6507 79.811 38.2006 79.641C37.0106 79.191 36.2706 78.291 35.4606 76.981C35.1906 76.481 35.2006 74.431 35.2106 73.331C35.2106 71.731 35.2106 70.721 34.9706 69.991C34.8307 69.571 34.6507 69.121 34.4706 68.651C34.1106 67.721 33.7306 66.761 33.5406 65.741C33.3906 64.961 33.1606 64.321 32.9506 63.761C32.6706 63.001 32.4606 62.441 32.5106 61.661C32.5606 60.861 32.3706 59.941 32.1806 58.961C32.0406 58.261 31.6106 56.141 31.9506 55.861C32.5306 55.391 35.5006 55.021 38.4806 55.021H39.0306C39.1806 55.021 39.3506 55.001 39.5106 54.951C41.1006 54.451 42.7407 54.031 43.8106 53.831C44.0306 56.211 46.1306 57.971 47.7106 58.801C48.2306 59.381 48.8406 60.371 48.8806 61.921C48.9506 64.491 45.9406 68.801 44.7706 70.241C44.5506 70.511 44.4406 70.841 44.4406 71.181C44.4406 71.901 43.1906 73.791 42.0706 75.051C41.8806 75.261 41.7606 75.521 41.7106 75.801C41.7106 75.811 41.5106 76.971 40.9406 78.491C40.7906 78.901 40.3707 79.281 39.8307 79.511L39.8106 79.531ZM17.5006 56.331C17.5006 56.061 17.5306 55.791 17.5906 55.521C18.6706 57.081 20.5206 58.141 22.5006 58.201C24.5906 58.261 27.0206 57.661 28.8506 57.081C28.9106 57.921 29.0806 58.771 29.2306 59.551C29.2506 59.631 29.2606 59.711 29.2806 59.791C26.6306 60.661 22.2506 61.501 19.0706 59.011C18.0306 58.201 17.5306 57.321 17.5106 56.331H17.5006ZM54.0906 50.971C55.9606 49.041 55.8706 47.431 55.4506 46.411C56.2906 46.591 57.0006 46.891 57.4106 47.391C58.1507 48.301 57.7206 49.941 57.2306 51.161C55.4606 55.541 50.3806 56.031 49.0006 56.091C48.4206 55.751 47.1406 54.891 46.8506 53.811C49.0106 53.351 52.7306 52.381 54.1006 50.971H54.0906ZM98.3106 67.591C97.4706 68.871 97.2707 69.991 97.3307 70.861C96.9407 68.571 95.7406 66.101 94.3406 63.851C94.6406 63.591 94.9806 63.391 95.3506 63.271C96.6706 62.871 98.2206 63.461 98.6507 63.701C99.2406 64.031 99.3407 64.391 99.3606 64.511C99.4606 64.901 99.4507 65.821 98.3007 67.591H98.3106Z" fill="#67787F"/>
</g>
<defs>
<clipPath id="clip0_1218_3710">
<rect width="130" height="130" fill="white"/>
</clipPath>
</defs>
</svg>
