<svg width="130" height="130" viewBox="0 0 130 130" fill="none" xmlns="http://www.w3.org/2000/svg">
<g clip-path="url(#clip0_1218_3715)">
<path d="M16.5056 61.6042L17.6656 61.9142C17.8856 63.2542 18.4256 65.2342 19.7256 66.0742C19.8456 66.1542 19.9656 66.2642 20.1156 66.3842C21.5156 67.5642 24.2156 69.8342 31.7656 68.9842C31.0356 71.4142 30.8356 74.4842 31.9356 78.2242C35.0656 88.8642 43.3856 91.3042 44.5356 91.3042C45.0656 91.3042 45.5556 91.0642 45.8756 90.6442C46.4856 89.8542 46.3756 88.8042 45.8156 86.5042C50.8756 92.5842 58.3656 97.9842 66.1156 98.7642H66.2656C66.7256 98.7642 67.1756 98.5442 67.4556 98.1742C67.7756 97.7642 67.8556 97.2142 67.6656 96.7242C67.5956 96.5442 65.9356 92.2642 62.8056 90.3142C62.2156 89.9542 62.2256 89.9342 62.2556 89.3942C62.3256 88.2142 62.2156 86.8642 60.0856 85.6142C59.6956 85.3842 59.5656 85.2442 59.5456 85.2442C59.5456 85.1742 59.5756 85.0342 59.5856 84.9342C59.8056 83.6342 59.7156 82.2442 57.5356 80.8542C57.4556 80.8042 57.3956 80.7542 57.3256 80.7042C62.1756 82.6442 67.8756 84.0942 73.7956 84.0942C75.7356 84.0942 77.7056 83.9342 79.6756 83.5942C81.7856 83.2242 83.8056 82.6442 85.7556 81.8742C88.8756 84.8142 95.1056 88.7742 106.156 88.9442H106.176C106.526 88.9442 106.856 88.8242 107.126 88.6042C107.356 88.4142 108.496 87.3942 108.186 85.9742C108.046 85.3542 107.676 84.8442 107.066 84.4542C107.066 84.3642 107.066 84.2642 107.046 84.1642C106.966 83.5242 106.676 82.9342 106.166 82.3942C106.376 81.9942 106.506 81.5342 106.486 80.9942C106.426 79.6742 105.436 78.5442 103.536 77.6442C101.206 76.5342 99.0756 74.7142 97.8356 73.5342C98.7756 72.5342 99.6956 71.4742 100.576 70.3342C102.646 68.9942 104.266 67.6442 105.176 66.3842C105.206 66.3542 105.226 66.3142 105.246 66.2742C105.516 65.8142 105.696 65.0342 105.386 64.2142C104.986 63.1842 103.976 62.4442 102.406 61.9842C102.186 61.8542 101.756 61.3042 101.296 60.6642C101.016 60.2742 100.716 59.8442 100.446 59.4542C98.0356 55.9442 93.9956 50.0742 86.4356 46.1442C81.9956 43.8342 76.8856 42.4942 71.2456 42.1542C70.2556 42.0942 69.2756 42.0642 68.3056 42.0542C65.4156 42.0242 62.6756 42.2242 60.1156 42.6542C52.4156 43.9442 47.7456 47.0042 44.3356 49.2342C41.5556 51.0542 40.1556 51.9042 38.8256 51.3442C38.3256 51.1342 37.7556 51.2042 37.3356 51.5342C36.9056 51.8642 36.6856 52.3942 36.7556 52.9242C36.7756 53.0642 36.8256 53.4142 36.9056 53.9042C36.7156 53.8142 36.5256 53.7242 36.3356 53.6042C36.0156 53.4042 35.6556 53.1642 35.2456 52.8842C34.8156 52.5942 34.3256 52.2642 33.7856 51.9242C33.2856 51.6042 32.7456 51.2742 32.1756 50.9542C31.8256 50.7642 31.4756 50.5742 31.1056 50.3842C30.1256 49.9042 29.0856 49.4742 27.9956 49.1942C24.1356 48.1942 20.7856 49.2142 18.0456 52.2442C17.8956 52.4142 14.3756 56.4742 15.4556 60.5442C15.5956 61.0642 16.0056 61.4742 16.5256 61.6142L16.5056 61.6042ZM35.4456 56.5242C35.5156 56.5642 35.5856 56.5942 35.6656 56.6242C35.8356 56.7042 36.0056 56.7742 36.1756 56.8342C36.2456 56.8642 36.3256 56.8942 36.3956 56.9142C36.6056 56.9842 36.8056 57.0442 37.0056 57.1042C37.0356 57.1042 37.0656 57.1242 37.0956 57.1242C37.2756 57.1742 37.4556 57.2042 37.6356 57.2442C37.7956 57.8242 37.9756 58.4142 38.1756 59.0142C36.0656 59.0842 34.1956 59.0842 33.7556 58.9842L33.4656 58.8742C32.9356 58.6842 32.5256 58.5242 29.9156 55.0842C29.0056 53.8842 28.6356 53.0442 28.5156 52.5142C28.5656 52.5342 28.6156 52.5542 28.6656 52.5742C29.0856 52.7442 29.4956 52.9242 29.8856 53.1242C29.9256 53.1442 29.9656 53.1642 30.0056 53.1842C30.3856 53.3842 30.7556 53.5842 31.1156 53.7942C31.1856 53.8342 31.2556 53.8742 31.3256 53.9142C31.6956 54.1342 32.0556 54.3542 32.3856 54.5742C32.4656 54.6242 32.5456 54.6742 32.6256 54.7342C32.9456 54.9442 33.2556 55.1542 33.5456 55.3442C33.9856 55.6442 34.3856 55.9142 34.7256 56.1242C34.9556 56.2742 35.1956 56.3942 35.4256 56.5142L35.4456 56.5242ZM97.9656 61.1542C98.0656 61.2942 98.1456 61.4242 98.2456 61.5542C96.6056 63.1742 93.0056 64.1042 91.7156 64.3242C91.4056 64.3742 91.1056 64.5242 90.8856 64.7542C88.2956 67.4042 82.5956 66.6542 80.6156 66.1442C80.1156 66.0142 79.5656 66.1542 79.1956 66.5242C77.0056 68.6542 72.1356 67.2342 70.4456 66.5042C70.0656 66.3442 69.6356 66.3442 69.2556 66.5042C64.5556 68.5442 59.8456 62.5442 59.7956 62.4842C59.5156 62.1142 59.0756 61.8942 58.6156 61.8942C52.1656 61.8542 50.6656 56.5742 50.6056 56.3542C50.4756 55.8442 50.0956 55.4442 49.5956 55.2942C47.2056 54.5642 45.9356 53.1442 45.3256 52.1842C45.5456 52.0442 45.7656 51.8942 45.9856 51.7542C48.9456 49.8142 52.9356 47.2142 59.1756 45.8942C60.4856 50.5542 65.8556 54.2642 72.4656 54.8142C73.0156 54.8642 73.5656 54.8842 74.1056 54.8842C79.3256 54.8842 83.9956 52.8142 86.3056 49.5042C92.3956 53.0542 95.7256 57.8942 97.9756 61.1642L97.9656 61.1542ZM103.216 83.9042C103.646 84.1442 103.866 84.3342 103.976 84.4542C103.736 84.8042 103.656 85.2442 103.766 85.6742C103.776 85.7342 103.796 85.7842 103.816 85.8442C90.2456 84.8742 85.9256 77.6042 85.7356 77.2642C85.7156 77.2242 85.6856 77.1842 85.6556 77.1442C87.8456 76.4242 90.0456 75.6042 92.1456 74.7042C92.0556 74.7842 91.9556 74.8542 91.8656 74.9342L94.2156 73.9642C94.2756 74.1142 94.3556 74.2742 94.4756 74.4042C94.6156 74.5642 98.0656 78.3642 102.256 80.3642C102.986 80.7142 103.306 80.9842 103.436 81.1242C103.376 81.1942 103.286 81.2742 103.216 81.3142C102.756 81.5842 102.476 82.0842 102.476 82.6242C102.476 83.1642 102.776 83.6542 103.236 83.9142L103.216 83.9042ZM56.5756 77.1642C56.4456 75.9942 55.9956 74.6642 54.4356 73.5542C53.7656 73.0742 52.8256 73.2342 52.3456 73.9142C51.8656 74.5942 52.0256 75.5242 52.7056 76.0042C53.6256 76.6542 53.6556 77.2042 53.6356 78.5142C53.6156 79.8642 53.5856 81.9142 55.8956 83.3942C56.5656 83.8242 56.6556 84.0542 56.6556 84.0542C56.6656 84.1042 56.6356 84.3042 56.6056 84.4342C56.3856 85.6842 56.4756 87.0042 58.5456 88.2142C59.2756 88.6442 59.2656 88.7042 59.2356 89.2342C59.1856 90.0542 59.1056 91.5742 61.2056 92.8742C62.1156 93.4442 62.8856 94.3442 63.4756 95.2242C53.1156 92.3842 43.3756 80.6442 42.5056 73.8342C42.2156 71.5442 42.5056 69.9042 43.3256 69.1142C44.1756 68.2942 45.5156 68.5042 45.5656 68.5142C46.3156 68.6542 47.0356 68.2042 47.2656 67.4942C49.2356 68.5042 51.1256 69.5542 52.0656 70.7542C54.5756 73.9242 61.9756 79.1842 71.1656 79.7942C71.5056 79.8142 71.8656 79.8242 72.2356 79.8242C75.1756 79.8242 78.9656 79.1242 82.9356 77.9942C82.9356 78.2442 82.9856 78.5042 83.1156 78.7342C83.1456 78.7942 83.3056 79.0742 83.6056 79.4842C82.1556 79.9942 80.6656 80.3842 79.1356 80.6542C70.9956 82.0842 62.8756 79.9842 56.5856 77.1742L56.5756 77.1642ZM42.1656 84.2542C42.2356 84.7342 42.4156 85.4342 42.6256 86.2542C42.7256 86.6542 42.8756 87.2142 42.9956 87.7442C40.6556 86.6142 36.6256 83.6542 34.7856 77.3842C33.6456 73.5042 34.2056 70.5442 35.1656 68.4442C35.2156 68.4442 35.2556 68.4342 35.2956 68.4242C35.6656 68.4842 37.0156 68.7742 39.5756 70.1942C39.3456 71.3542 39.3156 72.6942 39.5156 74.2242C39.8156 76.5542 40.9056 79.2842 42.5956 82.0642C42.2656 82.8242 42.0556 83.5442 42.1656 84.2642V84.2542ZM40.0556 54.5142C40.9456 54.4442 41.8156 54.1342 42.7156 53.6942C43.5356 55.0142 45.1156 56.8342 47.9356 57.9042C48.9456 60.5742 51.9456 64.5442 57.8656 64.8742C59.3656 66.5942 64.2356 71.4442 69.8356 69.4942C70.9056 69.8942 73.2656 70.6342 75.7356 70.6342C77.4356 70.6342 79.1956 70.2842 80.6256 69.2242C82.8056 69.6542 88.9756 70.5142 92.6556 67.1942C94.0356 66.9242 97.7456 66.0142 100.066 63.9342C100.506 64.3742 100.946 64.6842 101.436 64.8342C101.836 64.9542 102.106 65.0642 102.286 65.1642C97.7156 70.2242 79.1256 77.3142 71.3356 76.7842C63.5556 76.2642 56.7456 71.8542 54.3956 68.8842C52.8756 66.9542 50.1656 65.5942 47.5556 64.2842C45.7056 63.3542 43.7956 62.3942 42.8056 61.4342C41.5556 60.2142 40.5856 57.0842 40.0556 54.5242V54.5142ZM62.6556 45.3342C62.9456 45.3042 63.2456 45.2742 63.5456 45.2442C64.0456 45.1942 64.5556 45.1642 65.0656 45.1342C65.3656 45.1142 65.6756 45.1042 65.9856 45.0842C66.5356 45.0642 67.0956 45.0542 67.6556 45.0542H68.4856C69.3256 45.0642 70.1856 45.0942 71.0556 45.1442C71.6756 45.1842 72.2856 45.2342 72.8856 45.2942C73.0856 45.3142 73.2756 45.3442 73.4656 45.3642C73.8756 45.4142 74.2756 45.4642 74.6756 45.5242C74.9056 45.5542 75.1256 45.5942 75.3456 45.6342C75.7056 45.6942 76.0656 45.7542 76.4156 45.8242C76.6456 45.8742 76.8756 45.9242 77.1056 45.9742C77.4456 46.0442 77.7856 46.1242 78.1156 46.2142C78.3456 46.2742 78.5656 46.3342 78.7956 46.3942C79.1256 46.4842 79.4556 46.5842 79.7856 46.6842C79.9956 46.7542 80.2156 46.8142 80.4256 46.8842C80.7656 46.9942 81.1056 47.1142 81.4356 47.2342C81.6256 47.3042 81.8156 47.3642 82.0056 47.4442C82.3956 47.5942 82.7756 47.7542 83.1556 47.9242C83.2756 47.9742 83.4056 48.0242 83.5256 48.0842C83.5456 48.0842 83.5656 48.1042 83.5856 48.1142C81.5456 50.6842 77.2556 52.2042 72.6856 51.8242C67.5656 51.3942 63.2656 48.6942 62.1256 45.4142C62.3056 45.3942 62.4756 45.3642 62.6556 45.3442V45.3342ZM25.4656 51.8342C25.3756 53.2742 26.0556 54.9742 27.5156 56.8942C30.3856 60.6842 31.1356 61.2142 32.4256 61.6842L32.6256 61.7642C33.1156 61.9642 34.2356 62.0642 35.9856 62.0642C36.9556 62.0642 38.1456 62.0342 39.5056 61.9742C39.8656 62.5842 40.2656 63.1342 40.7156 63.5642C41.5056 64.3342 42.5356 65.0042 43.6956 65.6442C42.8756 65.8342 42.0156 66.2142 41.2756 66.9042C41.1056 67.0642 40.9556 67.2442 40.8056 67.4242C37.4256 65.5742 35.7156 65.4042 35.2256 65.4042H35.1656C35.0756 65.4042 34.9856 65.4142 34.9056 65.4342C25.8656 67.3242 23.2756 65.1442 22.0356 64.0942C21.7756 63.8742 21.5556 63.6942 21.3556 63.5642C21.0256 63.2942 20.6156 61.8542 20.5056 60.6042C20.4556 59.9742 20.0056 59.4342 19.3956 59.2742L18.2156 58.9642C18.1956 57.0542 19.6256 54.9542 20.2556 54.2442C21.7956 52.5442 23.4856 51.7642 25.4656 51.8442V51.8342Z" fill="#67787F"/>
</g>
<defs>
<clipPath id="clip0_1218_3715">
<rect width="130" height="130" fill="white"/>
</clipPath>
</defs>
</svg>
