<svg width="130" height="130" viewBox="0 0 130 130" fill="none" xmlns="http://www.w3.org/2000/svg">
<g clip-path="url(#clip0_1218_3611)">
<path d="M103.259 55.7801C102.599 53.7001 101.019 51.6501 98.6089 49.8301C93.7489 46.1501 85.5889 43.5801 79.4089 45.7901C70.7789 48.8601 59.7289 48.3101 59.6189 48.3001C57.2689 48.1601 55.0589 47.9301 52.9589 47.6201C52.9289 46.9701 52.7889 46.4001 52.6089 45.9401C50.6289 40.8701 40.8789 38.4701 38.9389 38.0401C37.8589 37.8001 35.6689 36.4201 33.7289 35.1901C33.1789 34.8401 32.6389 34.5101 32.1089 34.1801C31.7989 33.2201 31.4789 32.5801 31.4489 32.5001C31.1089 31.8101 30.2989 31.5001 29.5789 31.7701C29.2089 31.9101 28.8789 32.0501 28.5589 32.2001C27.1189 31.5201 25.7989 31.1301 24.7089 31.2901C22.7789 31.5701 21.5089 33.4201 20.6889 35.4801C19.8789 34.9401 18.9489 34.4601 17.9189 34.2001C17.1289 33.9901 16.3289 34.4601 16.1089 35.2401C16.0589 35.4101 15.0989 38.9701 17.4489 41.7801C16.8689 43.3101 16.7289 44.9701 16.6189 46.3401C16.5589 47.0801 16.5089 47.7901 16.3889 48.2001C16.2789 48.6001 16.1789 49.0101 16.0789 49.4201C15.9189 50.0601 15.7589 50.7201 15.5489 51.3901C15.2389 52.4001 14.8489 53.3001 14.3289 54.2201C13.4989 55.7001 13.3889 57.3101 13.9989 58.7401C14.6089 60.1801 15.9089 61.2801 17.4489 61.6801C17.8989 61.8001 18.2989 61.8501 18.6489 61.8501C19.8689 61.8501 20.4989 61.2001 20.9989 60.5601C21.1989 60.3001 21.3389 60.1301 21.6189 59.9801C22.4789 59.5201 22.7789 59.0001 22.9889 58.5501C23.0089 58.5201 23.0189 58.4901 23.0289 58.4701C23.0289 58.4701 23.1089 58.3901 23.3789 58.2501C23.8989 57.9901 24.7289 57.7001 25.8689 57.3801C26.3689 57.2401 26.8289 57.0601 27.2689 56.8501C29.4789 61.7201 35.6289 67.7501 40.3089 71.8801C40.4289 74.1501 40.5389 76.3702 40.5389 77.2901C40.5389 79.7802 42.8389 89.1801 43.3989 90.9701L43.5789 91.5301C44.2289 93.5401 44.6489 95.1701 43.6689 96.3801C43.2189 96.9301 42.7589 97.4501 42.3289 97.9201C40.8489 99.5601 39.5689 100.98 40.0389 102.66C40.2189 103.31 40.8089 103.76 41.4889 103.76H47.6289C48.4189 103.76 49.0789 103.14 49.1289 102.35C49.1689 101.73 49.3989 100.52 49.8689 99.9101C50.4989 99.0801 52.4689 96.1501 51.2389 93.0401C51.0689 92.6101 51.0889 91.5302 51.2389 90.1902C51.9289 91.9302 52.7089 94.0501 52.6789 94.7801C51.7489 96.4301 50.8889 100.5 50.7289 101.32C50.6389 101.76 50.7489 102.22 51.0389 102.57C51.3289 102.92 51.7489 103.12 52.1989 103.12H57.6389C58.2089 103.12 58.7289 102.79 58.9789 102.28C59.2289 101.77 59.1689 101.15 58.8189 100.7C58.7689 100.63 58.7089 100.53 58.6689 100.44C61.1189 99.0301 62.8689 95.2802 59.8989 89.1602C57.6289 84.4902 56.9489 79.3602 56.7389 76.5502C72.7189 81.8102 80.6789 76.2601 83.6689 73.1301C85.1189 76.7901 86.5089 85.7901 86.4089 88.7701C86.3089 91.5601 83.7089 95.9001 82.2089 96.9401C79.9189 98.5001 79.2589 100.99 79.1989 101.27C79.0889 101.72 79.1989 102.19 79.4789 102.55C79.7589 102.91 80.1989 103.12 80.6589 103.12H87.1989C88.0289 103.12 88.6989 102.45 88.6989 101.62V101.08C89.7489 100.22 91.7189 98.2801 92.5089 95.3401C93.0189 93.4301 94.2289 90.9701 95.1989 89.0001C95.3689 88.6502 95.5289 88.3201 95.6889 88.0001C96.4689 89.5701 96.0689 94.1601 94.9589 96.2601C94.3889 97.3201 93.1489 100.47 93.0089 100.83C92.8289 101.29 92.8889 101.81 93.1689 102.22C93.4489 102.63 93.9089 102.88 94.4089 102.88H99.3589C100.139 102.88 100.789 102.28 100.859 101.5L100.929 100.65C101.029 100.54 101.209 100.37 101.329 100.25C102.079 99.5301 103.649 98.0401 102.689 95.8701C102.309 95.0201 102.749 92.0301 103.399 89.7801C103.439 89.6501 103.459 89.5201 103.459 89.3901C103.469 88.5701 103.519 81.2901 100.919 78.3901C99.7889 77.1301 98.5889 74.4301 97.7289 72.2101C98.2489 71.2201 98.8389 70.2201 99.4489 69.2001C99.5489 69.0301 99.6489 68.8601 99.7489 68.6902C100.489 69.7901 100.889 70.5802 100.709 71.3601C100.329 73.0901 100.539 74.4501 101.339 75.4201C102.259 76.5301 103.579 76.6001 103.909 76.6001H103.969C104.569 76.5801 105.089 76.2102 105.309 75.6502C109.119 65.9801 103.709 56.3601 103.469 55.9601C103.429 55.8901 103.359 55.8301 103.299 55.7701L103.259 55.7801ZM103.549 69.7801C103.229 68.5101 102.449 67.4001 101.739 66.3801C101.599 66.1801 101.459 65.9801 101.339 65.7901C101.889 64.7301 102.389 63.6301 102.779 62.4701C103.339 64.5401 103.759 67.0901 103.559 69.7801H103.549ZM99.8889 97.1001C99.9589 97.2601 99.9989 97.3401 99.2089 98.1001C98.7289 98.5601 98.1389 99.1201 97.9489 99.9001H96.5789C96.9489 99.0001 97.3389 98.1002 97.5589 97.6901C99.0889 94.8201 99.6789 88.9101 98.1689 86.3601C97.8689 85.8502 97.4089 85.2302 96.8889 84.5802C96.9289 83.8102 96.6989 83.1402 96.4689 82.4802C96.0689 81.3402 95.5189 79.7801 96.1089 76.4201C96.1089 76.3801 96.1289 76.3402 96.1389 76.3002C96.8789 77.8702 97.7289 79.4002 98.6289 80.4002C99.9689 81.8902 100.419 86.4702 100.409 89.1602C99.9789 90.7002 98.9489 94.9401 99.8989 97.0901L99.8889 97.1001ZM85.6689 100.14H83.0789C83.2989 99.8901 83.5589 99.6401 83.8689 99.4301C86.1789 97.8301 89.2389 92.5501 89.3689 88.8901C89.4689 86.0001 87.8689 72.3801 84.8589 69.5301C84.8389 69.5101 84.8189 69.4902 84.7989 69.4701C84.7889 69.4602 84.7689 69.4401 84.7589 69.4301C84.7389 69.4101 84.7089 69.4001 84.6889 69.3801C84.6589 69.3601 84.6289 69.3301 84.5989 69.3101C82.2289 67.7901 81.5989 65.6501 81.5689 65.5301C81.3589 64.7401 80.5389 64.2602 79.7389 64.4701C78.9389 64.6801 78.4589 65.5002 78.6689 66.3002C78.6989 66.4202 79.3489 68.8001 81.6889 70.8501C80.3889 72.2901 77.4389 74.7701 72.1189 75.5102C72.7689 72.5102 73.3989 67.0401 70.4689 63.4301C68.8589 61.4501 68.3889 56.4401 68.3389 54.6801C68.3189 54.0501 67.9089 53.5001 67.3189 53.3001C66.7189 53.1001 66.0589 53.3001 65.6689 53.7901C65.4189 54.1101 59.4989 61.6302 63.3189 66.3702C65.1089 68.6002 64.9889 72.8702 64.6489 75.4002C62.6289 75.1002 60.4089 74.5901 57.9589 73.8101C59.0489 72.6901 60.1589 71.3401 60.3989 70.3201C60.5889 69.5101 60.0889 68.7001 59.2789 68.5102C58.4689 68.3302 57.6689 68.8202 57.4789 69.6202C57.2989 70.1702 55.7389 71.8801 54.1389 73.2901C54.1089 73.3102 54.0889 73.3402 54.0689 73.3702C54.0389 73.4002 54.0089 73.4301 53.9889 73.4601C53.9389 73.5201 53.8989 73.5802 53.8589 73.6502C53.8389 73.6801 53.8189 73.7002 53.8089 73.7302C53.7589 73.8302 53.7189 73.9301 53.6889 74.0401V74.0502C53.6589 74.1502 53.6489 74.2602 53.6489 74.3601V74.3901C53.6489 74.7401 53.5689 82.9802 57.1989 90.4802C59.2889 94.8002 58.4589 97.1601 57.1089 97.8801C56.3289 98.2901 55.8189 98.9501 55.6589 99.7401C55.6289 99.8701 55.6189 100.01 55.6089 100.14H54.0789C54.4689 98.5301 54.9589 96.8201 55.3289 96.2401C56.2489 94.7601 55.3089 92.2601 53.5889 87.9501C52.9789 86.4301 52.3489 84.8601 52.0889 83.8501C51.6489 82.1601 50.8189 80.5501 50.0189 79.0001C49.2889 77.5802 48.5889 76.2301 48.3289 75.0601C48.2989 74.9101 48.2289 74.7701 48.1489 74.6301C48.1389 74.6101 48.1189 74.5801 48.1089 74.5601C48.0989 74.5401 48.0889 74.5201 48.0789 74.5102C47.3589 73.5102 47.9789 71.3302 48.3989 70.4301C48.7489 69.6801 48.4189 68.7901 47.6789 68.4402C46.9289 68.0902 46.0389 68.4102 45.6889 69.1602C45.5889 69.3802 45.1089 70.4601 44.8789 71.8201C44.5589 71.5501 44.2289 71.2602 43.8889 70.9701C42.6089 66.7701 45.3089 59.9601 46.4889 57.6301C46.7789 57.0701 46.6789 56.3801 46.2489 55.9201C45.8189 55.4601 45.1389 55.3201 44.5589 55.5701C39.4389 57.7701 37.3589 61.3101 36.7189 64.2801C33.5189 61.0001 30.7289 57.6001 29.7889 55.0101C31.8989 52.6301 31.8189 49.6201 31.8089 49.4801C31.7789 48.6601 31.0789 48.0301 30.2689 48.0401C29.4489 48.0601 28.7989 48.7501 28.8089 49.5801C28.8089 49.6001 28.8389 51.9301 27.1389 53.4201C27.1289 53.4301 27.1089 53.4401 27.0989 53.4601C26.5689 53.9201 25.8889 54.2701 25.0889 54.5001C24.2689 54.7301 23.5889 54.9501 23.0089 55.1701C22.5589 54.8401 22.1089 54.5701 21.7289 54.3801C21.8889 53.3401 22.0789 51.9501 21.3089 50.9501C20.9189 50.4501 20.3489 50.1301 19.6889 50.0601C19.4689 50.0401 19.2589 50.0401 19.0389 50.0401C19.1289 49.6801 19.2089 49.3301 19.3089 48.9801C19.4989 48.2901 19.5589 47.4901 19.6389 46.5601C19.7889 44.6801 19.9689 42.3501 21.3489 41.2501C22.1489 40.6101 22.8789 40.0801 23.6389 39.7701C23.9189 40.4301 24.6289 40.7901 25.3389 40.6301C26.1289 40.4501 26.6289 39.6501 26.4789 38.8501C26.4589 38.7601 26.1189 36.8101 29.3189 35.1601C29.8089 36.6901 30.2989 39.2001 28.9689 40.9001C28.4589 41.5501 28.5689 42.5001 29.2289 43.0101C29.4989 43.2201 29.8289 43.3301 30.1489 43.3301C30.5989 43.3301 31.0389 43.1301 31.3289 42.7501C31.3589 42.7201 31.3689 42.6801 31.3989 42.6501C33.6589 44.1401 35.9089 45.3601 38.1289 46.3801C36.7189 48.3101 34.7989 51.7901 35.2089 56.0801C35.2689 56.7401 35.7589 57.2701 36.3989 57.4001C36.4989 57.4201 36.5989 57.4301 36.6989 57.4301C37.2389 57.4301 37.7489 57.1401 38.0089 56.6501C38.0489 56.5901 41.5389 50.3701 46.6289 49.3801C49.3289 50.0801 51.9289 50.5301 54.3889 50.8301C53.3789 53.7501 51.4589 60.2402 51.9689 66.0401C52.0289 66.7402 52.5689 67.3002 53.2689 67.4002C53.3389 67.4002 53.3989 67.4102 53.4689 67.4102C54.0889 67.4102 54.6589 67.0201 54.8789 66.4301C56.1789 62.9101 60.2989 53.5001 64.0489 51.3101C67.2889 51.2201 71.8289 50.8701 76.3289 49.8101C75.5889 52.1001 74.7789 55.5301 74.8989 59.2701C74.9189 59.9401 75.3889 60.5201 76.0389 60.6801C76.1589 60.7101 76.2789 60.7201 76.3989 60.7201C76.9289 60.7201 77.4389 60.4401 77.7089 59.9601C79.8989 56.0701 84.1589 49.6201 86.6689 48.1201C90.4189 48.6001 94.2389 50.2601 96.8489 52.2301C99.3989 54.1601 100.789 56.3401 100.669 58.2101C100.489 60.9601 99.3089 63.4301 97.9689 65.8101C96.9789 63.7401 95.3889 61.1501 93.1389 59.8601C90.5889 58.4001 90.8689 54.1401 90.8689 54.1001C90.9189 53.4601 90.5589 52.8601 89.9589 52.6001C89.3689 52.3501 88.6789 52.5001 88.2489 52.9801C87.9289 53.3401 85.0989 56.6201 85.6489 59.5101C86.1289 62.0201 87.8489 64.5102 90.2889 67.4701C91.9289 69.4701 93.1989 73.1501 93.5889 74.3801C93.4389 74.8901 93.2989 75.4001 93.2089 75.9201C92.4789 80.0601 93.2089 82.1301 93.6889 83.5001C93.8989 84.1101 93.9789 84.3702 93.9389 84.5502C93.7789 85.1302 93.1689 86.3801 92.5189 87.7101C91.4889 89.8001 90.2089 92.4001 89.6189 94.6001C88.8489 97.4701 86.4189 99.0901 86.3989 99.1001C86.0289 99.3401 85.7889 99.7201 85.7289 100.15L85.6689 100.14ZM65.6289 64.4901C64.5789 63.1801 64.9889 61.1501 65.7989 59.3101C66.1889 61.4301 66.8789 63.8102 68.1189 65.3302C70.5289 68.3002 69.5189 73.5702 68.9589 75.7302C68.5189 75.7302 68.0689 75.7301 67.5989 75.7001C67.9489 73.0001 68.2189 67.7201 65.6289 64.5001V64.4901ZM48.4189 94.1602C48.9389 95.4702 48.2689 97.0501 47.4589 98.1001C46.8289 98.9201 46.4989 99.9501 46.3089 100.78H43.7889C44.0389 100.49 44.2989 100.2 44.5289 99.9501C44.9889 99.4401 45.4889 98.8801 45.9689 98.2901C48.0589 95.7101 47.0289 92.5302 46.4089 90.6202L46.2389 90.0901C45.5789 87.9701 43.5189 79.2002 43.5189 77.3002C43.5189 76.7402 43.4789 75.7602 43.4289 74.5802C44.3089 75.3102 45.0289 75.8901 45.4889 76.2501C45.8889 77.6301 46.6089 79.0202 47.2989 80.3702C48.0289 81.7802 48.7789 83.2401 49.1289 84.6001C49.1289 84.6301 49.1489 84.6702 49.1589 84.6902C48.2589 88.3002 47.7589 92.5302 48.4089 94.1602H48.4189ZM39.4689 67.0301C39.3789 65.9801 39.4189 63.2101 41.9289 60.7601C41.2189 62.8701 40.5689 65.4701 40.4989 68.0001C40.1589 67.6801 39.8089 67.3601 39.4689 67.0401V67.0301ZM38.2789 40.9601C42.3089 41.8601 48.7089 44.2101 49.8089 47.0301C49.8089 47.0401 49.8089 47.0601 49.8189 47.0701C48.8589 46.8701 47.9289 46.6601 47.0089 46.4201C46.9889 46.4201 46.9589 46.4101 46.9389 46.4001C44.9189 45.8701 42.9889 45.2301 41.1289 44.4701C41.0889 44.4501 41.0489 44.4401 41.0089 44.4201C38.0689 43.2101 35.2889 41.7101 32.5889 39.8701C32.7089 39.2901 32.7689 38.7001 32.7689 38.1201C34.9489 39.4901 36.8389 40.6301 38.2889 40.9501L38.2789 40.9601ZM40.9389 47.5901C41.3289 47.7401 41.7089 47.8801 42.0889 48.0201C41.0389 48.6601 40.0889 49.4201 39.2689 50.2101C39.8289 49.0601 40.4789 48.1601 40.9389 47.5901ZM16.9389 55.6801C17.4189 54.8301 17.8089 53.9901 18.1289 53.0901C18.3689 53.0501 18.6089 53.0301 18.8289 53.0201C18.8089 53.3501 18.7489 53.7701 18.7089 54.0101C18.5789 54.8601 18.4389 55.7301 19.1589 56.3801C19.3789 56.5801 19.6189 56.7001 19.9589 56.8601C20.0889 56.9201 20.2289 56.9901 20.3889 57.0701C20.3589 57.1301 20.3289 57.2001 20.2989 57.2601C20.2689 57.2801 20.2389 57.3001 20.2089 57.3201C19.3589 57.7701 18.9189 58.3301 18.6289 58.7101C18.5989 58.7501 18.5689 58.7901 18.5389 58.8301C18.4689 58.8301 18.3689 58.8001 18.2189 58.7601C17.5689 58.5901 17.0089 58.1201 16.7589 57.5401C16.5189 56.9701 16.5789 56.3401 16.9489 55.6701L16.9389 55.6801ZM23.8089 36.5601C23.6889 36.5801 23.5789 36.6001 23.4589 36.6301C23.9989 35.2501 24.6089 34.3101 25.1189 34.2301C25.1889 34.2201 25.2889 34.2401 25.3789 34.2501C24.5889 35.0301 24.0889 35.8201 23.8089 36.5501V36.5601ZM19.4189 38.9001C19.3589 38.9501 19.3089 39.0101 19.2489 39.0701C19.0589 38.6601 18.9489 38.2501 18.8889 37.8701C19.2289 38.0901 19.5389 38.3301 19.8289 38.5801C19.6889 38.6901 19.5489 38.7901 19.4189 38.9001ZM79.8289 48.8101C80.0189 48.7501 80.2189 48.6801 80.4089 48.6101C80.9589 48.4101 81.5389 48.2701 82.1289 48.1701C80.8689 49.5801 79.6289 51.2601 78.5389 52.8601C78.9889 51.0001 79.5289 49.5601 79.8389 48.8101H79.8289ZM57.4089 51.1501C58.0889 51.2101 58.7589 51.2601 59.4189 51.2901H59.5789C58.1189 53.0001 56.7789 55.1501 55.6489 57.2701C56.2389 54.5501 57.0089 52.2601 57.4089 51.1301V51.1501ZM92.5389 65.5502C90.3889 62.9402 88.8889 60.8201 88.5289 58.9401C88.5089 58.8601 88.5089 58.7601 88.5089 58.6701C89.0489 60.1001 89.9789 61.5401 91.5789 62.4501C93.6989 63.6601 95.3289 67.1801 95.9989 69.0301C95.7389 69.4701 95.4889 69.9202 95.2389 70.3702C94.5589 68.7402 93.6389 66.8902 92.5289 65.5502H92.5389Z" fill="#67787F"/>
</g>
<defs>
<clipPath id="clip0_1218_3611">
<rect width="130" height="130" fill="white"/>
</clipPath>
</defs>
</svg>
